<svg width="107" height="20" viewBox="0 0 107 20" fill="none" xmlns="http://www.w3.org/2000/svg">
<path d="M12.486 0.333378C9.03597 0.331294 5.43635 1.23752 1.80324 2.413C1.3419 2.52133 0.891724 2.8734 0.653685 3.3088C0.43485 3.71921 0.355354 4.13117 0.287024 4.56293C-0.0657917 6.86911 -0.0229178 9.13362 0.050325 11.6429C0.0664027 12.2174 0.139645 12.8981 0.369646 13.3121C0.609918 13.7303 1.02169 13.996 1.51339 14.0829C2.14159 14.1904 2.77175 14.2816 3.40342 14.3564L3.26408 18.8864C3.24264 19.2468 3.39359 19.5463 3.58116 19.7187C3.74909 19.8676 3.93621 19.9338 4.12825 19.9505C4.51233 19.9843 4.96295 19.7927 5.1867 19.2958C6.16699 17.0959 6.78196 16.1245 8.00789 14.6631C11.2047 14.7548 13.9955 14.5475 17.1552 14.2751C18.2722 14.2413 19.039 13.1762 19.2417 12.3257C19.8478 10.1216 19.942 7.40086 20.0063 4.65043C20.0336 3.56036 19.7093 2.49008 19.1354 1.92447C18.5897 1.40834 17.9287 1.22137 17.3231 1.02971C15.6408 0.585453 13.958 0.346919 12.486 0.333378ZM17.0815 2.05728C17.688 2.24946 18.2226 2.43435 18.5598 2.75361C19.1225 3.45099 19.1037 3.91503 19.0957 4.66761C19.0323 7.33524 18.9224 9.92422 18.4061 11.8861C18.1837 12.6179 17.7961 13.1387 17.0636 13.2173C13.8445 13.4949 11.0515 13.7095 7.81585 13.6022C7.75285 13.5999 7.6901 13.6126 7.63149 13.6397C7.57288 13.6667 7.51965 13.7075 7.47509 13.7595C6.11563 15.3605 5.42027 16.473 4.38416 18.7989C4.36004 18.8521 4.30779 18.8843 4.24348 18.8901C4.20015 18.8875 4.18274 18.8484 4.18006 18.813L4.32029 13.9007C4.32878 13.6356 4.1412 13.3824 3.91522 13.3538C3.15962 13.2696 2.40609 13.162 1.65541 13.0309C1.33118 12.9731 1.21149 12.8694 1.12262 12.7153C0.968093 12.2856 0.971666 12.02 0.959608 11.607C0.887258 9.12008 0.85153 6.94671 1.17889 4.78428C1.20926 4.4645 1.31198 4.13742 1.42095 3.86399C1.60138 3.53484 1.87782 3.4864 2.15516 3.39682C5.70833 2.25259 9.18468 1.39689 12.4574 1.39428C14.0616 1.46199 15.7462 1.64948 17.0815 2.05728ZM4.80932 6.27069C4.31984 6.95452 4.36852 7.88314 4.7468 8.50499C4.94419 8.8305 5.25235 9.09247 5.6275 9.15185C6.11474 9.19872 6.42379 8.96852 6.7574 8.70394C7.36165 8.09146 7.42284 7.02275 6.96328 6.2509C6.72926 5.85768 6.35501 5.62175 5.97272 5.60508C5.4493 5.61133 5.09381 5.88372 4.80932 6.27017V6.27069ZM10.1042 5.71237C9.61655 5.7306 9.2222 6.12434 8.98148 6.54933C8.70593 7.03525 8.54515 7.64356 8.768 8.2399C9.19674 9.38726 10.6781 9.37319 11.269 8.20709C11.5414 7.6696 11.4717 7.05868 11.269 6.61547C11.0671 6.17277 10.7616 5.81185 10.3173 5.72904C10.2469 5.71554 10.1755 5.70996 10.1042 5.71237ZM14.4028 5.82018C14.2509 5.81602 14.0946 5.83268 13.9481 5.87799C13.3622 6.06028 12.8633 6.76546 12.9388 7.66804C12.9772 8.12219 13.1563 8.56489 13.4792 8.87008C13.8021 9.17476 14.271 9.31122 14.7654 9.19299C15.3335 9.05758 15.6854 8.52374 15.8029 8.00813C15.9203 7.49252 15.8909 6.96702 15.618 6.54099C15.476 6.32082 15.2928 6.14142 15.0822 6.01649C14.8717 5.89156 14.6394 5.82441 14.4032 5.82018H14.4028ZM5.93297 6.66547C6.04239 6.66651 6.12858 6.70713 6.21746 6.85609C6.4162 7.19045 6.36082 7.69721 6.16029 7.90032C5.96066 8.10344 5.83606 8.12115 5.74853 8.10761C5.66099 8.09355 5.57212 8.02324 5.49262 7.89199C5.34078 7.642 5.29612 7.23784 5.49575 6.94931C5.60204 6.78473 5.79721 6.68213 5.93342 6.66547H5.93297ZM10.1681 6.78161C10.1851 6.78473 10.3753 6.91338 10.4664 7.11285C10.5575 7.31232 10.5745 7.49773 10.4879 7.66804C10.2302 8.17636 9.6822 8.03886 9.59913 7.81751C9.56787 7.73314 9.59154 7.39409 9.74204 7.13004C9.89166 6.86494 10.0801 6.76546 10.1681 6.78109V6.78161ZM14.886 7.17118C14.9137 7.21441 14.9811 7.5045 14.9289 7.7347C14.8762 7.96491 14.7904 8.10709 14.5805 8.15709C14.3117 8.22167 14.1607 8.15709 14.0477 8.04928C13.9343 7.94251 13.8579 7.76179 13.8414 7.56856C13.8012 7.08941 13.9486 6.97848 14.1826 6.90556C14.455 6.82744 14.7632 6.9639 14.886 7.17118Z" fill="white"/>
<path d="M25.7246 2.47753C25.7318 2.34211 25.7742 2.22024 25.8528 2.11243C25.891 2.05958 25.9391 2.01758 25.9934 1.9896C26.0476 1.96163 26.1066 1.94842 26.1659 1.95098H29.2144C29.3171 1.95098 29.4229 2.00098 29.5323 2.10045C29.5836 2.14338 29.6253 2.20003 29.6539 2.26565C29.6825 2.33126 29.6972 2.40392 29.6967 2.47753V8.15078H34.7973V2.47753C34.7973 2.33378 34.8402 2.21035 34.9255 2.1067C35.0113 2.00254 35.122 1.95046 35.2591 1.95046H38.2665C38.4032 1.95046 38.5229 1.99056 38.6256 2.07025C38.7283 2.15045 38.7797 2.27805 38.7797 2.45357V19.1978C38.7797 19.3733 38.735 19.5051 38.6457 19.5926C38.5573 19.6806 38.4407 19.7244 38.2974 19.7244H35.2591C35.1225 19.7244 35.0113 19.6806 34.9255 19.5926C34.8402 19.5051 34.7973 19.3739 34.7973 19.1978V12.3996H29.6967V19.1978C29.6967 19.3655 29.6502 19.4947 29.5582 19.5869C29.4658 19.6785 29.3407 19.7244 29.1831 19.7244H26.1659C25.8787 19.7244 25.7318 19.5686 25.7246 19.2577V2.47753ZM53.8047 19.5213C53.7159 19.6088 53.6216 19.6645 53.5225 19.6884C53.4299 19.7117 53.3354 19.7239 53.2407 19.7249H51.691C51.5677 19.7249 51.4614 19.6989 51.3725 19.6468C51.2832 19.5947 51.2082 19.5249 51.1466 19.4374C51.0835 19.3465 51.0318 19.2457 50.9929 19.1379C50.9516 19.0253 50.9172 18.9094 50.8902 18.7911L50.5722 17.2588C50.4695 17.5062 50.3208 17.7875 50.1256 18.1026C49.9145 18.4369 49.664 18.735 49.3816 18.9879C49.0806 19.264 48.7211 19.4952 48.3039 19.6827C47.8864 19.8702 47.4076 19.9639 46.8668 19.9639C46.087 19.9639 45.3787 19.7884 44.7423 19.4374C44.1192 19.0979 43.5649 18.6084 43.1158 18.001C42.6678 17.3948 42.3204 16.6864 42.0743 15.8761C41.8278 15.0667 41.7045 14.2027 41.7045 13.2855V5.44566C41.7045 5.14254 41.7612 4.91338 41.8742 4.75766C41.9867 4.60194 42.1663 4.52433 42.4128 4.52433H44.7834C45.0781 4.52433 45.2795 4.58162 45.389 4.69777C45.4984 4.81339 45.5533 5.0389 45.5533 5.37379V13.1652C45.5533 13.5089 45.6203 13.8339 45.7534 14.1412C45.8869 14.4485 46.0629 14.7193 46.2822 14.9547C46.501 15.1901 46.7489 15.3761 47.0262 15.5115C47.3031 15.6469 47.5854 15.7146 47.873 15.7146C48.119 15.7146 48.3741 15.6469 48.6375 15.5115C48.9028 15.3743 49.1484 15.1906 49.366 14.9667C49.5884 14.7396 49.7715 14.4719 49.9153 14.1647C50.0591 13.8574 50.1305 13.5324 50.1305 13.1897V5.40972C50.1305 5.27431 50.1529 5.1389 50.1975 5.00297C50.2422 4.86755 50.3087 4.76339 50.3976 4.69152C50.4865 4.62798 50.5704 4.58423 50.649 4.56027C50.7276 4.53631 50.8188 4.52381 50.921 4.52381H53.2407C53.5345 4.52381 53.7467 4.60819 53.8766 4.77537C54.0066 4.94307 54.0718 5.1665 54.0718 5.44566V18.839C54.0718 18.99 54.0428 19.1301 53.9847 19.2577C53.9267 19.3853 53.8463 19.4853 53.7436 19.5567L53.8047 19.5213ZM65.7205 17.8692C65.5356 18.0848 65.332 18.3161 65.11 18.5635C64.8876 18.8109 64.6429 19.0426 64.3763 19.2577C64.1079 19.4742 63.8186 19.653 63.5143 19.7905C63.1965 19.9323 62.8587 20.0033 62.5184 19.9999C61.5881 19.9999 60.7311 19.7968 59.9473 19.3895C59.1833 18.9985 58.4954 18.4304 57.9255 17.7197C57.361 17.0135 56.9198 16.1818 56.6018 15.224C56.2834 14.2667 56.1244 13.2376 56.1244 12.1361C56.1244 11.0267 56.2834 9.99551 56.6018 9.04242C56.9198 8.08932 57.361 7.25914 57.9255 6.55292C58.4947 5.84291 59.1829 5.27673 59.9473 4.88943C60.7311 4.48632 61.5881 4.28476 62.5184 4.28476C62.8949 4.28476 63.2388 4.34882 63.55 4.47642C63.8504 4.59778 64.1365 4.7626 64.4017 4.96703C64.6585 5.1665 64.8943 5.39202 65.11 5.64305C65.3253 5.8946 65.5289 6.13991 65.7205 6.37948V0.909346C65.7205 0.654146 65.7875 0.439049 65.9206 0.263533C66.0541 0.0874972 66.2542 0 66.5213 0H68.8302C68.9195 0 69.0133 0.0218743 69.1125 0.0656229C69.2116 0.109892 69.3023 0.171349 69.3849 0.251554C69.4666 0.331239 69.5332 0.42707 69.5845 0.538525C69.6359 0.6505 69.6618 0.773934 69.6618 0.909346V18.803C69.6618 19.4176 69.3849 19.7249 68.8302 19.7249H66.8187C66.6821 19.7249 66.5758 19.7041 66.5007 19.6645C66.4262 19.6255 66.3609 19.566 66.3105 19.491C66.2533 19.4032 66.2067 19.3067 66.1721 19.2041C66.1237 19.069 66.0724 18.9352 66.0184 18.803L65.7205 17.8692ZM59.8191 12.1361C59.8157 12.6394 59.8869 13.1396 60.0295 13.6147C60.1697 14.073 60.3698 14.4704 60.6302 14.8053C60.893 15.1428 61.2125 15.4137 61.5689 15.6011C61.9351 15.7969 62.3406 15.8943 62.7855 15.8943C63.2231 15.8943 63.6353 15.8026 64.0221 15.6193C64.3977 15.4438 64.7409 15.1857 65.0328 14.8589C65.3228 14.5317 65.5579 14.1441 65.7259 13.7162C65.9001 13.2772 65.9979 12.8064 66.0184 12.3038V12.1361C66.02 11.6352 65.9362 11.139 65.7719 10.6762C65.6128 10.2225 65.3812 9.80826 65.0895 9.45543C64.797 9.103 64.4484 8.82048 64.0632 8.62368C63.6605 8.41798 63.2251 8.31396 62.7855 8.31849C62.3406 8.31849 61.9351 8.42004 61.5689 8.62368C61.2027 8.8268 60.8901 9.1044 60.6302 9.45543C60.366 9.81476 60.1622 10.2289 60.0295 10.6762C59.8885 11.1453 59.8175 11.639 59.8196 12.1361H59.8191ZM81.5776 17.8692C81.3927 18.0848 81.1891 18.3161 80.9666 18.5635C80.7442 18.8109 80.4995 19.0426 80.2329 19.2577C79.9645 19.4742 79.6752 19.653 79.3709 19.7905C79.0531 19.9323 78.7153 20.0033 78.375 19.9999C77.4447 19.9999 76.5877 19.7968 75.8044 19.3895C75.0402 18.9986 74.3522 18.4305 73.7822 17.7197C73.2181 17.0135 72.7764 16.1818 72.4584 15.224C72.1404 14.2667 71.981 13.2376 71.981 12.1361C71.981 11.0267 72.1404 9.99551 72.4584 9.04242C72.7764 8.08932 73.2176 7.25914 73.7822 6.55292C74.3515 5.84285 75.0398 5.27667 75.8044 4.88943C76.5877 4.48632 77.4447 4.28476 78.375 4.28476C78.7515 4.28476 79.0954 4.34882 79.4067 4.47642C79.707 4.59778 79.9932 4.7626 80.2583 4.96703C80.5151 5.1665 80.7509 5.39202 80.9666 5.64305C81.1824 5.8946 81.3856 6.13991 81.5772 6.37948V0.909346C81.5772 0.654146 81.6441 0.439049 81.7772 0.263533C81.9112 0.0874972 82.1108 0 82.3779 0H84.6868C84.7762 0 84.87 0.0218743 84.9691 0.0656229C85.0687 0.109892 85.1594 0.171349 85.2415 0.251554C85.3233 0.331239 85.3902 0.42707 85.4416 0.538525C85.4925 0.6505 85.5184 0.773934 85.5184 0.909346V18.803C85.5184 19.4176 85.2415 19.7249 84.6868 19.7249H82.6754C82.5387 19.7249 82.4324 19.7041 82.3574 19.6645C82.283 19.6254 82.2179 19.5659 82.1676 19.491C82.1104 19.4032 82.0638 19.3067 82.0291 19.2041C81.9806 19.0689 81.9292 18.9352 81.875 18.803L81.5772 17.8692H81.5776ZM75.6757 12.1361C75.6723 12.6394 75.7435 13.1396 75.8861 13.6147C76.0268 14.073 76.2269 14.4704 76.4868 14.8053C76.7497 15.1428 77.0694 15.4137 77.426 15.6011C77.7922 15.7969 78.1973 15.8943 78.6421 15.8943C79.0798 15.8943 79.492 15.8026 79.8787 15.6193C80.2545 15.4439 80.5978 15.1857 80.8898 14.8589C81.1796 14.5316 81.4143 14.144 81.5821 13.7162C81.7567 13.2772 81.8545 12.8064 81.875 12.3038V12.1361C81.8766 11.6352 81.7928 11.139 81.6285 10.6762C81.4694 10.2225 81.2378 9.80826 80.9461 9.45543C80.6536 9.103 80.305 8.82048 79.9198 8.62368C79.5171 8.41798 79.0817 8.31396 78.6421 8.31849C78.1973 8.31849 77.7918 8.42004 77.426 8.62368C77.0598 8.8268 76.7467 9.1044 76.4868 9.45543C76.2226 9.81476 76.0188 10.2289 75.8861 10.6762C75.7451 11.1453 75.6741 11.639 75.6762 12.1361H75.6757ZM88.2489 0.921325C88.2489 0.666125 88.3034 0.451027 88.4128 0.275512C88.5227 0.099476 88.7107 0.0119788 88.9774 0.0119788H91.4917C91.5605 0.0119788 91.6324 0.0338531 91.7074 0.0776017C91.7863 0.124781 91.8575 0.187709 91.9178 0.263533C91.983 0.343218 92.0375 0.439049 92.0821 0.550503C92.1268 0.662479 92.1491 0.785912 92.1491 0.921325V18.803C92.1491 19.1062 92.0754 19.3353 91.9281 19.491C91.7811 19.6468 91.5913 19.7244 91.3586 19.7244H88.9774C88.7107 19.7244 88.5227 19.6462 88.4128 19.491C88.3034 19.3353 88.2489 19.1056 88.2489 18.803V0.921325ZM105.532 17.9052C104.937 18.5462 104.249 19.0589 103.5 19.4192C102.742 19.7836 101.929 19.9688 101.109 19.9639C100.171 19.9639 99.2854 19.7645 98.4507 19.365C97.6349 18.9805 96.8894 18.418 96.2543 17.7078C95.6216 16.9962 95.1128 16.1487 94.7559 15.212C94.3862 14.2548 94.2017 13.2136 94.2017 12.0882C94.2017 11.3861 94.2749 10.7059 94.4223 10.0476C94.5647 9.40349 94.775 8.78245 95.0485 8.1987C95.3187 7.62413 95.6497 7.09135 96.0337 6.61281C96.4166 6.13347 96.8533 5.71668 97.3319 5.37379C97.8189 5.02648 98.3436 4.75674 98.8919 4.57173C99.4689 4.37775 100.067 4.28111 100.667 4.28476C101.235 4.28476 101.786 4.37278 102.32 4.54829C102.853 4.72381 103.355 4.9712 103.823 5.28994C104.292 5.6092 104.721 5.99252 105.111 6.43938C105.496 6.87879 105.834 7.3711 106.117 7.90548C106.398 8.43597 106.617 9.0074 106.769 9.6049C106.923 10.2075 107 10.8278 107 11.4658C107 11.8809 106.995 12.2199 106.984 12.4835C106.974 12.7465 106.921 12.9564 106.825 13.1116C106.729 13.2678 106.571 13.3751 106.348 13.4345C106.126 13.4949 105.799 13.5246 105.368 13.5246H97.9786C98.047 14.035 98.1854 14.462 98.394 14.8058C98.5872 15.1311 98.8329 15.4094 99.1175 15.625C99.3912 15.8287 99.682 15.974 99.9901 16.0625C100.275 16.1468 100.568 16.1908 100.862 16.1938C101.109 16.1938 101.362 16.1635 101.622 16.1042C101.878 16.0455 102.13 15.9655 102.376 15.8646C102.607 15.7712 102.83 15.655 103.043 15.5172C103.245 15.386 103.408 15.248 103.531 15.1047C103.64 15.0006 103.734 14.923 103.813 14.8709C103.892 14.8188 103.976 14.7933 104.064 14.7933C104.154 14.7933 104.244 14.8297 104.337 14.9011C104.449 14.9928 104.554 15.0969 104.65 15.212L105.737 16.6484C105.812 16.7526 105.861 16.8463 105.881 16.9297C105.902 17.0135 105.912 17.0995 105.912 17.187C105.912 17.3468 105.874 17.4843 105.799 17.6C105.723 17.7163 105.633 17.8191 105.532 17.9052H105.532ZM100.596 7.93516C100.329 7.93516 100.071 7.99714 99.8209 8.12057C99.5675 8.24672 99.3307 8.414 99.1175 8.61743C98.8986 8.82472 98.7021 9.06013 98.5275 9.32366C98.3609 9.57212 98.218 9.84107 98.1014 10.1257H103.346C103.208 9.82564 103.052 9.53757 102.879 9.26377C102.715 9.00399 102.521 8.77058 102.304 8.56952C102.083 8.3661 101.833 8.20829 101.565 8.10287C101.288 7.99089 100.965 7.93516 100.596 7.93516Z" fill="#FAFAFA"/>
</svg>
