<svg width="18" height="18" viewBox="0 0 18 18" fill="none" xmlns="http://www.w3.org/2000/svg">
<path fill-rule="evenodd" clip-rule="evenodd" d="M0.133907 7.38218C0.217719 7.0661 0.290415 6.74649 0.387301 6.43433C0.908996 4.75233 1.84556 3.34311 3.18732 2.20277C3.27963 2.12431 3.36867 2.04231 3.45928 1.96202C3.46216 1.94868 3.46504 1.93547 3.46778 1.92213C3.66221 1.68713 3.93757 1.55636 4.17331 1.3738C6.63783 -0.0902103 9.2293 -0.397788 11.9551 0.51684C11.9809 0.526125 12.0071 0.536848 12.033 0.546656C12.1615 0.603673 12.2917 0.658336 12.4248 0.705022C12.4489 0.711692 12.472 0.720847 12.4951 0.730524C12.5296 0.744255 12.5629 0.760471 12.5959 0.777341C12.6185 0.787149 12.6401 0.799048 12.6616 0.810948C12.7471 0.859989 12.8376 0.899482 12.9268 0.941199C12.9499 0.950876 12.9719 0.962645 12.9939 0.974677C13.1135 1.04307 13.2405 1.0976 13.3625 1.16142C13.3853 1.17267 13.4069 1.18614 13.4281 1.20013C13.4502 1.21308 13.4711 1.22759 13.4923 1.24211C13.5034 1.24878 13.5137 1.25623 13.5247 1.26303C14.13 1.60723 14.667 2.04323 15.1888 2.49949C15.2084 2.51532 15.2264 2.5331 15.2438 2.55128C15.2854 2.59561 15.3262 2.64125 15.3701 2.68375C15.3883 2.69971 15.405 2.7171 15.4218 2.73449C15.4399 2.75084 15.4567 2.76823 15.4733 2.78602C15.482 2.79465 15.49 2.80393 15.4987 2.81257C15.605 2.94778 15.7064 3.08706 15.837 3.20136C15.8559 3.21927 15.8723 3.23889 15.8884 3.25903C16.0596 3.49259 16.2477 3.71281 16.4157 3.94886C17.5663 5.62955 18.099 7.49595 17.9849 9.52072C17.8635 11.6683 17.0686 13.5555 15.6038 15.1462C15.5362 15.2197 15.4818 15.3187 15.3603 15.3189C15.1739 15.4879 14.9896 15.6591 14.8007 15.825C14.3222 16.2459 13.7986 16.6027 13.2437 16.9146C13.1795 16.9506 13.1186 16.9926 13.0562 17.0318L13.0541 17.0329C12.5638 17.241 12.0811 17.4661 11.5675 17.6175C10.2614 18.0023 8.93707 18.0985 7.59048 17.8982C7.49817 17.8846 7.40416 17.8825 7.31093 17.875C7.23483 17.8471 7.14305 17.8954 7.07532 17.8268C7.0574 17.8231 7.03949 17.8193 7.02158 17.8155C6.60409 17.6784 6.17471 17.5788 5.76507 17.416C4.13579 16.7687 2.7986 15.742 1.75391 14.334C1.69272 14.2516 1.62682 14.1728 1.56314 14.0922C1.54052 14.0194 1.50195 13.9575 1.4401 13.9114C1.39892 13.8927 1.37944 13.86 1.37852 13.8157C1.38074 13.7871 1.37081 13.7654 1.34335 13.7536C1.29013 13.7361 1.27758 13.692 1.27157 13.6437C1.26529 13.5977 1.24973 13.5574 1.20658 13.5328C1.13402 13.4974 1.10303 13.4382 1.10761 13.3587C1.00562 13.1237 0.893568 12.8934 0.762425 12.673C0.692604 12.6425 0.69535 12.5804 0.69548 12.5195C0.689597 12.4316 0.653118 12.356 0.600556 12.2871C0.522759 12.2541 0.522236 12.1907 0.535442 12.1218C0.454769 11.8138 0.360236 11.5103 0.250406 11.2116C0.168948 11.1534 0.194445 11.0699 0.197714 10.9914C0.194053 10.8945 0.197975 10.7959 0.139007 10.7106C0.123186 10.7008 0.116779 10.6896 0.119525 10.6768C0.122271 10.6633 0.125932 10.6565 0.130377 10.6565C0.134561 10.572 0.138614 10.4875 0.0873599 10.413C-0.0669256 10.2472 0.0332291 10.0494 0.0185851 9.86609C0.00263353 9.30154 0.00551089 8.73699 0.0206779 8.17244C0.00211137 8.16041 -0.003381 8.14943 0.00407178 8.13975C0.0110016 8.13086 0.0179317 8.12628 0.025123 8.12628C0.086968 7.88199 0.115079 7.63274 0.133907 7.38218Z" fill="#4E525C"/>
<path fill-rule="evenodd" clip-rule="evenodd" d="M13.1849 1.6745C13.6373 1.89106 14.0342 2.19144 14.4134 2.51289C16.0817 3.92746 17.0945 5.72036 17.3845 7.88571C18.0117 12.5678 14.8201 16.5765 10.6236 17.3797C10.313 17.4391 10.0033 17.5361 9.67947 17.4713C9.56297 17.3729 9.57526 17.2352 9.57513 17.1058C9.57212 15.1886 9.57042 13.2715 9.57552 11.3542C9.5767 10.9359 9.67228 10.8488 10.0989 10.842C10.4372 10.8366 10.7757 10.8345 11.1137 10.8425C11.3352 10.8476 11.442 10.7717 11.4371 10.5356C11.4289 10.1222 11.4293 9.70843 11.437 9.29505C11.4411 9.07143 11.3404 8.99885 11.1312 9.00238C10.7742 9.00826 10.417 9.00748 10.0601 9.00238C9.64037 8.99649 9.58101 8.93085 9.57304 8.50231C9.56807 8.2282 9.60925 7.95855 9.64953 7.68942C9.70679 7.30508 9.93652 7.07125 10.305 6.95944C10.6879 6.84318 11.0682 6.90426 11.45 6.9601C11.7791 7.00822 11.8009 6.99423 11.8609 6.67331C11.9422 6.23927 12.0111 5.80288 12.1015 5.37068C11.8131 4.20549 12.0017 3.01963 11.9484 1.84424C11.942 1.7034 11.9494 1.56216 11.9646 1.42185C11.994 1.14971 11.9945 1.14984 12.2771 1.22425C12.3205 1.22398 12.3612 1.23013 12.388 1.27002C12.4008 1.29486 12.4043 1.34076 12.4222 1.3439C12.7029 1.39399 12.9165 1.59773 13.1849 1.6745Z" fill="#FDFDFD"/>
<path fill-rule="evenodd" clip-rule="evenodd" d="M7.12894 17.3128C7.03467 17.3572 6.94367 17.3191 6.85449 17.2968C3.76185 16.5258 1.28387 13.9418 0.633519 10.8115C-0.201845 6.79075 1.87133 2.81799 5.64558 1.20882C5.73972 1.16868 5.82928 1.11271 5.93663 1.11035C6.41269 1.27892 6.90614 1.17692 7.39122 1.20294C7.55074 1.21144 7.71143 1.19457 7.87043 1.21366C7.95411 1.22373 8.05478 1.24282 8.04472 1.35437C8.03622 1.44879 7.94312 1.45285 7.86742 1.45298C7.29421 1.45429 6.72074 1.46279 6.14766 1.44932C6.53912 1.46135 6.93085 1.45311 7.32245 1.45546C7.45412 1.45625 7.58683 1.44539 7.71718 1.4586C7.83447 1.47037 8.03635 1.38942 8.03609 1.5763C8.03582 1.73362 7.84244 1.67556 7.73052 1.67843C7.42025 1.68628 7.10985 1.68118 6.79945 1.68118C6.47976 1.68118 6.15995 1.68118 5.84013 1.68118C6.46002 1.68131 7.07991 1.68105 7.6998 1.68144C7.77498 1.68144 7.85055 1.67725 7.92521 1.68837C7.98235 1.69674 8.04001 1.71531 8.04602 1.7837C8.054 1.87198 7.98627 1.89225 7.9188 1.90049C7.81603 1.91304 7.71209 1.90663 7.60879 1.90663C7.01623 1.90702 6.42367 1.90689 5.83111 1.90689C6.46577 1.90715 7.10017 1.90663 7.73484 1.90742C7.80976 1.90742 7.88559 1.9014 7.95921 1.92115C8.00798 1.93422 8.04668 1.96522 8.04929 2.01648C8.05191 2.06748 8.01569 2.10201 7.97058 2.12293C7.87291 2.16818 7.76779 2.15759 7.66515 2.15785C6.69642 2.15942 5.72769 2.15667 4.75896 2.16072C4.63801 2.16125 4.49262 2.11757 4.41195 2.27018C4.50347 2.36852 4.61356 2.33034 4.7111 2.33073C5.69866 2.334 6.68622 2.32968 7.67378 2.33583C7.80989 2.33674 8.04066 2.27868 8.03334 2.47981C8.0268 2.65675 7.80191 2.57959 7.67535 2.58037C6.58868 2.58717 5.50214 2.58417 4.41547 2.5843C5.49704 2.5843 6.57874 2.5843 7.66031 2.58443C7.73549 2.58443 7.81093 2.58168 7.88598 2.58744C7.96247 2.59319 8.05243 2.60221 8.04733 2.70199C8.04236 2.79824 7.95228 2.80609 7.87579 2.80727C7.48079 2.81328 7.08579 2.80897 6.69079 2.80988C5.87321 2.81184 5.05563 2.80622 4.33689 2.8125C4.55459 2.80217 4.87153 2.81106 5.18834 2.81054C6.02541 2.8091 6.86247 2.81001 7.69953 2.81028C7.77472 2.81028 7.85016 2.80687 7.92508 2.81642C7.98405 2.82401 8.04092 2.84493 8.04694 2.91123C8.05478 2.99637 7.98967 3.02017 7.9205 3.02919C7.8363 3.04004 7.75144 3.03547 7.66685 3.03547C6.40654 3.03573 5.14624 3.0356 3.88594 3.0356C5.16128 3.03573 6.43662 3.03351 7.71196 3.03913C7.82832 3.03965 8.0353 2.96982 8.03413 3.14989C8.03295 3.32984 7.82571 3.25713 7.70947 3.25765C6.3834 3.2634 5.0572 3.26105 3.73113 3.2617C5.15055 3.25935 6.57011 3.26458 7.98954 3.2587C8.05544 3.25857 8.12107 3.2485 8.1803 3.2876C8.22071 3.31401 8.25614 3.34658 8.25339 3.39797C8.25039 3.45669 8.20005 3.4712 8.15442 3.47866C8.07073 3.49239 7.98549 3.4869 7.90102 3.4869C6.53219 3.48716 5.16337 3.48703 3.79441 3.48716C5.17697 3.48716 6.55952 3.4852 7.94221 3.49069C8.05792 3.49108 8.26189 3.41876 8.26268 3.60485C8.26346 3.77198 8.06328 3.73458 7.93985 3.73589C7.36612 3.74243 6.79239 3.73589 6.21865 3.74099C6.12308 3.7419 6.00553 3.70594 5.95375 3.84025C5.88119 4.02869 5.95415 4.13409 6.17838 4.13645C6.73329 4.14233 7.28819 4.13776 7.8431 4.13893C7.93711 4.13906 8.03177 4.13266 8.12434 4.15214C8.19952 4.16796 8.28098 4.19281 8.27078 4.28984C8.26242 4.37014 8.18789 4.38152 8.12029 4.38636C8.03582 4.3925 7.9511 4.39002 7.8665 4.39002C6.53102 4.39015 5.1954 4.39002 3.85979 4.39015C5.21985 4.39028 6.57992 4.38819 7.93998 4.39355C8.05661 4.39394 8.26372 4.3262 8.26163 4.50549C8.25967 4.68465 8.05256 4.61181 7.93593 4.61233C6.51127 4.61782 5.08649 4.61573 3.6617 4.61586C5.09132 4.61586 6.52095 4.6139 7.95045 4.61965C8.06446 4.62005 8.26869 4.54577 8.26398 4.73944C8.26045 4.89402 8.06747 4.8387 7.95528 4.83909C6.63862 4.84315 5.32184 4.84158 4.00518 4.84171C5.31935 4.84184 6.63366 4.83962 7.94783 4.84563C8.06158 4.84615 8.26582 4.77135 8.26098 4.96568C8.25705 5.1213 8.06433 5.06441 7.9528 5.06481C6.66438 5.06899 5.37584 5.06742 4.08729 5.06755C5.41794 5.06755 6.74859 5.06638 8.07923 5.06938C8.2024 5.06965 8.40493 5.01812 8.40755 5.1859C8.41042 5.36899 8.19233 5.33642 8.07074 5.32831C6.72741 5.23939 5.38277 5.33054 4.31624 5.2934C5.22704 5.29353 6.41478 5.29654 7.60252 5.29052C7.82623 5.28948 7.99163 5.33969 8.04798 5.57901C8.05256 5.67238 8.00366 5.74339 7.93985 5.79949C7.37213 6.29813 7.27329 6.97488 7.23289 7.67034C7.2155 7.97046 7.23563 8.27228 7.22687 8.57306C7.2168 8.91412 7.1445 8.98735 6.80991 9.00122C6.56554 9.01142 6.32103 9.00501 6.07653 9.00566C5.90067 9.00619 5.82052 9.08033 5.82039 9.25923C5.81987 9.70124 5.81974 10.1433 5.82039 10.5853C5.82065 10.7635 5.90237 10.8388 6.0781 10.8386C6.29423 10.8382 6.51062 10.8371 6.72688 10.8407C7.16124 10.8476 7.22491 10.9108 7.22857 11.3576C7.23262 11.8561 7.22962 12.3546 7.22962 12.853C7.22962 14.1885 7.23119 15.5241 7.22779 16.8596C7.22713 17.0153 7.26061 17.1836 7.12894 17.3128Z" fill="#F9F9F9"/>
<path fill-rule="evenodd" clip-rule="evenodd" d="M7.12892 17.3127C7.12657 16.4195 7.12304 15.5264 7.12212 14.6332C7.12108 13.5141 7.12213 12.3952 7.12226 11.2763C7.12226 11.2199 7.11768 11.1631 7.12265 11.1071C7.13363 10.9838 7.07793 10.9422 6.95816 10.9444C6.66672 10.9497 6.37528 10.946 6.08384 10.946C5.71133 10.9459 5.71133 10.9459 5.71133 10.5754C5.71133 10.0864 5.70976 9.59748 5.71211 9.10852C5.71303 8.9104 5.71695 8.90726 5.91308 8.90569C6.24217 8.90321 6.57127 8.90687 6.90024 8.90464C7.11729 8.90321 7.11899 8.90072 7.12186 8.69083C7.1267 8.34297 7.12369 7.99499 7.1335 7.64726C7.14226 7.33654 7.19234 7.03014 7.26504 6.72805C7.3801 6.2506 7.65846 5.88339 8.04169 5.58823C8.04509 5.57594 8.04849 5.56365 8.05176 5.55136C8.07909 5.50637 8.11857 5.47315 8.16002 5.44164C8.18133 5.4249 8.20422 5.41091 8.22788 5.39783C8.31561 5.35153 8.404 5.30681 8.492 5.26052C8.91798 5.06606 9.36476 4.98027 9.83232 4.97373C10.5016 4.96418 11.1666 4.9821 11.8186 5.15629C11.966 5.19565 12.1087 5.23685 12.2041 5.36788C12.0926 5.9561 11.9811 6.54432 11.8686 7.1379C11.5989 7.09448 11.352 7.04989 11.1036 7.01615C10.8707 6.98463 10.6371 6.97221 10.4036 7.02426C9.99314 7.11567 9.78656 7.3321 9.72863 7.74652C9.683 8.07306 9.6885 8.40208 9.6851 8.73085C9.68353 8.86803 9.7336 8.90896 9.86632 8.90739C10.3451 8.90164 10.8242 8.90543 11.3031 8.90491C11.5637 8.90478 11.5601 8.8832 11.5597 9.16933C11.5591 9.68588 11.5608 10.2026 11.5589 10.7193C11.5581 10.943 11.5551 10.9451 11.3231 10.9459C10.891 10.9475 10.459 10.9448 10.027 10.9468C9.66784 10.9484 9.68836 10.8995 9.68836 11.2724C9.68836 13.2356 9.68836 15.1989 9.68784 17.1622C9.68771 17.2652 9.68248 17.3684 9.6796 17.4716C9.56415 17.5467 9.43366 17.5481 9.30422 17.5416C8.94936 17.5234 8.59529 17.5421 8.23821 17.5089C7.87721 17.4755 7.52497 17.4113 7.1705 17.3493C7.15481 17.3465 7.14265 17.3253 7.12892 17.3127Z" fill="#444852"/>
<path fill-rule="evenodd" clip-rule="evenodd" d="M12.2041 5.36753C10.9501 4.99247 9.69517 4.89138 8.43826 5.35458C8.35994 5.39002 8.26084 5.38688 8.2122 5.47712L8.21468 5.47489C8.14617 5.49621 8.08419 5.52786 8.04052 5.58762C8.04052 5.58762 8.0417 5.58775 8.0417 5.58788C8.02418 5.58121 7.9958 5.57925 7.99057 5.56735C7.89434 5.34412 7.70776 5.34582 7.503 5.34687C6.30873 5.35301 5.11432 5.35027 3.92005 5.34909C3.81924 5.34896 3.71503 5.3674 3.60703 5.31823C3.65201 5.19491 3.7523 5.24002 3.82251 5.2395C4.4526 5.23519 5.08268 5.23702 5.71277 5.23702C6.51218 5.23702 7.31159 5.23767 8.11086 5.2361C8.19925 5.23597 8.29208 5.25467 8.39956 5.2038C8.2947 5.08676 8.17519 5.12625 8.07229 5.12599C6.68032 5.12311 5.28848 5.12468 3.89665 5.12259C3.80251 5.12246 3.69778 5.1511 3.57252 5.05315C3.8688 4.97743 4.12729 5.02098 4.38173 5.01287C4.63539 5.0049 4.88944 5.01117 5.14348 5.01117C5.40681 5.01117 5.67001 5.01117 5.93348 5.01117C6.18739 5.01117 6.44131 5.01117 6.69523 5.01117C6.95856 5.01117 7.22202 5.01706 7.48509 5.00947C7.72907 5.00241 7.97789 5.04543 8.21756 4.95402C7.96769 4.86327 7.70959 4.90812 7.4558 4.90015C7.19273 4.89178 6.92914 4.89831 6.66581 4.89831C6.40248 4.89831 6.13915 4.89831 5.87582 4.89831C5.6219 4.89831 5.36798 4.89831 5.11406 4.89831C4.85073 4.89831 4.58714 4.90459 4.32407 4.89648C4.07002 4.88851 3.81166 4.93271 3.5614 4.84261C3.81009 4.74923 4.06793 4.79553 4.32106 4.78729C4.58413 4.77866 4.84759 4.78533 5.11093 4.78533C5.37426 4.78533 5.63759 4.78533 5.90092 4.78533C6.15497 4.78533 6.40876 4.78533 6.66267 4.78533C6.926 4.78533 7.1896 4.7916 7.45267 4.78363C7.70737 4.77578 7.96599 4.81867 8.26345 4.74413C8.13819 4.64566 8.03372 4.67404 7.93958 4.67391C6.51963 4.67195 5.09942 4.67325 3.67947 4.67077C3.58363 4.67064 3.47798 4.70137 3.36462 4.61689C3.46988 4.53293 3.57421 4.56105 3.66783 4.56092C5.08791 4.55896 6.50799 4.5604 7.92807 4.55791C8.02444 4.55778 8.13021 4.58891 8.24279 4.50639C8.14198 4.41851 8.03699 4.44832 7.94403 4.44819C6.67444 4.4461 5.40485 4.44675 4.13527 4.44675C3.94725 4.44675 3.75897 4.44911 3.57108 4.44531C3.51054 4.44414 3.43889 4.47003 3.38149 4.38398C3.46556 4.30382 3.57121 4.3356 3.66365 4.33534C4.80157 4.33298 5.93949 4.33377 7.07741 4.33377C7.38781 4.33377 7.69822 4.33573 8.00849 4.33233C8.07857 4.33154 8.15846 4.35979 8.22815 4.27792C8.17009 4.19122 8.07857 4.22287 8.00483 4.22261C7.37474 4.21973 6.74465 4.22235 6.11457 4.21947C6.02539 4.21908 5.89948 4.2621 5.85908 4.15801C5.80482 4.01847 5.80652 3.85697 5.8596 3.71612C5.89412 3.62471 6.0084 3.65793 6.08959 3.65767C6.71026 3.65571 7.33094 3.6578 7.95161 3.65518C8.04026 3.65492 8.13701 3.68408 8.23455 3.60418C8.14708 3.51133 8.04052 3.54546 7.94873 3.54533C6.95189 3.54259 5.95505 3.54363 4.95821 3.54363C4.52556 3.54363 4.0929 3.54573 3.66038 3.54193C3.57134 3.54115 3.47393 3.57319 3.37796 3.49211C3.46033 3.39638 3.56781 3.43274 3.65894 3.43248C4.52412 3.4296 5.38929 3.43065 6.2546 3.43065C6.80951 3.43065 7.36428 3.43169 7.91918 3.4296C8.01163 3.42934 8.10655 3.44817 8.19807 3.41221C8.21272 3.32341 8.14486 3.32603 8.09465 3.32158C8.01999 3.31504 7.94442 3.31792 7.86924 3.31792C6.4774 3.31779 5.08543 3.31818 3.69359 3.317C3.59304 3.317 3.48884 3.3357 3.37548 3.28313C3.44307 3.17001 3.54441 3.20689 3.62573 3.20663C4.38748 3.20388 5.14924 3.20493 5.91099 3.20493C6.51283 3.20493 7.11481 3.20611 7.71665 3.20362C7.80805 3.20323 7.90467 3.22847 7.99423 3.16962C7.9724 3.05598 7.87983 3.09443 7.81707 3.09403C7.25288 3.09063 6.68856 3.09194 6.12437 3.09194C5.31555 3.09194 4.50673 3.09247 3.69804 3.09129C3.5967 3.09116 3.49237 3.10803 3.38633 3.06435C3.41261 2.94783 3.50243 2.98131 3.56532 2.98091C4.05433 2.97778 4.54334 2.97908 5.03234 2.97908C5.92576 2.97908 6.81918 2.98 7.7126 2.97751C7.80687 2.97725 7.9116 3.00615 7.99332 2.90925C7.66422 2.84818 7.33277 2.8712 7.00315 2.86701C6.66463 2.86283 6.32612 2.86623 5.98748 2.86623C5.65838 2.86623 5.32915 2.86989 5.00005 2.86518C4.67108 2.86047 4.34015 2.88597 4.01288 2.80973C4.34002 2.73362 4.67121 2.75886 5.00005 2.75428C5.33856 2.74958 5.67721 2.75324 6.01572 2.75324C6.34495 2.75324 6.67418 2.75651 7.00315 2.75232C7.33277 2.74801 7.66409 2.77115 7.99319 2.71008C7.91147 2.61318 7.80674 2.64195 7.71247 2.64182C6.56513 2.6396 5.4178 2.64156 4.27046 2.63842C4.16782 2.63816 4.04792 2.67831 3.91665 2.52752C4.41468 2.52752 4.86015 2.52752 5.30561 2.52752C5.75709 2.52752 6.20844 2.52765 6.65993 2.52752C7.10395 2.52726 7.54798 2.52857 7.99358 2.49418C7.91513 2.38746 7.81053 2.41624 7.71717 2.41597C6.65443 2.41375 5.59183 2.41558 4.52909 2.4131C4.43011 2.41284 4.3242 2.44213 4.23045 2.38067C4.34708 2.07792 4.34708 2.07636 4.64637 2.07622C5.66204 2.07544 6.67771 2.07649 7.69338 2.07505C7.79314 2.07492 7.89722 2.09466 8.00653 2.04079C7.95213 1.9257 7.85564 1.96559 7.78399 1.9652C7.07872 1.96154 6.37332 1.96441 5.66805 1.96154C5.56842 1.96114 5.46238 1.99096 5.35844 1.92152C5.40433 1.80971 5.50305 1.85299 5.57391 1.85247C6.27931 1.84855 6.98458 1.85143 7.68985 1.84868C7.79013 1.84829 7.89604 1.87653 8.00025 1.81089C7.95815 1.69489 7.85773 1.74001 7.78765 1.73974C7.08225 1.73569 6.37698 1.73844 5.67158 1.73595C5.57078 1.73556 5.46487 1.76224 5.3604 1.70038C5.3991 1.58151 5.50069 1.62741 5.57051 1.62689C6.27591 1.6227 6.98118 1.62506 7.68645 1.62362C7.78778 1.62349 7.89212 1.64036 8.0009 1.59576C7.96168 1.46891 7.86009 1.51468 7.79118 1.51416C7.21758 1.50958 6.64397 1.5122 6.07024 1.51076C5.98643 1.5105 5.90183 1.50344 5.81907 1.49114C5.78272 1.48565 5.75291 1.45322 5.75304 1.4115C5.7533 1.36495 5.79004 1.34795 5.82888 1.34742C5.92249 1.34638 6.01807 1.33958 6.10986 1.3537C6.71759 1.44734 7.32819 1.38156 7.93736 1.39084C7.96246 1.39123 7.99254 1.37868 7.98874 1.31722C7.91958 1.26164 7.824 1.28753 7.73783 1.28714C7.27707 1.28452 6.81617 1.28426 6.35541 1.28688C6.18844 1.28779 6.03572 1.26608 5.93714 1.1102L5.94132 1.11046C5.98904 1.06718 6.07286 1.12119 6.1096 1.04808L6.11143 1.04586C6.60423 1.09634 7.09912 1.09987 7.59335 1.11975C7.45907 1.11439 7.32453 1.12132 7.19038 1.1119C7.1322 1.10785 7.07532 1.09072 7.06094 1.02585C7.04237 0.941373 7.10487 0.902141 7.1692 0.888279C7.4073 0.836885 7.64735 0.784706 7.8929 0.81583C8.05922 0.836885 8.21481 0.852971 8.28947 0.654457C8.31261 0.592862 8.3657 0.579131 8.42663 0.580831C8.9036 0.593908 9.3815 0.553498 9.85808 0.602146C10.4802 0.620847 11.0731 0.784838 11.6597 0.973283C11.8707 1.04115 12.0888 1.09817 12.2775 1.22411C12.2125 1.22411 12.1475 1.22411 12.0658 1.22411C12.0583 1.34612 12.0431 1.48147 12.0428 1.61682C12.0406 2.53524 12.0434 3.45366 12.0402 4.37208C12.0395 4.56458 12.1427 4.75486 12.0495 4.95023C12.0343 4.98214 12.0577 5.03929 12.0923 5.04334C12.3055 5.06806 12.2461 5.18942 12.1962 5.31234C12.1898 5.32738 12.201 5.34909 12.2041 5.36753Z" fill="#FCFCFC"/>
<path fill-rule="evenodd" clip-rule="evenodd" d="M9.85763 0.602338C9.41752 0.60443 8.97741 0.606 8.53731 0.609139C8.45546 0.609662 8.39244 0.580631 8.36798 0.730236C8.33399 0.937642 8.21292 0.96955 7.97953 0.919986C7.7447 0.870031 7.38644 0.903379 7.07578 1.01532C7.3986 1.11785 7.70756 1.0046 7.99469 1.08999C7.97678 1.18703 7.91127 1.17146 7.86146 1.1716C7.36513 1.17343 6.8688 1.16911 6.37247 1.17565C6.2548 1.17722 6.17687 1.13197 6.11084 1.04592C6.6277 0.813408 7.17986 0.711274 7.7328 0.623133C8.38315 0.519429 9.03978 0.522567 9.69615 0.56206C9.75211 0.565591 9.80872 0.568729 9.85763 0.602338Z" fill="#F9F9F9"/>
<path fill-rule="evenodd" clip-rule="evenodd" d="M13.185 1.67461C13.1013 1.67827 13.0051 1.70534 12.9426 1.63813C12.7689 1.45125 12.5483 1.44419 12.3199 1.45321C12.3025 1.45387 12.2847 1.44406 12.2651 1.43844C12.2476 1.3397 12.3704 1.34271 12.3878 1.27026C12.6709 1.37083 12.9403 1.49833 13.185 1.67461Z" fill="#FCFCFC"/>
<path fill-rule="evenodd" clip-rule="evenodd" d="M6.10895 1.0481C6.07456 1.12721 6.00618 1.11505 5.94067 1.11047C5.9833 1.05293 6.04658 1.05163 6.10895 1.0481Z" fill="#F9F9F9"/>
<path fill-rule="evenodd" clip-rule="evenodd" d="M8.21216 5.47714C8.24171 5.35186 8.3365 5.34689 8.43823 5.3546C8.37507 5.41803 8.29898 5.45739 8.21216 5.47714Z" fill="#F9F9F9"/>
<path fill-rule="evenodd" clip-rule="evenodd" d="M8.04053 5.58778C8.06472 5.49781 8.12277 5.46028 8.21469 5.47505C8.17167 5.53586 8.11244 5.57169 8.04053 5.58778Z" fill="#F9F9F9"/>
<path fill-rule="evenodd" clip-rule="evenodd" d="M7.98887 2.21021C7.81445 2.3113 5.18284 2.35079 4.5572 2.30083C4.50359 2.29652 4.44162 2.3041 4.41455 2.21021C5.61105 2.21021 6.79996 2.21021 7.98887 2.21021Z" fill="#F9F9F9"/>
<path fill-rule="evenodd" clip-rule="evenodd" d="M8.26308 4.04546C8.02891 4.11908 6.39479 4.13491 6.05627 4.08103C6.06242 4.00283 6.12335 3.99786 6.1784 3.99786C6.83306 3.99707 7.48773 3.99786 8.1424 3.99995C8.16737 4.00008 8.19234 4.01813 8.26308 4.04546Z" fill="#F9F9F9"/>
<path fill-rule="evenodd" clip-rule="evenodd" d="M6.03857 3.85049C6.28857 3.75333 7.96061 3.74326 8.25074 3.82225C8.05618 3.93105 7.87157 3.86867 7.69845 3.87992C7.52155 3.89142 7.34333 3.88253 7.16564 3.88253C6.97867 3.88253 6.79157 3.88541 6.60459 3.88162C6.43593 3.87822 6.26386 3.90058 6.03857 3.85049Z" fill="#F9F9F9"/>
</svg>
