<svg width="18" height="18" viewBox="0 0 18 18" fill="none" xmlns="http://www.w3.org/2000/svg">
<path fill-rule="evenodd" clip-rule="evenodd" d="M17.7654 10.0927C17.7636 10.1125 17.7618 10.1325 17.7599 10.1525C17.7741 10.1668 17.7779 10.1798 17.7712 10.1917C17.7649 10.2028 17.759 10.2085 17.7534 10.2085L17.7562 10.2058C17.6948 11.1635 17.3604 12.0422 16.9979 12.9133C16.9585 13.0079 16.8839 13.0674 16.8246 13.1424C16.7199 13.3169 16.6182 13.4935 16.5093 13.6654C15.0644 15.9485 13.0309 17.3637 10.3859 17.7611C5.48047 18.4983 1.28509 15.1034 0.487119 10.5459C0.438485 10.2682 0.381946 9.98838 0.403919 9.70214C0.279319 9.38966 0.360106 9.06684 0.359704 8.74824C0.359704 8.67631 0.39213 8.59975 0.476268 8.61375C0.588407 8.63252 0.5458 8.72839 0.556116 8.82452C0.550757 8.64231 0.665308 8.61267 0.7883 8.59798C0.931924 8.58085 1.07662 8.58955 1.22091 8.58778C2.1542 8.57677 3.0879 8.61321 4.02052 8.56589C4.13895 8.56004 4.24305 8.6332 4.36055 8.60424C4.48086 8.58234 4.53298 8.67005 4.57813 8.75449C4.83524 9.23559 5.2306 9.5531 5.71935 9.7636C5.78956 9.79392 5.8607 9.82697 5.87758 9.91617C5.87852 9.94704 5.87035 9.97519 5.8536 10.0008C5.73074 10.1237 5.57533 10.1174 5.42018 10.1136C5.16656 10.1072 5.13896 10.1409 5.27254 10.3642C5.5488 10.8263 5.90987 11.1966 6.42663 11.3811C6.54493 11.4235 6.66712 11.4512 6.7881 11.484C6.89582 11.5133 7.04359 11.5177 7.05806 11.6596C7.07119 11.7893 6.94753 11.8573 6.85066 11.9198C6.4912 12.1515 6.11084 12.3421 5.70408 12.4695C5.20542 12.6257 4.69174 12.6995 4.15798 12.7106C6.33311 13.9998 9.40696 13.7841 11.3822 12.106C12.4713 11.1808 13.1827 10.0051 13.5536 8.61416C13.5852 8.49586 13.5686 8.32126 13.7712 8.32833C13.9242 8.45303 13.9453 8.64952 14.0383 8.83132C14.125 8.66869 14.2737 8.64911 14.4267 8.64843C15.4089 8.64381 16.3912 8.63755 17.3733 8.65129C17.7519 8.65659 17.8427 8.77 17.8435 9.1555C17.8438 9.33023 17.7924 9.5051 17.8458 9.67984C17.8635 9.8267 17.7826 9.95316 17.7654 10.0927Z" fill="#1786C5"/>
<path fill-rule="evenodd" clip-rule="evenodd" d="M4.40053 8.62548C4.31425 8.67484 4.39731 8.74827 4.36328 8.84495C4.26535 8.6505 4.13123 8.59815 3.94554 8.67756C3.88002 8.70571 3.79374 8.6849 3.71697 8.6849C2.78516 8.68504 1.85347 8.6849 0.92179 8.68518C0.614579 8.68531 0.614577 8.68599 0.554823 8.9706C0.507127 8.92083 0.533654 8.85896 0.527089 8.80334C0.521596 8.75575 0.529501 8.70516 0.46988 8.6554C0.358411 8.82252 0.426338 9.00622 0.413878 9.17606C0.40115 9.35066 0.406644 9.52676 0.404233 9.70217C0.390969 9.69374 0.377303 9.68653 0.3627 9.68068C0.26637 9.04688 0.294907 8.41444 0.407716 7.7873C0.431162 7.65758 0.400346 7.51534 0.479125 7.39609L0.475241 7.40166C0.558173 7.27031 0.400615 7.0526 0.62476 6.97156C0.775619 7.08904 0.945905 7.12168 1.13522 7.1229C2.09423 7.12902 3.05378 7.09217 4.01226 7.1448C4.16151 7.15309 4.26092 7.05369 4.38699 7.01616C4.4718 6.99304 4.54241 7.02432 4.58756 7.09367C4.73641 7.32211 4.91152 7.52785 5.09266 7.72965C5.13607 7.77805 5.1839 7.84332 5.1433 7.91376C5.10418 7.98202 5.02862 7.9755 4.96189 7.96666C4.81881 7.94776 4.67907 7.90982 4.54241 7.8644C4.3397 7.79709 4.31331 7.88575 4.33488 8.06647C4.35672 8.25235 4.5065 8.42437 4.40053 8.62548Z" fill="#198DC9"/>
<path fill-rule="evenodd" clip-rule="evenodd" d="M14.4059 1.64201C14.3588 1.80056 14.5607 1.84721 14.5561 1.98658C14.7223 2.01718 14.7825 2.2308 14.967 2.2308C15.0162 2.2308 15.0584 2.24726 15.0938 2.28751C15.3154 2.53989 15.5784 2.74617 15.8344 2.95979C15.9133 3.02574 15.9121 3.11263 15.9085 3.19993C15.9026 3.34421 15.9432 3.43327 16.1016 3.47257C16.2347 3.50562 16.3363 3.61875 16.3599 3.76058C16.3828 3.89833 16.4491 3.93966 16.5742 3.93259C16.6994 3.92552 16.7706 3.99338 16.7948 4.11657C16.7527 4.19435 16.6584 4.07211 16.6222 4.16158C16.5903 4.24004 16.6364 4.2996 16.6916 4.33632C16.801 4.4092 16.8433 4.48494 16.8027 4.62691C16.7775 4.71516 16.8473 4.81714 16.9168 4.88377C17.136 5.09332 17.2426 5.37303 17.1878 5.6284C17.1754 5.63384 17.1631 5.63928 17.1507 5.64472C17.0634 5.61194 17.0454 5.52492 17.0054 5.45489C16.7587 4.91967 16.4882 4.39873 16.1387 3.92375C15.7927 3.42444 15.3991 2.96795 14.9475 2.56382C14.5169 2.1106 14.006 1.76507 13.482 1.43723C13.386 1.37712 13.2659 1.34381 13.2362 1.20987C13.2407 1.19681 13.2453 1.18376 13.2501 1.17057C13.3995 1.09496 13.515 1.09578 13.6527 1.2353C13.8572 1.44226 14.097 1.61754 14.4059 1.64201Z" fill="#FCFCFC"/>
<path fill-rule="evenodd" clip-rule="evenodd" d="M8.96992 -0.00133373C9.12479 0.0881411 9.27163 0.108266 9.40293 -0.0466151C9.46054 -0.114333 9.52525 -0.134458 9.60122 -0.0664681C9.70759 0.0287178 9.86703 -0.0478387 9.98895 0.0929005C10.07 0.186591 10.2954 0.14974 10.4553 0.175848C10.6062 0.200597 10.7558 0.232688 10.9066 0.257708C10.933 0.26206 10.9643 0.251997 10.9902 0.240983C11.2045 0.151508 11.3862 0.217866 11.5351 0.375603C11.6125 0.457735 11.6806 0.433122 11.7668 0.413813C11.8782 0.388929 11.9641 0.288711 12.088 0.303669C12.0707 0.550201 12.1406 0.659257 12.3606 0.66388C12.4681 0.666056 12.5644 0.72072 12.6707 0.70277C12.691 0.763689 12.6365 0.926457 12.7943 0.804755C12.8687 0.747372 12.937 0.721128 13.0258 0.756347C13.0603 0.770081 13.1136 0.785582 13.084 0.825153C12.9929 0.946447 13.1515 1.01008 13.1374 1.11003C13.1281 1.11914 13.1187 1.12852 13.1094 1.13777C12.9807 1.17666 12.8857 1.08569 12.7764 1.04938C12.7378 1.03579 12.7004 1.01892 12.6603 1.00873C12.6173 0.997031 12.5758 0.982073 12.5355 0.9629C11.4364 0.464397 10.2786 0.239079 9.08232 0.239215C8.15412 0.239215 7.2412 0.381178 6.3552 0.676254C6.23824 0.715145 6.12061 0.772392 5.99078 0.727111C5.97913 0.715689 5.96761 0.70413 5.95609 0.692572C6.1324 0.572502 6.2645 0.345823 6.53326 0.44672C6.54773 0.45216 6.57412 0.444816 6.58658 0.433802C6.90532 0.156947 7.30846 0.244518 7.67462 0.17748C7.94499 0.127984 8.22486 0.130431 8.48679 0.0347014C8.64649 -0.023362 8.80901 0.00913672 8.96992 -0.00133373Z" fill="#FCFCFC"/>
<path fill-rule="evenodd" clip-rule="evenodd" d="M17.7655 10.0926C17.7655 9.96169 17.7655 9.8306 17.7655 9.69966C17.7979 9.35263 17.8042 9.01051 17.7372 8.66172C17.6533 8.22359 17.6385 7.77336 17.5645 7.33238C17.4995 6.90051 17.366 6.48754 17.2298 6.07457C17.1835 5.93396 17.0829 5.79363 17.1805 5.63413L17.1879 5.62842C17.3023 5.70443 17.3445 5.86203 17.5137 5.88501C17.6432 5.90255 17.723 5.99815 17.7079 6.15575C17.7009 6.2285 17.7364 6.30546 17.7511 6.37413C17.7219 6.42771 17.6822 6.40595 17.6461 6.40581C17.5306 6.40581 17.4969 6.49624 17.5624 6.55553C17.8088 6.77786 17.7645 7.06654 17.7558 7.34231C17.7495 7.54097 17.8192 7.72577 17.8212 7.92063C17.8216 7.96006 17.8341 8.01147 17.8767 8.01051C18.0763 8.00575 18.0515 8.15003 18.048 8.27323C18.0375 8.64962 18.1106 9.03662 17.9084 9.38976C17.8625 9.46999 17.8889 9.52247 17.9821 9.56898C18.1428 9.64894 18.1299 9.94673 17.9714 10.0387C17.9465 10.0531 17.9196 10.0607 17.8993 10.0283C17.8831 10.0026 17.9172 9.93721 17.8554 9.95353C17.8314 9.95979 17.8218 10.0168 17.803 10.049C17.7936 10.0654 17.7782 10.0782 17.7655 10.0926Z" fill="#FCFCFC"/>
<path fill-rule="evenodd" clip-rule="evenodd" d="M4.22799 1.46602C4.30865 1.42631 4.36184 1.36022 4.40632 1.28299C4.47384 1.16604 4.55423 1.08446 4.7087 1.14524C4.78721 1.17624 4.83639 1.13205 4.8246 1.03836C4.81857 0.990766 4.80503 0.939638 4.81575 0.895308C4.83371 0.821335 4.85179 0.734988 4.90056 0.684403C4.95375 0.62906 5.02463 0.698137 5.08224 0.723701C5.13355 0.74641 5.19987 0.684947 5.23966 0.758648C5.19223 0.887013 5.00359 0.750626 4.96353 0.937462C5.12095 0.864441 5.32286 0.947525 5.39172 0.717446C5.40914 0.659111 5.4634 0.676108 5.50922 0.666862C5.66196 0.636402 5.80719 0.692834 5.95631 0.692562L5.96448 0.705344C5.85743 0.947796 5.59778 0.937326 5.41222 1.04978C4.60554 1.43039 3.88126 1.93528 3.22302 2.54053C3.18296 2.55997 3.1421 2.56324 3.10017 2.54814C3.08958 2.53863 3.07913 2.52911 3.06855 2.51945C3.04028 2.455 3.04966 2.42046 3.12629 2.39394C3.21552 2.3628 3.31212 2.3148 3.23977 2.18263C3.22517 2.15598 3.2316 2.11546 3.26657 2.11804C3.42707 2.12946 3.46552 1.98831 3.5451 1.89816C3.59803 1.83847 3.66595 1.79278 3.73991 1.77986C3.94798 1.74396 4.07901 1.59234 4.22799 1.46602Z" fill="#FCFCFC"/>
<path fill-rule="evenodd" clip-rule="evenodd" d="M16.8246 13.1426C16.9375 12.8846 17.0566 12.6291 17.1618 12.3679C17.424 11.715 17.6162 11.0421 17.7117 10.342C17.718 10.2955 17.741 10.2513 17.7561 10.2059C17.7925 10.5366 17.6772 10.8573 17.6919 11.1873C17.6947 11.2505 17.6689 11.3289 17.6291 11.3774C17.5274 11.5017 17.495 11.6363 17.5542 11.7806C17.6081 11.9118 17.4528 11.8936 17.4382 11.9712C17.6055 12.0339 17.6799 12.1447 17.6216 12.3446C17.5283 12.2758 17.4415 12.212 17.355 12.1483C17.2463 12.4195 17.1247 12.6866 17.0581 12.9727C17.0267 13.1083 16.9225 13.1145 16.8246 13.1426Z" fill="#FCFCFC"/>
<path fill-rule="evenodd" clip-rule="evenodd" d="M0.478897 7.396C0.427047 7.97323 0.332054 8.54707 0.35617 9.13001C0.363807 9.31331 0.360725 9.49702 0.362467 9.68059C0.270825 9.50953 0.21268 9.32773 0.255285 9.13368C0.312226 8.87451 0.317182 8.61886 0.256222 8.36064C0.245503 8.31495 0.234918 8.25933 0.250326 8.21854C0.345719 7.9648 0.369567 7.69434 0.43803 7.43448C0.442318 7.41911 0.464963 7.40864 0.478897 7.396Z" fill="#FCFCFC"/>
<path fill-rule="evenodd" clip-rule="evenodd" d="M1.50717 4.51383C1.48426 4.34222 1.67197 4.20882 1.59091 4.0243C1.5676 3.97113 1.61945 3.97181 1.65576 3.96039C1.7352 3.93509 1.78022 3.8686 1.83796 3.81312C1.99914 3.65851 2.06439 3.40001 2.31372 3.34045C2.32297 3.35024 2.33234 3.3599 2.34172 3.36955C2.34574 3.6135 2.11074 3.71834 2.03397 3.91524C1.84399 4.09882 1.80675 4.40803 1.54321 4.53137C1.53129 4.52566 1.51923 4.51981 1.50717 4.51383Z" fill="#FCFCFC"/>
<path fill-rule="evenodd" clip-rule="evenodd" d="M2.55083 2.81582C2.7329 2.73437 2.84384 2.52468 3.06838 2.51965L3.0862 2.53964C2.89555 2.86939 2.70584 3.19983 2.33218 3.35525C2.33218 3.35525 2.31396 3.3407 2.31382 3.34056C2.26747 3.26224 2.26948 3.18514 2.31945 3.10926C2.42797 3.03692 2.53462 2.96322 2.55083 2.81582Z" fill="#FCFCFC"/>
<path fill-rule="evenodd" clip-rule="evenodd" d="M1.10286 5.33902C1.10112 5.16904 1.0908 5.00192 1.24595 4.87533C1.37806 4.76749 1.36077 4.61044 1.33666 4.45923C1.39186 4.48289 1.44277 4.52042 1.50734 4.51403L1.52583 4.53116C1.54727 4.84555 1.33089 5.06271 1.21286 5.32025C1.19263 5.34038 1.16824 5.35275 1.14024 5.35751C1.12778 5.35139 1.11532 5.34514 1.10286 5.33902Z" fill="#FCFCFC"/>
<path fill-rule="evenodd" clip-rule="evenodd" d="M0.597754 6.98679C0.522591 7.11447 0.560109 7.27656 0.475166 7.40139C0.461634 7.20354 0.438188 7.00746 0.374146 6.79832C0.441135 6.72163 0.594003 6.74977 0.63768 6.62549C0.648935 6.63555 0.660323 6.64561 0.671711 6.65581C0.729456 6.78513 0.701856 6.89473 0.597754 6.98679Z" fill="#FCFCFC"/>
<path fill-rule="evenodd" clip-rule="evenodd" d="M0.0764125 0.701473C-0.163139 0.765383 -0.402961 0.776805 -0.642914 0.711535C-0.40564 0.607375 -0.163809 0.656872 0.0764125 0.701473Z" fill="#FCFCFC"/>
<path fill-rule="evenodd" clip-rule="evenodd" d="M0.637463 6.62566C0.638669 6.60621 0.64175 6.58649 0.640411 6.56732C0.6242 6.31848 0.621522 6.0748 0.866427 5.91992C0.877547 5.93039 0.888798 5.94073 0.900186 5.95106C0.906617 6.21323 0.884242 6.46479 0.650591 6.63708L0.637463 6.62566Z" fill="#FCFCFC"/>
<path fill-rule="evenodd" clip-rule="evenodd" d="M0.866456 5.91996C0.892716 5.78887 0.849038 5.67397 0.757263 5.58178C0.859757 5.49883 0.952337 5.47721 1.04384 5.453C1.05443 5.46375 1.06501 5.47449 1.0756 5.48509C1.10628 5.67778 1.07774 5.84313 0.876637 5.92866L0.866456 5.91996Z" fill="#FCFCFC"/>
<path fill-rule="evenodd" clip-rule="evenodd" d="M6.79076 0.206907C6.62315 0.25654 6.47296 0.304133 6.3209 0.344111C6.27347 0.356485 6.2188 0.336361 6.21076 0.281425C6.20045 0.211531 6.25096 0.21221 6.302 0.223225C6.45996 0.257492 6.60855 0.113353 6.79076 0.206907Z" fill="#FCFCFC"/>
<path fill-rule="evenodd" clip-rule="evenodd" d="M8.086 -0.153533C8.21944 -0.204661 8.32368 -0.167946 8.42603 -0.0810553C8.26781 0.0130428 8.26781 0.0130427 8.086 -0.153533Z" fill="#FCFCFC"/>
<path fill-rule="evenodd" clip-rule="evenodd" d="M15.684 2.62683C15.6888 2.58481 15.7087 2.5432 15.7514 2.55068C15.8216 2.56319 15.873 2.6131 15.882 2.68666C15.8875 2.73249 15.844 2.75016 15.8039 2.75166C15.7206 2.75492 15.6801 2.71168 15.684 2.62683Z" fill="#FCFCFC"/>
<path fill-rule="evenodd" clip-rule="evenodd" d="M15.422 2.20685C15.4178 2.25444 15.3916 2.27729 15.3487 2.28042C15.2667 2.28626 15.2205 2.2486 15.2223 2.1632C15.2231 2.12417 15.2349 2.07808 15.2828 2.08148C15.3575 2.08664 15.3962 2.14321 15.422 2.20685Z" fill="#FCFCFC"/>
<path fill-rule="evenodd" clip-rule="evenodd" d="M14.0316 1.34777C13.9455 1.32153 13.8564 1.29691 13.7967 1.19683C13.9398 1.15849 13.9883 1.24959 14.0316 1.34777Z" fill="#FCFCFC"/>
<path fill-rule="evenodd" clip-rule="evenodd" d="M8.94031 0.00506137C9.07295 -0.0782938 9.16044 -0.0611602 9.25047 -0.0124796C9.15722 -0.00731244 9.06397 -0.00200955 8.94031 0.00506137Z" fill="#FCFCFC"/>
<path fill-rule="evenodd" clip-rule="evenodd" d="M3.79691 1.18365C3.78418 1.21289 3.75967 1.22513 3.73113 1.22078C3.69964 1.21615 3.68356 1.1944 3.70326 1.16407C3.71934 1.13905 3.74654 1.12382 3.77534 1.13864C3.78713 1.14476 3.79008 1.16815 3.79691 1.18365Z" fill="#FCFCFC"/>
<path fill-rule="evenodd" clip-rule="evenodd" d="M17.1669 4.95557C17.1819 4.96209 17.1972 4.96876 17.2121 4.97542C17.2055 4.99065 17.2024 5.01472 17.1916 5.0188C17.1807 5.02315 17.1624 5.00806 17.1472 5.00139C17.1537 4.98616 17.1602 4.9708 17.1669 4.95557Z" fill="#FCFCFC"/>
<path fill-rule="evenodd" clip-rule="evenodd" d="M12.0919 0.234061C12.0636 0.224542 12.0265 0.228078 12.0424 0.194083C12.0487 0.180621 12.0892 0.179261 12.1136 0.180349C12.1277 0.180893 12.1412 0.197482 12.155 0.206865C12.1321 0.216792 12.109 0.226582 12.0919 0.234061Z" fill="#FCFCFC"/>
<path fill-rule="evenodd" clip-rule="evenodd" d="M4.15421 1.41107C4.16989 1.40373 4.19039 1.3866 4.20004 1.39149C4.2129 1.39802 4.22321 1.42113 4.22469 1.43786C4.23005 1.50109 4.18892 1.45554 4.17311 1.45513C4.15127 1.45445 4.1451 1.43283 4.15421 1.41107Z" fill="#FCFCFC"/>
<path fill-rule="evenodd" clip-rule="evenodd" d="M1.60616 3.5748C1.60951 3.59193 1.61876 3.61084 1.61487 3.62607C1.60804 3.6519 1.59076 3.65299 1.57803 3.63069C1.57375 3.62321 1.57401 3.6122 1.57482 3.60295C1.57656 3.57888 1.58781 3.5695 1.60616 3.5748Z" fill="#FCFCFC"/>
<path fill-rule="evenodd" clip-rule="evenodd" d="M1.80815 3.47778C1.81002 3.48445 1.81511 3.49492 1.8127 3.49696C1.80748 3.50158 1.79877 3.50226 1.79126 3.50444C1.78952 3.49777 1.78443 3.4873 1.78671 3.48526C1.79193 3.4805 1.80091 3.47996 1.80815 3.47778Z" fill="#FCFCFC"/>
<path fill-rule="evenodd" clip-rule="evenodd" d="M2.28209 3.07685C2.27097 3.05469 2.2766 3.04068 2.29884 3.0381C2.30286 3.03769 2.31117 3.05033 2.31278 3.05808C2.31653 3.07481 2.31733 3.09208 2.31934 3.10921C2.30675 3.09833 2.29388 3.08718 2.28209 3.07685Z" fill="#FCFCFC"/>
<path fill-rule="evenodd" clip-rule="evenodd" d="M14.438 1.60407C14.4598 1.59292 14.4737 1.5985 14.4762 1.6212C14.4767 1.62528 14.464 1.63372 14.4565 1.63535C14.44 1.63915 14.4228 1.63997 14.4059 1.64201C14.4169 1.62909 14.4279 1.61617 14.438 1.60407Z" fill="#FCFCFC"/>
<path fill-rule="evenodd" clip-rule="evenodd" d="M0.723511 5.73584C0.729943 5.73815 0.736378 5.74046 0.742944 5.74278C0.74013 5.75012 0.739058 5.75896 0.734234 5.76426C0.732358 5.7663 0.722173 5.76032 0.715607 5.75814C0.718287 5.75066 0.720697 5.74332 0.723511 5.73584Z" fill="#FCFCFC"/>
<path fill-rule="evenodd" clip-rule="evenodd" d="M1.04388 5.45279C1.04911 5.40724 1.06076 5.36495 1.1027 5.33911L1.11181 5.34605C1.14731 5.40982 1.13097 5.45075 1.05956 5.46707L1.04388 5.45279Z" fill="#FCFCFC"/>
<path fill-rule="evenodd" clip-rule="evenodd" d="M11.8167 0.269213C11.8093 0.271388 11.802 0.273564 11.7946 0.275876C11.7929 0.269213 11.7879 0.258062 11.7899 0.256566C11.8095 0.242016 11.8188 0.246912 11.8167 0.269213Z" fill="#FCFCFC"/>
<path fill-rule="evenodd" clip-rule="evenodd" d="M17.2705 5.14404C17.2741 5.15098 17.2814 5.15819 17.2807 5.16471C17.2801 5.1711 17.2717 5.17668 17.2666 5.18266C17.2503 5.1677 17.2516 5.15479 17.2705 5.14404Z" fill="#FCFCFC"/>
<path fill-rule="evenodd" clip-rule="evenodd" d="M13.1377 1.11035C13.1829 1.11565 13.2243 1.12789 13.2499 1.17073L13.2376 1.18718C13.1769 1.20948 13.1341 1.19847 13.1249 1.1249L13.1377 1.11035Z" fill="#FCFCFC"/>
<path fill-rule="evenodd" clip-rule="evenodd" d="M1.1937 4.4397C1.19745 4.44663 1.20468 4.45384 1.20401 4.46037C1.20334 4.46676 1.1949 4.47247 1.18995 4.47845C1.1736 4.46336 1.17494 4.45044 1.1937 4.4397Z" fill="#FCFCFC"/>
<path fill-rule="evenodd" clip-rule="evenodd" d="M2.62312 2.54585C2.62084 2.55238 2.61869 2.5589 2.61642 2.56557C2.60891 2.56285 2.60034 2.56176 2.59525 2.55686C2.59311 2.55496 2.599 2.54449 2.60128 2.53796C2.60865 2.54055 2.61602 2.54313 2.62312 2.54585Z" fill="#FCFCFC"/>
<path fill-rule="evenodd" clip-rule="evenodd" d="M12.6711 0.702965L12.6833 0.680664L12.6931 0.690591L12.6711 0.702965Z" fill="#FCFCFC"/>
<path fill-rule="evenodd" clip-rule="evenodd" d="M1.33665 4.45931L1.31482 4.4468L1.32446 4.43701L1.33665 4.45931Z" fill="#FCFCFC"/>
<path fill-rule="evenodd" clip-rule="evenodd" d="M2.55096 2.81588L2.52911 2.80351L2.53876 2.79358L2.55096 2.81588Z" fill="#FCFCFC"/>
<path fill-rule="evenodd" clip-rule="evenodd" d="M17.7533 10.2086C17.7555 10.19 17.7576 10.1714 17.7598 10.1526C17.7817 10.1625 17.7888 10.1776 17.777 10.1949C17.7724 10.2017 17.7614 10.2041 17.7533 10.2086Z" fill="#FCFCFC"/>
<path fill-rule="evenodd" clip-rule="evenodd" d="M4.40064 8.62571C4.34893 8.42963 4.29105 8.2349 4.24817 8.03678C4.22406 7.92541 4.19833 7.80833 4.25621 7.66678C4.53891 7.76427 4.81678 7.8959 5.15011 7.90909C5.04132 7.73028 4.87291 7.6404 4.76854 7.49327C4.6631 7.34423 4.56235 7.1918 4.45959 7.04073C4.1422 6.69479 4.15198 6.25979 4.14876 5.83186C4.14756 5.68637 4.18695 5.54155 4.21414 5.39782C4.4482 4.7016 4.51506 4.68759 5.02752 5.21071C5.1623 5.34832 5.31303 5.46948 5.44741 5.60791C5.47005 5.62572 5.49122 5.64516 5.51212 5.66475C5.53463 5.68269 5.55633 5.7016 5.57804 5.72063C6.5116 6.45125 7.55247 6.92718 8.72424 7.09865C9.12765 7.15767 9.12202 7.1608 9.12202 6.76047C9.12202 6.24891 9.27194 5.77951 9.5399 5.3475C9.55464 5.32112 9.57205 5.29678 9.59081 5.27326C9.59992 5.26143 9.60997 5.25014 9.61908 5.23818C9.63784 5.21438 9.65833 5.19249 9.67964 5.17114C9.69009 5.16039 9.70121 5.15047 9.71193 5.13986C10.5714 4.09758 12.1499 4.05461 13.0553 4.87225C13.1833 4.9877 13.3269 4.99926 13.4868 4.95547C13.7851 4.87375 14.0681 4.75286 14.3509 4.62939C14.4431 4.58914 14.5523 4.50048 14.6408 4.59825C14.724 4.69004 14.6406 4.801 14.6065 4.89904C14.5547 5.04821 14.4594 5.17236 14.3714 5.29991C14.2744 5.45316 14.1444 5.57432 14.002 5.6865C14.3051 5.66135 14.5742 5.4964 14.878 5.48308C14.9219 5.50048 14.9468 5.53216 14.9497 5.58057C14.8354 5.91876 14.5962 6.17712 14.328 6.36994C13.94 6.64897 13.8532 7.00224 13.9152 7.43751C13.8618 7.73939 13.9116 8.06479 13.7165 8.33403C13.6531 8.55894 13.6012 8.7878 13.5248 9.00822C12.6703 11.4769 11.0303 13.0572 8.4583 13.527C6.94167 13.804 5.48479 13.5731 4.12853 12.7988C4.05685 12.7579 3.9699 12.7347 3.90988 12.6204C5.07013 12.6436 6.12641 12.3735 7.12026 11.6299C6.08193 11.4931 5.39061 10.9915 5.02284 9.99584C5.32201 9.99067 5.59117 10.0693 5.84801 9.97572C5.8397 9.9526 5.96912 9.93601 5.85108 9.90773C5.19258 9.68458 4.72326 9.24061 4.40064 8.62571Z" fill="white"/>
<path fill-rule="evenodd" clip-rule="evenodd" d="M13.7166 8.33401C13.756 8.01989 13.7956 7.70578 13.8352 7.39153C13.8433 7.19885 13.9388 7.13154 14.1308 7.12854C15.1588 7.11168 16.1867 7.11726 17.2147 7.12759C17.3665 7.12909 17.5272 7.12719 17.6319 7.27581C17.8062 8.07633 17.8722 8.88296 17.7653 9.69952C17.7633 9.4659 17.7558 9.23188 17.7612 8.99827C17.7648 8.83754 17.6841 8.76574 17.5416 8.74902C17.4657 8.74018 17.3882 8.74399 17.3115 8.74399C16.3899 8.74371 15.4683 8.74385 14.5466 8.74385C14.1653 8.74385 14.1653 8.74385 14.0423 9.08095C13.9307 8.8249 13.8237 8.57945 13.7166 8.33401Z" fill="#198DC9"/>
<path fill-rule="evenodd" clip-rule="evenodd" d="M5.85126 9.90771C5.88502 9.90975 5.92736 9.90513 5.91946 9.95708C5.91785 9.96687 5.87296 9.96972 5.84818 9.97571C5.84911 9.95313 5.85019 9.93042 5.85126 9.90771Z" fill="#76ABC2"/>
<path fill-rule="evenodd" clip-rule="evenodd" d="M4.29392 5.36361C4.24729 5.71879 4.20562 6.07233 4.27931 6.43132C4.32205 6.64087 4.40686 6.83545 4.45965 7.04065C4.40096 7.09028 4.33866 7.1361 4.28454 7.1905C4.20844 7.26733 4.12068 7.29697 4.02261 7.25604C3.90162 7.20573 3.77716 7.21851 3.65323 7.21837C2.75089 7.21728 1.84855 7.2181 0.946339 7.21769C0.691245 7.21756 0.691246 7.21633 0.597595 6.9868C0.61528 6.87026 0.632965 6.75359 0.65065 6.63692C0.747918 6.40793 0.819866 6.17065 0.876672 5.92847C0.958801 5.78338 1.02016 5.62958 1.05969 5.46695C1.10095 5.43717 1.11047 5.39339 1.11194 5.34593C1.12721 5.34294 1.14262 5.33981 1.15776 5.33668C1.38659 5.21702 1.64008 5.2744 1.87735 5.25958C2.47074 5.22273 3.06735 5.24694 3.66261 5.24762C3.85192 5.24775 4.03628 5.35246 4.23496 5.22681C4.31415 5.17691 4.30852 5.29847 4.29392 5.36361Z" fill="#1A92CF"/>
<path fill-rule="evenodd" clip-rule="evenodd" d="M4.29398 5.36345C4.28393 5.33054 4.29144 5.27098 4.24374 5.28159C4.19069 5.29342 4.13455 5.32524 4.09704 5.36522C4.04626 5.4192 4.02335 5.49997 3.95529 5.37406C3.92166 5.31219 3.83122 5.3402 3.76584 5.34006C3.11323 5.33884 2.46076 5.34074 1.80816 5.33802C1.6778 5.33748 1.55655 5.34278 1.50014 5.53982C1.39752 5.37786 1.31298 5.2718 1.15756 5.33625C1.23112 5.04458 1.42391 4.8092 1.5256 4.53071C1.70151 4.32837 1.79275 4.06525 1.98434 3.87406C2.1695 3.71266 2.35238 3.6312 2.58295 3.81301C2.65744 3.87175 2.78955 3.8315 2.89539 3.83164C5.43856 3.83191 7.98199 3.83245 10.5252 3.83096C10.7679 3.83096 11 3.85407 11.2314 3.94722C11.4347 4.02908 11.6398 4.04798 11.8671 3.92968C12.0751 3.8213 12.3355 3.83708 12.5743 3.83531C13.5764 3.82769 14.5783 3.83667 15.5801 3.82837C15.7849 3.82674 15.9764 3.96218 16.1849 3.87447C16.5539 4.35802 16.8529 4.88167 17.0653 5.45524C16.4013 5.41349 15.7342 5.47672 15.0725 5.40696C14.9117 5.38997 15.0324 5.46979 15.0196 5.4959C14.9969 5.54172 14.9833 5.58319 14.9223 5.573C14.9035 5.55124 14.8849 5.52948 14.8663 5.50773C14.7697 5.4275 14.631 5.65907 14.5503 5.46394C14.5486 5.43566 14.5678 5.41703 14.5825 5.39622C14.5711 5.40411 14.5628 5.41594 14.5505 5.42342C14.5031 5.43402 14.4689 5.41839 14.4495 5.37297C14.4545 5.36073 14.4707 5.34754 14.4479 5.33625C14.4566 5.35135 14.4506 5.36223 14.4289 5.36943C14.362 5.37732 14.3201 5.34836 14.3029 5.28268C14.4179 5.07109 14.5665 4.87623 14.6205 4.62834C14.5436 4.57735 14.4938 4.64276 14.4413 4.66995C14.1143 4.83816 13.7759 4.97237 13.4201 5.06633C13.2738 5.10495 13.1581 5.08646 13.0496 4.98216C12.1989 4.16424 10.6905 4.13582 9.79056 5.17036C9.77193 5.19157 9.7454 5.20531 9.72263 5.22271C9.36089 5.49331 8.94154 5.43334 8.53357 5.43402C7.69514 5.43552 6.85658 5.43131 6.01828 5.4377C5.89328 5.43865 5.74094 5.38317 5.65761 5.54349C5.65238 5.57204 5.64408 5.59951 5.63403 5.62644C5.58606 5.69592 5.51439 5.69198 5.44324 5.68926C5.16256 5.49889 4.94364 5.24175 4.71467 4.99563C4.55229 4.82116 4.52161 4.82633 4.42541 5.04349C4.37892 5.14915 4.33766 5.25684 4.29398 5.36345Z" fill="#1C98D4" fill-opacity="0.98"/>
<path fill-rule="evenodd" clip-rule="evenodd" d="M16.1848 3.87513C16.0993 3.94679 16.0854 3.9729 16.0259 4.17184C15.9505 4.17089 15.9687 4.10983 15.9663 4.06877C15.9602 3.97005 15.9076 3.93143 15.8161 3.93252C15.7582 3.9332 15.7006 3.93143 15.6427 3.93143C14.6022 3.93129 13.5622 3.93048 12.5217 3.93252C12.41 3.93279 12.2888 3.90015 12.1951 4.00227C12.1592 4.04144 12.1066 4.05327 12.0658 4.01492C11.8805 3.841 11.8767 4.01506 11.8399 4.132C11.8348 4.14832 11.8155 4.15988 11.7864 4.19156C11.7042 4.0874 11.5865 4.1063 11.474 4.10847C11.3562 4.11065 11.2362 4.10943 11.1433 4.03097C11.0198 3.9264 10.8797 3.93061 10.7344 3.93061C8.53827 3.93157 6.3421 3.93129 4.1458 3.93129C3.59676 3.93129 3.04772 3.9317 2.49868 3.93075C2.4274 3.93061 2.34112 3.96175 2.38265 3.8134C2.40463 3.73439 2.28806 3.69727 2.23045 3.77682C2.1632 3.86969 2.1151 3.96583 1.98407 3.875C2.06097 3.67497 2.24506 3.54892 2.33201 3.35569C2.58322 3.08373 2.8347 2.81191 3.08604 2.54008C3.11257 2.53124 3.13909 2.5224 3.16576 2.51343C3.40745 2.31164 3.65437 2.3149 3.92179 2.46978C4.06662 2.55368 4.23959 2.53709 4.40317 2.53709C7.60752 2.53791 10.8117 2.53804 14.0161 2.53709C14.1699 2.53709 14.3242 2.53709 14.4715 2.47957C14.6533 2.40859 14.8301 2.42885 15.0022 2.51465C15.4632 2.90804 15.8557 3.36303 16.1848 3.87513Z" fill="#1C9DD9"/>
<path fill-rule="evenodd" clip-rule="evenodd" d="M15.0023 2.51428C14.7961 2.53631 14.5811 2.4898 14.3894 2.62565C14.3363 2.66318 14.2394 2.63952 14.1628 2.63952C10.8549 2.63993 7.54672 2.63694 4.23881 2.64591C4.00863 2.64659 3.82736 2.49144 3.60295 2.50748C3.59477 2.50803 3.5799 2.47933 3.57602 2.46234C3.53489 2.28692 3.47218 2.39448 3.41297 2.4486C3.36581 2.49171 3.43172 2.56786 3.36634 2.60797C3.29131 2.59628 3.25005 2.50694 3.16605 2.51306C3.81276 1.86715 4.55164 1.36022 5.38512 0.996067C5.79871 0.963704 6.20185 1.08173 6.61544 1.07793C7.78091 1.06678 8.94665 1.07521 10.1124 1.07358C10.7851 1.07249 11.4597 1.10417 12.1281 0.994843C12.3485 0.958672 12.5667 1.06215 12.7861 0.99661C12.8991 1.03931 13.0121 1.08187 13.125 1.12457C13.1503 1.16808 13.1916 1.18182 13.2377 1.18698C13.6135 1.43474 14.0047 1.6591 14.3579 1.94113C14.5826 2.12076 14.8173 2.28883 15.0023 2.51428Z" fill="#1FA1DD"/>
<path fill-rule="evenodd" clip-rule="evenodd" d="M14.9227 5.57335C15.0357 5.50618 14.9286 5.42241 14.9363 5.33974C15.543 5.33974 16.1471 5.34395 16.7509 5.33634C16.8789 5.3347 16.9689 5.39413 17.0656 5.45573C17.1038 5.51515 17.1423 5.57457 17.1806 5.63413C17.3304 6.12257 17.5174 6.59986 17.612 7.10489C17.6226 7.16119 17.6257 7.21884 17.6321 7.27595C17.4361 7.22591 17.2362 7.21776 17.0352 7.21789C16.0261 7.21857 15.017 7.22605 14.0079 7.21218C13.8427 7.20987 13.9211 7.36325 13.8354 7.39181C13.8324 7.37264 13.8279 7.35374 13.8263 7.33456C13.7867 6.93029 13.8487 6.59157 14.2351 6.34436C14.5227 6.15997 14.7098 5.8464 14.9227 5.57335Z" fill="#1A92CF"/>
<path fill-rule="evenodd" clip-rule="evenodd" d="M12.7861 0.996628C12.6737 1.10868 12.5637 1.21569 12.3969 1.07563C12.3679 1.05143 12.3046 1.06407 12.2581 1.06911C12.2207 1.07318 12.1829 1.08787 12.1489 1.10473C12.0247 1.16619 11.8879 1.02382 11.7738 1.12119C11.6612 1.21746 11.5369 1.16932 11.4201 1.16973C9.70902 1.17381 7.99785 1.17272 6.28669 1.17204C6.15392 1.17204 6.01806 1.19257 5.9015 1.09304C5.83264 1.03416 5.75721 1.08311 5.68272 1.09997C5.56629 1.12649 5.45 1.13166 5.38528 0.996084C5.55919 0.859832 5.78481 0.829645 5.96461 0.705495C6.41758 0.57713 6.86065 0.41545 7.32435 0.32448C9.06968 -0.0179177 10.7681 0.127173 12.4166 0.813191C12.4868 0.842427 12.5522 0.884037 12.6198 0.919799C12.6304 0.932037 12.638 0.946043 12.6427 0.961817L12.6552 0.982486C12.6552 0.982486 12.6722 0.965625 12.6727 0.965625C12.69 0.966305 12.7064 0.964537 12.7226 0.960321C12.7526 0.956514 12.7728 0.970248 12.7861 0.996628Z" fill="#1FA6E1"/>
<path fill-rule="evenodd" clip-rule="evenodd" d="M12.7224 0.960688C12.6922 0.991827 12.6532 0.996178 12.6132 0.996586V0.99645C12.6154 0.971022 12.6174 0.945594 12.6197 0.920166C12.654 0.933628 12.6882 0.94709 12.7224 0.960688Z" fill="#1FA1DD"/>
<path fill-rule="evenodd" clip-rule="evenodd" d="M17.3553 12.148L17.3675 12.1259L17.3771 12.1356L17.3553 12.148Z" fill="#FEFEFE"/>
<path fill-rule="evenodd" clip-rule="evenodd" d="M5.44333 5.68996C5.48634 5.62577 5.55252 5.63475 5.61576 5.63325C5.57195 5.5707 5.5284 5.50802 5.4791 5.43758C5.61415 5.33437 5.76555 5.33926 5.91694 5.3394C6.96719 5.34008 8.01758 5.33967 9.06783 5.33967C9.23959 5.33967 9.41443 5.36361 9.54814 5.20533C9.59624 5.14835 9.67046 5.15501 9.72285 5.22314H9.72271C9.69833 5.24014 9.67944 5.26176 9.66832 5.2899L9.67261 5.28419C9.63898 5.30119 9.61727 5.32716 9.61339 5.36633C9.44069 5.70437 9.27134 6.04201 9.2337 6.43186C9.21373 6.63787 9.21025 6.83953 9.24147 7.04445C9.26692 7.21239 9.24616 7.23129 9.07587 7.22272C8.80577 7.2094 8.54063 7.16017 8.27642 7.10415C7.32853 6.90276 6.46746 6.50638 5.694 5.91514C5.6254 5.86279 5.56552 5.79901 5.50147 5.74054C5.48017 5.72722 5.46128 5.7109 5.44534 5.69118L5.44333 5.68996Z" fill="#1994D0"/>
<path fill-rule="evenodd" clip-rule="evenodd" d="M14.5798 5.39836C14.5929 5.48267 14.6403 5.54359 14.7061 5.45969C14.8197 5.3146 14.8264 5.4499 14.8667 5.5081C14.5346 5.66339 14.1835 5.74688 13.8162 5.81392C13.9868 5.62803 14.1451 5.45561 14.3034 5.28333C14.3536 5.31175 14.4032 5.3422 14.4639 5.33962V5.33976C14.4901 5.38463 14.5322 5.39673 14.5798 5.39836Z" fill="#1A92CF"/>
<path fill-rule="evenodd" clip-rule="evenodd" d="M5.44522 5.69141C5.46398 5.70786 5.4826 5.72431 5.50135 5.74077C5.46974 5.73941 5.45219 5.72159 5.44522 5.69141Z" fill="#1C98D4" fill-opacity="0.98"/>
<path fill-rule="evenodd" clip-rule="evenodd" d="M9.61322 5.36631C9.61818 5.32783 9.6372 5.29995 9.67244 5.28418C9.66762 5.32266 9.64738 5.34945 9.61322 5.36631Z" fill="#1C98D4" fill-opacity="0.98"/>
<path fill-rule="evenodd" clip-rule="evenodd" d="M9.66821 5.29003C9.6863 5.26773 9.70452 5.24557 9.72261 5.22327C9.71846 5.25726 9.70144 5.28051 9.66821 5.29003Z" fill="#1C98D4" fill-opacity="0.98"/>
<path fill-rule="evenodd" clip-rule="evenodd" d="M14.4638 5.33954C14.4708 5.31547 14.4777 5.2914 14.4846 5.26733C14.5353 5.30854 14.4828 5.31914 14.4638 5.33981V5.33954Z" fill="#1A92CF"/>
<path fill-rule="evenodd" clip-rule="evenodd" d="M14.5795 5.39852L14.5916 5.37622L14.6013 5.38601L14.5795 5.39852Z" fill="#1A92CF"/>
<path fill-rule="evenodd" clip-rule="evenodd" d="M12.6131 0.996582C12.5936 1.01072 12.5743 1.02473 12.5548 1.03874C12.5372 0.97197 12.5944 1.01168 12.6131 0.996582Z" fill="#1FA1DD"/>
<path fill-rule="evenodd" clip-rule="evenodd" d="M5.61594 5.63318L5.63777 5.64569L5.62813 5.65548L5.61594 5.63318Z" fill="#1C98D4" fill-opacity="0.98"/>
</svg>
