<svg width="18" height="18" viewBox="0 0 18 18" fill="none" xmlns="http://www.w3.org/2000/svg">
<path fill-rule="evenodd" clip-rule="evenodd" d="M13.7405 2.8699C14.0163 3.05996 14.3009 3.23985 14.566 3.44175C16.2889 4.75326 17.3573 6.41878 17.7386 8.45294C17.748 8.50321 17.7688 8.5518 17.7844 8.60123C17.7792 8.72438 17.781 8.8467 17.8348 8.96279C17.874 8.99451 17.8688 9.02934 17.843 9.06548C17.8426 9.56517 17.8422 10.065 17.8418 10.5647C17.8542 10.5769 17.8578 10.5886 17.8526 10.5996C17.8475 10.6104 17.8427 10.6159 17.8382 10.6159C17.778 10.8684 17.7417 11.1242 17.7174 11.3815L17.7167 11.3823C17.6623 11.4466 17.6671 11.5222 17.6683 11.597C17.6828 11.6121 17.6856 11.6241 17.6765 11.6331C17.6688 11.6405 17.6614 11.6442 17.6539 11.6442C17.6084 11.6908 17.6095 11.747 17.6142 11.804C17.6443 11.8838 17.6201 11.9506 17.5565 12.0079C17.5105 12.0527 17.4992 12.1069 17.5052 12.166C17.5207 12.1875 17.5146 12.203 17.4898 12.2134C17.4135 12.3594 17.3558 12.5112 17.3239 12.6709L17.3229 12.67C17.2604 12.7495 17.2228 12.8381 17.2076 12.9351C17.2164 12.9781 17.2088 13.0147 17.1618 13.0361C17.0966 13.1094 17.057 13.1932 17.0418 13.2868L17.0598 13.3043L17.0375 13.2915C16.9615 13.387 16.901 13.4896 16.8671 13.6045C16.8783 13.6372 16.8615 13.6565 16.8305 13.6687C16.7373 13.7777 16.666 13.8981 16.6092 14.0262C16.2664 14.497 15.9126 14.9593 15.4915 15.3756C14.7064 16.1515 13.7946 16.7666 12.7565 17.2237C12.6902 17.2527 12.6158 17.2688 12.5641 17.3219L12.5616 17.3242C12.133 17.4634 11.7045 17.6025 11.2763 17.7416C10.9439 17.7807 10.6221 17.8696 10.2896 17.912C7.75943 18.2334 5.48562 17.6732 3.46216 16.2401C3.04742 15.9464 2.68696 15.5986 2.31468 15.2624C2.17665 15.2484 2.11432 15.1451 2.0394 15.0596C0.873991 13.7317 0.192271 12.2242 0.035412 10.5163C-0.160013 8.38915 0.454965 6.48269 1.8419 4.7809C2.31637 4.2288 2.84161 3.72265 3.45152 3.29466C3.46957 3.27791 3.48904 3.26259 3.50878 3.24775C3.52735 3.23183 3.54735 3.21758 3.5676 3.20358C3.58695 3.18874 3.60798 3.17569 3.62928 3.16325C3.82094 3.03363 4.01468 2.90688 4.21712 2.79175C4.23776 2.7787 4.25945 2.76745 4.28165 2.75668C4.45254 2.66596 4.62381 2.5756 4.80313 2.49972C4.82313 2.48942 4.84429 2.48069 4.86546 2.47243C4.89545 2.45962 4.92635 2.44789 4.95648 2.43521C4.97544 2.42551 4.99517 2.41713 5.01465 2.40876C5.04348 2.39451 5.07257 2.38087 5.10152 2.36615C5.12165 2.3543 5.1423 2.34437 5.16372 2.33455C5.24384 2.29877 5.32305 2.26226 5.40148 2.22516C5.42238 2.21427 5.44446 2.20506 5.46654 2.1962C5.49861 2.18172 5.53172 2.16879 5.56509 2.15598C5.58768 2.14617 5.61067 2.13839 5.63404 2.13061C5.67079 2.11828 5.7061 2.10296 5.74272 2.08944C5.76934 2.07879 5.79635 2.07101 5.82427 2.06454C6.5787 1.76581 7.37521 1.61633 8.18495 1.55804C9.92443 1.43297 11.5859 1.71207 13.1357 2.47339C13.3536 2.58062 13.6026 2.65603 13.7405 2.8699Z" fill="#4E525B"/>
<path fill-rule="evenodd" clip-rule="evenodd" d="M17.324 12.671C17.3739 12.6717 17.4067 12.5824 17.4786 12.672C17.5737 12.7909 17.5557 12.914 17.5544 13.0406C17.5541 13.0729 17.5475 13.1125 17.4987 13.1174C17.4409 13.1231 17.4145 13.0841 17.4029 13.0429C17.3912 13.0023 17.3888 12.958 17.3909 12.9156C17.3955 12.8267 17.3734 12.7455 17.3231 12.6702C17.323 12.6701 17.324 12.671 17.324 12.671Z" fill="#F8F8F8"/>
<path fill-rule="evenodd" clip-rule="evenodd" d="M17.909 9.97556C17.8892 9.80262 17.8874 9.66977 17.9106 9.49658C18.0515 9.67084 18.0063 9.80345 17.909 9.97556Z" fill="#F8F8F8"/>
<path fill-rule="evenodd" clip-rule="evenodd" d="M17.5566 12.0081C17.5527 11.9345 17.5643 11.8648 17.6143 11.8042C17.6765 11.8317 17.7228 11.8685 17.6787 11.9368C17.6527 11.9773 17.6526 12.0657 17.5566 12.0081Z" fill="#F8F8F8"/>
<path fill-rule="evenodd" clip-rule="evenodd" d="M17.1621 13.0363C17.161 12.9963 17.1684 12.9596 17.2079 12.9353C17.2701 12.9622 17.2683 13.0069 17.2492 13.0576C17.2397 13.0831 17.2591 13.1324 17.203 13.1189C17.1656 13.1098 17.1679 13.0676 17.1621 13.0363Z" fill="#F8F8F8"/>
<path fill-rule="evenodd" clip-rule="evenodd" d="M16.8308 13.6689C16.8294 13.641 16.839 13.6183 16.8674 13.6047C16.9282 13.6354 16.9517 13.6821 16.8898 13.7214C16.8395 13.7533 16.8382 13.6994 16.8308 13.6689Z" fill="#F8F8F8"/>
<path fill-rule="evenodd" clip-rule="evenodd" d="M17.843 9.06558C17.8403 9.03123 17.8376 8.99712 17.8348 8.96289C17.8656 8.96732 17.9098 8.95954 17.9098 9.00238C17.9098 9.03602 17.8734 9.05158 17.843 9.06558Z" fill="#F8F8F8"/>
<path fill-rule="evenodd" clip-rule="evenodd" d="M17.8383 10.6162C17.8396 10.5991 17.8407 10.5819 17.8419 10.5649C17.8477 10.5774 17.855 10.5895 17.8581 10.6024C17.8588 10.6056 17.8453 10.6115 17.8383 10.6162Z" fill="#F8F8F8"/>
<path fill-rule="evenodd" clip-rule="evenodd" d="M17.7175 11.3816C17.7254 11.3891 17.7332 11.3966 17.7411 11.4041C17.7329 11.3968 17.725 11.3896 17.7169 11.3824C17.7168 11.3824 17.7175 11.3816 17.7175 11.3816Z" fill="#F8F8F8"/>
<path fill-rule="evenodd" clip-rule="evenodd" d="M17.6541 11.6443C17.648 11.6258 17.6526 11.6101 17.6684 11.5972C17.7082 11.6246 17.6921 11.6373 17.6541 11.6443Z" fill="#F8F8F8"/>
<path fill-rule="evenodd" clip-rule="evenodd" d="M17.4899 12.2137C17.4849 12.195 17.4899 12.1792 17.5054 12.1663C17.5251 12.1776 17.5294 12.1914 17.5147 12.2046C17.509 12.2098 17.4985 12.2107 17.4899 12.2137Z" fill="#F8F8F8"/>
<path fill-rule="evenodd" clip-rule="evenodd" d="M17.042 13.2869C17.0502 13.2958 17.0582 13.3047 17.0663 13.3137C17.0568 13.3064 17.0473 13.2991 17.0378 13.2917C17.0377 13.2917 17.042 13.2869 17.042 13.2869Z" fill="#F8F8F8"/>
<path fill-rule="evenodd" clip-rule="evenodd" d="M3.82633 16.712C3.82724 16.7893 3.82399 16.8672 3.73154 16.9026C3.67596 16.9238 3.62038 16.9102 3.58727 16.8633C3.54572 16.8045 3.59194 16.7745 3.64246 16.7473C3.69998 16.7162 3.76244 16.7113 3.82633 16.712Z" fill="#FEFEFE"/>
<path fill-rule="evenodd" clip-rule="evenodd" d="M2.9636 15.9744C2.95905 16.0285 2.91749 16.0378 2.87087 16.0355C2.83633 16.0335 2.79101 16.0309 2.79478 15.9866C2.7988 15.9392 2.8449 15.9225 2.8897 15.919C2.92853 15.9159 2.95529 15.9374 2.9636 15.9744Z" fill="#FEFEFE"/>
<path fill-rule="evenodd" clip-rule="evenodd" d="M3.87898 16.646C3.88599 16.66 3.90235 16.6784 3.89767 16.687C3.89144 16.6985 3.86937 16.7077 3.8534 16.709C3.79289 16.7139 3.83638 16.6772 3.8369 16.6629C3.83755 16.6433 3.8582 16.6378 3.87898 16.646Z" fill="#FEFEFE"/>
<path fill-rule="evenodd" clip-rule="evenodd" d="M12.2196 17.6447C12.3419 17.5773 12.464 17.5736 12.6404 17.6409C12.4679 17.7144 12.3443 17.6993 12.2196 17.6447Z" fill="#FAFAFA"/>
<path fill-rule="evenodd" clip-rule="evenodd" d="M12.5701 17.3835C12.5673 17.3639 12.5646 17.3443 12.5619 17.3245C12.5619 17.3245 12.5644 17.3224 12.5645 17.3223C12.5924 17.3406 12.6115 17.3597 12.5701 17.3835Z" fill="#FAFAFA"/>
<path fill-rule="evenodd" clip-rule="evenodd" d="M12.57 17.3835L12.5581 17.4031L12.5487 17.3944L12.57 17.3835Z" fill="#FAFAFA"/>
<path fill-rule="evenodd" clip-rule="evenodd" d="M2.46269 14.7545C1.97679 14.2593 1.61075 13.6921 1.30716 13.0907C-0.955614 8.61075 1.84824 3.31748 7.07251 2.21123C7.81006 2.05504 8.55903 1.97139 9.31931 2.03793C9.77482 2.27443 9.83676 2.65227 9.81741 3.09355C9.78806 3.7639 9.81417 4.43605 9.80781 5.10724C9.80443 5.47299 9.74184 5.52661 9.35099 5.52697C8.37049 5.52793 7.38987 5.53176 6.40963 5.52493C6.05007 5.52242 5.70765 5.59232 5.36628 5.67921C4.70547 5.88794 4.48628 6.1583 4.48511 6.80173C4.48122 8.8056 4.48356 10.8095 4.48317 12.8135C4.48317 12.9687 4.50316 13.1224 4.51848 13.2756C4.5277 13.3754 4.47459 13.4842 4.56757 13.5729C4.5825 13.5903 4.59522 13.6093 4.60652 13.6286C4.63158 13.691 4.67028 13.7422 4.74118 13.767C4.76092 13.7786 4.77779 13.7933 4.7922 13.8101C4.80142 13.8304 4.79818 13.8492 4.7826 13.866C4.77143 13.8885 4.76065 13.8911 4.75014 13.8734C4.74715 13.877 4.74559 13.8795 4.7465 13.8799C4.77636 13.8934 4.7774 13.859 4.79662 13.8541C4.80753 13.8522 4.81817 13.8505 4.82908 13.8485C4.83986 13.8507 4.85064 13.8531 4.86154 13.8551C4.92218 13.8806 4.98075 13.9103 5.04659 13.925C5.0697 13.9299 5.09203 13.9362 5.11463 13.9423C5.19981 13.9657 5.28901 13.9562 5.37549 13.9706C5.40328 13.9743 5.4299 13.9806 5.45652 13.9885C5.52898 14.0209 5.64468 14.0292 5.62884 14.1286C5.5965 14.3314 5.74336 14.3057 5.87113 14.3068C6.22575 14.3094 6.58051 14.3039 6.93487 14.3097C7.06329 14.3118 7.21041 14.2973 7.28183 14.4275C7.35584 14.5629 7.30338 14.6834 7.22417 14.8136C7.01693 15.154 6.8332 15.5067 6.65218 15.8598C6.48663 16.1826 6.3012 16.4962 6.13862 16.821C6.02371 17.0509 5.76985 16.9455 5.56469 16.92L5.56196 16.919C5.53262 16.886 5.48224 16.8948 5.4486 16.8702L5.44821 16.8704C5.37432 16.6605 5.15878 16.7141 4.99828 16.665L4.99815 16.6656C4.96062 16.5724 4.85388 16.5948 4.78338 16.5565L4.77831 16.5543C4.75754 16.5383 4.74313 16.5129 4.71041 16.5144L4.71586 16.519C4.69833 16.4692 4.64015 16.482 4.60574 16.4582L4.60769 16.4595C4.50823 16.3703 4.39396 16.3022 4.26476 16.2554L4.26839 16.2581C4.22671 16.2021 4.16191 16.1771 4.09829 16.1503L4.09932 16.1518C4.05414 16.0622 3.97415 16.0165 3.87222 15.9985L3.87235 15.9994C3.85482 15.9195 3.80885 15.8739 3.7138 15.8868L3.71276 15.886C3.69497 15.8667 3.67796 15.8466 3.65082 15.8374L3.65225 15.8397C3.67601 15.6431 3.46228 15.7067 3.37866 15.6277L3.3771 15.6264C3.35931 15.6087 3.34036 15.5923 3.31997 15.5773L3.31957 15.577C3.20492 15.4069 3.08364 15.2434 2.86679 15.1702L2.86666 15.1695C2.77304 14.9971 2.6337 14.8626 2.46269 14.7545Z" fill="#FDFDFD"/>
<path fill-rule="evenodd" clip-rule="evenodd" d="M12.9571 16.6595C12.8243 16.7556 12.6739 16.8193 12.5131 16.8639C12.5005 16.8584 12.4905 16.85 12.4834 16.8393C12.4835 16.8393 12.4668 16.8492 12.4668 16.8492C12.4668 16.8492 12.4857 16.8547 12.4859 16.8549C12.4735 16.8628 12.4669 16.8734 12.4659 16.8871C12.305 16.9715 12.1397 17.0462 11.9559 17.0787C11.9053 17.1018 11.7956 16.9749 11.7979 17.1318C11.7095 17.1867 11.6122 17.2176 11.506 17.2243C11.4093 17.0546 11.4747 16.9325 11.5644 16.7601C11.6862 16.5266 11.8863 16.3173 11.8901 16.0168C11.8928 15.7903 12.1106 15.6002 12.2027 15.3804C12.215 15.351 12.2701 15.3318 12.2724 15.3024C12.3049 14.8909 12.5683 14.5431 12.643 14.1441C12.6518 14.096 12.5975 14.0728 12.5699 14.0391C12.5961 13.8532 12.7632 13.9094 12.8829 13.8838C12.9031 13.8463 12.9376 13.9727 12.9532 13.8777C13.092 13.7306 13.2634 13.6129 13.3909 13.4572C13.4547 13.4099 13.3984 13.3508 13.4073 13.2972C13.4406 11.6631 13.4131 10.0301 13.4212 8.39696C13.4239 7.85551 13.42 7.31393 13.4227 6.77248C13.4234 6.64466 13.4095 6.51289 13.4948 6.39823C13.6727 6.34186 13.6746 6.46777 13.6815 6.56423C13.6919 6.70977 13.675 6.85638 13.675 7.00276C13.6758 8.13868 13.6681 9.27472 13.678 10.4106C13.6843 11.1322 13.6104 11.8531 13.6653 12.474C13.5947 11.9606 13.7006 11.3503 13.7091 10.7379C13.7101 10.6602 13.7063 10.575 13.7509 10.5108C13.8984 10.2997 13.872 10.0657 13.8741 9.83485C13.8758 9.65281 13.9045 9.49027 14.0234 9.32547C14.1655 9.12847 14.1237 8.87582 14.1202 8.64734C14.1169 8.43741 14.1464 8.2616 14.2564 8.06292C14.4035 7.79746 14.3409 7.47335 14.3419 7.1751C14.3428 6.90126 14.2761 6.62958 14.5024 6.39081C14.5803 6.3087 14.5429 6.1749 14.5465 6.06359C14.5645 5.50514 14.5035 4.94466 14.5936 4.38801C14.6098 4.28748 14.6048 4.17892 14.7011 4.10376C15.0229 4.34433 15.3014 4.62211 15.5418 4.93281C15.5471 5.03646 15.5955 5.10959 15.711 5.13496C15.775 5.17122 15.8126 5.22532 15.8351 5.28995C15.8238 5.39934 15.8178 5.50538 15.9904 5.49796C16.1548 5.68611 16.2963 5.88682 16.3902 6.11386C16.359 6.14402 16.3229 6.17035 16.3016 6.20841C16.3231 6.17047 16.3581 6.14294 16.3889 6.11206C16.4693 6.18758 16.513 6.28118 16.5439 6.38088C16.5323 6.39308 16.5264 6.39907 16.5264 6.39907C16.5356 6.41439 16.5498 6.42324 16.5687 6.4254C16.9209 7.02837 17.1458 7.67466 17.269 8.34454C17.7541 10.9863 17.013 13.2978 15.0116 15.2488C14.4197 15.8255 13.7415 16.3082 12.9607 16.6576L12.9571 16.6595Z" fill="#F8F8F8"/>
<path fill-rule="evenodd" clip-rule="evenodd" d="M12.5634 14.0211C12.6284 14.0246 12.6951 14.0211 12.7582 14.0332C12.8444 14.0497 12.8759 14.1231 12.8007 14.1572C12.603 14.2471 12.6293 14.4029 12.6259 14.5555C12.6234 14.6643 12.6526 14.7841 12.477 14.8147C12.3961 14.8287 12.4042 14.9051 12.4029 14.9643C12.4007 15.0588 12.4023 15.1532 12.4011 15.2476C12.4005 15.2989 12.4088 15.3794 12.3592 15.3877C12.1408 15.425 12.1827 15.5759 12.1754 15.7081C12.1725 15.763 12.1561 15.8154 12.0905 15.8256C11.9486 15.8477 11.9521 15.9422 11.9533 16.0396C11.9546 16.1254 11.9538 16.2115 11.9525 16.2971C11.9516 16.3582 11.9516 16.4288 11.8709 16.4428C11.7329 16.4671 11.7236 16.554 11.7293 16.6546C11.7355 16.7637 11.7275 16.8519 11.5732 16.8816C11.492 16.8974 11.4298 16.9831 11.5323 17.0562C11.6432 17.1354 11.5107 17.1683 11.5062 17.224C11.062 17.3912 10.5924 17.4679 10.1222 17.5246C8.64144 17.7034 7.20114 17.5523 5.81266 17.0316C5.72747 16.9997 5.63333 16.9837 5.56477 16.9201C5.65528 16.901 5.7463 16.8923 5.84018 16.8927C6.04547 16.8938 6.11235 16.8434 6.12157 16.6622C6.12702 16.5518 6.13611 16.4557 6.26506 16.4108C6.2735 16.4081 6.28648 16.402 6.28725 16.3964C6.31712 16.1799 6.47372 16.0182 6.57215 15.8313C6.57579 15.8244 6.575 15.8139 6.57266 15.8058C6.51904 15.6298 6.74329 15.62 6.78484 15.5052C6.82562 15.3915 6.75017 15.2427 6.9304 15.1723C7.07791 15.1147 6.99845 14.9737 7.03026 14.8725C7.0648 14.7621 7.24139 14.7687 7.24828 14.6244C7.25685 14.4412 7.22724 14.3895 7.02728 14.3881C6.60747 14.3846 6.1874 14.3869 5.76747 14.3869C5.71137 14.3867 5.65515 14.3899 5.59957 14.3852C5.44973 14.3724 5.43155 14.3324 5.5153 14.2028C5.534 14.1742 5.5601 14.1499 5.58165 14.1248C5.54101 14.047 5.43012 14.0984 5.39648 14.0247C5.4979 13.9255 5.63333 13.9327 5.76227 13.9324C7.90688 13.9293 10.0515 13.9295 12.1961 13.9324C12.3246 13.9329 12.4601 13.9244 12.5634 14.0211Z" fill="#FAFAFA"/>
<path fill-rule="evenodd" clip-rule="evenodd" d="M14.7015 4.10367C14.6205 4.84858 14.647 5.59577 14.6427 6.34236C14.6423 6.40807 14.6641 6.50071 14.5709 6.51854C14.3959 6.55205 14.4179 6.66826 14.4205 6.77801C14.4235 6.91457 14.3988 7.05317 14.4581 7.18638C14.4716 7.21642 14.4779 7.25771 14.4669 7.28727C14.3882 7.49708 14.4294 7.71359 14.42 7.92698C14.4147 8.04392 14.4491 8.16707 14.2609 8.20908C14.1617 8.23122 14.1808 8.3466 14.1996 8.4129C14.2778 8.6865 14.1726 8.95603 14.1934 9.22747C14.1982 9.29234 14.2182 9.38941 14.1302 9.40736C13.9419 9.44602 13.9724 9.57157 13.9714 9.68886C13.9699 9.85223 13.9731 10.0157 13.9703 10.1791C13.9685 10.2948 14.0044 10.4199 13.8454 10.4906C13.7843 10.5178 13.8037 10.5991 13.8034 10.6584C13.8022 10.8304 13.8007 11.0025 13.8036 11.1745C13.8056 11.2959 13.8009 11.4139 13.7334 11.5243C13.6704 11.6275 13.6744 11.7441 13.7034 11.8518C13.788 12.1667 13.7282 12.4852 13.7448 12.8015C13.7475 12.8526 13.7432 12.9166 13.6713 12.9207C13.5748 12.9262 13.5843 12.8492 13.581 12.7917C13.5773 12.7231 13.5796 12.6542 13.5796 12.5853C13.5796 10.7102 13.579 8.83515 13.581 6.96005C13.5812 6.81524 13.5551 6.66803 13.6104 6.52512C13.6378 6.45403 13.5884 6.41286 13.5287 6.38006C13.4159 6.35146 13.3734 6.26122 13.3289 6.17768C13.1685 5.87739 12.891 5.74586 12.547 5.70816C12.3988 5.69188 12.2494 5.69583 12.1005 5.69571C10.0051 5.69559 7.9097 5.69667 5.81431 5.69367C5.65174 5.69355 5.47462 5.73006 5.33997 5.59972C5.6433 5.52743 5.94702 5.45191 6.26281 5.45119C7.28837 5.44892 8.31406 5.45036 9.33961 5.45036C9.4048 5.45036 9.47025 5.44736 9.5353 5.45036C9.67022 5.45646 9.71852 5.39279 9.71177 5.27657C9.70826 5.21673 9.71163 5.15629 9.71163 5.09621C9.71163 4.31419 9.70086 3.53193 9.718 2.75028C9.72332 2.50696 9.66658 2.33078 9.41233 2.24138C9.29624 2.20045 9.29689 2.12684 9.31936 2.03851C10.0721 2.02678 10.7986 2.16981 11.5105 2.37483C12.6072 2.69079 13.5917 3.19957 14.4647 3.88943C14.5486 3.9555 14.6441 4.01211 14.7015 4.10367Z" fill="#FAFAFA"/>
<path fill-rule="evenodd" clip-rule="evenodd" d="M3.26596 3.28037C3.36127 3.26948 3.45788 3.20928 3.55072 3.28671C3.28284 3.50861 3.01301 3.72883 2.74721 3.953C2.44621 4.20685 2.20002 4.50761 1.92279 4.78181C1.8815 4.57272 1.88422 4.57667 2.07913 4.45651C2.1508 4.41234 2.24702 4.35226 2.2604 4.28691C2.30299 4.07795 2.49893 4.00446 2.63683 3.88178C2.70059 3.82505 2.70955 3.72751 2.75811 3.69711C2.86394 3.63069 2.95743 3.53267 3.05339 3.4885C3.17013 3.43464 3.21051 3.36223 3.26596 3.28037Z" fill="#FCFCFC"/>
<path fill-rule="evenodd" clip-rule="evenodd" d="M5.11515 2.39987C5.08918 2.36504 5.044 2.33177 5.04088 2.29515C5.03244 2.20048 4.96115 2.08307 5.05633 2.01473C5.14164 1.95369 5.26981 1.98361 5.37759 1.99965C5.43667 2.00839 5.44043 2.05829 5.40849 2.09755C5.34395 2.17678 5.38251 2.21975 5.46302 2.2529C5.35719 2.3222 5.24007 2.36887 5.11515 2.39987Z" fill="#FCFCFC"/>
<path fill-rule="evenodd" clip-rule="evenodd" d="M3.61084 3.24243C3.61136 3.11641 3.78134 3.02042 3.68382 2.87309C3.66629 2.84664 3.73069 2.81014 3.75835 2.82581C3.93573 2.92707 4.107 2.83754 4.28035 2.82007C4.06701 2.97434 3.84496 3.11641 3.61084 3.24243Z" fill="#FCFCFC"/>
<path fill-rule="evenodd" clip-rule="evenodd" d="M4.27979 2.82088C4.28939 2.73435 4.29355 2.64602 4.42093 2.63142C4.44521 2.62867 4.4656 2.6027 4.48936 2.59001C4.56818 2.54824 4.52494 2.40342 4.65998 2.4136C4.74412 2.41994 4.7936 2.50946 4.88618 2.50503C4.69128 2.62185 4.49274 2.73315 4.27979 2.82088Z" fill="#FCFCFC"/>
<path fill-rule="evenodd" clip-rule="evenodd" d="M4.99805 16.6655C5.04414 16.6593 5.09102 16.6563 5.13608 16.6465C5.4089 16.5873 5.43097 16.6028 5.44785 16.8709C5.28372 16.829 5.13127 16.7652 4.99805 16.6655Z" fill="#FAFAFA"/>
<path fill-rule="evenodd" clip-rule="evenodd" d="M2.86658 15.1704C3.13732 15.1746 3.33105 15.3487 3.31937 15.5772C3.14381 15.465 2.99604 15.3262 2.86658 15.1704Z" fill="#FAFAFA"/>
<path fill-rule="evenodd" clip-rule="evenodd" d="M2.46277 14.7546C2.71936 14.7922 2.847 14.9363 2.86648 15.1697C2.70663 15.0523 2.57223 14.9137 2.46277 14.7546Z" fill="#FAFAFA"/>
<path fill-rule="evenodd" clip-rule="evenodd" d="M15.9907 5.49793C15.9756 5.57704 15.9317 5.63676 15.8497 5.56974C15.7931 5.52354 15.7592 5.44562 15.7355 5.37597C15.7127 5.30858 15.7828 5.30069 15.8354 5.28979C15.9088 5.34557 15.9611 5.41451 15.9907 5.49793Z" fill="#FAFAFA"/>
<path fill-rule="evenodd" clip-rule="evenodd" d="M3.37842 15.6281C3.42504 15.6278 3.47179 15.6256 3.51827 15.6275C3.74487 15.6361 3.74487 15.6364 3.65203 15.8399C3.54568 15.7862 3.44919 15.7212 3.37842 15.6281Z" fill="#FAFAFA"/>
<path fill-rule="evenodd" clip-rule="evenodd" d="M15.7113 5.13501C15.4763 5.14255 15.4575 5.11993 15.542 4.93286C15.6211 4.98409 15.6755 5.05303 15.7113 5.13501Z" fill="#FAFAFA"/>
<path fill-rule="evenodd" clip-rule="evenodd" d="M11.798 17.1316C11.7551 17.1213 11.7002 17.118 11.7183 17.0573C11.7306 17.0157 11.7593 16.9796 11.8128 16.9786C11.8873 16.977 11.9267 17.0227 11.9561 17.0786C11.9149 17.1254 11.8568 17.1296 11.798 17.1316Z" fill="#FAFAFA"/>
<path fill-rule="evenodd" clip-rule="evenodd" d="M3.87195 15.9989C4.10048 15.9415 4.10048 15.9416 4.09919 16.1522C4.00556 16.1237 3.93064 16.0713 3.87195 15.9989Z" fill="#FAFAFA"/>
<path fill-rule="evenodd" clip-rule="evenodd" d="M4.78308 16.5569C4.80892 16.549 4.84112 16.5475 4.85956 16.5319C4.95916 16.4478 5.00045 16.4759 5.00188 16.5901C5.00214 16.6153 4.99928 16.6408 4.99798 16.6661C4.91189 16.6536 4.84346 16.6122 4.78308 16.5569Z" fill="#FAFAFA"/>
<path fill-rule="evenodd" clip-rule="evenodd" d="M4.26453 16.2556C4.42152 16.2628 4.53942 16.3256 4.60746 16.4598C4.47462 16.4181 4.3623 16.3474 4.26453 16.2556Z" fill="#FAFAFA"/>
<path fill-rule="evenodd" clip-rule="evenodd" d="M3.71375 15.887C3.81698 15.8644 3.91437 15.8486 3.8723 15.9995C3.80282 15.9818 3.74971 15.9446 3.71375 15.887Z" fill="#FAFAFA"/>
<path fill-rule="evenodd" clip-rule="evenodd" d="M4.09802 16.1507C4.18736 16.1432 4.24619 16.1762 4.26813 16.2585C4.19554 16.2441 4.13763 16.2096 4.09802 16.1507Z" fill="#FAFAFA"/>
<path fill-rule="evenodd" clip-rule="evenodd" d="M5.44836 16.8704C5.4955 16.8682 5.53692 16.8777 5.56172 16.9193C5.51524 16.9202 5.47395 16.9106 5.44836 16.8704Z" fill="#FAFAFA"/>
<path fill-rule="evenodd" clip-rule="evenodd" d="M5.62048 2.19358C5.64775 2.15432 5.68878 2.14499 5.73579 2.14798C5.70891 2.18795 5.66736 2.19669 5.62048 2.19358Z" fill="#FCFCFC"/>
<path fill-rule="evenodd" clip-rule="evenodd" d="M5.00427 2.45104C5.02842 2.41358 5.06698 2.40305 5.11074 2.40161C5.08529 2.43656 5.04998 2.45332 5.00427 2.45104Z" fill="#FCFCFC"/>
<path fill-rule="evenodd" clip-rule="evenodd" d="M4.89258 2.50256C4.91634 2.4651 4.95478 2.45456 4.99841 2.45312C4.9727 2.48712 4.93841 2.50543 4.89258 2.50256Z" fill="#FCFCFC"/>
<path fill-rule="evenodd" clip-rule="evenodd" d="M4.60547 16.4586C4.65676 16.4562 4.70052 16.4656 4.71558 16.5194C4.66923 16.5138 4.62715 16.5022 4.60547 16.4586Z" fill="#FAFAFA"/>
<path fill-rule="evenodd" clip-rule="evenodd" d="M4.71008 16.5146C4.74086 16.5162 4.76332 16.5299 4.77799 16.5546C4.74553 16.5557 4.72073 16.5452 4.71008 16.5146Z" fill="#FAFAFA"/>
<path fill-rule="evenodd" clip-rule="evenodd" d="M12.4578 16.8152C12.4763 16.8315 12.4948 16.8476 12.5132 16.8638C12.5023 16.8798 12.4865 16.8875 12.4659 16.8869C12.4632 16.8629 12.4606 16.8391 12.4578 16.8152Z" fill="#FAFAFA"/>
<path fill-rule="evenodd" clip-rule="evenodd" d="M5.5094 2.23973C5.53628 2.22729 5.56316 2.21484 5.5903 2.20239C5.57225 2.23135 5.54472 2.24284 5.5094 2.23973Z" fill="#FCFCFC"/>
<path fill-rule="evenodd" clip-rule="evenodd" d="M3.54993 3.28649C3.56148 3.25801 3.58329 3.24125 3.61627 3.23706C3.60706 3.26818 3.58356 3.28302 3.54993 3.28649Z" fill="#FCFCFC"/>
<path fill-rule="evenodd" clip-rule="evenodd" d="M16.5691 6.4255C16.5372 6.42191 16.5082 6.41664 16.5443 6.38086C16.5526 6.39582 16.5609 6.41066 16.5691 6.4255Z" fill="#FAFAFA"/>
<path fill-rule="evenodd" clip-rule="evenodd" d="M3.3197 15.5776C3.33866 15.594 3.35787 15.6103 3.37683 15.6267C3.34541 15.6228 3.32645 15.6061 3.3197 15.5776Z" fill="#FAFAFA"/>
<path fill-rule="evenodd" clip-rule="evenodd" d="M3.65076 15.8376C3.6714 15.8539 3.69205 15.8701 3.71269 15.8862C3.67984 15.8834 3.65868 15.8676 3.65076 15.8376Z" fill="#FAFAFA"/>
<path fill-rule="evenodd" clip-rule="evenodd" d="M1.78647 1.937C1.75972 1.84185 1.72465 1.74598 1.81269 1.63013C1.88385 1.75771 1.88724 1.85023 1.78647 1.937Z" fill="#FCFCFC"/>
<path fill-rule="evenodd" clip-rule="evenodd" d="M1.55182 0.0389676C1.55844 0.0254442 1.56169 0.00462162 1.5722 0.00067232C1.58259 -0.0031573 1.60052 0.0103648 1.61506 0.0162289C1.60857 0.0297523 1.60532 0.0506964 1.59493 0.054526C1.58441 0.0584753 1.56649 0.0449514 1.55182 0.0389676Z" fill="#FCFCFC"/>
<path fill-rule="evenodd" clip-rule="evenodd" d="M3.26604 3.28037L3.24475 3.26948L3.2541 3.26074L3.26604 3.28037Z" fill="#FCFCFC"/>
<path fill-rule="evenodd" clip-rule="evenodd" d="M5.33971 5.59942C7.62598 5.5993 9.91239 5.59882 12.1987 5.59942C12.3754 5.59942 12.552 5.59463 12.7272 5.63484C13.1007 5.72018 13.3595 5.91622 13.4769 6.26007C13.4908 6.301 13.5112 6.3399 13.5285 6.37976C13.5317 8.57621 13.5347 10.7727 13.5395 12.9691C13.54 13.1343 13.4926 13.2908 13.4595 13.4502L13.459 13.451C13.3368 13.6462 13.1746 13.8057 12.963 13.9208L12.9597 13.9223C12.8274 13.9553 12.6953 13.9885 12.5633 14.0216C10.1742 14.0228 7.78492 14.024 5.39607 14.0252L5.374 14.0147L5.35023 14.0214C5.26556 13.9618 5.14442 14.0478 5.06664 13.9608L5.06884 13.9625C4.98522 13.9433 4.89719 13.9332 4.84239 13.8602L4.84394 13.8631C4.81187 13.861 4.79252 13.8441 4.78136 13.8175L4.78019 13.8166C4.67813 13.7712 4.59294 13.7111 4.5649 13.6025L4.56788 13.6059C4.4814 13.553 4.47361 13.4647 4.45102 13.3835C4.37674 13.1042 4.39129 12.8199 4.39129 12.5362C4.39142 10.6248 4.39154 8.7136 4.39154 6.80224C4.39154 6.79363 4.39154 6.78501 4.39154 6.77639C4.39245 6.08031 4.62034 5.79749 5.33971 5.59942Z" fill="#444853"/>
<path fill-rule="evenodd" clip-rule="evenodd" d="M4.56482 13.6023C4.63663 13.6737 4.70843 13.7451 4.78011 13.8164C4.57495 13.7921 4.57495 13.7921 4.56482 13.6023Z" fill="#FAFAFA"/>
<path fill-rule="evenodd" clip-rule="evenodd" d="M4.4628 16.1757C4.41826 16.1764 4.39411 16.1537 4.3971 16.1179C4.39879 16.0986 4.41826 16.071 4.43709 16.0643C4.47527 16.0505 4.50709 16.0719 4.51566 16.107C4.52475 16.144 4.49864 16.1659 4.4628 16.1757Z" fill="#FAFAFA"/>
<path fill-rule="evenodd" clip-rule="evenodd" d="M4.45103 13.3833C4.50908 13.449 4.54323 13.5255 4.56791 13.6058C4.41065 13.5846 4.41429 13.4913 4.45103 13.3833Z" fill="#FAFAFA"/>
<path fill-rule="evenodd" clip-rule="evenodd" d="M4.84253 13.8599C4.92576 13.8794 5.00394 13.9083 5.06899 13.9622C4.96511 13.9815 4.8772 13.9706 4.84253 13.8599Z" fill="#FAFAFA"/>
<path fill-rule="evenodd" clip-rule="evenodd" d="M5.06677 13.9607C5.1639 13.9703 5.26285 13.9728 5.35037 14.0213C5.25298 14.0124 5.13949 14.0676 5.06677 13.9607Z" fill="#FAFAFA"/>
<path fill-rule="evenodd" clip-rule="evenodd" d="M4.7796 13.8708C4.76064 13.8832 4.74181 13.8954 4.72285 13.9078C4.70532 13.8492 4.76103 13.8838 4.77895 13.8704L4.7796 13.8708Z" fill="#FAFAFA"/>
<path fill-rule="evenodd" clip-rule="evenodd" d="M4.7814 13.8174C4.81308 13.8199 4.83658 13.8323 4.84398 13.8631C4.82242 13.8656 4.801 13.8682 4.77958 13.8709L4.77893 13.8704C4.77984 13.8527 4.78062 13.835 4.7814 13.8174Z" fill="#FAFAFA"/>
<path fill-rule="evenodd" clip-rule="evenodd" d="M16.3894 6.11206C16.3819 6.20553 16.3681 6.29566 16.2572 6.34234C16.2121 6.16556 16.2121 6.16556 16.3905 6.11386L16.3894 6.11206Z" fill="#FAFAFA"/>
<path fill-rule="evenodd" clip-rule="evenodd" d="M13.6296 13.0271C13.7237 13.1433 13.6544 13.1977 13.6161 13.2754C13.5512 13.179 13.6497 13.1176 13.6296 13.0271Z" fill="#FAFAFA"/>
<path fill-rule="evenodd" clip-rule="evenodd" d="M13.4971 13.9091C13.4909 13.9226 13.4846 13.9361 13.4782 13.9495C13.4636 13.9437 13.4408 13.9408 13.4369 13.9312C13.4327 13.9214 13.4472 13.905 13.4534 13.8916C13.4681 13.8973 13.4826 13.9031 13.4971 13.9091Z" fill="#FAFAFA"/>
<path fill-rule="evenodd" clip-rule="evenodd" d="M16.0997 5.84761C16.0879 5.83852 16.0694 5.83109 16.066 5.81984C16.0607 5.80177 16.0755 5.79232 16.0951 5.79806C16.1027 5.80034 16.1099 5.80632 16.1145 5.81242C16.1281 5.8305 16.1225 5.84271 16.0997 5.84761Z" fill="#FAFAFA"/>
<path fill-rule="evenodd" clip-rule="evenodd" d="M12.957 16.6593C12.939 16.6559 12.9209 16.6532 12.9034 16.6481C12.9 16.647 12.8969 16.6317 12.8985 16.631C12.9313 16.6148 12.9455 16.6376 12.9611 16.6575L12.957 16.6593Z" fill="#FAFAFA"/>
<path fill-rule="evenodd" clip-rule="evenodd" d="M12.4577 16.8152L12.4365 16.8043L12.446 16.7957L12.4577 16.8152Z" fill="#FAFAFA"/>
<path fill-rule="evenodd" clip-rule="evenodd" d="M13.6348 13.044L13.6138 13.033L13.6231 13.0244L13.6348 13.044Z" fill="#FAFAFA"/>
<path fill-rule="evenodd" clip-rule="evenodd" d="M13.4596 13.4502C13.4675 13.4545 13.4824 13.4598 13.4818 13.463C13.4794 13.4796 13.47 13.4754 13.4591 13.4508L13.4596 13.4502Z" fill="#FAFAFA"/>
<path fill-rule="evenodd" clip-rule="evenodd" d="M12.9631 13.9207C12.97 13.9248 12.9831 13.9305 12.9824 13.9331C12.9784 13.9481 12.9693 13.9441 12.9597 13.9221L12.9631 13.9207Z" fill="#FAFAFA"/>
<path fill-rule="evenodd" clip-rule="evenodd" d="M14.3074 15.7302L14.3192 15.7107L14.3287 15.7194L14.3074 15.7302Z" fill="#FAFAFA"/>
<path fill-rule="evenodd" clip-rule="evenodd" d="M14.3074 15.7302L14.2956 15.7499L14.2861 15.7412L14.3074 15.7302Z" fill="#FAFAFA"/>
<path fill-rule="evenodd" clip-rule="evenodd" d="M8.96369 8.17702C9.91328 8.17247 10.7225 8.90877 10.7254 9.78032C10.7282 10.6805 9.94211 11.4256 8.98291 11.4315C8.03695 11.4373 7.205 10.6982 7.19409 9.84207C7.18253 8.95329 8.00293 8.18157 8.96369 8.17702Z" fill="#FBFBFB"/>
<path fill-rule="evenodd" clip-rule="evenodd" d="M8.1452 12.3139C8.51294 12.3766 8.88119 12.411 9.25711 12.3786C10.5082 12.2713 11.5642 11.3424 11.738 10.1958C11.7785 9.92906 11.7848 9.66683 11.7375 9.40042C11.6991 9.18451 11.7095 9.18139 11.9302 9.15925C12.4483 9.10695 12.4966 9.14597 12.497 9.62495C12.4976 10.5626 12.4973 11.5002 12.4971 12.4378C12.4971 12.4895 12.4992 12.5412 12.4958 12.5925C12.4727 12.9609 12.3608 13.0525 11.9518 13.0394C11.8535 12.9981 11.7492 13.0187 11.6482 13.0186C10.4072 13.0169 9.16622 13.0184 7.92524 13.0154C7.84967 13.0152 7.72488 13.0614 7.70631 12.9675C7.68449 12.857 7.80565 12.8153 7.90771 12.7948C7.99886 12.7765 8.09365 12.7858 8.18676 12.7858C9.36255 12.7855 10.5381 12.7857 11.7137 12.7856C10.5647 12.7856 9.41592 12.7871 8.26687 12.7832C8.14365 12.7827 7.98302 12.8395 7.90693 12.7106C7.81759 12.56 7.99653 12.4886 8.06626 12.3861C8.08612 12.357 8.1143 12.3338 8.1452 12.3139Z" fill="#FAFAFA"/>
<path fill-rule="evenodd" clip-rule="evenodd" d="M8.14519 12.3139C8.14791 12.4172 8.19856 12.5394 8.00417 12.5508C7.95093 12.5539 7.91756 12.6156 7.93626 12.6737C7.95184 12.7221 8.0004 12.7312 8.04845 12.7322C8.12311 12.7338 8.19777 12.734 8.27244 12.734C9.46654 12.7341 10.6608 12.7334 11.8549 12.7354C11.9492 12.7355 12.053 12.7091 12.1629 12.7853C12.0554 12.8622 11.9515 12.8358 11.8577 12.836C10.6449 12.838 9.43213 12.8382 8.21933 12.8362C8.05065 12.836 7.88886 12.8471 7.72019 12.9472C7.81485 13.0186 7.90899 12.9907 7.99184 12.991C9.20464 12.993 10.4174 12.9914 11.6302 12.9939C11.738 12.9942 11.8558 12.9592 11.9519 13.0395C11.8681 13.0431 11.7844 13.05 11.7006 13.05C9.82324 13.0507 7.94587 13.0509 6.06862 13.0506C5.53675 13.0506 5.44911 12.9668 5.44833 12.4839C5.44651 11.5026 5.44118 10.5213 5.43767 9.53997C5.43754 9.48839 5.43716 9.43633 5.44391 9.38534C5.46677 9.21431 5.52234 9.16046 5.71231 9.15088C5.82307 9.14526 5.93539 9.16033 6.04667 9.16967C6.14796 9.17817 6.19366 9.23681 6.1934 9.32646C6.19314 9.38654 6.18704 9.44674 6.18289 9.50682C6.09069 10.8335 6.76151 11.8044 8.10104 12.2839C8.11753 12.2897 8.13051 12.3037 8.14519 12.3139Z" fill="#FCFBFD"/>
<path fill-rule="evenodd" clip-rule="evenodd" d="M11.5918 8.18687C11.4241 8.18687 11.2556 8.19657 11.0888 8.1846C10.8524 8.16784 10.7505 8.08071 10.7305 7.86265C10.7009 7.53722 10.7014 7.20965 10.7308 6.88435C10.749 6.68459 10.8362 6.605 11.0438 6.58155C11.415 6.53978 11.7881 6.54097 12.1595 6.5825C12.364 6.60536 12.4353 6.66784 12.4654 6.85909C12.5206 7.20917 12.5178 7.56152 12.4655 7.9116C12.4388 8.09076 12.3511 8.16652 12.1504 8.18184C11.9653 8.19585 11.778 8.18472 11.5916 8.18472C11.5918 8.18544 11.5918 8.18615 11.5918 8.18687Z" fill="#FAFAFA"/>
</svg>
