<svg width="18" height="18" viewBox="0 0 18 18" fill="none" xmlns="http://www.w3.org/2000/svg">
<path fill-rule="evenodd" clip-rule="evenodd" d="M18 8.9934C17.9996 13.955 13.9525 18.008 9.00309 18C4.09766 17.992 -0.000262759 14.0616 1.26366e-08 9.00352C0.000262784 3.79071 4.28817 -0.0335398 9.0496 0.000221793C13.9711 0.035297 18.0003 4.05555 18 8.9934Z" fill="#4E525B"/>
<path fill-rule="evenodd" clip-rule="evenodd" d="M9.00983 0.446291C13.7021 0.442876 17.5495 4.28328 17.5527 8.97351C17.5557 13.7071 13.7283 17.5457 9.0009 17.5501C4.2668 17.5546 0.430466 13.7131 0.44978 8.95052C0.468831 4.21957 4.31173 0.444715 9.00983 0.446291Z" fill="#FEFEFE"/>
<path fill-rule="evenodd" clip-rule="evenodd" d="M13.8223 5.87205C14.1235 5.84499 14.3983 5.71204 14.7407 5.61969C14.5459 5.95244 14.3431 6.22056 14.0788 6.40211C13.7133 6.65303 13.6531 6.97173 13.636 7.38514C13.526 10.0355 11.6845 12.5931 8.9211 13.2607C7.33041 13.645 5.79149 13.5181 4.32102 12.7694C4.18806 12.7017 4.05102 12.6385 3.8927 12.5038C4.48433 12.4948 5.03129 12.458 5.56064 12.2973C6.0875 12.1374 6.57875 11.9104 7.06343 11.536C6.05702 11.4057 5.37224 10.9259 5.02025 9.97178C5.30759 9.93105 5.58009 10.0188 5.89266 9.91555C4.85773 9.51856 4.27425 8.81863 4.2213 7.69083C4.534 7.79264 4.80255 7.93938 5.14244 7.92414C4.21683 7.08418 4.00346 6.11337 4.50588 4.99333C4.63897 4.99963 4.67747 5.08594 4.73121 5.14558C5.72054 6.2425 6.93862 6.931 8.39241 7.1986C8.56873 7.23118 8.74675 7.25575 8.92504 7.27558C9.1664 7.30251 9.17244 7.29358 9.14419 7.06434C9.02345 6.08263 9.53901 5.13954 10.4528 4.73716C11.2958 4.36618 12.0988 4.47561 12.8156 5.0556C12.9943 5.2001 13.1494 5.23058 13.3566 5.16804C13.719 5.05862 14.0659 4.91503 14.4534 4.69223C14.3124 5.18972 14.0399 5.51919 13.7034 5.80689C13.6853 5.93431 13.7582 5.89477 13.8223 5.87205Z" fill="#444853"/>
<path fill-rule="evenodd" clip-rule="evenodd" d="M13.8223 5.87204C13.7905 5.88649 13.7598 5.90856 13.7266 5.91329C13.6891 5.91868 13.6296 5.9481 13.6175 5.88978C13.6079 5.84275 13.6585 5.81845 13.7036 5.80688C13.728 5.85641 13.7802 5.8551 13.8223 5.87204Z" fill="#C6CED0"/>
</svg>
