<svg width="18" height="18" viewBox="0 0 18 18" fill="none" xmlns="http://www.w3.org/2000/svg">
<path fill-rule="evenodd" clip-rule="evenodd" d="M0.148317 7.51627C0.152555 7.48357 0.156793 7.45101 0.161032 7.41832C0.196851 7.34034 0.180308 7.25702 0.185093 7.17589C0.18605 7.1473 0.196987 7.12363 0.219408 7.10558L0.218178 7.10941C0.276008 7.03745 0.20683 6.9369 0.272863 6.86685L0.287218 6.85139L0.280109 6.83142C0.317022 6.76944 0.277511 6.68832 0.33124 6.63072L0.345732 6.61595L0.33958 6.59611C0.352021 6.54631 0.365556 6.49734 0.42571 6.4842C0.48272 6.46998 0.55135 6.48393 0.597559 6.45151C0.783764 6.32086 0.893683 6.31935 1.00292 6.56478C1.08481 6.74838 1.64165 6.67669 1.70727 6.48133C1.79545 6.21907 1.98576 6.18132 2.21503 6.18104C2.99936 6.17995 3.78382 6.17913 4.56815 6.18173C4.791 6.18255 4.99593 6.1898 5.06757 5.90141C5.10476 5.7512 5.26212 5.71795 5.40485 5.71481C5.92436 5.70331 6.44401 5.70208 6.96339 5.71549C7.11733 5.71946 7.24789 5.7828 7.35166 5.89799C7.37175 5.9233 7.38447 5.9523 7.39048 5.98418C7.39486 6.03124 7.38542 6.07652 7.37025 6.12098C7.36232 6.15026 7.35207 6.17899 7.34154 6.20745C7.31843 6.26682 7.32199 6.33084 7.31105 6.39268C7.14508 7.04634 7.15301 7.71286 7.1526 8.37965C7.1526 8.51755 7.21016 8.70484 6.98882 8.7571C6.8007 8.50155 6.21747 8.38444 5.94104 8.57993C5.76563 8.70402 5.58517 8.73288 5.38912 8.73781C5.14399 8.74396 4.89859 8.74041 4.65333 8.73945C4.48394 8.73877 4.3248 8.75258 4.18891 8.87831C4.09047 8.96915 3.95471 8.97079 3.8262 8.97339C3.55154 8.979 3.27675 8.97558 3.00209 8.97571C2.83325 8.97585 2.67329 8.98625 2.53767 9.11389C2.44006 9.20555 2.30389 9.20692 2.17538 9.20965C1.93011 9.21485 1.68485 9.21184 1.43958 9.21198C1.23328 9.21198 1.04092 9.22073 0.858684 9.36219C0.688065 9.49448 0.466178 9.46014 0.261653 9.41431C0.14654 9.38859 0.117419 9.2942 0.100056 9.19324C0.0619128 8.96928 0.0572648 8.74369 0.0785922 8.51851C0.0880255 8.4196 0.103611 8.32356 0.0539836 8.23122C0.060956 8.0914 0.0255476 7.94639 0.104158 7.81533L0.103474 7.81834C0.125075 7.71847 0.0613665 7.60615 0.148317 7.51627Z" fill="#071F64"/>
<path fill-rule="evenodd" clip-rule="evenodd" d="M9.77299 0.0163997C10.291 0.105597 10.8157 0.160046 11.3218 0.311764C11.5916 0.392616 11.8617 0.472374 12.1317 0.552543C12.2051 0.542556 12.2747 0.545292 12.3241 0.611779C12.3352 0.629701 12.3081 0.698652 12.3722 0.648033C12.4052 0.64475 12.4321 0.657883 12.456 0.67813C12.4946 0.706586 12.5383 0.681824 12.5796 0.688664C12.6622 0.720267 12.7684 0.734905 12.7072 0.868017C12.5882 0.910701 12.4649 0.910564 12.3429 0.905913C12.3271 0.902356 12.314 0.886349 12.2992 0.882519C12.2758 0.876362 12.2723 0.889222 12.2943 0.907007C12.4623 0.915763 12.6296 0.927938 12.7776 0.826976C12.8212 0.820135 12.8559 0.838057 12.8871 0.866102C12.9528 0.989775 13.0808 0.985807 13.1932 1.01454C13.2302 1.04682 13.2472 1.08882 13.2552 1.13602C13.245 1.55342 13.2021 1.60007 12.7832 1.64576C12.7148 1.65328 12.6321 1.63865 12.5814 1.67805C12.1905 1.98121 11.7348 1.86752 11.301 1.88175C11.0723 1.88927 10.8566 1.90008 10.6551 2.03607C10.4655 2.16412 10.236 2.11719 10.0215 2.11966C9.75672 2.1228 9.49204 2.09955 9.26441 2.28779C9.17213 2.36399 9.04089 2.35414 8.92249 2.35578C8.65713 2.3592 8.3915 2.35592 8.12613 2.3577C8.01786 2.35838 7.89167 2.33499 7.80786 2.396C7.42875 2.67139 6.99715 2.58138 6.58085 2.59123C6.37181 2.59615 6.17098 2.59984 5.99558 2.74076C5.89195 2.82407 5.75728 2.82571 5.62864 2.82776C5.36314 2.83201 5.09764 2.83036 4.83214 2.82927C4.65236 2.82858 4.48051 2.84555 4.32821 2.95787C4.20407 3.04925 4.05533 3.05856 3.90631 3.0654C3.57587 3.08044 3.23778 3.01423 2.92087 3.17635C2.82175 3.2271 2.73234 3.16896 2.67055 3.07716C2.60807 2.98454 2.61108 2.89316 2.66822 2.80109C2.74697 2.6744 2.86919 2.58671 2.96216 2.47426C2.97488 2.43882 3.04091 2.464 3.03626 2.40845C2.99689 2.38096 2.9679 2.34812 2.96435 2.2986C2.98226 2.19244 3.08438 2.18669 3.15219 2.14018L3.16217 2.13224C3.18487 2.12089 3.20292 2.10433 3.21713 2.08327L3.22123 2.07998C3.25787 2.03771 3.28959 1.98955 3.34756 1.97245L3.3481 1.97232C3.37094 1.84249 3.49876 1.84796 3.57929 1.79269L3.58011 1.79214C3.59884 1.76095 3.61743 1.72976 3.65038 1.71088C3.68333 1.69925 3.72325 1.70404 3.74676 1.67025C3.93393 1.56669 4.11056 1.44753 4.27804 1.31442C4.29198 1.28404 4.31345 1.26544 4.34913 1.26941C4.6447 1.11263 4.94028 0.955984 5.23586 0.799204C5.24502 0.773484 5.26156 0.765413 5.28671 0.778409C5.31706 0.78525 5.34167 0.779094 5.35521 0.747902C5.36109 0.717804 5.37735 0.708501 5.40524 0.723413C5.49753 0.716299 5.57723 0.678951 5.64805 0.621082C5.65803 0.594268 5.67566 0.589207 5.69986 0.602614C5.9223 0.543924 6.13858 0.46786 6.34816 0.372643L6.35199 0.371548C6.57347 0.33037 6.79344 0.282898 7.00371 0.198899C7.01847 0.17742 7.03638 0.174411 7.05716 0.190143C7.12689 0.197805 7.1947 0.196163 7.25239 0.148144C7.27727 0.0936948 7.3135 0.105734 7.35206 0.131043C7.43914 0.138567 7.525 0.138704 7.6017 0.086718C7.61195 0.0547054 7.62726 0.0503275 7.64818 0.0783728C7.79009 0.0793304 7.93282 0.0858973 8.06707 0.0257027L8.07281 0.0235134C8.08963 0.0393829 8.10535 0.0382885 8.11998 0.0205038C8.13803 -0.00206925 8.15744 -0.00466869 8.17891 0.015989C8.19887 0.0150314 8.21896 0.0139369 8.23906 0.0131161C8.25751 -0.00330062 8.27652 -0.0046686 8.2962 0.0110641C8.78879 0.0127058 9.28096 0.0146213 9.77299 0.0163997Z" fill="#0A2775"/>
<path fill-rule="evenodd" clip-rule="evenodd" d="M2.92764 15.4294C2.31243 14.9057 1.826 14.2742 1.39426 13.5968C1.3423 13.5152 1.28611 13.4366 1.23197 13.3565C1.1818 13.2424 1.13163 13.1285 1.08145 13.0144C1.1237 12.93 1.1777 12.8618 1.16703 12.7466C1.14024 12.4565 1.23197 12.3522 1.52208 12.3276C1.88397 12.2967 2.2479 12.3184 2.61074 12.3156C2.84985 12.3136 3.07598 12.3264 3.17004 12.0166C3.228 11.8258 3.43882 11.8467 3.60356 11.8455C4.35918 11.8395 5.1148 11.8428 5.87042 11.8433C6.12812 11.8434 6.37735 11.863 6.48249 11.5307C6.53348 11.3697 6.71558 11.3738 6.86693 11.4003C7.00159 11.424 7.07473 11.5146 7.07624 11.6473C7.0869 12.6584 7.09852 13.6695 7.07008 14.6805C7.06899 14.7197 7.04643 14.7547 7.02333 14.7871C6.90056 14.8933 6.74922 14.8786 6.6043 14.8799C6.10543 14.884 5.60656 14.8829 5.10769 14.8805C4.92093 14.8797 4.76535 14.8963 4.70288 15.1215C4.64997 15.3122 4.47497 15.3476 4.30053 15.3496C3.84171 15.3547 3.38167 15.3397 2.92764 15.4294Z" fill="#031752"/>
<path fill-rule="evenodd" clip-rule="evenodd" d="M0.101462 8.2251C0.199623 8.35766 0.144528 8.51006 0.15232 8.65303C0.16189 8.82937 0.156012 9.00653 0.155465 9.18342C0.155192 9.29205 0.206869 9.34636 0.31624 9.34581C0.443932 9.34527 0.571486 9.34732 0.699041 9.34513C0.757691 9.34417 0.832884 9.34239 0.843958 9.2729C0.873761 9.08547 1.0113 9.11119 1.13735 9.11092C1.52028 9.1101 1.90322 9.11174 2.28602 9.10955C2.36108 9.10914 2.47072 9.13486 2.49123 9.04169C2.53539 8.84332 2.67894 8.87534 2.81264 8.87479C3.18574 8.87356 3.55883 8.8737 3.93192 8.87479C4.04348 8.87506 4.14465 8.87725 4.17801 8.73005C4.20426 8.61445 4.31527 8.63976 4.39976 8.63935C4.77285 8.63716 5.14595 8.63935 5.51904 8.6377C5.65193 8.63716 5.80094 8.67464 5.84073 8.47285C5.857 8.3905 5.94955 8.40363 6.01641 8.40308C6.26181 8.40117 6.50735 8.39952 6.75261 8.40281C6.98626 8.40595 6.98639 8.40869 6.99884 8.65563C7.00034 8.68504 6.99952 8.71459 6.99966 8.744C6.91011 8.86467 6.77558 8.85085 6.65063 8.85564C6.41534 8.86453 6.17964 8.85837 5.94422 8.86015C5.77852 8.86152 5.68829 8.92431 5.68788 9.10243C5.68665 9.58358 5.68364 10.0646 5.68952 10.5457C5.69157 10.707 5.77196 10.7726 5.92659 10.7765C6.17185 10.7827 6.41766 10.77 6.66238 10.7845C6.79171 10.7921 6.9473 10.7603 7.01128 10.9322C6.94565 11.0232 6.84544 11.0318 6.74769 11.0354C6.43379 11.0466 6.11949 11.0447 5.80546 11.0365C5.63771 11.0321 5.49211 10.9857 5.4351 10.8057C5.39162 10.6683 5.2895 10.6322 5.16208 10.6314C4.47495 10.6265 3.78783 10.6248 3.1007 10.6322C2.97028 10.6337 2.87198 10.6752 2.84655 10.8217C2.8084 11.0415 2.64872 11.0935 2.45582 11.0972C2.09257 11.1042 1.72946 11.0993 1.36621 11.1005C1.0612 11.1014 0.769039 11.1172 0.673749 11.4946C0.655019 11.5686 0.590353 11.6299 0.492055 11.5979C0.428757 11.5495 0.463345 11.4521 0.395945 11.4058L0.397039 11.4099C0.357802 11.167 0.298878 10.9288 0.218627 10.6961C0.198803 10.6879 0.191147 10.6779 0.195522 10.6659C0.200171 10.653 0.205229 10.6466 0.210971 10.6466C0.21685 10.5581 0.217944 10.4704 0.162984 10.3935C0.116091 10.3654 0.124568 10.3301 0.149587 10.2926C0.155192 10.1866 0.159566 10.0807 0.102966 9.98401C0.0586711 9.95282 0.064003 9.91698 0.0932599 9.87895C0.0921662 9.69152 0.0910722 9.5041 0.0899785 9.31667C0.0449995 9.11516 0.0346096 8.91036 0.0322854 8.70501C0.027227 8.6715 0.0275003 8.63798 0.0325587 8.6046C0.0358399 8.57163 0.0399409 8.53866 0.0445892 8.50569C0.0913455 8.41799 0.0270898 8.30745 0.101462 8.2251Z" fill="#051B5C"/>
<path fill-rule="evenodd" clip-rule="evenodd" d="M0.491348 11.598C0.583084 11.5595 0.627378 11.4906 0.625601 11.3913C0.623824 11.2921 0.641597 11.1187 0.695872 11.1282C0.858152 11.1562 0.916667 10.9874 1.06856 10.9938C1.51862 11.0129 1.97019 11.0011 2.42107 11.0004C2.72034 10.9999 2.72827 10.9996 2.74837 10.7113C2.75835 10.5692 2.82014 10.5269 2.95084 10.5275C3.74487 10.5299 4.53905 10.5302 5.33308 10.5275C5.47062 10.5269 5.51724 10.5844 5.52722 10.7198C5.54335 10.9362 5.55361 10.9401 5.7733 10.9409C6.18509 10.9427 6.59674 10.9386 7.00852 10.9369C7.20799 11.0286 7.16055 11.2163 7.16205 11.3716C7.17053 12.2168 7.16574 13.0618 7.16601 13.9071C7.16615 14.9292 7.16642 15.9513 7.1656 16.9734C7.16547 17.1007 7.17599 17.2291 7.14838 17.3553C7.09082 17.67 7.07072 17.6846 6.86264 17.5649C6.931 16.7869 6.87891 16.0071 6.89641 15.2283C6.89983 15.0742 6.87782 14.9132 6.99157 14.782C6.99403 13.7616 6.99758 12.741 6.99772 11.7204C6.99772 11.501 6.79948 11.3896 6.59974 11.4884C6.53521 11.5203 6.53822 11.5795 6.5277 11.6371C6.47738 11.9126 6.4443 11.944 6.16567 11.9446C5.31244 11.9468 4.45934 11.9455 3.60611 11.9455C3.54732 11.9455 3.48826 11.9483 3.42961 11.9453C3.30397 11.9386 3.23643 11.975 3.21893 12.1209C3.1879 12.3782 3.13704 12.4147 2.87906 12.417C2.45744 12.4206 2.03567 12.4172 1.61404 12.4187C1.53612 12.419 1.45532 12.4172 1.38081 12.4361C1.23111 12.4738 1.19488 12.5541 1.24628 12.6993C1.32257 12.9149 1.32257 12.9149 1.08168 13.0146C1.04777 13.0042 1.03985 12.98 1.04586 12.9481C1.05817 12.8781 1.04299 12.8212 0.970532 12.7919C0.916256 12.7038 0.861843 12.6157 0.807568 12.5277C0.674545 12.4235 0.620269 12.2864 0.637495 12.1195C0.620132 11.9364 0.500645 11.7827 0.491348 11.598Z" fill="#041B57"/>
<path fill-rule="evenodd" clip-rule="evenodd" d="M0.0426214 8.64086C0.0569762 8.6306 0.0716044 8.62089 0.0866428 8.61145C0.0874631 8.84635 0.088284 9.08138 0.089241 9.31641C0.0724253 9.24801 0.0556091 9.17961 0.0389301 9.1112C-0.00987655 8.95401 -0.0173957 8.7971 0.0426214 8.64086Z" fill="#071F64"/>
<path fill-rule="evenodd" clip-rule="evenodd" d="M0.970367 12.7916C1.07071 12.7773 1.09286 12.8232 1.0457 12.9478C0.999213 12.9061 0.972418 12.8548 0.970367 12.7916Z" fill="#031752"/>
<path fill-rule="evenodd" clip-rule="evenodd" d="M7.64866 0.0782471L7.62733 0.0931592C7.62733 0.0931592 7.60217 0.0864552 7.60204 0.0864552" fill="#F9F9F9"/>
<path fill-rule="evenodd" clip-rule="evenodd" d="M7.35252 0.130737C7.3193 0.136483 7.28621 0.142093 7.25299 0.147702L7.35252 0.130737Z" fill="#F9F9F9"/>
<path fill-rule="evenodd" clip-rule="evenodd" d="M6.87635 17.5582C6.4956 17.5083 6.14397 17.3601 5.7855 17.2348C5.68447 17.1997 5.58344 17.1645 5.48254 17.1294C5.20488 16.9938 4.92721 16.8581 4.64968 16.7225L4.64448 16.7191C4.62452 16.6723 4.58392 16.6618 4.53894 16.6593L4.53074 16.6529C4.05183 16.3314 3.56266 16.024 3.13352 15.6346C3.06188 15.5695 2.97479 15.5191 2.92776 15.4293C3.0694 15.2607 3.26996 15.2604 3.46163 15.2543C3.75625 15.2451 4.05142 15.2546 4.34631 15.251C4.59992 15.248 4.61167 15.2345 4.63929 14.9929C4.66267 14.7882 4.66267 14.7816 4.86842 14.7809C5.57619 14.7785 6.28396 14.7811 6.99173 14.7819C6.99392 15.6315 6.99624 16.481 6.9983 17.3306C6.99843 17.4276 7.01279 17.5336 6.87635 17.5582Z" fill="#011449"/>
<path fill-rule="evenodd" clip-rule="evenodd" d="M4.53895 16.6594C4.5287 16.6673 4.51831 16.6752 4.50792 16.6832C4.51557 16.6732 4.52309 16.6631 4.53075 16.6531C4.53075 16.6529 4.53895 16.6594 4.53895 16.6594Z" fill="#FCFCFC"/>
<path fill-rule="evenodd" clip-rule="evenodd" d="M4.6497 16.7227C4.64409 16.7305 4.63794 16.7451 4.63288 16.7447C4.6132 16.743 4.6173 16.7325 4.64437 16.7192L4.6497 16.7227Z" fill="#FCFCFC"/>
<path fill-rule="evenodd" clip-rule="evenodd" d="M4.75714 16.9054L4.76972 16.8831L4.77942 16.8929L4.75714 16.9054Z" fill="#FCFCFC"/>
<path fill-rule="evenodd" clip-rule="evenodd" d="M9.71495 16.9054C9.65357 16.9549 9.65302 17.0244 9.65548 17.0935C9.66396 17.3289 9.65083 17.5623 9.5956 17.7922C9.43893 17.837 9.28225 17.8377 9.12571 17.7918C9.04546 17.7919 8.96521 17.7922 8.88496 17.7923C8.68959 17.8381 8.49409 17.837 8.29859 17.7928C8.30228 17.7844 8.30803 17.7763 8.30939 17.7675C8.31677 17.7197 8.41876 17.6826 8.35082 17.638C8.3072 17.6093 8.26332 17.6844 8.23775 17.7336C8.06085 17.776 7.88394 17.7796 7.70717 17.7318L7.70812 17.7324C7.59957 17.6552 7.46149 17.7493 7.35294 17.6714C7.26599 17.6084 7.15826 17.5659 7.15402 17.4299C7.15279 17.3926 7.09906 17.3865 7.06297 17.3778C7.05887 17.27 7.05149 17.1622 7.05135 17.0545C7.05012 15.1183 7.05066 13.1821 7.04684 11.2459C7.0467 11.1435 7.09127 11.0308 7.00842 10.9368C6.88223 10.8569 6.74265 10.9041 6.6099 10.9001C6.32608 10.8917 6.04171 10.8915 5.7579 10.9001C5.62104 10.9044 5.56923 10.8677 5.57114 10.7211C5.57839 10.1232 5.57634 9.52524 5.57169 8.9274C5.57073 8.80332 5.60833 8.75557 5.7378 8.75803C6.09038 8.76515 6.44311 8.76132 6.79569 8.75968C6.86364 8.7594 6.93145 8.74955 6.9994 8.74408C7.10398 8.67226 7.04533 8.56623 7.04711 8.47827C7.05764 7.96839 7.03672 7.45824 7.10808 6.95C7.13953 6.72605 7.21048 6.51195 7.24056 6.28882C7.2664 6.24887 7.25915 6.19538 7.29388 6.15899L7.2947 6.1568C7.33107 6.12671 7.31808 6.07362 7.3487 6.04079C7.36634 6.0345 7.37126 6.02273 7.36306 6.00563C7.43729 5.6093 7.75228 5.40546 8.03952 5.19246C8.50243 4.84921 9.04778 4.70351 9.61036 4.66397C10.3549 4.61158 11.1011 4.62991 11.8331 4.80858C12.0221 4.85482 12.2196 4.88492 12.3783 5.01434C12.4443 5.27468 12.3663 5.52421 12.3205 5.77607C12.2804 5.87676 12.2741 5.98484 12.2543 6.0899C12.223 6.17568 12.214 6.26529 12.2105 6.35586C12.1646 6.54985 12.1643 6.75724 12.0435 6.92962C11.9941 6.97504 11.9341 6.98557 11.8698 6.98147C11.825 6.97778 11.7814 6.96738 11.7386 6.95342C11.5602 6.89993 11.3773 6.88119 11.1915 6.88475C11.1636 6.88352 11.136 6.87914 11.1088 6.8738C11.0822 6.86929 11.0558 6.86217 11.03 6.8541C10.8762 6.80335 10.7239 6.83304 10.5719 6.86532C10.5235 6.87476 10.4743 6.87873 10.4257 6.88447C10.3911 6.89036 10.3571 6.89884 10.3237 6.91033C10.3025 6.921 10.2809 6.9303 10.2595 6.94029C10.2276 6.95808 10.196 6.97655 10.165 6.99611C9.99426 7.09734 9.91688 7.25768 9.88038 7.44442C9.84934 7.53485 9.86493 7.62966 9.85221 7.72186C9.79069 7.92434 9.82883 8.13146 9.81858 8.33612C9.80751 8.55925 9.9017 8.65625 10.1302 8.65338C10.5125 8.64832 10.8955 8.64626 11.278 8.65502C11.6773 8.66419 11.7431 8.73012 11.7461 9.11948C11.7497 9.59064 11.7497 10.0619 11.7461 10.5331C11.7432 10.9237 11.6998 10.9646 11.298 10.9676C10.935 10.9703 10.5719 10.9692 10.209 10.9677C10.0889 10.9672 9.97266 10.9711 9.88188 11.0646C9.79219 11.2097 9.82446 11.3714 9.82172 11.5263C9.79137 13.1792 9.80286 14.8324 9.79821 16.4854C9.7978 16.6284 9.83649 16.7843 9.71495 16.9054Z" fill="white"/>
<path fill-rule="evenodd" clip-rule="evenodd" d="M12.3457 5.04457C11.5043 4.77068 10.6385 4.70323 9.76122 4.74578C9.29763 4.76822 8.84688 4.85454 8.42703 5.06358C7.98831 5.28206 7.62712 5.58905 7.36312 6.00549C7.20904 5.80398 6.99399 5.79673 6.765 5.8011C6.30427 5.81 5.84313 5.80097 5.38227 5.80521C5.15573 5.80726 5.13687 5.83079 5.1113 6.05419C5.08656 6.26953 5.08655 6.27473 4.86221 6.27527C3.98929 6.2776 3.1165 6.27623 2.24372 6.27623C2.17509 6.27623 2.10618 6.27281 2.03783 6.27746C1.85422 6.28978 1.83016 6.31549 1.80705 6.50771C1.77862 6.74301 1.77875 6.74438 1.54716 6.74808C1.40005 6.75054 1.25295 6.75095 1.10585 6.74794C0.879036 6.74315 0.878626 6.74151 0.863041 6.52152C0.860306 6.48267 0.862631 6.44355 0.862631 6.3631C0.761189 6.45613 0.694335 6.54095 0.589202 6.58788C0.473405 6.63945 0.455222 6.55217 0.398623 6.51373C0.397666 6.47515 0.396572 6.4367 0.395615 6.39813C0.44825 6.3486 0.453718 6.28458 0.450847 6.21809C0.499381 6.16829 0.513326 6.10728 0.508951 6.04024C0.558715 5.99236 0.57307 5.93189 0.571156 5.86554C0.625295 5.81998 0.632267 5.75705 0.635001 5.69248C0.701991 5.60574 0.740134 5.50711 0.754763 5.39889C0.800289 5.37016 0.808492 5.32502 0.808629 5.27632C0.853608 5.24827 0.864408 5.20449 0.864545 5.15565C0.92921 5.08903 0.963526 5.00749 0.979522 4.91734C1.01999 4.88861 1.03981 4.84934 1.03954 4.79982C1.08233 4.77301 1.10051 4.73306 1.10106 4.68381C1.20168 4.55877 1.27975 4.42073 1.33771 4.2712C1.36164 4.2515 1.38556 4.2318 1.40935 4.2121C1.44777 4.20116 1.49398 4.18789 1.52446 4.20923C1.93174 4.49502 2.39506 4.35999 2.83596 4.3842C3.06975 4.39693 3.30489 4.38639 3.53936 4.38639C3.03803 4.38584 2.5367 4.38844 2.03536 4.38434C1.95306 4.38366 1.8307 4.41074 1.81826 4.29583C1.80514 4.17448 1.92476 4.1374 2.02169 4.12714C2.4332 4.08378 2.8495 4.08049 3.25841 4.11647C3.73021 4.15806 4.20024 4.14397 4.67081 4.14835C5.41795 4.15533 6.16509 4.15026 6.91224 4.15013C5.89235 4.15013 4.87246 4.15013 3.85243 4.15013C3.79351 4.15013 3.73418 4.15368 3.67566 4.14862C3.58297 4.14055 3.4505 4.1686 3.44872 4.02933C3.44721 3.90306 3.576 3.89156 3.67006 3.88349C3.99366 3.85572 4.32136 3.84478 4.6421 3.87706C5.37844 3.95107 6.11492 3.88595 6.714 3.91414C6.27693 3.91373 5.70314 3.91674 5.12935 3.91181C5.02996 3.91099 4.87287 3.95094 4.86754 3.80209C4.86193 3.64764 5.02408 3.6486 5.13577 3.64326C5.5384 3.62411 5.94471 3.60413 6.34391 3.64395C6.86493 3.69579 7.38404 3.66966 7.90383 3.67582C8.65083 3.68444 9.39811 3.67815 10.1454 3.67801C9.05728 3.67787 7.96917 3.67801 6.88107 3.67787C6.8123 3.67787 6.7434 3.67897 6.67477 3.675C6.6034 3.67076 6.52588 3.6579 6.51453 3.57582C6.50045 3.47458 6.58795 3.44763 6.66369 3.42601C6.78824 3.39058 6.91716 3.39892 7.04485 3.39824C8.09099 3.39332 9.13589 3.48429 9.98708 3.44161C9.59252 3.44106 9.00273 3.4438 8.41295 3.43969C8.32039 3.43915 8.18423 3.46596 8.17288 3.33531C8.1603 3.18879 8.30618 3.18181 8.40721 3.17429C8.78003 3.14652 9.15558 3.14159 9.52703 3.16622C10.8429 3.25364 12.1596 3.17196 13.2269 3.20548C12.3998 3.20521 11.3243 3.20548 10.2487 3.20534C10.1701 3.20534 10.0915 3.20712 10.0128 3.20357C9.9343 3.20015 9.83778 3.2037 9.82165 3.10657C9.80197 2.98741 9.90942 2.96032 9.99323 2.94842C10.3257 2.90163 10.6635 2.90191 10.9938 2.93214C11.8185 3.00752 12.6436 2.93898 13.2979 2.96922C12.8307 2.96908 12.1936 2.96949 11.5566 2.96894C11.4781 2.96894 11.3956 2.9818 11.3225 2.95266C11.2114 2.9082 11.1954 2.83378 11.2937 2.75648C11.3486 2.71325 11.4201 2.6993 11.489 2.69848C11.9504 2.69314 12.4116 2.66715 12.8727 2.71366C13.3571 2.76264 13.8435 2.71654 14.2267 2.73295C13.9255 2.73254 13.5225 2.73583 13.1193 2.7309C13.0275 2.72981 12.8943 2.75607 12.8895 2.61653C12.8853 2.4893 13.0137 2.47986 13.1077 2.46741C13.3129 2.44005 13.5247 2.42733 13.7255 2.4592C14.1354 2.52419 14.4832 2.32678 14.8564 2.2373C14.8749 2.25263 14.8935 2.26795 14.9118 2.28327C14.935 2.28423 14.948 2.29613 14.9508 2.31925C15.4057 2.69725 15.7946 3.13516 16.1275 3.62342C16.123 3.65243 16.1247 3.68225 16.1213 3.71084C16.0383 4.40732 15.9537 4.4827 15.2588 4.48325C15.1609 4.48339 15.0629 4.48544 14.9651 4.48339C14.7937 4.4801 14.6615 4.51075 14.6299 4.72184C14.5978 4.93758 14.4144 4.94976 14.2437 4.95263C13.7838 4.96029 13.3236 4.95318 12.8635 4.9566C12.7356 4.95756 12.5979 4.94565 12.5944 5.13855C12.5927 5.23131 12.5583 5.34376 12.4564 5.3268C12.3424 5.30778 12.389 5.18698 12.3948 5.10326C12.3975 5.06646 12.3722 5.05565 12.3457 5.04457Z" fill="#072269"/>
<path fill-rule="evenodd" clip-rule="evenodd" d="M7.09454 5.96802C7.18819 6.0107 7.18409 6.08034 7.15497 6.15503C7.1521 6.16242 7.11559 6.16775 7.10917 6.16078C7.05476 6.10127 7.03794 6.0371 7.09454 5.96802Z" fill="#072269"/>
<path fill-rule="evenodd" clip-rule="evenodd" d="M6.96341 7.58789C7.01645 7.65944 6.99075 7.72976 6.97818 7.8009C6.92253 7.73249 6.94659 7.65917 6.96341 7.58789Z" fill="#051B5C"/>
<path fill-rule="evenodd" clip-rule="evenodd" d="M7.29389 6.15894C7.29758 6.21106 7.28541 6.25662 7.24057 6.28877C7.23688 6.23664 7.24467 6.18931 7.29389 6.15894Z" fill="#072269"/>
<path fill-rule="evenodd" clip-rule="evenodd" d="M7.34863 6.04065C7.35355 6.09004 7.33318 6.12752 7.29463 6.15666C7.29463 6.1096 7.30625 6.06801 7.34863 6.04065Z" fill="#072269"/>
<path fill-rule="evenodd" clip-rule="evenodd" d="M14.8565 2.23758C14.8277 2.34019 14.8223 2.47727 14.6546 2.36933C14.6144 2.34347 14.5694 2.35893 14.5632 2.40216C14.536 2.59602 14.3895 2.55443 14.2682 2.55538C13.924 2.55812 13.5799 2.55538 13.2356 2.55689C13.1392 2.5573 13.0401 2.54225 12.9384 2.58576C12.9656 2.70587 13.0588 2.67208 13.1245 2.67249C13.5964 2.67577 14.0685 2.67304 14.5406 2.67536C14.6304 2.67577 14.7292 2.6517 14.849 2.74541C14.5817 2.82749 14.3501 2.78303 14.1236 2.79069C13.8877 2.79863 13.6515 2.79247 13.4155 2.79247C13.1697 2.79247 12.9238 2.79247 12.678 2.79247C12.4419 2.79247 12.2056 2.78618 11.9699 2.79425C11.7441 2.80205 11.5127 2.75649 11.2918 2.85225C11.503 2.94405 11.7246 2.90137 11.9408 2.90889C12.1666 2.91669 12.3932 2.91067 12.6193 2.91067C12.8357 2.91067 13.0523 2.90465 13.2683 2.91231C13.4848 2.92011 13.7066 2.87729 13.9184 2.96909C13.6579 3.06636 13.3882 3.01806 13.1236 3.02668C12.8484 3.03557 12.573 3.02873 12.2976 3.02873C12.0321 3.02873 11.7665 3.02873 11.501 3.02873C11.2256 3.02873 10.9502 3.0223 10.6751 3.03065C10.4089 3.03872 10.1385 2.99357 9.82856 3.07251C9.95953 3.17512 10.0689 3.14516 10.1673 3.14529C11.3179 3.14775 12.4686 3.14584 13.6191 3.14858C13.719 3.14871 13.8294 3.11711 13.9471 3.20508C13.8361 3.29291 13.7268 3.26336 13.6288 3.26349C11.9275 3.26554 10.2261 3.26445 8.52485 3.26609C8.42355 3.26623 8.3154 3.24201 8.19496 3.31479C8.28177 3.40659 8.37324 3.38156 8.45239 3.38183C9.08169 3.38416 9.71126 3.38197 10.3404 3.38429C10.4324 3.38457 10.5322 3.35844 10.6404 3.4386C10.5347 3.53067 10.4249 3.49948 10.3276 3.49962C9.17698 3.50195 8.02639 3.50044 6.8758 3.50222C6.77368 3.50236 6.66526 3.47896 6.54113 3.54983C6.64872 3.65024 6.75891 3.61755 6.85584 3.61768C8.00643 3.62015 9.15702 3.61864 10.3076 3.62028C10.4101 3.62042 10.5186 3.59757 10.6397 3.66461C10.55 3.7679 10.4479 3.73561 10.3607 3.73588C9.55431 3.73848 8.74783 3.73739 7.94149 3.73739C7.03672 3.73739 6.13194 3.73616 5.22717 3.73903C5.12477 3.7393 5.01444 3.70893 4.90165 3.78363C4.96768 3.88774 5.06407 3.85326 5.1409 3.85367C5.77033 3.85682 6.39963 3.85395 7.02906 3.85723C7.12216 3.85764 7.22402 3.8244 7.32436 3.90976C7.23769 4.00936 7.12545 3.9716 7.03016 3.97187C5.95832 3.97475 4.88634 3.9727 3.8145 3.97529C3.71114 3.97543 3.60054 3.94492 3.48529 4.0214C3.57265 4.12906 3.68571 4.08966 3.78059 4.0898C4.85243 4.09281 5.92441 4.09117 6.99625 4.09267C7.1007 4.09281 7.20966 4.07243 7.32368 4.1277C7.26913 4.25027 7.16714 4.20691 7.09263 4.20745C6.47318 4.2117 5.85359 4.20992 5.234 4.20992C4.21124 4.20992 3.18848 4.20896 2.16572 4.2117C2.06442 4.21183 1.95095 4.17763 1.8264 4.29911C2.03503 4.34946 2.21426 4.3221 2.38939 4.32702C2.5663 4.33195 2.74334 4.32812 2.92039 4.32812C3.10728 4.32812 3.2943 4.32388 3.48092 4.32935C3.65509 4.33427 3.83213 4.30308 4.00275 4.35206C4.0074 4.45959 3.93344 4.44413 3.88067 4.44427C3.23155 4.44632 2.58257 4.44235 1.93358 4.44796C1.71785 4.44988 1.57362 4.31444 1.40942 4.21293C1.40737 4.19569 1.40614 4.17845 1.40559 4.16108C1.43882 4.14959 1.45167 4.12469 1.45167 4.09144C1.51141 4.04589 1.54805 3.98501 1.5691 3.91373C1.61244 3.89102 1.63391 3.85367 1.6406 3.80634C1.72086 3.74327 1.77691 3.66256 1.81423 3.56802C1.84759 3.55831 1.8629 3.53464 1.8655 3.50126C1.92907 3.46159 1.972 3.40563 1.99552 3.33477C2.09682 3.25542 2.17325 3.15514 2.23805 3.04529C2.26977 3.03667 2.28713 3.01533 2.29219 2.98331C2.32513 2.97552 2.34318 2.95431 2.34837 2.92134C2.40238 2.89548 2.44189 2.85622 2.4613 2.79863C2.49398 2.79137 2.51312 2.77113 2.51899 2.73829C2.55222 2.73227 2.57204 2.71257 2.57806 2.67933C2.6337 2.65648 2.67294 2.61695 2.69618 2.56154C2.72967 2.55566 2.74922 2.53582 2.75524 2.5023C2.82975 2.45989 2.8925 2.40531 2.93638 2.33047C2.9558 2.32788 2.97507 2.325 2.99449 2.32199C3.04575 2.34717 3.08349 2.38506 3.10482 2.43869C2.96988 2.54239 2.92025 2.71983 2.76303 2.81231C2.6929 2.85348 2.67827 2.96019 2.74717 3.05992C2.80979 3.15035 2.88101 3.16841 2.93201 3.09358C3.03017 2.94952 3.16565 2.97114 3.30114 2.97045C3.48803 2.9695 3.67491 2.96717 3.86166 2.97114C4.05074 2.97497 4.23503 2.98318 4.36819 2.80574C4.4345 2.71723 4.54483 2.73433 4.64285 2.73419C4.9968 2.73405 5.35089 2.73323 5.70485 2.7346C5.8149 2.73501 5.93316 2.74103 5.997 2.63542C6.08519 2.48958 6.2178 2.49628 6.3567 2.49724C6.67128 2.49943 6.98613 2.49492 7.30071 2.49943C7.42485 2.50121 7.53613 2.4837 7.61775 2.38082C7.70812 2.267 7.83144 2.25906 7.96378 2.26057C8.30789 2.2644 8.65213 2.2592 8.99624 2.26317C9.12981 2.26467 9.25614 2.25551 9.3327 2.12896C9.39463 2.02663 9.48841 2.02471 9.58917 2.02512C9.85453 2.02663 10.1202 2.0228 10.3855 2.02677C10.4996 2.02841 10.6022 2.01035 10.6765 1.91718C10.7743 1.79461 10.906 1.78585 11.0487 1.7879C11.393 1.79283 11.7371 1.78845 12.0813 1.79009C12.1919 1.7905 12.309 1.79406 12.3724 1.68817C12.4529 1.5541 12.5713 1.54603 12.7037 1.5526C12.7723 1.55588 12.842 1.55752 12.91 1.54931C13.1102 1.5251 13.141 1.49021 13.1673 1.2835C13.1759 1.21578 13.188 1.14861 13.1986 1.0813C13.8123 1.37872 14.3631 1.76697 14.8565 2.23758Z" fill="#09256E"/>
<path fill-rule="evenodd" clip-rule="evenodd" d="M12.7218 0.84082C12.7405 0.847387 12.7591 0.854091 12.7779 0.860657C12.6592 0.975027 12.4961 0.971744 12.3521 1.00923C12.2016 1.04849 12.1951 0.954917 12.2515 0.843967C12.4082 0.842873 12.5651 0.841778 12.7218 0.84082Z" fill="#09256E"/>
<path fill-rule="evenodd" clip-rule="evenodd" d="M12.8455 0.901245C12.9567 0.912737 13.043 0.976762 13.1307 1.03764C12.9627 1.14517 12.8995 1.03285 12.8455 0.901245Z" fill="#09256E"/>
<path fill-rule="evenodd" clip-rule="evenodd" d="M3.33035 2.46553C3.30424 2.45732 3.29262 2.43324 3.29357 2.40356C3.29467 2.371 3.3123 2.34706 3.34634 2.35212C3.3782 2.35677 3.38941 2.38509 3.38818 2.41464C3.38681 2.44665 3.37164 2.46868 3.33035 2.46553Z" fill="#09256E"/>
<path fill-rule="evenodd" clip-rule="evenodd" d="M4.1035 1.87781C4.11471 1.88903 4.13563 1.90052 4.13522 1.91132C4.13413 1.94457 4.10501 1.95264 4.07766 1.96235C4.0469 1.9733 4.04144 1.96783 4.05237 1.93704C4.06208 1.90982 4.07001 1.88355 4.1035 1.87781Z" fill="#09256E"/>
<path fill-rule="evenodd" clip-rule="evenodd" d="M4.02067 1.99807C4.00645 2.00177 3.97979 2.01449 3.95313 2.01422C3.9303 2.01408 3.92155 1.98809 3.93672 1.98166C3.96215 1.97085 3.99209 1.97126 4.01984 1.96565C4.05512 1.95854 4.05867 1.96565 4.02067 1.99807Z" fill="#09256E"/>
<path fill-rule="evenodd" clip-rule="evenodd" d="M3.65271 2.47738C3.63029 2.48231 3.61703 2.47424 3.61744 2.45276C3.61758 2.44496 3.624 2.43566 3.63002 2.42977C3.64683 2.41349 3.66762 2.41404 3.67281 2.43374C3.67595 2.44564 3.6601 2.46261 3.65271 2.47738Z" fill="#09256E"/>
<path fill-rule="evenodd" clip-rule="evenodd" d="M3.17768 2.45911C3.17317 2.46623 3.1666 2.47991 3.16469 2.47936C3.14897 2.47444 3.13174 2.46965 3.11944 2.45939C3.0951 2.43887 3.10057 2.43011 3.13079 2.43996C3.14678 2.44516 3.16196 2.45268 3.17768 2.45911Z" fill="#09256E"/>
<path fill-rule="evenodd" clip-rule="evenodd" d="M12.2515 0.843833L12.2291 0.831384L12.2389 0.821533L12.2515 0.843833Z" fill="#09256E"/>
<path fill-rule="evenodd" clip-rule="evenodd" d="M12.4351 0.714924C12.4566 0.709042 12.4737 0.715198 12.4864 0.733393C12.4573 0.761028 12.4425 0.748169 12.4351 0.714924Z" fill="#09256E"/>
<path fill-rule="evenodd" clip-rule="evenodd" d="M12.3141 0.663771C12.3354 0.656384 12.3532 0.661582 12.3672 0.679504C12.3404 0.70495 12.3244 0.694279 12.3141 0.663771Z" fill="#09256E"/>
<path fill-rule="evenodd" clip-rule="evenodd" d="M0.0878994 8.60516C0.0595998 8.56905 0.0601467 8.53307 0.0878994 8.49695C0.0880361 8.53293 0.0880361 8.56905 0.0878994 8.60516Z" fill="#071F64"/>
<path fill-rule="evenodd" clip-rule="evenodd" d="M9.77383 10.938C9.85709 10.8591 9.95962 10.9001 10.0524 10.8992C10.5331 10.8945 11.0138 10.8907 11.4942 10.9003C11.6531 10.9034 11.693 10.8465 11.6915 10.6979C11.6852 10.119 11.6911 9.53975 11.6885 8.96078C11.6876 8.76529 11.6822 8.76228 11.4668 8.76132C10.9762 8.75927 10.4858 8.75968 9.99544 8.76091C9.69152 8.76173 9.72994 8.76023 9.7324 8.48511C9.73514 8.20137 9.70902 7.91572 9.77711 7.63527C10.038 7.84964 10.2954 7.90642 10.5773 7.65688C10.6729 7.5722 10.8216 7.59669 10.9493 7.59546C11.1952 7.59313 11.4412 7.59327 11.687 7.59491C11.8661 7.59614 12.0341 7.5867 12.1797 7.45085C12.2942 7.34415 12.4555 7.36535 12.6027 7.35837C12.9769 7.34072 13.3679 7.43813 13.703 7.16247C13.7894 7.09133 13.9317 7.1232 14.0496 7.12252C14.3348 7.12101 14.6201 7.12019 14.9053 7.12266C15.0849 7.12416 15.2551 7.11349 15.401 6.98243C15.5098 6.88475 15.6555 6.88885 15.7939 6.88708C16.03 6.88379 16.266 6.88776 16.5021 6.88475C16.5904 6.88352 16.6985 6.90212 16.759 6.84152C16.9818 6.61825 17.2861 6.65834 17.551 6.57324C17.5574 6.60457 17.5638 6.6359 17.5704 6.66723C17.5869 6.71265 17.5879 6.76258 17.6108 6.80609C17.6167 6.8396 17.6227 6.87326 17.6286 6.90678C17.6849 6.96287 17.5868 7.05535 17.6752 7.10364C17.7533 7.32226 17.7656 7.55305 17.801 7.7796C17.8155 7.87345 17.8013 7.9725 17.8523 8.0595C17.8549 8.09494 17.8573 8.13051 17.8601 8.16608C17.9824 8.34475 17.8789 8.52547 17.8653 8.70537C17.5864 8.79279 17.3008 8.72958 17.0186 8.73902C16.6459 8.75147 16.2728 8.73779 15.8999 8.74477C15.772 8.74723 15.6341 8.74367 15.6014 8.91482C15.5507 9.18063 15.3535 9.21223 15.134 9.21306C14.3882 9.21579 13.6424 9.21333 12.8967 9.21429C12.7985 9.21429 12.7002 9.21689 12.6023 9.21538C12.4399 9.21278 12.3184 9.25287 12.2777 9.43824C12.2366 9.62635 12.0959 9.68244 11.9183 9.65535C11.7212 9.62539 11.7514 9.4708 11.7509 9.3355C11.7503 9.20621 11.7504 9.07693 11.7439 8.94792C11.7467 9.5221 11.8686 10.0905 11.8225 10.6673C11.8132 10.7845 11.8174 10.9044 11.7359 11.003C11.2808 11.1 10.8204 11.0289 10.3627 11.0416C10.1639 11.0471 9.94691 11.0997 9.77383 10.938Z" fill="#061C5E"/>
<path fill-rule="evenodd" clip-rule="evenodd" d="M11.7203 11.0002C11.7203 10.2761 11.7203 9.55201 11.7203 8.82789C11.7403 8.82735 11.7598 8.82693 11.7798 8.82639C11.7798 9.00697 11.7758 9.18783 11.7809 9.36814C11.7862 9.56035 11.8077 9.57951 11.977 9.58252C12.1503 9.58553 12.1758 9.56227 12.1921 9.38661C12.2177 9.113 12.2177 9.11136 12.5063 9.11108C13.3695 9.11026 14.2327 9.11081 15.0959 9.11081C15.1645 9.11081 15.2333 9.10725 15.3018 9.11081C15.4363 9.11806 15.4907 9.06142 15.4996 8.9227C15.5179 8.64047 15.5255 8.63924 15.8027 8.63869C16.3813 8.63759 16.9601 8.63883 17.5388 8.63787C17.6474 8.63773 17.7551 8.635 17.8514 8.69711C18.0202 9.01067 17.9679 9.32614 17.8596 9.64203C17.8419 9.67527 17.8381 9.70933 17.8526 9.74463C17.8184 10.086 17.7893 10.4277 17.7179 10.7642C17.7033 10.8331 17.7104 10.9061 17.6057 10.8808C17.476 10.7517 17.4112 10.5861 17.3675 10.4155C17.3304 10.27 17.285 10.1464 17.1064 10.1619C16.9131 10.1787 16.6602 10.0635 16.5541 10.3064C16.4311 10.5876 16.2216 10.6302 15.9602 10.6291C15.1954 10.6261 14.4306 10.6303 13.666 10.6263C13.4471 10.6253 13.2559 10.6445 13.1781 10.8964C13.1551 10.9708 13.0929 11.0429 13.0126 11.0524C12.5797 11.1028 12.1441 11.1863 11.7203 11.0002Z" fill="#051B57"/>
<path fill-rule="evenodd" clip-rule="evenodd" d="M14.8023 16.1737C14.7947 16.1759 14.7872 16.1781 14.7797 16.1804C14.7779 16.1737 14.7728 16.1625 14.7749 16.161C14.7948 16.1463 14.8045 16.1511 14.8023 16.1737Z" fill="#FCFCFC"/>
<path fill-rule="evenodd" clip-rule="evenodd" d="M17.5507 6.57329C17.4982 6.70613 17.4101 6.76291 17.2591 6.75292C17.1139 6.74348 16.9405 6.69464 16.8847 6.92461C16.8638 7.01121 16.7502 6.9833 16.675 6.98385C16.3514 6.98617 16.0278 6.98782 15.7042 6.98358C15.5705 6.9818 15.4528 6.98823 15.3868 7.13351C15.3352 7.24665 15.2219 7.21998 15.1269 7.22039C14.7052 7.22217 14.2836 7.22148 13.862 7.22107C13.7425 7.22093 13.6264 7.20999 13.5928 7.37552C13.5726 7.47539 13.4704 7.45583 13.395 7.45638C13.0812 7.45843 12.7674 7.45679 12.4535 7.45775C12.3376 7.45802 12.2172 7.43709 12.18 7.60454C12.1543 7.71959 12.0411 7.69209 11.9571 7.69264C11.5846 7.69497 11.212 7.69278 10.8394 7.69428C10.7065 7.69483 10.5536 7.65734 10.5201 7.86009C10.5112 7.91454 10.4515 7.92412 10.4017 7.92672C10.3431 7.92986 10.2843 7.92945 10.2254 7.92986C9.88769 7.93205 9.88769 7.93205 9.77709 7.63546C9.76766 7.54831 9.76383 7.46226 9.82686 7.38989C9.93678 7.22682 9.9983 7.02749 10.1801 6.91832C10.1909 6.8848 10.2139 6.87263 10.2478 6.88029C10.2697 6.89027 10.2874 6.88535 10.3008 6.8651C10.3173 6.83706 10.3408 6.82392 10.3736 6.83035C10.4314 6.83583 10.4913 6.85594 10.5412 6.806C10.7208 6.7428 10.9014 6.74731 11.0824 6.79984C11.0273 6.85005 10.9587 6.83637 10.9563 6.83624C10.961 6.83583 11.0313 6.84622 11.0912 6.80244L11.1096 6.78808L11.128 6.80244C11.3418 6.8387 11.5529 6.89657 11.7728 6.88357C11.804 6.87413 11.8308 6.87741 11.8476 6.90929C11.877 6.97345 11.9359 6.94978 11.9841 6.9558C12.0032 6.96333 12.0182 6.95786 12.0285 6.93966C12.0285 6.93993 12.0096 6.92256 12.0096 6.92256C12.0615 6.7283 12.0643 6.52336 12.139 6.33416C12.1875 6.22389 12.284 6.22512 12.3852 6.21773C13.1081 6.1652 13.8322 6.18176 14.5558 6.18463C14.7773 6.18545 14.9616 6.1652 15.0325 5.90691C15.0667 5.78256 15.1844 5.72646 15.3088 5.72222C15.8344 5.7043 16.36 5.69486 16.8764 5.73084C16.7603 5.46298 16.8074 5.27022 17.0301 5.15393C17.2727 5.6017 17.439 6.07751 17.5507 6.57329Z" fill="#061E61"/>
<path fill-rule="evenodd" clip-rule="evenodd" d="M17.0301 5.15421C16.9291 5.19977 16.9715 5.30169 16.943 5.36599C16.842 5.59336 16.8978 5.73058 17.1084 5.83359C17.1474 5.85275 17.1475 5.90104 17.1199 5.9351C17.0875 5.97532 17.0421 5.9585 17.0186 5.92991C16.9017 5.78776 16.7426 5.80322 16.5855 5.80363C16.1931 5.80486 15.8006 5.80268 15.4083 5.80459C15.1426 5.80582 15.1426 5.80787 15.0806 6.05973C15.0349 6.24511 15.0032 6.27425 14.7931 6.27548C14.2633 6.27849 13.7334 6.27425 13.2036 6.2778C12.9991 6.27917 12.7925 6.25236 12.5914 6.32514C12.5176 6.35182 12.4357 6.33731 12.362 6.30202C12.2801 6.26289 12.2097 6.29805 12.139 6.33444C12.1318 6.24866 12.1322 6.16453 12.188 6.09147C12.2939 6.01035 12.2405 5.90022 12.241 5.79994C12.2376 5.54302 12.3412 5.30087 12.3456 5.04491C12.4757 5.07665 12.3854 5.2233 12.4811 5.29348C12.5861 5.15298 12.4308 5.01344 12.4965 4.8594C12.8365 4.8594 13.1875 4.85953 13.5382 4.8594C13.8123 4.8594 14.0864 4.85598 14.3604 4.86008C14.4962 4.86213 14.5467 4.80591 14.5553 4.6691C14.5728 4.38906 14.5803 4.38865 14.8594 4.38728C15.0942 4.38605 15.3292 4.38796 15.564 4.38673C15.8687 4.38523 15.9363 4.34336 15.9592 4.04745C15.9724 3.87918 16.0295 3.74826 16.1277 3.6239C16.1483 3.63006 16.1566 3.6436 16.1528 3.66467C16.1621 3.69381 16.1813 3.71583 16.2046 3.73444L16.2078 3.73882C16.2243 3.7551 16.2387 3.77316 16.2504 3.79327C16.2701 3.79888 16.2774 3.8116 16.2728 3.83144C16.2761 3.86796 16.2973 3.89231 16.327 3.91092H16.3271C16.3423 3.93117 16.3576 3.95128 16.3729 3.97125C16.3911 3.97522 16.3971 3.98603 16.391 4.00354C16.3922 4.04198 16.413 4.06825 16.4439 4.08822L16.4454 4.09041C16.4183 4.29179 16.2497 4.0807 16.1828 4.1911C16.2944 4.27729 16.4487 4.17715 16.5576 4.26744C16.7538 4.54228 16.9177 4.8345 17.0301 5.15421Z" fill="#072065"/>
<path fill-rule="evenodd" clip-rule="evenodd" d="M16.5575 4.26744C16.4004 4.33844 16.216 4.24993 16.059 4.38673C16.0155 4.22188 16.0913 4.13282 16.1669 4.04595C16.2112 3.99492 16.2482 4.01886 16.2823 4.06524C16.3268 4.12598 16.3776 4.16976 16.4452 4.09041C16.5079 4.13337 16.5424 4.19411 16.5575 4.26744Z" fill="#072269"/>
<path fill-rule="evenodd" clip-rule="evenodd" d="M17.6749 7.10374C17.6461 7.12426 17.6092 7.16749 17.5898 7.16065C17.5464 7.14546 17.5728 7.10045 17.5814 7.06776C17.5959 7.01372 17.6127 6.96037 17.6283 6.90674C17.6812 6.96351 17.6818 7.03274 17.6749 7.10374Z" fill="#061E61"/>
<path fill-rule="evenodd" clip-rule="evenodd" d="M17.6106 6.80609C17.5663 6.76888 17.5642 6.71909 17.5701 6.66724C17.6135 6.70486 17.6188 6.75356 17.6106 6.80609Z" fill="#061E61"/>
<path fill-rule="evenodd" clip-rule="evenodd" d="M16.4437 4.08834C16.411 4.0696 16.3945 4.04074 16.3908 4.00366C16.426 4.0209 16.4426 4.04977 16.4437 4.08834Z" fill="#072269"/>
<path fill-rule="evenodd" clip-rule="evenodd" d="M16.3727 3.97134C16.3576 3.95123 16.3423 3.93112 16.3269 3.91101C16.3598 3.91785 16.3759 3.93741 16.3727 3.97134Z" fill="#072269"/>
<path fill-rule="evenodd" clip-rule="evenodd" d="M16.3268 3.91078C16.2945 3.89396 16.2769 3.86714 16.2727 3.8313C16.3083 3.84594 16.3249 3.8733 16.3268 3.91078Z" fill="#072269"/>
<path fill-rule="evenodd" clip-rule="evenodd" d="M16.2504 3.7931C16.2362 3.7749 16.222 3.75671 16.2077 3.73865C16.2377 3.74453 16.2544 3.76081 16.2504 3.7931Z" fill="#072269"/>
<path fill-rule="evenodd" clip-rule="evenodd" d="M16.2046 3.73432C16.1872 3.71107 16.17 3.68781 16.1527 3.66455C16.1867 3.67536 16.2037 3.69903 16.2046 3.73432Z" fill="#072269"/>
<path fill-rule="evenodd" clip-rule="evenodd" d="M14.9509 2.31957C14.9331 2.31273 14.92 2.30069 14.912 2.28359C14.9382 2.28127 14.9501 2.29426 14.9509 2.31957Z" fill="#09256E"/>
<path fill-rule="evenodd" clip-rule="evenodd" d="M16.8548 13.0088C16.8569 13.0589 16.8365 13.0972 16.7943 13.1239L16.7934 13.1254C16.7992 13.1567 16.7917 13.1812 16.7591 13.1931C16.6659 13.2317 16.5441 13.1612 16.4791 13.3233C16.4182 13.476 16.2324 13.4601 16.0861 13.4622C15.5853 13.4694 15.0844 13.467 14.5835 13.4638C14.3748 13.4626 14.2028 13.4746 14.1431 13.7376C14.0966 13.9426 13.8929 13.9322 13.7273 13.9342C13.0595 13.942 12.3916 13.9365 11.7239 13.9374C11.557 13.9377 11.3899 13.9409 11.2232 13.9373C11.0405 13.9333 10.896 13.9682 10.8533 14.1823C10.8244 14.3272 10.7075 14.3821 10.5699 14.3981C10.5213 14.4038 10.4722 14.4063 10.4231 14.4082C9.81527 14.432 9.80351 14.4204 9.8031 13.8097C9.80296 13.525 9.80501 13.2401 9.78423 12.9557C9.90126 14.3914 9.8757 15.8293 9.87392 17.267C9.87365 17.4296 9.90865 17.6055 9.77002 17.7401C9.68772 17.5944 9.74568 17.4364 9.7316 17.2847C9.71984 17.1588 9.72012 17.0317 9.71506 16.9053C9.72012 16.7978 9.72941 16.6903 9.72955 16.5826C9.73119 14.804 9.73051 13.0252 9.73447 11.2466C9.73474 11.1444 9.68908 11.0313 9.77385 10.9381C10.3092 10.9398 10.8446 10.9419 11.38 10.9426C11.497 10.9428 11.6142 10.9376 11.7202 11.0002C12.0927 11.0002 12.4649 11.0027 12.8373 10.9995C13.0617 10.9976 13.0859 10.9742 13.1347 10.7631C13.1872 10.5354 13.1872 10.5306 13.4219 10.5291C13.9315 10.5259 14.441 10.5281 14.9505 10.5281C15.3425 10.5281 15.7343 10.53 16.1264 10.5274C16.3743 10.5256 16.4013 10.5139 16.4357 10.2765C16.4588 10.1166 16.5266 10.052 16.6816 10.0552C16.8775 10.0591 17.0734 10.0561 17.2695 10.0567C17.3534 10.0568 17.446 10.0738 17.4357 10.1751C17.4155 10.3736 17.5182 10.528 17.5862 10.6968C17.6113 10.7589 17.6148 10.8299 17.6281 10.8967C17.5579 11.4068 17.3709 11.8815 17.1791 12.3534C17.0874 12.5786 17.0058 12.8113 16.8555 13.0087L16.8548 13.0088Z" fill="#031752"/>
<path fill-rule="evenodd" clip-rule="evenodd" d="M9.76993 17.7401C9.76993 16.0697 9.76993 14.3993 9.76993 12.7289C9.85319 12.9739 9.8253 13.2226 9.83104 13.4698C9.83583 13.6764 9.82803 13.8831 9.8335 14.0896C9.83869 14.2905 9.85032 14.3005 10.0583 14.3061C10.2253 14.3106 10.3927 14.3026 10.5596 14.3083C10.702 14.3132 10.7729 14.2701 10.7797 14.1102C10.7915 13.8366 10.8017 13.8354 11.0918 13.8351C11.9472 13.8343 12.8025 13.8348 13.6579 13.8348C13.7267 13.8348 13.7958 13.831 13.8644 13.8352C14.007 13.8443 14.0775 13.7972 14.0842 13.6375C14.0958 13.3657 14.1061 13.3637 14.3671 13.363C14.9472 13.3613 15.5272 13.356 16.1073 13.366C16.3031 13.3694 16.446 13.3425 16.4897 13.1191C16.5035 13.0489 16.5623 12.9874 16.613 12.9008C16.6922 12.9965 16.5512 13.1938 16.759 13.1932C16.6685 13.4455 16.4792 13.643 16.375 13.8876C16.0357 14.3177 15.7133 14.7613 15.3249 15.1513C13.8078 16.6752 11.9816 17.5491 9.84403 17.7728C9.8134 17.7758 9.78797 17.7665 9.76993 17.7401Z" fill="#001448"/>
<path fill-rule="evenodd" clip-rule="evenodd" d="M8.29868 17.7929C8.49418 17.7928 8.68954 17.7925 8.88504 17.7924C8.68954 17.8827 8.49418 17.8836 8.29868 17.7929Z" fill="#E7E6E6"/>
<path fill-rule="evenodd" clip-rule="evenodd" d="M7.70732 17.7316C7.88409 17.7321 8.06114 17.7328 8.23791 17.7333C8.06073 17.8247 7.88382 17.8272 7.70732 17.7316Z" fill="#EFECEC"/>
<path fill-rule="evenodd" clip-rule="evenodd" d="M9.12566 17.7916C9.28219 17.7918 9.43887 17.7919 9.59554 17.792C9.43873 17.8805 9.28219 17.8801 9.12566 17.7916Z" fill="#E6E5E7"/>
<path fill-rule="evenodd" clip-rule="evenodd" d="M7.35315 17.6712C7.47154 17.6913 7.60443 17.6271 7.70833 17.7322C7.58939 17.7143 7.45637 17.7795 7.35315 17.6712Z" fill="#EFECEC"/>
<path fill-rule="evenodd" clip-rule="evenodd" d="M10.1802 6.91821C10.0899 7.07198 9.95282 7.19785 9.93217 7.39293C9.92534 7.45778 9.86231 7.43001 9.8269 7.38965C9.85479 7.16515 9.971 7.00673 10.1802 6.91821Z" fill="#061C5E"/>
<path fill-rule="evenodd" clip-rule="evenodd" d="M11.7729 6.88371C11.542 6.9844 11.337 6.87797 11.128 6.80259C11.3492 6.77933 11.5614 6.82954 11.7729 6.88371Z" fill="#061C5E"/>
<path fill-rule="evenodd" clip-rule="evenodd" d="M12.2412 5.7998C12.337 5.8704 12.3184 5.96753 12.293 6.0596C12.2798 6.10693 12.2417 6.14182 12.1881 6.09134C12.1869 5.99079 12.1794 5.889 12.2412 5.7998Z" fill="#061E61"/>
<path fill-rule="evenodd" clip-rule="evenodd" d="M12.0097 6.92271C12.0309 6.92339 12.0522 6.92394 12.0734 6.92462L12.0757 6.92681C11.9934 7.00041 11.9154 7.0223 11.8477 6.9093C11.9017 6.91395 11.9558 6.91833 12.0097 6.92271Z" fill="#061C5E"/>
<path fill-rule="evenodd" clip-rule="evenodd" d="M10.5412 6.80602C10.4939 6.87387 10.4383 6.88331 10.3736 6.83037C10.4267 6.8026 10.4824 6.79384 10.5412 6.80602Z" fill="#061C5E"/>
<path fill-rule="evenodd" clip-rule="evenodd" d="M10.3009 6.86499C10.2904 6.89495 10.2743 6.90535 10.2479 6.88018C10.2655 6.87511 10.2831 6.87005 10.3009 6.86499Z" fill="#061C5E"/>
<path fill-rule="evenodd" clip-rule="evenodd" d="M10.0454 7.52734C10.0853 7.53446 10.1134 7.55881 10.1154 7.59985C10.1173 7.64144 10.093 7.674 10.0491 7.66853C10.0107 7.66374 9.97937 7.63282 9.97514 7.59411C9.97008 7.55046 10.0021 7.52994 10.0454 7.52734Z" fill="#061C5E"/>
<path fill-rule="evenodd" clip-rule="evenodd" d="M11.0912 6.80253C11.0145 6.87121 10.9308 6.88393 10.8243 6.83988C10.9154 6.78625 11.0026 6.81936 11.0824 6.79993C11.0824 6.79979 11.0912 6.80253 11.0912 6.80253Z" fill="#061C5E"/>
<path fill-rule="evenodd" clip-rule="evenodd" d="M10.6956 7.16149C10.6871 7.18365 10.6701 7.19282 10.6502 7.17996C10.6282 7.16573 10.6096 7.14617 10.5895 7.12879C10.6061 7.12236 10.623 7.11019 10.6394 7.11074C10.6693 7.11156 10.6931 7.12633 10.6956 7.16149Z" fill="#061C5E"/>
<path fill-rule="evenodd" clip-rule="evenodd" d="M10.1419 7.18567C10.1395 7.19224 10.1373 7.1988 10.1349 7.20551C10.1275 7.20277 10.1186 7.20168 10.1134 7.19675C10.1112 7.1947 10.1172 7.1843 10.1196 7.17773C10.1271 7.18033 10.1345 7.18293 10.1419 7.18567Z" fill="#061C5E"/>
<path fill-rule="evenodd" clip-rule="evenodd" d="M12.0734 6.92472C12.0781 6.91747 12.084 6.90352 12.0871 6.9042C12.105 6.90776 12.1009 6.91678 12.0757 6.92691L12.0734 6.92472Z" fill="#061C5E"/>
<path fill-rule="evenodd" clip-rule="evenodd" d="M12.4812 5.75037C12.5684 5.85584 12.5509 5.92904 12.4936 6.03451C12.4065 5.92904 12.424 5.85584 12.4812 5.75037Z" fill="#061E61"/>
<path fill-rule="evenodd" clip-rule="evenodd" d="M16.8548 13.0088C16.8406 12.989 16.8262 12.9692 16.812 12.9493C16.8785 12.9311 16.838 12.9908 16.8551 13.0086L16.8548 13.0088Z" fill="#001448"/>
<path fill-rule="evenodd" clip-rule="evenodd" d="M16.7933 13.1254C16.7862 13.1211 16.7725 13.1162 16.773 13.1129C16.7752 13.0956 16.7838 13.0992 16.7941 13.1239L16.7933 13.1254Z" fill="#001448"/>
</svg>
