<?xml version="1.0" standalone="no"?>
<!DOCTYPE svg PUBLIC "-//W3C//DTD SVG 20010904//EN"
 "http://www.w3.org/TR/2001/REC-SVG-20010904/DTD/svg10.dtd">
<svg version="1.0" xmlns="http://www.w3.org/2000/svg"
 width="704.000000pt" height="1280.000000pt" viewBox="0 0 704.000000 1280.000000"
 preserveAspectRatio="xMidYMid meet">

<g transform="translate(0.000000,1280.000000) scale(0.100000,-0.100000)"
fill="#000000" stroke="none">
<path d="M3413 12785 c-114 -21 -185 -48 -583 -223 -532 -233 -603 -272 -766
-409 -171 -144 -677 -586 -755 -661 -297 -282 -463 -618 -569 -1149 -31 -157
-50 -207 -89 -231 -14 -9 -28 -18 -31 -20 -12 -9 28 -21 52 -16 23 5 28 2 28
-14 0 -10 3 -40 6 -66 l7 -46 -41 0 c-24 0 -49 -7 -63 -19 l-23 -19 31 -6 c75
-17 102 -106 46 -156 l-28 -26 27 -23 c45 -37 29 -101 -28 -115 l-27 -7 21
-22 c28 -32 52 -82 52 -112 0 -14 -3 -24 -8 -21 -11 7 -72 -21 -72 -34 0 -6
26 -10 63 -10 60 0 64 2 81 31 10 17 35 38 55 46 20 8 37 16 38 17 2 1 -6 20
-17 41 -11 22 -20 45 -20 51 0 7 35 40 78 74 208 166 349 306 580 576 233 272
350 343 996 605 291 118 297 119 436 99 36 -5 151 -15 256 -21 206 -14 466 -3
673 26 57 8 106 14 108 12 10 -11 -74 -88 -125 -115 -95 -51 -175 -66 -352
-66 -133 -1 -160 2 -183 17 -24 15 -30 16 -55 4 -15 -8 -51 -22 -80 -32 -29
-9 -51 -19 -49 -21 8 -8 233 -32 362 -39 72 -3 191 -2 265 4 128 9 137 8 169
-12 32 -19 39 -20 120 -9 91 12 231 50 231 62 0 4 -7 14 -16 21 -13 11 -36 10
-136 -7 -97 -16 -121 -17 -130 -7 -15 19 -35 16 -68 -9 -29 -21 -30 -21 -65
-2 -43 23 -40 26 70 89 141 80 303 133 490 160 209 30 634 11 905 -41 23 -4
24 -3 5 7 -11 6 -34 25 -52 42 l-32 30 -403 54 c-468 62 -598 69 -693 35 -33
-11 -62 -19 -64 -16 -3 2 3 20 12 40 24 49 73 68 150 59 57 -6 58 -6 47 15 -6
12 -28 29 -48 37 -64 27 -138 12 -342 -68 -209 -82 -213 -90 -49 -97 68 -3
112 0 149 11 50 15 54 14 73 -4 30 -27 78 -33 171 -20 110 15 171 14 206 -4
62 -32 47 -35 -300 -55 -91 -5 -424 -10 -740 -9 l-575 0 37 19 c86 46 213 61
315 40 39 -9 93 -6 266 15 119 14 222 25 229 25 7 0 4 6 -7 12 -12 7 -107 14
-251 18 l-232 6 -76 37 c-102 51 -160 117 -239 275 l-61 122 -32 -31 c-18 -17
-46 -34 -63 -38 l-31 -6 103 -150 c96 -140 104 -150 141 -157 22 -5 55 -18 75
-30 l35 -22 -100 -33 c-306 -98 -597 -185 -651 -193 -41 -7 -92 -7 -149 0
-107 12 -167 0 -234 -45 -77 -52 -331 -275 -325 -286 18 -29 86 1 167 74 88
80 158 106 202 74 17 -12 12 -18 -60 -57 -70 -38 -485 -349 -492 -368 -1 -5
14 -14 33 -21 20 -7 35 -18 33 -24 -6 -21 -117 -68 -196 -83 -51 -10 -101 -13
-151 -9 l-73 6 6 -28 c16 -65 97 -164 84 -102 -3 13 -9 32 -13 42 -6 15 -4 17
17 12 13 -3 37 -1 52 5 16 6 31 8 34 6 8 -9 -27 -91 -60 -141 -18 -26 -66 -75
-107 -109 -127 -102 -183 -159 -205 -206 l-21 -45 -3 35 c-5 51 15 133 44 175
13 20 24 38 24 40 0 3 -15 5 -33 5 -22 0 -41 8 -56 24 l-22 24 22 16 c13 9 31
16 41 16 22 0 22 -1 3 43 -21 51 -19 151 6 260 11 50 29 144 40 207 54 317
169 569 371 808 39 45 82 92 97 105 14 12 38 43 53 68 39 67 110 133 179 165
32 16 59 32 59 37 0 5 7 24 16 43 18 38 63 67 95 62 18 -3 19 -4 4 -25 -9 -13
-25 -23 -36 -23 -15 0 -19 -7 -19 -37 0 -77 81 -169 156 -179 l39 -5 -31 28
c-77 69 -95 144 -45 194 40 40 51 37 51 -14 0 -70 56 -136 138 -161 76 -24
-75 210 -158 244 -17 7 -30 15 -30 19 0 4 23 32 50 63 58 65 177 163 267 221
57 37 61 42 49 59 -20 28 -8 57 33 77 20 10 187 83 371 161 184 78 421 179
525 223 201 85 276 103 326 77 l23 -13 -17 26 c-9 15 -17 28 -17 31 0 25 297
8 472 -29 227 -47 308 -81 873 -366 556 -280 625 -316 634 -325 12 -13 -186 5
-226 20 -24 8 -43 13 -43 10 0 -3 48 -36 108 -75 119 -77 313 -178 440 -229
94 -37 142 -75 142 -114 0 -14 -5 -26 -11 -26 -6 0 -61 22 -123 49 -436 193
-910 376 -1371 531 l-230 77 -18 -34 c-10 -18 -32 -42 -48 -52 l-31 -19 29 -5
c15 -3 60 -9 98 -12 259 -24 600 -139 770 -260 84 -59 185 -108 290 -140 115
-35 171 -64 215 -110 60 -64 82 -69 295 -70 170 0 194 -2 227 -20 l38 -20
-204 -129 c-196 -124 -205 -129 -263 -132 -33 -1 -75 -9 -94 -17 l-34 -14 40
-13 c98 -34 222 -6 297 67 l37 36 11 -29 c27 -70 58 -122 108 -175 28 -31 52
-61 52 -67 0 -15 59 -62 77 -62 14 0 14 3 1 23 -8 12 -29 31 -46 42 -18 11
-34 31 -38 45 -18 79 -42 139 -70 181 -17 26 -29 50 -26 53 14 14 55 4 77 -20
l24 -26 21 34 c11 18 20 48 20 66 l0 33 33 -18 c17 -10 62 -48 99 -85 54 -54
77 -88 125 -184 41 -82 67 -123 85 -133 15 -9 30 -12 34 -8 4 4 -5 42 -20 85
-16 42 -40 118 -53 167 l-25 90 -49 23 c-30 14 -56 36 -70 59 -24 38 -38 126
-22 136 5 3 43 -23 84 -59 60 -53 79 -65 101 -62 36 6 46 -23 23 -59 -17 -25
-16 -26 23 -67 105 -109 238 -293 317 -438 44 -82 45 -88 25 -88 -12 0 -30 5
-42 11 -11 6 -21 9 -23 7 -2 -2 7 -28 21 -58 14 -30 40 -95 57 -145 l31 -90 8
40 c4 22 8 94 8 160 1 176 -32 320 -110 475 -34 67 -123 200 -134 200 -3 0 7
-26 21 -57 43 -99 115 -285 110 -289 -2 -3 -22 13 -44 35 -48 46 -91 117 -157
261 -77 168 -111 209 -261 315 -602 426 -1248 783 -1880 1040 -357 144 -611
190 -832 150z m2100 -891 c146 -36 174 -50 163 -80 -18 -47 -316 48 -316 101
0 8 2 15 6 15 3 0 69 -16 147 -36z m523 -305 c39 -32 -11 -65 -83 -54 -49 7
-57 16 -48 52 6 25 8 25 61 20 31 -3 62 -11 70 -18z m-3851 -739 c9 -14 -4
-52 -16 -45 -5 4 -9 -1 -9 -10 0 -19 -6 -22 -97 -39 -60 -11 -73 -11 -73 -1 0
8 16 19 35 25 19 6 40 21 46 32 7 13 14 17 21 10 6 -6 18 -1 33 14 25 25 50
31 60 14z m-227 -88 l-22 -40 -39 26 -39 26 23 19 c13 10 31 16 40 14 10 -3
20 2 23 10 5 13 8 13 21 0 13 -13 12 -20 -7 -55z"/>
<path d="M4107 12564 c-4 -4 -7 -19 -7 -32 0 -18 17 -41 57 -78 50 -46 61 -51
90 -47 36 6 39 0 18 -37 -26 -46 -21 -50 63 -50 70 -1 180 -16 256 -35 25 -7
27 -6 18 11 -14 27 -173 114 -208 114 -38 0 -64 17 -46 28 7 5 10 15 7 23 -4
10 -18 13 -51 11 -58 -5 -99 11 -150 60 -22 21 -43 35 -47 32z"/>
<path d="M3703 12238 c-13 -6 -23 -15 -23 -20 0 -11 7 -10 44 7 29 14 36 14
61 1 22 -11 33 -12 49 -4 20 11 20 11 1 19 -29 11 -106 9 -132 -3z"/>
<path d="M4251 12242 c-32 -22 68 -62 219 -87 137 -23 164 -31 275 -85 89 -43
247 -100 277 -100 6 0 0 10 -14 23 -14 13 -29 30 -34 38 -10 17 -206 107 -319
146 -138 49 -372 86 -404 65z"/>
<path d="M2331 12205 c-56 -26 -131 -81 -131 -95 0 -5 9 -11 19 -15 14 -4 46
12 107 52 48 32 89 64 92 71 6 19 -28 14 -87 -13z"/>
<path d="M3724 12175 c-16 -13 -17 -16 -4 -25 8 -5 35 -10 60 -10 l45 0 -30
25 c-35 29 -45 30 -71 10z"/>
<path d="M3595 12069 c-32 -45 -31 -48 8 -44 56 8 97 85 42 81 -17 -1 -34 -13
-50 -37z"/>
<path d="M3745 12000 c-33 -27 -75 -52 -93 -56 -42 -8 -103 9 -127 36 -17 19
-19 19 -31 2 -7 -9 -18 -17 -25 -17 -7 0 -28 -26 -46 -59 -72 -127 -121 -165
-334 -257 -90 -39 -170 -79 -177 -88 -28 -34 19 -152 88 -221 52 -52 128 -90
181 -90 32 0 49 7 82 35 58 50 129 81 227 99 90 17 130 37 130 62 0 12 -6 15
-25 10 -21 -5 -25 -3 -25 15 0 13 -5 19 -12 16 -256 -110 -375 -157 -403 -157
-48 0 -131 69 -167 139 -16 30 -26 56 -24 58 3 3 26 -10 52 -28 46 -31 47 -32
78 -15 110 59 284 248 356 388 41 78 61 93 88 66 21 -21 13 -39 -48 -102 -55
-57 -59 -64 -45 -82 13 -18 18 -15 94 64 62 65 85 83 103 80 50 -7 33 -38 -89
-158 -119 -117 -255 -218 -375 -276 -53 -26 -70 -48 -52 -66 9 -10 131 35 220
80 113 57 228 146 326 253 77 85 146 139 179 139 23 1 205 75 256 106 l48 29
-45 6 c-68 11 -118 0 -189 -39 -36 -19 -77 -35 -92 -34 -18 0 -29 -5 -31 -15
-3 -14 -5 -14 -15 -2 -10 12 -1 23 53 62 36 26 62 52 59 57 -3 6 -25 10 -48
10 -36 0 -51 -7 -102 -50z m-535 -348 c0 -4 -28 -36 -63 -70 -62 -61 -64 -62
-81 -43 -24 26 -10 50 50 90 44 29 94 41 94 23z"/>
<path d="M3311 11954 c-17 -14 -31 -32 -31 -39 0 -8 -29 -38 -64 -68 -36 -30
-62 -58 -59 -61 4 -3 21 -6 38 -6 26 0 47 15 123 91 51 50 89 95 86 100 -11
18 -63 9 -93 -17z"/>
<path d="M4250 11945 c-30 -13 -63 -24 -72 -25 -24 0 -23 -27 1 -35 10 -3 61
4 112 16 52 12 104 24 117 26 25 6 27 14 10 31 -19 19 -108 12 -168 -13z"/>
<path d="M2067 11912 c-17 -18 -17 -21 -2 -36 20 -20 19 -20 57 0 23 12 27 18
17 24 -7 5 -17 6 -22 3 -4 -3 -14 2 -21 12 -11 15 -13 15 -29 -3z"/>
<path d="M3073 11887 c-59 -24 -70 -42 -22 -35 25 4 33 1 37 -14 4 -16 9 -12
28 22 34 60 36 59 -43 27z"/>
<path d="M4422 11874 c-34 -23 -27 -31 33 -39 30 -3 57 -10 59 -13 2 -4 -27
-46 -65 -92 -68 -84 -96 -140 -81 -167 6 -9 32 15 90 82 49 55 93 97 108 101
35 9 74 2 267 -49 92 -24 167 -40 167 -36 0 5 -9 17 -21 27 -26 25 -472 202
-507 202 -15 0 -38 -7 -50 -16z"/>
<path d="M3952 11804 c-14 -10 -22 -26 -22 -44 0 -40 10 -42 47 -11 24 20 31
32 26 49 -6 26 -20 28 -51 6z"/>
<path d="M3725 11669 c-71 -73 -121 -129 -110 -125 136 50 157 61 189 97 35
38 60 103 54 140 -2 15 -32 -11 -133 -112z"/>
<path d="M4230 11745 c0 -31 -48 -102 -84 -124 -18 -12 -53 -28 -77 -36 -60
-22 -89 -51 -89 -92 0 -18 3 -33 6 -33 3 0 20 11 37 24 39 30 117 61 177 71
l44 7 -37 15 c-20 8 -37 18 -37 22 0 9 55 41 69 41 6 0 11 -9 11 -19 0 -11 5
-23 10 -26 20 -12 22 28 5 88 -19 66 -35 94 -35 62z"/>
<path d="M2830 11713 c-47 -4 -60 -10 -97 -44 -23 -21 -47 -39 -53 -39 -21 0
-9 -30 14 -36 26 -6 141 25 224 62 41 18 53 28 48 40 -3 8 -6 18 -6 20 0 4
-32 3 -130 -3z"/>
<path d="M2197 11687 c-3 -8 4 -34 15 -58 11 -25 17 -55 14 -70 -4 -23 1 -30
43 -53 34 -18 64 -26 98 -26 l50 0 -15 65 c-9 36 -18 65 -21 65 -3 0 -15 -14
-26 -30 -11 -16 -23 -30 -26 -30 -4 0 -32 34 -63 75 -31 41 -58 75 -60 75 -2
0 -6 -6 -9 -13z"/>
<path d="M3945 11684 c-45 -23 -65 -44 -91 -95 -12 -25 -35 -60 -49 -77 -32
-38 -143 -96 -159 -83 -8 6 -15 1 -23 -15 -9 -20 -8 -26 7 -34 26 -14 75 -12
113 4 31 13 64 46 156 156 27 31 62 60 88 72 44 19 47 26 37 66 -7 26 -36 29
-79 6z"/>
<path d="M4583 11653 c-10 -16 -23 -32 -30 -36 -7 -4 -13 -15 -13 -24 0 -12
10 -7 36 18 20 18 40 42 45 52 17 30 -18 20 -38 -10z"/>
<path d="M2076 11644 c-11 -29 -6 -65 10 -71 27 -10 37 12 23 51 -14 39 -23
45 -33 20z"/>
<path d="M4772 11558 c-30 -40 -36 -55 -26 -61 8 -4 22 2 38 17 33 34 70 41
136 28 100 -21 161 -12 125 18 -15 13 -173 50 -212 50 -15 0 -34 -16 -61 -52z"/>
<path d="M5095 11600 c-11 -18 76 -50 138 -50 50 0 58 2 55 18 -6 30 -177 59
-193 32z"/>
<path d="M2489 11568 c-16 -30 11 -48 72 -48 50 0 76 18 65 46 -5 12 -14 14
-45 9 -24 -4 -42 -2 -46 4 -10 18 -34 12 -46 -11z"/>
<path d="M2166 11483 c4 -21 11 -44 17 -50 12 -17 37 -17 37 0 0 13 -47 87
-56 87 -3 0 -2 -17 2 -37z"/>
<path d="M5168 11463 c92 -46 170 -62 179 -37 4 12 -82 56 -142 73 -22 6 -60
11 -85 10 l-45 -1 93 -45z"/>
<path d="M4216 11469 c-60 -14 -169 -76 -212 -120 l-39 -41 40 7 c22 4 64 18
93 31 42 18 57 21 71 12 14 -9 44 -5 132 17 63 15 122 32 132 37 25 13 21 43
-8 56 -30 14 -152 14 -209 1z"/>
<path d="M5575 11429 c-55 -3 -121 -7 -146 -8 -59 -1 -101 -30 -80 -55 19 -23
139 -21 287 4 122 21 144 29 122 47 -21 16 -75 20 -183 12z"/>
<path d="M1800 11409 c0 -15 4 -19 16 -15 11 4 14 1 12 -11 -2 -14 -12 -17
-49 -14 -40 2 -52 -2 -82 -28 -37 -33 -55 -77 -38 -94 7 -7 17 -2 31 16 48 61
248 58 506 -9 119 -31 162 -37 304 -43 183 -8 234 -23 200 -57 -5 -5 -6 -15
-1 -23 8 -12 19 -12 67 -2 32 6 62 15 67 20 4 4 -22 25 -59 47 -90 53 -146
103 -148 134 -1 19 -14 33 -56 57 -52 32 -110 44 -110 23 0 -5 7 -24 16 -43
14 -29 19 -32 49 -29 26 3 40 -2 60 -22 42 -42 29 -51 -71 -50 -107 2 -215 29
-315 79 l-69 35 -6 -29 c-4 -18 -14 -31 -27 -35 -12 -3 -22 -4 -22 -3 -1 1 -9
14 -18 29 -9 15 -14 34 -11 42 9 23 -10 20 -32 -5 -10 -11 -26 -18 -36 -16
-10 3 -21 1 -24 -4 -10 -17 -30 -9 -84 31 -61 46 -70 48 -70 19z"/>
<path d="M3894 11411 c-45 -28 -51 -41 -17 -41 33 0 73 25 73 46 0 19 -19 18
-56 -5z"/>
<path d="M2265 11390 c10 -16 86 -32 123 -25 25 5 39 2 53 -11 18 -16 19 -16
19 3 0 32 -26 49 -53 34 -17 -9 -30 -9 -51 -2 -35 14 -99 14 -91 1z"/>
<path d="M4665 11371 c-46 -21 -69 -45 -62 -65 10 -25 60 -25 137 0 71 23 120
25 120 4 0 -14 -42 -40 -65 -40 -19 -1 -18 -2 5 -21 28 -23 89 -23 193 2 55
13 62 12 120 -10 34 -13 77 -26 94 -28 38 -6 83 3 83 16 0 16 -104 50 -202 66
-165 28 -193 35 -253 65 -69 34 -113 37 -170 11z"/>
<path d="M3416 11319 c-38 -30 -32 -39 22 -32 63 7 153 -12 225 -49 60 -30
126 -36 134 -11 5 15 -124 77 -203 97 -87 22 -145 21 -178 -5z"/>
<path d="M4312 11299 c-37 -11 -34 -25 11 -44 22 -9 39 -10 59 -3 25 9 48 34
48 52 0 9 -81 5 -118 -5z"/>
<path d="M5953 11201 c8 -91 43 -155 147 -269 184 -201 305 -377 421 -616 l68
-138 -17 -34 c-15 -33 -15 -41 2 -125 22 -107 16 -149 -24 -182 l-29 -25 37
-6 c20 -3 53 -6 74 -6 l36 0 -5 40 c-3 22 -2 40 3 40 5 0 47 -62 94 -137 46
-75 92 -145 102 -157 18 -21 19 -20 16 42 -3 69 3 78 22 31 19 -46 16 -120 -7
-137 -27 -21 -117 -8 -182 25 -50 26 -121 98 -121 124 0 22 81 -5 137 -47 l23
-16 -24 68 c-39 113 -36 108 -52 85 -25 -35 -76 -45 -138 -27 -30 9 -72 16
-95 16 -34 0 -43 4 -55 28 -16 31 -54 68 -62 60 -9 -10 25 -136 58 -215 41
-100 112 -205 186 -276 53 -50 66 -57 100 -57 22 0 56 7 75 15 52 21 84 19
112 -10 33 -32 33 -6 1 32 -23 26 -30 28 -125 33 -88 5 -103 8 -126 30 -38 35
-169 290 -156 303 20 20 65 -7 99 -58 90 -137 196 -199 293 -173 23 7 25 5 25
-27 0 -34 27 -75 49 -75 7 0 22 33 33 73 118 401 120 651 6 880 -35 71 -158
262 -175 273 -5 2 3 -26 17 -63 38 -100 60 -209 83 -398 12 -93 27 -196 35
-227 7 -32 12 -58 11 -58 -10 0 -95 53 -95 59 0 4 11 18 24 30 l24 22 -34 51
c-51 75 -68 145 -66 262 1 71 -3 108 -14 131 -15 32 -58 64 -70 52 -4 -3 3
-53 15 -111 32 -159 26 -177 -18 -56 -47 131 -91 233 -143 330 -44 81 -199
322 -205 317 -2 -2 42 -109 97 -237 55 -129 98 -235 96 -237 -2 -2 -131 178
-287 401 -156 223 -288 405 -293 405 -5 1 -6 -26 -3 -58z m720 -1081 c22 -25
27 -27 37 -15 20 24 30 17 20 -11 -6 -14 -10 -43 -10 -66 0 -31 6 -46 29 -67
22 -20 28 -34 24 -50 -7 -27 14 -51 92 -104 33 -22 62 -42 65 -44 11 -9 -35
-33 -63 -33 -38 0 -90 53 -135 138 -30 56 -52 78 -52 52 0 -5 -4 -10 -9 -10
-14 0 -41 123 -41 185 0 30 4 55 9 55 5 0 20 -13 34 -30z"/>
<path d="M1775 11226 c-36 -16 -62 -44 -67 -71 -3 -22 -6 -22 82 3 38 12 96
17 188 17 72 0 132 1 132 2 0 15 -215 64 -279 63 -14 -1 -39 -7 -56 -14z"/>
<path d="M4455 11221 c-40 -11 -27 -15 125 -44 125 -24 164 -25 157 -3 -11 33
-208 66 -282 47z"/>
<path d="M2160 11139 c-83 -39 -386 -63 -427 -34 -19 13 -22 13 -27 -1 -8 -21
9 -51 33 -59 48 -15 46 -31 -14 -111 -31 -41 -95 -113 -143 -160 -85 -83 -89
-95 -22 -71 61 22 77 35 141 113 84 103 123 129 210 144 48 8 78 19 93 34 11
11 26 20 32 18 20 -4 66 17 59 28 -3 5 2 10 13 10 11 0 31 10 46 21 26 21 28
21 71 4 25 -9 56 -30 70 -47 21 -25 28 -28 40 -18 11 9 15 9 15 1 0 -23 40
-11 46 15 6 23 10 25 45 19 51 -9 141 18 180 53 l31 28 -105 2 c-59 1 -148 9
-199 17 -120 19 -134 19 -188 -6z"/>
<path d="M5256 11131 c-6 -8 74 -44 82 -37 2 3 1 14 -3 25 -5 16 -15 21 -40
21 -19 0 -36 -4 -39 -9z"/>
<path d="M5545 11073 c-134 -16 -137 -17 -57 -33 56 -10 122 4 130 28 4 12 -9
13 -73 5z"/>
<path d="M5390 10952 c0 -5 24 -20 53 -33 40 -17 76 -24 155 -27 118 -5 130 6
45 39 -63 24 -253 40 -253 21z"/>
<path d="M4418 10864 c-24 -13 -48 -42 -48 -59 0 -3 9 -1 19 5 11 5 31 10 45
10 16 0 26 6 26 14 0 8 3 21 6 30 8 20 -12 20 -48 0z"/>
<path d="M2877 10813 c-14 -4 -16 -8 -6 -19 22 -26 99 -13 99 18 0 8 -62 9
-93 1z"/>
<path d="M5914 10653 c3 -10 10 -37 16 -60 15 -61 87 -162 143 -201 26 -19 50
-32 53 -29 6 6 -203 307 -212 307 -3 0 -3 -8 0 -17z"/>
<path d="M6151 10518 c90 -138 208 -384 259 -540 40 -123 48 -139 73 -147 25
-9 27 -8 27 17 0 46 -47 213 -85 305 -64 151 -212 364 -302 433 -30 23 -27 16
28 -68z"/>
<path d="M1364 10486 c-17 -8 -51 -28 -74 -45 -47 -34 -80 -39 -103 -17 -12
13 -17 11 -36 -15 -12 -17 -33 -35 -47 -41 -43 -20 -21 -31 61 -31 79 0 81 1
157 50 42 28 102 61 133 74 36 15 51 25 43 31 -20 12 -100 9 -134 -6z"/>
<path d="M6386 10303 c8 -59 21 -75 30 -38 8 32 -5 76 -23 82 -10 4 -11 -8 -7
-44z"/>
<path d="M1000 10263 c56 -33 170 -46 170 -19 0 28 -54 46 -137 46 l-78 0 45
-27z"/>
<path d="M6136 10145 c12 -56 70 -200 97 -242 33 -52 52 -56 43 -10 -7 37 -97
220 -126 257 l-21 25 7 -30z"/>
<path d="M827 10143 c-12 -12 15 -33 42 -33 15 0 36 7 47 15 25 19 34 19 34 0
0 -8 3 -15 8 -15 10 1 42 26 42 34 0 8 -165 8 -173 -1z"/>
<path d="M852 10003 c4 -22 57 -29 88 -13 32 17 14 30 -41 30 -43 0 -50 -3
-47 -17z"/>
<path d="M1025 9664 c-11 -9 -50 -33 -88 -55 -63 -38 -78 -59 -39 -59 9 0 29
7 45 14 26 14 27 14 27 -12 0 -41 -49 -92 -127 -135 -38 -21 -83 -49 -99 -62
l-29 -24 36 -1 c105 -1 209 77 258 193 31 77 53 157 42 157 -3 0 -15 -8 -26
-16z"/>
<path d="M1130 9615 c0 -36 -147 -292 -203 -352 l-20 -23 24 0 c19 0 41 23
101 104 43 57 87 123 98 147 20 46 27 139 10 139 -5 0 -10 -7 -10 -15z"/>
<path d="M1106 9273 c-25 -51 -46 -95 -46 -98 0 -12 29 -4 53 15 34 27 65 120
50 152 -9 21 -14 15 -57 -69z"/>
<path d="M652 9306 l-21 -36 24 -6 c29 -7 79 15 83 39 3 12 -3 17 -20 17 -13
0 -29 5 -35 11 -7 7 -16 0 -31 -25z"/>
<path d="M6910 9220 c0 -32 27 -90 43 -90 4 0 7 26 5 58 -3 50 -6 57 -25 60
-20 3 -23 -1 -23 -28z"/>
<path d="M6670 9227 c0 -7 247 -187 268 -195 21 -8 -50 80 -99 122 -20 17 -61
40 -91 50 -29 11 -59 21 -65 24 -7 2 -13 2 -13 -1z"/>
<path d="M6550 9153 c0 -18 78 -73 94 -67 9 4 23 1 31 -6 8 -6 22 -10 32 -8
13 3 4 13 -37 41 -55 36 -120 58 -120 40z"/>
<path d="M788 9008 c10 -22 18 -74 22 -158 5 -83 13 -139 25 -168 23 -56 10
-86 -61 -148 -93 -79 -91 -71 -84 -414 l3 -155 29 64 c38 83 47 156 31 256
-17 113 2 181 61 220 35 23 102 22 135 -3 43 -31 86 -33 122 -3 l23 19 -31 36
c-30 34 -62 110 -51 121 3 3 41 16 86 29 l81 23 5 -22 c4 -16 33 -40 63 -50 1
0 -4 -19 -12 -40 -23 -64 -22 -65 49 -65 170 0 326 -103 402 -266 17 -36 27
-83 35 -160 17 -183 69 -300 193 -431 121 -129 275 -216 467 -264 109 -27 379
-37 529 -20 137 16 312 47 376 66 126 37 240 153 335 340 59 116 81 173 123
320 42 151 56 182 97 230 63 72 148 85 240 37 101 -53 156 -157 184 -351 27
-176 72 -274 180 -386 201 -208 498 -292 938 -265 217 14 330 32 421 70 223
93 375 337 466 745 l22 100 89 86 c94 90 124 141 114 189 -6 25 -19 34 -128
78 -299 123 -631 202 -970 233 -173 16 -560 7 -687 -16 -112 -20 -205 -53
-267 -95 -73 -50 -158 -89 -230 -107 -117 -29 -478 -17 -573 19 -14 5 -38 22
-55 38 -46 44 -143 98 -213 120 -170 53 -490 85 -837 85 -314 -1 -357 -8 -654
-102 -335 -107 -417 -125 -574 -125 -96 0 -98 1 -134 32 -32 29 -41 32 -84 28
-33 -4 -60 -14 -85 -34 -76 -60 -73 -59 -96 -37 -17 17 -22 42 -32 149 l-11
128 -39 28 c-50 36 -58 35 -38 -4z m2058 -148 c227 -28 492 -76 555 -100 190
-70 287 -276 250 -528 -24 -163 -99 -370 -176 -486 -76 -114 -161 -183 -275
-222 -115 -40 -753 -16 -955 36 -143 37 -245 107 -322 223 -97 144 -146 335
-147 567 0 253 63 381 228 460 168 80 463 97 842 50z m2724 -45 c435 -55 540
-118 586 -349 27 -130 24 -351 -5 -461 -35 -134 -83 -219 -175 -311 -213 -213
-520 -271 -1038 -194 -179 26 -220 35 -277 65 -66 33 -121 98 -179 213 -198
387 -220 712 -60 887 88 97 212 141 463 164 141 13 536 5 685 -14z m-3840
-186 c-11 -35 -23 -81 -27 -101 -3 -21 -7 -38 -9 -38 -6 0 -139 74 -166 92
-22 16 -26 23 -18 37 13 26 82 51 157 58 35 3 66 10 69 15 16 25 13 -7 -6 -63z
m-302 -7 c3 -29 1 -32 -25 -31 -15 0 -47 4 -71 7 -41 7 -42 8 -27 29 10 14 29
23 53 26 61 6 67 4 70 -31z m4931 -31 c54 -38 39 -93 -31 -121 -18 -7 -40 -20
-50 -27 -20 -17 -21 -16 -48 76 -12 40 -24 80 -27 88 -8 20 124 7 156 -16z
m-2503 -18 c37 4 74 -10 74 -27 0 -3 -12 -6 -26 -6 -19 0 -25 -4 -20 -15 4
-12 -4 -15 -38 -15 -30 0 -48 -6 -61 -20 -33 -36 -65 -21 -65 30 0 10 -7 20
-15 24 -23 9 -18 34 11 49 23 12 31 11 63 -5 24 -13 49 -18 77 -15z m382 5
c18 -18 14 -62 -8 -91 -20 -26 -21 -26 -40 -7 -10 10 -44 23 -77 30 -158 31
-166 44 -41 65 98 17 152 17 166 3z"/>
<path d="M2319 8791 c-53 -17 -119 -63 -119 -84 0 -23 160 42 189 77 12 14 10
16 -15 15 -16 0 -41 -4 -55 -8z"/>
<path d="M2517 8784 c-13 -4 -16 -11 -11 -27 12 -39 25 -41 127 -21 54 11 22
43 -49 49 -27 2 -57 1 -67 -1z"/>
<path d="M2820 8739 c-122 -19 -127 -21 -104 -29 45 -17 136 -22 197 -10 162
30 77 66 -93 39z"/>
<path d="M2239 8615 c-24 -13 -45 -43 -36 -51 6 -7 82 18 96 31 31 30 -14 45
-60 20z"/>
<path d="M2700 8543 c-55 -9 -138 -37 -195 -64 -68 -34 -444 -280 -445 -291 0
-5 20 -8 44 -8 35 0 71 14 163 60 84 43 131 61 161 63 39 1 45 5 57 33 21 51
85 72 85 28 0 -36 42 -83 96 -110 51 -25 62 -26 142 -21 105 7 152 22 152 48
0 28 -45 35 -101 15 -65 -24 -79 -12 -38 30 46 47 97 60 160 40 99 -33 121 -9
32 34 -59 29 -93 57 -93 77 0 34 95 1 301 -105 156 -80 234 -106 280 -95 55
14 69 53 18 53 -53 0 -151 30 -219 67 -175 96 -211 112 -289 132 -80 20 -234
27 -311 14z m170 -93 c39 -39 27 -48 -72 -55 -130 -10 -153 -6 -153 25 0 22 6
26 55 36 90 19 147 17 170 -6z"/>
<path d="M2031 8398 c-48 -51 -68 -78 -57 -78 37 0 157 137 135 154 -2 1 -37
-33 -78 -76z"/>
<path d="M3095 8321 c-3 -7 9 -27 28 -46 29 -29 42 -35 79 -35 40 0 78 13 68
23 -6 5 -126 56 -151 64 -9 2 -20 0 -24 -6z"/>
<path d="M1880 8141 c0 -9 38 -26 83 -37 31 -7 35 5 9 29 -19 18 -92 24 -92 8z"/>
<path d="M1961 7988 c-66 -15 -31 -29 73 -29 126 0 197 18 134 35 -34 9 -157
5 -207 -6z"/>
<path d="M3205 7956 c-41 -19 -71 -43 -63 -51 3 -4 31 -2 61 5 39 8 56 16 60
30 3 12 16 20 38 23 25 3 21 4 -16 5 -27 1 -63 -5 -80 -12z"/>
<path d="M2713 7837 c-17 -6 -34 -15 -38 -18 -3 -4 56 -9 132 -11 100 -4 155
-11 201 -26 77 -25 68 -6 -16 35 -48 23 -71 28 -152 30 -57 2 -108 -2 -127
-10z"/>
<path d="M2246 7772 c-16 -7 -4 -12 50 -26 84 -21 254 -34 239 -18 -26 28
-247 61 -289 44z"/>
<path d="M5010 8759 c-79 -15 -92 -20 -87 -32 2 -7 -2 -20 -11 -29 -14 -17 -8
-18 124 -19 76 0 180 -4 231 -7 51 -4 89 -4 85 -1 -4 3 -63 21 -131 39 -68 19
-129 40 -137 47 -7 7 -16 13 -21 12 -4 -1 -28 -5 -53 -10z"/>
<path d="M5454 8725 c11 -8 26 -15 34 -15 8 0 34 -16 58 -35 23 -19 45 -35 48
-35 3 0 0 14 -6 31 -14 40 -62 69 -113 69 -37 -1 -39 -2 -21 -15z"/>
<path d="M4595 8612 c-33 -11 -51 -23 -53 -36 -4 -17 1 -18 34 -14 22 3 73 16
114 28 64 20 71 24 50 31 -42 12 -92 9 -145 -9z"/>
<path d="M5155 8554 c-166 -21 -306 -62 -475 -140 -95 -43 -112 -48 -180 -48
-71 -1 -75 -2 -84 -27 -5 -14 -5 -52 -1 -85 l8 -59 13 32 c11 25 24 35 66 49
29 9 141 55 250 101 250 106 355 135 503 136 188 1 264 -35 442 -205 136 -130
209 -171 302 -171 31 0 66 5 76 11 17 10 14 11 -25 12 -76 0 -141 40 -265 158
-126 122 -220 179 -347 211 -73 19 -227 32 -283 25z"/>
<path d="M5244 8432 c12 -35 -10 -62 -50 -62 -45 0 -74 16 -74 40 0 10 -4 22
-10 25 -12 7 -538 -210 -559 -231 -8 -7 -12 -16 -9 -20 13 -12 229 58 436 143
8 3 12 -4 12 -21 0 -33 41 -76 72 -76 13 0 39 4 58 9 83 21 90 22 90 7 0 -31
35 -36 122 -19 90 17 116 30 80 39 -12 4 -22 11 -22 16 0 21 22 48 38 48 29 0
62 -29 62 -55 0 -21 8 -25 87 -43 49 -11 89 -19 91 -18 1 2 -18 26 -43 54 -85
94 -212 161 -339 178 -46 7 -48 6 -42 -14z m98 -76 c15 -21 8 -46 -17 -62 -23
-15 -27 -15 -50 0 -32 21 -33 59 -2 74 24 11 58 6 69 -12z"/>
<path d="M5735 8149 c-4 -5 0 -18 8 -27 8 -9 20 -48 26 -86 14 -94 31 -110
148 -136 51 -11 98 -20 105 -20 30 1 -57 61 -109 76 -67 19 -83 30 -83 54 0
20 19 30 58 30 43 0 72 11 72 27 0 12 -8 13 -38 8 -48 -8 -81 5 -126 49 -37
38 -50 43 -61 25z"/>
<path d="M5550 7943 c-14 -2 -41 -9 -60 -15 -34 -11 -34 -12 -10 -19 14 -4 51
-7 82 -8 47 -1 59 3 67 18 9 15 7 20 -12 25 -23 6 -26 6 -67 -1z"/>
<path d="M4997 7853 c-12 -11 -8 -21 11 -27 46 -13 551 -58 578 -51 26 7 27 8
9 16 -50 22 -381 69 -484 69 -59 0 -111 -3 -114 -7z"/>
<path d="M5711 7851 c-16 -10 -20 -9 119 -46 52 -14 100 -25 105 -25 23 1 -39
40 -73 46 -20 4 -46 13 -57 20 -22 16 -73 18 -94 5z"/>
<path d="M5620 7740 c-17 -17 -36 -20 -152 -22 -123 -3 -131 -4 -108 -18 20
-12 52 -14 160 -11 210 6 222 6 279 -3 78 -12 63 11 -30 45 -89 33 -123 35
-149 9z"/>
<path d="M6706 8964 c-14 -74 -18 -124 -8 -124 14 0 22 25 22 70 0 22 5 40 13
43 9 3 8 9 -4 22 -16 16 -17 16 -23 -11z"/>
<path d="M6771 8808 l-34 -9 29 -18 c44 -27 82 -76 94 -122 6 -23 10 -43 8
-44 -2 -2 -21 0 -43 5 -28 6 -42 5 -47 -3 -15 -23 -8 -27 42 -27 54 0 56 -3
41 -58 -13 -45 -4 -40 19 11 29 62 26 133 -7 197 -35 66 -57 81 -102 68z"/>
<path d="M6565 8766 c-13 -20 -21 -51 -23 -95 -3 -55 1 -74 21 -114 23 -45 24
-51 11 -83 -8 -18 -14 -36 -14 -39 0 -11 92 -4 125 9 35 15 35 15 35 78 l-1
63 -29 -33 c-17 -18 -30 -42 -30 -53 0 -21 0 -21 -32 -2 l-33 19 -5 140 -5
139 -20 -29z"/>
<path d="M6960 8404 c0 -31 -9 -45 -64 -100 -71 -71 -110 -140 -126 -224 -12
-61 -5 -149 14 -195 13 -29 14 -26 20 50 17 187 52 278 140 364 45 43 56 59
56 85 0 30 -15 56 -32 56 -4 0 -8 -16 -8 -36z"/>
<path d="M1180 8382 c0 -6 -11 -21 -24 -34 -18 -17 -23 -30 -19 -50 7 -36 20
-27 45 29 14 33 17 48 9 56 -8 8 -11 8 -11 -1z"/>
<path d="M6537 8205 c-10 -44 -1 -115 17 -133 15 -15 16 -13 15 23 0 22 -6 63
-13 90 -12 48 -12 49 -19 20z"/>
<path d="M6240 7855 c0 -2 11 -12 25 -21 20 -13 30 -14 60 -4 53 17 42 30 -25
30 -33 0 -60 -2 -60 -5z"/>
<path d="M1672 7784 c-23 -14 -42 -27 -42 -30 0 -2 13 -4 29 -4 35 0 81 34 66
49 -7 7 -24 2 -53 -15z"/>
<path d="M1044 7704 c8 -83 24 -118 54 -122 29 -4 28 20 -1 113 -16 49 -28 71
-41 73 -18 4 -18 -1 -12 -64z"/>
<path d="M6546 7699 c-33 -38 -40 -68 -33 -129 5 -41 49 -150 61 -150 2 0 0
17 -5 38 -13 55 -11 149 5 215 7 31 10 57 6 57 -5 0 -20 -14 -34 -31z"/>
<path d="M6140 7540 c0 -30 29 -82 43 -77 17 6 11 56 -9 78 -22 25 -34 24 -34
-1z"/>
<path d="M700 7421 c-1 -55 90 -423 110 -444 4 -5 11 9 15 32 8 47 -16 147
-69 295 -38 104 -55 140 -56 117z"/>
<path d="M4740 7378 c103 -46 297 -79 540 -94 121 -7 262 5 340 30 41 13 26
14 -192 15 -245 0 -417 15 -616 52 -58 10 -108 19 -111 18 -3 0 14 -9 39 -21z"/>
<path d="M3005 7379 c-27 -5 -81 -14 -120 -20 -61 -10 -67 -13 -45 -21 39 -15
247 -3 302 17 27 9 50 21 54 26 7 11 -124 10 -191 -2z"/>
<path d="M4926 6912 c-3 -5 0 -14 7 -19 28 -21 119 -65 123 -60 8 7 -10 39
-34 60 -23 21 -87 34 -96 19z"/>
<path d="M2833 6839 c-38 -24 -42 -39 -12 -39 37 0 84 33 73 52 -8 13 -27 9
-61 -13z"/>
<path d="M855 6801 c-8 -39 11 -187 36 -267 11 -36 23 -64 25 -61 10 10 -16
263 -32 310 -9 26 -17 47 -19 47 -2 0 -6 -13 -10 -29z"/>
<path d="M5080 6772 c0 -5 19 -24 43 -43 80 -64 316 -301 403 -405 68 -81 90
-101 96 -90 18 33 -24 89 -199 264 -197 197 -294 282 -324 282 -10 0 -19 -4
-19 -8z"/>
<path d="M3348 6738 c-60 -21 -11 -53 69 -45 51 5 56 4 158 -58 58 -35 105
-60 105 -54 0 20 -53 89 -88 113 -74 51 -176 69 -244 44z"/>
<path d="M2635 6684 c-201 -123 -335 -247 -335 -311 0 -13 11 -7 43 23 23 22
69 60 102 84 116 84 313 261 289 259 -5 0 -49 -25 -99 -55z"/>
<path d="M4519 6697 c-24 -20 -46 -57 -34 -57 16 0 114 64 109 71 -10 16 -48
9 -75 -14z"/>
<path d="M960 6397 c0 -21 54 -100 89 -130 45 -38 115 -37 190 2 69 35 78 49
61 90 -7 17 -15 31 -19 31 -3 -1 -15 -15 -26 -33 -11 -17 -36 -42 -55 -55 -69
-47 -171 -13 -206 68 -18 39 -34 52 -34 27z"/>
<path d="M6556 6356 c-47 -23 -127 -25 -178 -3 -46 19 -56 8 -23 -23 36 -34
127 -40 181 -12 38 19 72 49 63 55 -2 2 -21 -6 -43 -17z"/>
<path d="M3903 6364 c-37 -9 -26 -22 27 -33 58 -12 126 -13 154 -2 17 7 15 9
-15 20 -39 13 -133 22 -166 15z"/>
<path d="M1330 6208 c0 -83 69 -364 101 -408 22 -32 -24 250 -63 379 -15 50
-38 67 -38 29z"/>
<path d="M2590 6065 c0 -9 151 -106 241 -154 96 -51 315 -141 343 -141 20 0
20 8 1 54 l-15 36 40 6 c22 4 42 10 45 14 2 4 -32 15 -77 25 -200 43 -314 76
-407 119 -59 27 -115 46 -136 46 -19 0 -35 -2 -35 -5z"/>
<path d="M4992 5965 c-139 -24 -258 -46 -265 -48 -18 -7 40 -27 79 -27 42 0
45 -21 8 -55 -31 -29 -84 -41 -112 -26 -29 15 -29 15 -36 -28 -11 -69 -36 -87
-161 -110 -193 -36 -295 -45 -510 -44 -232 0 -396 20 -602 71 -62 15 -109 24
-105 20 18 -18 207 -88 303 -112 140 -35 228 -45 393 -46 287 0 570 68 875
211 143 67 432 241 396 238 -5 -1 -124 -21 -263 -44z"/>
<path d="M4520 5919 c-20 -8 -22 -12 -10 -19 35 -23 160 -5 145 21 -8 12 -103
11 -135 -2z"/>
<path d="M3329 5876 c-42 -14 -48 -33 -14 -46 22 -8 34 -7 58 7 17 10 32 23
34 29 6 17 -40 22 -78 10z"/>
<path d="M4038 5831 c-76 -9 -140 -19 -143 -23 -3 -3 26 -8 63 -11 72 -7 187
4 269 25 47 12 47 12 18 19 -42 9 -53 9 -207 -10z"/>
<path d="M1362 5740 c-50 -11 -107 -54 -152 -114 -36 -47 -525 -1047 -580
-1187 -27 -68 -34 -133 -20 -185 7 -24 14 -43 16 -41 2 2 10 37 18 78 8 41 24
100 35 132 30 85 523 1107 531 1102 4 -3 11 -26 15 -52 12 -86 86 -365 130
-488 73 -207 166 -416 203 -457 32 -38 40 -22 25 50 -15 68 -13 279 3 331 7
23 7 23 -20 6 -15 -10 -34 -31 -42 -47 -9 -17 -17 -28 -18 -26 -4 4 13 158 19
175 3 9 13 9 36 3 18 -5 34 -8 37 -6 5 5 -188 719 -197 727 -3 3 -21 3 -39 -1z
m-2 -90 c0 -14 -46 -60 -60 -60 -5 0 -10 -4 -10 -10 0 -5 14 -10 30 -10 36 0
36 -3 9 -47 -27 -43 -40 -33 -47 36 -4 43 -1 53 21 75 26 26 57 35 57 16z m28
-196 c27 -19 29 -60 3 -69 -25 -7 -70 11 -78 31 -4 11 2 24 16 36 28 22 31 22
59 2z m-20 -98 c35 -19 78 -65 90 -96 8 -22 6 -26 -20 -37 -26 -11 -29 -16
-23 -42 4 -17 1 -39 -6 -53 -12 -22 -13 -22 -26 22 -39 128 -60 220 -52 220 6
0 22 -6 37 -14z m162 -237 c0 -21 -9 -34 -37 -54 -26 -17 -40 -22 -48 -14 -7
7 -6 12 2 17 6 4 19 34 28 66 l18 60 18 -23 c11 -13 19 -36 19 -52z"/>
<path d="M6066 5572 c-45 -91 -107 -180 -195 -279 -71 -80 -85 -103 -106 -168
-14 -41 -54 -132 -89 -203 -66 -131 -100 -226 -94 -262 2 -11 50 84 112 223
130 288 138 302 217 392 108 124 198 270 199 322 0 41 -16 32 -44 -25z"/>
<path d="M1201 4724 c-30 -25 -91 -118 -91 -139 0 -5 18 9 41 30 42 41 95 122
86 131 -2 3 -19 -7 -36 -22z"/>
<path d="M1412 4494 c-41 -28 -23 -33 50 -13 40 11 75 22 77 25 13 13 -108 2
-127 -12z"/>
<path d="M1331 4425 c-33 -29 -76 -93 -68 -102 7 -7 117 104 117 117 0 17 -17
11 -49 -15z"/>
<path d="M5526 4423 c-3 -10 -34 -115 -70 -233 -149 -497 -268 -915 -276 -968
-8 -63 1 -107 44 -209 35 -82 51 -200 39 -280 -5 -35 -6 -63 -2 -63 16 0 61
70 75 117 18 58 12 98 -27 178 -55 115 -61 238 -19 411 27 116 210 737 220
747 4 5 19 -27 33 -70 l25 -78 0 160 c-1 193 -9 297 -25 302 -6 2 -14 -4 -17
-14z"/>
<path d="M640 4176 c0 -12 5 -38 12 -56 10 -31 12 -32 25 -15 18 25 17 60 -3
79 -22 23 -34 20 -34 -8z"/>
<path d="M233 4090 c-73 -27 -145 -56 -162 -65 -36 -18 -71 -54 -71 -71 0 -24
179 40 345 123 113 56 120 63 65 63 -28 -1 -94 -19 -177 -50z"/>
<path d="M1106 4118 c-23 -36 -56 -123 -56 -150 0 -19 3 -18 25 13 27 35 59
131 53 151 -3 8 -12 1 -22 -14z"/>
<path d="M1840 4064 c0 -36 65 -123 93 -124 13 0 -40 94 -67 119 -24 23 -26
23 -26 5z"/>
<path d="M716 4014 c-9 -24 -7 -87 4 -104 9 -13 11 -13 20 0 18 27 10 120 -10
120 -4 0 -11 -7 -14 -16z"/>
<path d="M5477 3854 c-8 -14 -2 -157 7 -173 4 -6 -2 -48 -14 -94 -16 -58 -20
-97 -16 -134 10 -90 24 -105 47 -50 20 46 18 355 -2 417 -8 25 -18 40 -22 34z"/>
<path d="M48 3844 c-5 -4 -8 -18 -8 -30 0 -29 29 -104 40 -104 10 0 20 26 20
51 0 11 14 26 37 37 35 18 36 20 16 30 -28 15 -96 26 -105 16z"/>
<path d="M928 3763 c-44 -46 -64 -123 -33 -123 9 0 18 8 21 18 3 9 15 36 26
60 28 60 21 82 -14 45z"/>
<path d="M5452 3277 c-39 -46 -94 -327 -64 -327 12 0 42 28 42 39 0 17 40 257
46 279 7 24 -7 30 -24 9z"/>
<path d="M2458 2631 c-78 -25 -134 -60 -196 -122 -62 -62 -122 -173 -103 -192
19 -19 44 4 64 59 24 63 37 77 125 135 108 71 189 93 275 76 35 -7 37 -7 37
17 0 15 -8 30 -19 36 -30 15 -119 11 -183 -9z"/>
<path d="M5444 2436 c-114 -53 -172 -186 -205 -468 l-13 -108 -35 0 c-40 0
-124 -37 -118 -53 6 -19 71 -35 146 -36 71 -1 73 -2 67 -23 -3 -13 -28 -95
-55 -182 l-49 -159 -48 -23 c-27 -13 -95 -62 -150 -108 -228 -191 -423 -396
-624 -656 -194 -253 -351 -389 -618 -541 -74 -41 -90 -55 -81 -65 18 -22 49
-17 114 17 226 119 394 273 775 713 277 320 406 445 598 581 42 29 88 70 101
90 35 53 58 149 66 277 13 236 37 390 82 527 37 114 64 171 81 171 66 0 166
-70 203 -141 11 -22 22 -39 25 -39 4 0 4 27 2 59 -5 78 -41 131 -111 166 -63
31 -88 31 -153 1z"/>
<path d="M5118 2352 c-4 -12 -21 -30 -39 -39 -43 -23 -82 -61 -74 -72 13 -22
145 56 145 86 0 5 -6 17 -13 28 -13 17 -14 17 -19 -3z"/>
<path d="M2067 2199 c-26 -40 -36 -70 -57 -167 -11 -52 -33 -119 -51 -152 -37
-69 -121 -158 -220 -232 -38 -28 -67 -53 -65 -55 9 -9 122 29 161 54 66 42 95
74 95 104 0 46 37 79 97 86 l51 6 -10 29 c-7 20 -7 33 0 40 7 7 7 17 0 33 -8
17 -6 29 8 50 14 21 18 45 16 98 -1 39 2 75 8 82 6 8 5 18 -4 30 -13 18 -14
17 -29 -6z"/>
<path d="M5621 2148 c-45 -48 -41 -76 6 -43 22 15 48 75 33 75 -5 0 -23 -15
-39 -32z"/>
<path d="M2070 1539 c0 -5 30 -24 68 -41 37 -17 71 -37 76 -46 5 -9 20 -27 33
-40 29 -29 53 -19 26 12 -11 11 -27 33 -35 47 -11 18 -39 35 -88 53 -81 30
-80 30 -80 15z"/>
<path d="M2330 1344 c0 -4 9 -21 20 -39 13 -21 46 -46 92 -71 40 -20 93 -56
118 -79 51 -48 110 -74 110 -49 0 29 -97 111 -211 177 -114 66 -129 73 -129
61z"/>
<path d="M2890 769 c0 -25 33 -91 55 -109 42 -35 45 59 2 97 -34 31 -57 36
-57 12z"/>
<path d="M3107 574 c-13 -14 -7 -51 12 -68 16 -15 22 -15 40 -4 28 17 27 25
-8 43 -16 8 -31 19 -33 25 -2 6 -7 8 -11 4z"/>
<path d="M3240 460 c0 -5 14 -25 31 -45 29 -32 33 -34 48 -21 11 10 26 13 41
9 l25 -6 -20 23 c-33 37 -125 67 -125 40z"/>
<path d="M3404 372 c23 -45 67 -72 118 -72 l43 0 -30 18 c-16 10 -56 33 -88
51 l-59 34 16 -31z"/>
<path d="M3550 262 c-13 -10 -20 -24 -16 -30 10 -17 81 -34 111 -26 31 8 32
24 2 52 -28 27 -67 28 -97 4z"/>
</g>
</svg>
