<svg width="629" height="629" viewBox="0 0 629 629" fill="none" xmlns="http://www.w3.org/2000/svg">
<path d="M0 629H629V0L0 629Z" fill="#A8F8FD" fill-opacity="0.5"/>
<path d="M629 629L629 0L0 0L629 629Z" fill="#B5E3E6" fill-opacity="0.5"/>
<path d="M80.314 564.686L74.2815 558.654L76.063 556.872C76.7094 556.226 77.3336 555.87 77.9358 555.803C78.5351 555.734 79.0945 555.96 79.6138 556.479C79.9259 556.791 80.1123 557.149 80.1731 557.552C80.2339 557.95 80.1662 558.346 79.9701 558.741C80.3982 558.468 80.8526 558.358 81.3332 558.414C81.8166 558.466 82.2336 558.668 82.5844 559.019C83.1175 559.552 83.362 560.141 83.3178 560.788C83.2736 561.429 82.9449 562.056 82.3317 562.669L80.314 564.686ZM77.9233 561.277L80.3927 563.746L81.9215 562.217C82.3579 561.781 82.5927 561.325 82.6259 560.85C82.659 560.369 82.4781 559.931 82.0831 559.536C81.7102 559.164 81.2931 558.992 80.8319 559.023C80.3706 559.048 79.9245 559.275 79.4936 559.706L77.9233 561.277ZM77.4966 560.85L78.8887 559.458C79.3058 559.024 79.535 558.596 79.5765 558.173C79.6179 557.745 79.4549 557.347 79.0876 556.98C78.7009 556.593 78.2948 556.43 77.8695 556.491C77.4441 556.546 76.987 556.819 76.4981 557.307L75.2261 558.579L77.4966 560.85ZM85.957 559.043L85.4598 559.541L80.9769 555.058L81.4741 554.56L85.957 559.043ZM79.593 553.848C79.4991 553.754 79.4508 553.645 79.448 553.521C79.4425 553.393 79.4922 553.277 79.5972 553.173C79.7021 553.068 79.8182 553.018 79.9452 553.023C80.0723 553.023 80.1828 553.07 80.2767 553.164C80.3706 553.258 80.4175 553.369 80.4175 553.496C80.4203 553.62 80.3692 553.735 80.2642 553.84C80.1593 553.945 80.0447 553.996 79.9204 553.993C79.7961 553.99 79.687 553.942 79.593 553.848ZM87.8629 557.138L87.3657 557.635L81.0017 551.271L81.4989 550.774L87.8629 557.138ZM89.7688 555.232L89.2716 555.729L82.9076 549.365L83.4048 548.868L89.7688 555.232ZM96.9365 546.63C97.0111 547.059 96.9296 547.532 96.692 548.052C96.4573 548.568 96.1065 549.06 95.6397 549.526C95.1673 549.999 94.6343 550.305 94.0404 550.446C93.4465 550.587 92.8416 550.551 92.2257 550.339C91.6097 550.126 91.0324 549.753 90.4938 549.22L89.7315 548.458C88.8945 547.621 88.4457 546.749 88.3849 545.843C88.3214 544.934 88.6459 544.124 89.3586 543.411C89.9801 542.79 90.6388 542.449 91.3349 542.388C92.0282 542.324 92.6883 542.534 93.3153 543.018L92.8057 543.527C92.2892 543.16 91.7741 543.006 91.2603 543.067C90.7465 543.122 90.259 543.381 89.7978 543.842C89.2343 544.405 88.9884 545.052 89.0603 545.781C89.1321 546.51 89.5326 547.239 90.2618 547.969L90.9744 548.681C91.4329 549.14 91.9163 549.468 92.4245 549.667C92.9328 549.861 93.4286 549.909 93.912 549.812C94.3981 549.713 94.8304 549.474 95.2088 549.096C95.648 548.656 95.9559 548.21 96.1327 547.757C96.246 547.462 96.2915 547.204 96.2694 546.983L94.7116 545.425L93.0916 547.045L92.6607 546.614L94.7903 544.484L96.9365 546.63ZM101.813 543.187C101.622 543.096 101.382 542.919 101.092 542.657C101.145 543.058 101.098 543.455 100.951 543.85C100.805 544.24 100.581 544.585 100.28 544.886C99.8492 545.317 99.3796 545.546 98.8714 545.574C98.3659 545.599 97.9295 545.427 97.5621 545.06C97.1257 544.624 96.9614 544.098 97.0691 543.482C97.1796 542.863 97.5594 542.229 98.2085 541.58L99.1075 540.681L98.5979 540.171C98.2775 539.851 97.9267 539.699 97.5455 539.715C97.1644 539.726 96.7846 539.921 96.4062 540.3C96.0609 540.645 95.8634 541.019 95.8137 541.422C95.764 541.826 95.8634 542.152 96.112 542.4L95.6107 542.893C95.2544 542.537 95.1121 542.063 95.1839 541.472C95.253 540.878 95.5292 540.34 96.0126 539.856C96.5125 539.356 97.0318 539.088 97.5704 539.052C98.109 539.011 98.6062 539.21 99.062 539.649L101.183 541.77C101.617 542.204 101.987 542.483 102.294 542.607L102.343 542.657L101.813 543.187ZM99.8989 544.389C100.23 544.057 100.446 543.682 100.545 543.262C100.647 542.839 100.624 542.435 100.475 542.048L99.4887 541.062L98.6021 541.949C98.1132 542.449 97.8176 542.926 97.7154 543.382C97.6105 543.835 97.7113 544.215 98.0179 544.522C98.2692 544.773 98.5703 544.889 98.9211 544.87C99.2746 544.847 99.6006 544.687 99.8989 544.389ZM98.6725 535.067L99.8202 536.214L100.748 535.286L101.154 535.692L100.226 536.62L103.213 539.608C103.462 539.856 103.691 539.997 103.901 540.03C104.114 540.061 104.325 539.971 104.535 539.761C104.618 539.678 104.738 539.53 104.896 539.318L105.322 539.703C105.239 539.88 105.086 540.08 104.862 540.304C104.523 540.643 104.177 540.793 103.827 540.751C103.473 540.707 103.104 540.493 102.72 540.109L99.729 537.118L98.9045 537.942L98.4985 537.536L99.323 536.712L98.1753 535.564L98.6725 535.067ZM108.078 537.089C107.696 537.47 107.257 537.721 106.76 537.843C106.266 537.961 105.766 537.939 105.26 537.776C104.752 537.611 104.289 537.319 103.872 536.902L103.694 536.724C103.263 536.293 102.958 535.822 102.778 535.311C102.602 534.797 102.564 534.293 102.667 533.799C102.766 533.302 102.99 532.879 103.338 532.531C103.882 531.987 104.499 531.742 105.19 531.798C105.88 531.847 106.547 532.194 107.191 532.838L107.469 533.115L104.27 536.314L104.365 536.409C104.873 536.917 105.442 537.196 106.072 537.246C106.702 537.29 107.238 537.091 107.68 536.649C107.945 536.384 108.13 536.103 108.235 535.804C108.343 535.503 108.373 535.163 108.326 534.785L108.873 534.71C109.036 535.603 108.771 536.395 108.078 537.089ZM103.76 532.954C103.387 533.327 103.209 533.778 103.226 534.309C103.245 534.836 103.458 535.358 103.864 535.875L106.553 533.186L106.499 533.132C106.054 532.715 105.581 532.487 105.078 532.448C104.575 532.41 104.136 532.578 103.76 532.954ZM112.188 530.534C111.942 530.288 111.645 530.19 111.297 530.24C110.952 530.287 110.539 530.468 110.058 530.783C109.575 531.095 109.169 531.307 108.84 531.421C108.511 531.528 108.214 531.557 107.949 531.508C107.687 531.455 107.444 531.317 107.22 531.093C106.866 530.74 106.723 530.301 106.789 529.776C106.853 529.248 107.115 528.754 107.576 528.293C108.076 527.793 108.601 527.516 109.151 527.464C109.7 527.406 110.174 527.576 110.572 527.974L110.075 528.471C109.812 528.208 109.483 528.101 109.089 528.148C108.696 528.192 108.333 528.381 107.999 528.715C107.673 529.041 107.484 529.377 107.431 529.722C107.379 530.062 107.469 530.348 107.701 530.58C107.924 530.803 108.18 530.896 108.467 530.857C108.754 530.813 109.166 530.625 109.702 530.294C110.24 529.96 110.675 529.743 111.007 529.643C111.341 529.541 111.642 529.519 111.91 529.577C112.178 529.635 112.428 529.78 112.66 530.012C113.038 530.39 113.188 530.846 113.107 531.379C113.03 531.91 112.746 532.421 112.254 532.912C111.732 533.434 111.182 533.733 110.605 533.807C110.028 533.876 109.546 533.717 109.159 533.331L109.656 532.834C109.965 533.104 110.314 533.209 110.7 533.148C111.087 533.082 111.465 532.864 111.835 532.494C112.181 532.149 112.384 531.794 112.445 531.429C112.505 531.064 112.42 530.766 112.188 530.534ZM110.294 525.599L109.785 525.678C109.699 525.095 109.477 524.616 109.118 524.241L108.575 523.698L109.064 523.209L109.482 523.627C110.059 524.205 110.33 524.862 110.294 525.599ZM118.871 526.13L114.794 522.053L114.052 522.795L113.646 522.389L114.388 521.647L113.845 521.104C113.386 520.646 113.15 520.177 113.136 519.7C113.125 519.219 113.328 518.77 113.745 518.353C113.933 518.165 114.132 518.013 114.342 517.897L114.719 518.349C114.548 518.454 114.381 518.588 114.218 518.751C113.944 519.024 113.817 519.323 113.837 519.646C113.853 519.966 114.018 520.282 114.33 520.595L114.885 521.15L115.954 520.081L116.36 520.487L115.291 521.556L119.368 525.633L118.871 526.13ZM124.153 520.847C123.963 520.756 123.722 520.579 123.432 520.317C123.485 520.717 123.438 521.115 123.291 521.51C123.145 521.9 122.921 522.245 122.62 522.546C122.189 522.977 121.72 523.206 121.212 523.234C120.706 523.259 120.27 523.087 119.902 522.72C119.466 522.284 119.302 521.757 119.409 521.141C119.52 520.523 119.9 519.889 120.549 519.24L121.448 518.341L120.938 517.831C120.618 517.511 120.267 517.359 119.886 517.375C119.505 517.386 119.125 517.581 118.746 517.959C118.401 518.305 118.204 518.679 118.154 519.082C118.104 519.486 118.204 519.811 118.452 520.06L117.951 520.553C117.595 520.197 117.452 519.723 117.524 519.132C117.593 518.538 117.869 517.999 118.353 517.516C118.853 517.016 119.372 516.748 119.911 516.712C120.449 516.671 120.946 516.87 121.402 517.309L123.523 519.43C123.957 519.864 124.327 520.143 124.634 520.267L124.684 520.317L124.153 520.847ZM122.239 522.049C122.57 521.717 122.786 521.342 122.885 520.922C122.988 520.499 122.964 520.095 122.815 519.708L121.829 518.722L120.942 519.608C120.453 520.108 120.158 520.586 120.056 521.042C119.951 521.495 120.051 521.875 120.358 522.181C120.609 522.433 120.91 522.549 121.261 522.529C121.615 522.507 121.941 522.347 122.239 522.049ZM127.194 517.135C127.54 516.79 127.732 516.404 127.77 515.979C127.809 515.548 127.683 515.168 127.393 514.84L127.87 514.363C128.129 514.65 128.294 514.986 128.363 515.37C128.429 515.751 128.394 516.136 128.259 516.526C128.127 516.913 127.911 517.255 127.613 517.553C127.024 518.142 126.353 518.404 125.599 518.341C124.848 518.274 124.127 517.896 123.436 517.205L123.287 517.056C122.845 516.614 122.532 516.146 122.347 515.652C122.162 515.157 122.12 514.674 122.222 514.202C122.327 513.726 122.573 513.296 122.96 512.909C123.452 512.417 124.003 512.159 124.613 512.134C125.226 512.106 125.783 512.321 126.283 512.776L125.806 513.253C125.433 512.924 125.023 512.768 124.576 512.785C124.131 512.798 123.733 512.981 123.383 513.331C122.935 513.779 122.749 514.289 122.823 514.86C122.901 515.429 123.231 516.005 123.813 516.588L123.958 516.733C124.53 517.305 125.099 517.628 125.665 517.703C126.234 517.774 126.744 517.585 127.194 517.135ZM132.067 513.099C131.686 513.481 131.246 513.732 130.749 513.854C130.255 513.972 129.755 513.95 129.249 513.787C128.741 513.621 128.278 513.33 127.861 512.913L127.683 512.735C127.252 512.304 126.947 511.833 126.768 511.322C126.591 510.808 126.553 510.304 126.656 509.81C126.755 509.313 126.979 508.89 127.327 508.542C127.871 507.998 128.488 507.753 129.179 507.809C129.869 507.858 130.536 508.205 131.18 508.849L131.458 509.126L128.259 512.325L128.354 512.42C128.863 512.928 129.432 513.207 130.061 513.257C130.691 513.301 131.227 513.102 131.669 512.66C131.934 512.395 132.119 512.113 132.224 511.815C132.332 511.514 132.362 511.174 132.315 510.796L132.862 510.721C133.025 511.613 132.76 512.406 132.067 513.099ZM127.75 508.965C127.377 509.337 127.198 509.789 127.215 510.319C127.234 510.847 127.447 511.369 127.853 511.885L130.542 509.197L130.488 509.143C130.043 508.726 129.57 508.498 129.067 508.459C128.564 508.42 128.125 508.589 127.75 508.965Z" fill="white"/>
<path d="M300.879 4.67429C295.371 5.69983 291.941 7.01839 272.715 15.5646C247.014 26.9432 243.584 28.8478 235.71 35.5382C227.449 42.5705 203.005 64.1557 199.236 67.8183C184.889 81.5899 176.869 97.9986 171.749 123.93C170.251 131.597 169.333 134.039 167.449 135.211C166.773 135.651 166.097 136.09 165.952 136.188C165.372 136.627 167.304 137.213 168.464 136.969C169.575 136.725 169.816 136.871 169.816 137.653C169.816 138.141 169.961 139.606 170.106 140.876L170.444 143.122H168.464C167.304 143.122 166.097 143.464 165.42 144.05L164.309 144.978L165.807 145.271C169.43 146.101 170.734 150.448 168.029 152.889L166.676 154.159L167.981 155.282C170.154 157.089 169.382 160.215 166.628 160.898L165.324 161.24L166.338 162.315C167.691 163.877 168.85 166.319 168.85 167.784C168.85 168.468 168.705 168.956 168.464 168.81C167.932 168.468 164.985 169.835 164.985 170.47C164.985 170.763 166.241 170.958 168.029 170.958C170.927 170.958 171.121 170.861 171.942 169.445C172.425 168.614 173.633 167.589 174.599 167.198C175.565 166.807 176.386 166.417 176.435 166.368C176.531 166.319 176.145 165.391 175.613 164.366C175.082 163.291 174.647 162.168 174.647 161.875C174.647 161.533 176.338 159.922 178.415 158.261C188.464 150.155 195.275 143.318 206.435 130.132C217.691 116.849 223.343 113.382 254.55 100.587C268.608 94.8243 268.898 94.7754 275.613 95.7521C277.352 95.9963 282.908 96.4847 287.98 96.7777C297.932 97.4614 310.492 96.9242 320.492 95.5079C323.246 95.1173 325.613 94.8243 325.709 94.9219C326.193 95.4591 322.135 99.2194 319.671 100.538C315.081 103.029 311.217 103.761 302.666 103.761C296.241 103.81 294.937 103.663 293.826 102.931C292.666 102.198 292.376 102.15 291.169 102.736C290.444 103.126 288.705 103.81 287.304 104.298C285.903 104.738 284.84 105.226 284.937 105.324C285.323 105.715 296.193 106.887 302.425 107.228C305.903 107.375 311.652 107.326 315.226 107.033C321.41 106.594 321.845 106.642 323.391 107.619C324.937 108.547 325.275 108.596 329.188 108.059C333.584 107.473 340.347 105.617 340.347 105.031C340.347 104.835 340.009 104.347 339.574 104.005C338.946 103.468 337.835 103.517 333.004 104.347C328.318 105.129 327.159 105.177 326.724 104.689C325.999 103.761 325.033 103.908 323.439 105.129C322.038 106.154 321.99 106.154 320.299 105.226C318.222 104.103 318.367 103.956 323.681 100.88C330.492 96.973 338.318 94.3847 347.352 93.0662C357.449 91.6011 377.98 92.529 391.072 95.0684C392.183 95.2638 392.231 95.2149 391.313 94.7266C390.782 94.4336 389.671 93.5057 388.801 92.6755L387.255 91.2104L367.787 88.5733C345.178 85.5455 338.898 85.2037 334.308 86.8641C332.714 87.4013 331.313 87.792 331.217 87.6455C331.072 87.5478 331.362 86.6688 331.796 85.6921C332.956 83.2991 335.323 82.3713 339.043 82.8108C341.796 83.1038 341.845 83.1038 341.313 82.0782C341.023 81.4922 339.961 80.662 338.994 80.2713C335.903 78.9528 332.328 79.6853 322.473 83.5921C312.376 87.5966 312.183 87.9873 320.106 88.3292C323.391 88.4757 325.516 88.3292 327.304 87.792C329.719 87.0594 329.912 87.1083 330.83 87.9873C332.28 89.3059 334.598 89.5989 339.091 88.964C344.405 88.2315 347.352 88.2803 349.043 89.1594C352.038 90.7221 351.313 90.8686 334.55 91.8453C330.154 92.0895 314.067 92.3337 298.801 92.2848H271.024L272.811 91.3569C276.966 89.1105 283.101 88.378 288.028 89.4035C289.913 89.8431 292.521 89.6965 300.879 88.671C306.627 87.9873 311.603 87.4501 311.941 87.4501C312.28 87.4501 312.135 87.1571 311.603 86.8641C311.024 86.5223 306.434 86.1804 299.478 85.9851L288.27 85.6921L284.599 83.8851C279.671 81.3945 276.869 78.1714 273.053 70.4554L270.106 64.4975L268.56 66.0114C267.69 66.8416 266.338 67.6718 265.516 67.8672L264.019 68.1602L268.995 75.4855C273.632 82.3224 274.019 82.8108 275.806 83.1526C276.869 83.3968 278.463 84.0317 279.429 84.6177L281.12 85.6921L276.289 87.3036C261.507 92.0895 247.449 96.3382 244.84 96.7288C242.86 97.0707 240.396 97.0707 237.642 96.7288C232.473 96.1428 229.575 96.7288 226.338 98.9264C222.618 101.466 210.348 112.356 210.637 112.893C211.507 114.31 214.792 112.844 218.705 109.28C222.956 105.373 226.338 104.103 228.463 105.666C229.285 106.252 229.043 106.545 225.565 108.449C222.183 110.305 202.135 125.493 201.797 126.421C201.749 126.665 202.473 127.104 203.391 127.446C204.357 127.788 205.082 128.325 204.985 128.618C204.695 129.644 199.333 131.939 195.517 132.672C193.053 133.16 190.637 133.306 188.222 133.111L184.695 132.818L184.985 134.186C185.758 137.36 189.671 142.195 189.043 139.167C188.898 138.532 188.609 137.604 188.415 137.116C188.125 136.383 188.222 136.285 189.237 136.53C189.865 136.676 191.024 136.578 191.749 136.285C192.522 135.992 193.246 135.895 193.391 135.992C193.778 136.432 192.087 140.436 190.493 142.878C189.623 144.148 187.304 146.541 185.324 148.201C179.188 153.182 176.483 155.966 175.42 158.261L174.406 160.459L174.261 158.75C174.019 156.259 174.985 152.255 176.386 150.203C177.014 149.227 177.546 148.348 177.546 148.25C177.546 148.104 176.821 148.006 175.952 148.006C174.889 148.006 173.971 147.615 173.246 146.834L172.183 145.662L173.246 144.88C173.874 144.441 174.744 144.099 175.227 144.099C176.29 144.099 176.29 144.148 175.372 141.999C174.357 139.509 174.454 134.625 175.662 129.302C176.193 126.86 177.063 122.27 177.594 119.193C180.203 103.712 185.758 91.4058 195.517 79.7341C197.401 77.5366 199.478 75.2413 200.203 74.6064C200.879 74.0204 202.038 72.5065 202.763 71.2856C204.647 68.0137 208.077 64.7905 211.41 63.2278C212.956 62.4464 214.261 61.6651 214.261 61.4209C214.261 61.1767 214.599 60.2489 215.034 59.321C215.903 57.4652 218.077 56.049 219.623 56.2932C220.492 56.4397 220.541 56.4885 219.816 57.5141C219.381 58.1489 218.608 58.6373 218.077 58.6373C217.352 58.6373 217.159 58.9791 217.159 60.4442C217.159 64.2045 221.072 68.6974 224.695 69.1857L226.579 69.4299L225.082 68.0625C221.362 64.6929 220.492 61.0302 222.908 58.5885C224.84 56.635 225.372 56.7816 225.372 59.2722C225.372 62.6906 228.077 65.9138 232.038 67.1346C235.71 68.3067 228.415 56.8792 224.405 55.2188C223.584 54.877 222.956 54.4863 222.956 54.291C222.956 54.0956 224.067 52.7282 225.372 51.2143C228.174 48.04 233.922 43.2542 238.27 40.4217C241.024 38.6148 241.217 38.3707 240.637 37.5405C239.671 36.1731 240.251 34.7568 242.232 33.7801C243.198 33.2918 251.265 29.7268 260.154 25.9176C269.043 22.1085 280.492 17.1761 285.516 15.0274C295.227 10.8764 298.85 9.99733 301.265 11.2671L302.376 11.9019L301.555 10.6322C301.12 9.89966 300.734 9.2648 300.734 9.1183C300.734 7.89742 315.081 8.72762 323.536 10.5345C334.502 12.8298 338.415 14.4902 365.709 28.4082C392.569 42.0821 395.902 43.8402 396.337 44.2797C396.917 44.9146 387.352 44.0355 385.419 43.303C384.26 42.9123 383.342 42.6682 383.342 42.8147C383.342 42.9612 385.661 44.5727 388.56 46.4773C394.308 50.2376 403.68 55.17 409.815 57.6606C414.357 59.4675 416.675 61.3232 416.675 63.2278C416.675 63.9115 416.434 64.4975 416.144 64.4975C415.854 64.4975 413.197 63.4232 410.202 62.1046C389.139 52.6794 366.241 43.7425 343.97 36.1731L332.859 32.4127L331.99 34.0731C331.507 34.9522 330.444 36.1242 329.671 36.6126L328.173 37.5405L329.574 37.7846C330.299 37.9311 332.473 38.2241 334.308 38.3707C346.821 39.5427 363.294 45.1588 371.506 51.0678C375.564 53.9491 380.444 56.342 385.516 57.9048C391.072 59.614 393.777 61.0302 395.902 63.2766C398.801 66.4021 399.864 66.6463 410.154 66.6951C418.366 66.6951 419.526 66.7928 421.12 67.6718L422.956 68.6485L413.1 74.9483C403.632 81.0039 403.197 81.248 400.395 81.3945C398.801 81.4434 396.772 81.8341 395.854 82.2247L394.212 82.9084L396.144 83.5433C400.878 85.2037 406.869 83.8363 410.492 80.2713L412.279 78.5133L412.811 79.9295C414.115 83.348 415.613 85.8874 418.028 88.4757C419.381 89.9896 420.54 91.4546 420.54 91.7476C420.54 92.4802 423.39 94.7754 424.26 94.7754C424.936 94.7754 424.936 94.6289 424.308 93.6522C423.922 93.0662 422.907 92.1383 422.086 91.6011C421.216 91.0639 420.443 90.0872 420.25 89.4035C419.381 85.5455 418.221 82.6154 416.869 80.5643C416.047 79.2946 415.468 78.1226 415.613 77.9761C416.289 77.2924 418.27 77.7807 419.332 78.9528L420.492 80.2225L421.506 78.5621C422.038 77.6831 422.472 76.218 422.472 75.339V73.7274L424.067 74.6064C424.888 75.0948 427.062 76.9505 428.849 78.7574C431.458 81.3945 432.569 83.0549 434.888 87.7431C436.868 91.7476 438.125 93.7499 438.994 94.2382C439.719 94.6777 440.443 94.8243 440.637 94.6289C440.83 94.4336 440.395 92.5778 439.67 90.4779C438.897 88.4268 437.738 84.7153 437.11 82.3224L435.902 77.9272L433.535 76.804C432.086 76.1203 430.83 75.046 430.154 73.9227C428.994 72.067 428.318 67.7695 429.091 67.2811C429.332 67.1346 431.168 68.4044 433.149 70.1624C436.047 72.7507 436.965 73.3367 438.028 73.1902C439.767 72.8972 440.25 74.3134 439.139 76.0715C438.318 77.2924 438.366 77.3412 440.25 79.3435C445.323 84.6665 451.748 93.6522 455.564 100.733C457.69 104.738 457.738 105.031 456.772 105.031C456.192 105.031 455.323 104.787 454.743 104.494C454.211 104.201 453.728 104.054 453.632 104.152C453.535 104.249 453.97 105.519 454.646 106.984C455.323 108.449 456.579 111.624 457.4 114.065L458.897 118.461L459.284 116.507C459.477 115.433 459.67 111.917 459.67 108.693C459.719 100.098 458.124 93.0662 454.356 85.4967C452.714 82.2247 448.414 75.7297 447.883 75.7297C447.738 75.7297 448.221 76.9994 448.897 78.5133C450.975 83.348 454.453 92.4313 454.211 92.6267C454.115 92.7732 453.149 91.9918 452.086 90.9174C449.767 88.671 447.69 85.2037 444.501 78.1714C440.782 69.9671 439.139 67.9648 431.893 62.7883C402.811 41.9845 371.603 24.5503 341.072 11.9996C323.825 4.9673 311.555 2.72087 300.879 4.67429ZM402.328 48.1865C409.381 49.9446 410.733 50.6283 410.202 52.0934C409.332 54.3886 394.936 49.7493 394.936 47.161C394.936 46.7703 395.033 46.4285 395.226 46.4285C395.371 46.4285 398.559 47.2098 402.328 48.1865ZM427.593 63.0813C429.477 64.644 427.062 66.2556 423.584 65.7184C421.216 65.3766 420.83 64.937 421.265 63.179C421.555 61.9581 421.651 61.9581 424.212 62.2023C425.709 62.3488 427.207 62.7395 427.593 63.0813ZM241.555 99.1706C241.99 99.8543 241.362 101.71 240.782 101.368C240.541 101.173 240.347 101.417 240.347 101.857C240.347 102.784 240.058 102.931 235.661 103.761C232.763 104.298 232.135 104.298 232.135 103.81C232.135 103.419 232.908 102.882 233.826 102.589C234.744 102.296 235.758 101.564 236.048 101.026C236.386 100.391 236.724 100.196 237.062 100.538C237.352 100.831 237.932 100.587 238.657 99.8543C239.864 98.6334 241.072 98.3404 241.555 99.1706ZM230.589 103.468L229.526 105.422L227.642 104.152L225.758 102.882L226.869 101.954C227.497 101.466 228.367 101.173 228.802 101.271C229.285 101.417 229.768 101.173 229.913 100.782C230.154 100.147 230.299 100.147 230.927 100.782C231.555 101.417 231.507 101.759 230.589 103.468Z" fill="black"/>
<path d="M334.405 15.4671C334.212 15.6625 334.067 16.395 334.067 17.0299C334.067 17.9089 334.888 19.0321 336.821 20.839C339.236 23.0854 339.767 23.3296 341.168 23.1343C342.907 22.8413 343.052 23.1343 342.038 24.9412C340.782 27.1876 341.023 27.3829 345.081 27.3829C348.463 27.4318 353.777 28.1643 357.448 29.0922C358.656 29.434 358.753 29.3852 358.318 28.555C357.642 27.2364 349.961 22.9878 348.27 22.9878C346.434 22.9878 345.178 22.1576 346.048 21.6204C346.386 21.3762 346.531 20.8878 346.386 20.4972C346.192 20.0088 345.516 19.8623 343.922 19.96C341.12 20.2041 339.139 19.4228 336.676 17.0299C335.613 16.0043 334.598 15.3206 334.405 15.4671Z" fill="black"/>
<path d="M314.888 31.3872C314.26 31.6802 313.777 32.1197 313.777 32.3639C313.777 32.9011 314.115 32.8523 315.903 32.0221C317.304 31.3384 317.642 31.3384 318.85 31.9732C319.912 32.5104 320.444 32.5593 321.217 32.1686C322.183 31.6314 322.183 31.6314 321.265 31.2407C319.864 30.7035 316.144 30.8012 314.888 31.3872Z" fill="black"/>
<path d="M341.362 31.1918C339.816 32.2662 344.647 34.2196 351.941 35.4404C358.56 36.5637 359.864 36.9543 365.226 39.5914C369.526 41.6914 377.159 44.475 378.608 44.475C378.898 44.475 378.608 43.9866 377.931 43.3518C377.255 42.7169 376.531 41.8867 376.289 41.496C375.806 40.6658 366.337 36.2706 360.878 34.3661C354.212 31.9731 342.907 30.1662 341.362 31.1918Z" fill="black"/>
<path d="M248.608 32.9989C245.903 34.2686 242.28 36.9546 242.28 37.6383C242.28 37.8824 242.715 38.1755 243.198 38.3708C243.874 38.5661 245.42 37.7848 248.367 35.8314C250.686 34.2686 252.666 32.7059 252.811 32.3641C253.101 31.4362 251.458 31.6804 248.608 32.9989Z" fill="black"/>
<path d="M315.903 34.4639C315.13 35.0987 315.081 35.2452 315.71 35.6847C316.096 35.9289 317.4 36.1731 318.608 36.1731H320.782L319.333 34.9522C317.642 33.536 317.159 33.4872 315.903 34.4639Z" fill="black"/>
<path d="M309.671 39.6402C308.125 41.8378 308.173 41.9843 310.057 41.7889C312.763 41.3983 314.743 37.6379 312.086 37.8333C311.265 37.8821 310.444 38.4681 309.671 39.6402Z" fill="black"/>
<path d="M316.917 43.0102C315.323 44.3288 313.294 45.5497 312.424 45.745C310.395 46.1357 307.449 45.3055 306.289 43.9869C305.468 43.0591 305.371 43.0591 304.792 43.8893C304.453 44.3288 303.922 44.7195 303.584 44.7195C303.246 44.7195 302.231 45.9892 301.362 47.6008C297.883 53.8028 295.516 55.6586 285.226 60.1514C280.879 62.056 277.014 64.0094 276.676 64.4489C275.323 66.1093 277.594 71.8719 280.927 75.2415C283.439 77.781 287.111 79.6367 289.671 79.6367C291.217 79.6367 292.038 79.2949 293.632 77.9275C296.434 75.4857 299.864 73.9718 304.598 73.0928C308.946 72.2626 310.879 71.2859 310.879 70.065C310.879 69.479 310.589 69.3325 309.671 69.5766C308.656 69.8208 308.463 69.7232 308.463 68.8441C308.463 68.2093 308.222 67.9162 307.883 68.0628C295.516 73.4346 289.768 75.7299 288.415 75.7299C286.096 75.7299 282.086 72.3603 280.347 68.9418C279.574 67.4767 279.091 66.207 279.188 66.1093C279.333 65.9628 280.444 66.5977 281.7 67.4767C283.922 68.9906 283.97 69.0395 285.468 68.2093C290.782 65.328 299.188 56.0981 302.666 49.2612C304.647 45.452 305.613 44.7195 306.917 46.038C307.932 47.0636 307.545 47.9426 304.598 51.0192C301.941 53.8028 301.748 54.1447 302.425 55.0237C303.053 55.9028 303.294 55.7563 306.966 51.8983C309.961 48.724 311.072 47.8449 311.941 47.9914C314.357 48.3333 313.536 49.8472 307.642 55.7074C301.893 61.4212 295.323 66.3535 289.526 69.186C286.966 70.4557 286.144 71.5301 287.014 72.4091C287.449 72.8974 293.342 70.6999 297.642 68.5023C303.101 65.7187 308.656 61.3723 313.391 56.1469C317.11 51.9959 320.444 49.3588 322.038 49.3588C323.149 49.31 331.941 45.6962 334.405 44.1823L336.724 42.7661L334.55 42.4731C331.265 41.9359 328.85 42.4731 325.42 44.3776C323.68 45.3055 321.7 46.0869 320.975 46.038C320.106 46.038 319.574 46.2822 319.478 46.7706C319.333 47.4543 319.236 47.4543 318.753 46.8682C318.27 46.2822 318.705 45.745 321.313 43.8404C323.052 42.5707 324.308 41.301 324.164 41.0568C324.019 40.7638 322.956 40.5685 321.845 40.5685C320.106 40.5685 319.381 40.9103 316.917 43.0102ZM291.072 60.0049C291.072 60.2003 289.719 61.763 288.028 63.4234C285.033 66.4024 284.937 66.4512 284.115 65.5233C282.956 64.2536 283.632 63.0816 286.531 61.1281C288.656 59.7119 291.072 59.1259 291.072 60.0049Z" fill="black"/>
<path d="M295.951 45.2563C295.13 45.94 294.454 46.819 294.454 47.1609C294.454 47.5516 293.053 49.0166 291.362 50.4817C289.623 51.9468 288.367 53.3141 288.511 53.4607C288.705 53.6072 289.526 53.7537 290.347 53.7537C291.603 53.7537 292.618 53.0211 296.289 49.3096C298.753 46.8679 300.589 44.6703 300.444 44.4261C299.912 43.5471 297.4 43.9866 295.951 45.2563Z" fill="black"/>
<path d="M341.313 45.696C339.864 46.3308 338.27 46.868 337.835 46.9168C336.676 46.9168 336.724 48.2354 337.883 48.6261C338.366 48.7726 340.83 48.4307 343.294 47.8447C345.806 47.2587 348.318 46.6727 348.946 46.575C350.154 46.282 350.25 45.8913 349.429 45.0611C348.511 44.1332 344.212 44.4751 341.313 45.696Z" fill="black"/>
<path d="M235.855 47.3077C235.033 48.1868 235.033 48.3333 235.758 49.0658C236.724 50.0425 236.676 50.0425 238.512 49.0658C239.623 48.4798 239.816 48.1868 239.333 47.8938C238.995 47.6496 238.512 47.6008 238.27 47.7473C238.077 47.8938 237.594 47.6496 237.256 47.1612C236.724 46.4287 236.628 46.4287 235.855 47.3077Z" fill="black"/>
<path d="M284.454 48.5284C281.603 49.7004 281.072 50.5795 283.391 50.2376C284.599 50.0423 284.985 50.1888 285.178 50.9213C285.371 51.7027 285.613 51.5073 286.531 49.8469C288.173 46.9168 288.27 46.9656 284.454 48.5284Z" fill="black"/>
<path d="M349.622 49.1632C347.98 50.2864 348.318 50.6771 351.217 51.0678C352.666 51.2143 353.97 51.5561 354.067 51.7027C354.163 51.898 352.762 53.9491 350.927 56.1955C347.642 60.2977 346.289 63.0324 347.014 64.351C347.304 64.7905 348.56 63.6185 351.362 60.3465C353.729 57.6606 355.854 55.6095 356.579 55.4141C358.27 54.9746 360.154 55.3165 369.477 57.8071C373.922 58.9791 377.545 59.7605 377.545 59.5651C377.545 59.321 377.11 58.7349 376.531 58.2466C375.274 57.0257 353.729 48.3819 352.038 48.3819C351.313 48.3819 350.202 48.7237 349.622 49.1632Z" fill="black"/>
<path d="M326.917 52.5818C326.241 53.0701 325.854 53.8515 325.854 54.7305C325.854 56.684 326.337 56.7816 328.125 55.2677C329.284 54.291 329.622 53.705 329.381 52.8748C329.091 51.6051 328.415 51.5074 326.917 52.5818Z" fill="black"/>
<path d="M315.951 59.1746C312.521 62.7395 310.106 65.4743 310.637 65.279C317.207 62.8372 318.222 62.3 319.767 60.5419C321.458 58.6862 322.666 55.5119 322.376 53.705C322.28 52.9725 320.83 54.2422 315.951 59.1746Z" fill="black"/>
<path d="M340.347 55.4632C340.347 56.9771 338.028 60.4444 336.289 61.5187C335.42 62.1048 333.729 62.8861 332.569 63.2768C329.671 64.3512 328.27 65.7674 328.27 67.7697C328.27 68.6487 328.415 69.3812 328.56 69.3812C328.705 69.3812 329.526 68.844 330.347 68.2092C332.231 66.7441 335.999 65.2302 338.898 64.7419L341.023 64.4L339.236 63.6675C338.27 63.2768 337.449 62.7885 337.449 62.5931C337.449 62.1536 340.106 60.5909 340.782 60.5909C341.072 60.5909 341.313 61.0304 341.313 61.5187C341.313 62.0559 341.555 62.642 341.796 62.7885C342.763 63.3745 342.859 61.4211 342.038 58.491C341.12 55.2678 340.347 53.9004 340.347 55.4632Z" fill="black"/>
<path d="M272.715 57.0259C270.444 57.2212 269.816 57.5142 268.029 59.1746C266.917 60.2002 265.758 61.0792 265.468 61.0792C264.454 61.0792 265.033 62.5443 266.144 62.8373C267.401 63.1303 272.956 61.6164 276.966 59.8095C278.946 58.9305 279.526 58.4421 279.285 57.8561C279.14 57.4654 278.995 56.9771 278.995 56.8794C278.995 56.684 277.449 56.7329 272.715 57.0259Z" fill="black"/>
<path d="M242.135 58.2954C241.99 58.6861 242.328 59.9558 242.859 61.1278C243.391 62.3487 243.681 63.8138 243.536 64.5463C243.343 65.6695 243.584 66.0114 245.613 67.1346C247.256 68.0136 248.705 68.4043 250.347 68.4043H252.763L252.038 65.23C251.603 63.4719 251.169 62.0557 251.024 62.0557C250.879 62.0557 250.299 62.7394 249.768 63.5208C249.236 64.3021 248.657 64.9858 248.512 64.9858C248.318 64.9858 246.966 63.3254 245.468 61.3232C243.971 59.3209 242.666 57.6605 242.57 57.6605C242.473 57.6605 242.28 57.9535 242.135 58.2954Z" fill="black"/>
<path d="M326.579 58.442C324.405 59.5652 323.439 60.5907 322.183 63.0813C321.603 64.3022 320.492 66.0114 319.816 66.8416C318.27 68.6974 312.908 71.5298 312.135 70.895C311.748 70.602 311.41 70.8461 311.023 71.6275C310.589 72.6042 310.637 72.8972 311.362 73.2879C312.618 73.9716 314.985 73.8739 316.821 73.0926C318.318 72.4577 319.912 70.8461 324.357 65.4743C325.661 63.9604 327.352 62.5441 328.608 61.9581C330.734 61.0302 330.878 60.6884 330.395 58.735C330.057 57.4653 328.656 57.3188 326.579 58.442Z" fill="black"/>
<path d="M357.4 59.956C356.917 60.7373 356.289 61.5187 355.951 61.714C355.613 61.9094 355.323 62.4466 355.323 62.8861C355.323 63.4721 355.806 63.2279 357.062 62.0071C358.028 61.128 358.994 59.956 359.236 59.4676C360.057 58.0026 358.366 58.4909 357.4 59.956Z" fill="black"/>
<path d="M236.289 60.3953C235.758 61.8115 236 63.5696 236.773 63.8626C238.077 64.3509 238.56 63.2765 237.884 61.372C237.207 59.4674 236.773 59.1744 236.289 60.3953Z" fill="black"/>
<path d="M366.531 64.5952C365.081 66.5486 364.791 67.2812 365.275 67.5742C365.661 67.7695 366.337 67.4765 367.11 66.744C368.704 65.0836 370.492 64.7417 373.68 65.3766C378.511 66.4021 381.458 65.9626 379.719 64.4976C378.994 63.8627 371.361 62.0558 369.477 62.0558C368.753 62.0558 367.835 62.8372 366.531 64.5952Z" fill="black"/>
<path d="M382.134 62.5441C381.603 63.4231 385.806 64.9858 388.801 64.9858C391.216 64.9858 391.603 64.8882 391.458 64.1068C391.168 62.6417 382.907 61.2255 382.134 62.5441Z" fill="black"/>
<path d="M256.241 64.107C255.468 65.572 256.773 66.451 259.719 66.451C262.135 66.451 263.391 65.572 262.859 64.2046C262.618 63.6186 262.183 63.5209 260.686 63.7651C259.526 63.9604 258.657 63.8628 258.463 63.5698C257.98 62.6907 256.821 62.9837 256.241 64.107Z" fill="black"/>
<path d="M240.637 68.2579C240.831 69.2834 241.169 70.4066 241.459 70.6996C242.038 71.5298 243.246 71.5298 243.246 70.6996C243.246 70.0648 240.975 66.4509 240.541 66.4509C240.396 66.4509 240.444 67.2811 240.637 68.2579Z" fill="black"/>
<path d="M385.661 69.2345C390.105 71.4809 393.873 72.2623 394.308 71.0414C394.501 70.4554 390.347 68.3066 387.448 67.4764C386.386 67.1834 384.55 66.9392 383.342 66.9881L381.168 67.0369L385.661 69.2345Z" fill="black"/>
<path d="M339.671 68.9415C336.772 69.6252 331.507 72.653 329.429 74.8017L327.545 76.804L329.478 76.4621C330.54 76.2668 332.569 75.5831 333.97 74.9482C335.999 74.0692 336.724 73.9227 337.4 74.3622C338.077 74.8017 339.526 74.6064 343.777 73.532C346.82 72.7995 349.671 71.9693 350.154 71.7251C351.362 71.0902 351.168 69.6252 349.767 68.9903C348.318 68.3066 342.424 68.3066 339.671 68.9415Z" fill="black"/>
<path d="M405.323 70.8954C402.666 71.0419 399.477 71.2373 398.27 71.2861C395.419 71.3349 393.39 72.7512 394.405 73.972C395.323 75.0953 401.12 74.9976 408.27 73.7767C414.163 72.7512 415.226 72.3605 414.163 71.4814C413.149 70.7001 410.54 70.5047 405.323 70.8954Z" fill="black"/>
<path d="M222.956 71.8715C222.956 72.604 223.149 72.7994 223.729 72.604C224.261 72.4087 224.405 72.5552 224.309 73.1412C224.212 73.8249 223.729 73.9714 221.942 73.8249C220.009 73.7272 219.43 73.9226 217.98 75.1923C216.193 76.8039 215.323 78.9526 216.145 79.7828C216.483 80.1247 216.966 79.8805 217.642 79.0014C219.961 76.0225 229.623 76.169 242.087 79.441C247.835 80.9549 249.913 81.2479 256.773 81.5409C265.613 81.9316 268.077 82.6641 266.434 84.3245C266.193 84.5687 266.144 85.057 266.386 85.4477C266.772 86.0337 267.304 86.0337 269.623 85.5454C271.169 85.2524 272.618 84.8128 272.859 84.5687C273.053 84.3733 271.797 83.3478 270.009 82.2734C265.661 79.6851 262.956 77.2434 262.859 75.7295C262.811 74.8016 262.183 74.1179 260.154 72.9459C257.642 71.3831 254.84 70.7971 254.84 71.8227C254.84 72.0668 255.178 72.9947 255.613 73.9226C256.289 75.3388 256.531 75.4853 257.98 75.3388C259.236 75.1923 259.913 75.4365 260.879 76.4132C262.908 78.4643 262.28 78.9038 257.449 78.8549C252.28 78.7573 247.062 77.4387 242.232 74.997L238.898 73.2877L238.608 74.7039C238.415 75.583 237.932 76.2178 237.304 76.4132C236.724 76.5597 236.241 76.6085 236.241 76.5597C236.193 76.5108 235.806 75.876 235.372 75.1435C234.937 74.4109 234.695 73.4831 234.84 73.0924C235.275 71.9692 234.357 72.1157 233.294 73.3366C232.811 73.8737 232.038 74.2156 231.555 74.1179C231.072 73.9714 230.541 74.0691 230.396 74.3133C229.913 75.1435 228.947 74.7528 226.338 72.7994C223.391 70.5529 222.956 70.4553 222.956 71.8715Z" fill="black"/>
<path d="M324.115 71.7739C321.941 73.1413 321.651 73.7761 323.294 73.7761C324.888 73.7761 326.821 72.5552 326.821 71.5297C326.821 70.6018 325.903 70.6507 324.115 71.7739Z" fill="black"/>
<path d="M245.42 72.7995C245.903 73.5809 249.574 74.3622 251.362 74.0204C252.57 73.7762 253.246 73.9227 253.922 74.5576C254.792 75.3389 254.84 75.3389 254.84 74.4111C254.84 72.8483 253.584 72.0181 252.28 72.7507C251.459 73.1902 250.83 73.1902 249.816 72.8483C248.125 72.1646 245.033 72.1646 245.42 72.7995Z" fill="black"/>
<path d="M361.362 73.7274C359.139 74.7529 358.028 75.925 358.366 76.9017C358.849 78.1226 361.265 78.1226 364.985 76.9017C368.415 75.7785 370.782 75.6808 370.782 76.7064C370.782 77.39 368.753 78.6598 367.642 78.6598C366.724 78.7086 366.772 78.7574 367.883 79.6853C369.236 80.8085 372.183 80.8085 377.207 79.5876C379.864 78.9528 380.202 79.0016 383.004 80.076C384.646 80.7108 386.724 81.3457 387.545 81.4434C389.381 81.7364 391.555 81.2969 391.555 80.662C391.555 79.8806 386.531 78.2202 381.796 77.4389C373.825 76.0715 372.473 75.7296 369.574 74.2646C366.241 72.6042 364.115 72.4577 361.362 73.7274Z" fill="black"/>
<path d="M301.024 76.2668C299.188 77.7319 299.478 78.1714 302.086 77.8296C305.13 77.4877 309.478 78.4156 312.956 80.2225C315.854 81.6876 319.043 81.9806 319.429 80.7597C319.671 80.0272 313.439 76.9994 309.623 76.0227C305.42 74.9483 302.618 74.9971 301.024 76.2668Z" fill="black"/>
<path d="M344.308 77.2437C342.521 77.7809 342.666 78.4646 344.84 79.3925C345.903 79.832 346.724 79.8808 347.69 79.539C348.898 79.0995 350.009 77.8786 350.009 76.9995C350.009 76.56 346.096 76.7554 344.308 77.2437Z" fill="black"/>
<path d="M423.583 82.0297C423.97 86.4737 425.661 89.5991 430.685 95.1664C439.574 104.982 445.419 113.577 451.023 125.249L454.308 131.988L453.487 133.649C452.762 135.26 452.762 135.651 453.583 139.753C454.646 144.978 454.356 147.029 452.424 148.641L451.023 149.862L452.81 150.155C453.777 150.301 455.371 150.448 456.385 150.448H458.124L457.883 148.495C457.738 147.42 457.786 146.541 458.028 146.541C458.269 146.541 460.298 149.569 462.569 153.232C464.791 156.894 467.013 160.313 467.496 160.899C468.366 161.924 468.414 161.875 468.269 158.848C468.124 155.478 468.414 155.038 469.332 157.334C470.25 159.58 470.105 163.194 468.994 164.024C467.69 165.05 463.342 164.415 460.202 162.803C457.786 161.534 454.356 158.017 454.356 156.748C454.356 155.673 458.269 156.992 460.975 159.043L462.086 159.824L460.926 156.504C459.042 150.985 459.187 151.229 458.414 152.353C457.207 154.062 454.743 154.55 451.748 153.671C450.298 153.232 448.269 152.89 447.158 152.89C445.516 152.89 445.081 152.694 444.501 151.522C443.728 150.008 441.893 148.202 441.506 148.592C441.071 149.081 442.714 155.234 444.308 159.092C446.289 163.975 449.719 169.103 453.294 172.57C455.854 175.012 456.482 175.354 458.124 175.354C459.187 175.354 460.83 175.012 461.748 174.621C464.26 173.596 465.806 173.694 467.158 175.11C468.752 176.672 468.752 175.403 467.207 173.547C466.095 172.277 465.757 172.18 461.168 171.935C456.917 171.691 456.192 171.545 455.081 170.47C453.245 168.761 446.917 156.308 447.545 155.673C448.511 154.697 450.685 156.015 452.327 158.506C456.675 165.196 461.796 168.224 466.482 166.954C467.593 166.612 467.69 166.71 467.69 168.273C467.69 169.933 468.994 171.935 470.057 171.935C470.395 171.935 471.12 170.324 471.651 168.37C477.351 148.788 477.448 136.579 471.941 125.395C470.25 121.928 464.308 112.601 463.487 112.063C463.245 111.966 463.632 113.333 464.308 115.14C466.144 120.024 467.207 125.347 468.318 134.576C468.897 139.118 469.622 144.148 470.008 145.662C470.347 147.225 470.588 148.495 470.54 148.495C470.057 148.495 465.95 145.906 465.95 145.613C465.95 145.418 466.482 144.734 467.11 144.148L468.269 143.074L466.627 140.583C464.163 136.921 463.342 133.502 463.438 127.788C463.487 124.321 463.293 122.514 462.762 121.391C462.037 119.828 459.96 118.265 459.38 118.851C459.187 118.998 459.525 121.44 460.105 124.272C461.651 132.037 461.361 132.916 459.236 127.007C456.965 120.61 454.839 115.628 452.327 110.891C450.202 106.936 442.714 95.1664 442.424 95.4105C442.327 95.5082 444.453 100.734 447.11 106.985C449.767 113.284 451.844 118.461 451.748 118.558C451.651 118.656 445.419 109.866 437.883 98.9755C430.347 88.0853 423.97 79.1972 423.728 79.1972C423.487 79.1484 423.439 80.4669 423.583 82.0297ZM458.366 134.821C459.429 136.042 459.67 136.139 460.153 135.553C461.12 134.381 461.603 134.723 461.12 136.09C460.83 136.774 460.636 138.19 460.636 139.313C460.636 140.827 460.926 141.56 462.037 142.585C463.1 143.562 463.39 144.246 463.197 145.027C462.859 146.346 463.873 147.518 467.641 150.106C469.235 151.18 470.636 152.157 470.781 152.255C471.313 152.694 469.091 153.866 467.738 153.866C465.902 153.866 463.39 151.278 461.216 147.127C459.767 144.392 458.704 143.318 458.704 144.588C458.704 144.832 458.511 145.076 458.269 145.076C457.593 145.076 456.289 139.069 456.289 136.042C456.289 134.576 456.482 133.356 456.723 133.356C456.965 133.356 457.69 133.99 458.366 134.821Z" fill="black"/>
<path d="M221.748 80.8087C220.009 81.59 218.753 82.9574 218.512 84.276C218.367 85.3504 218.222 85.3504 222.473 84.1295C224.309 83.5435 227.111 83.2993 231.555 83.2993C235.033 83.2993 237.932 83.2504 237.932 83.2016C237.932 82.4691 227.546 80.0761 224.454 80.125C223.777 80.1738 222.57 80.4668 221.748 80.8087Z" fill="black"/>
<path d="M351.217 81.0526C349.284 81.5898 349.912 81.7852 357.255 83.2014C363.294 84.3734 365.178 84.4223 364.84 83.3479C364.308 81.7363 354.791 80.1248 351.217 81.0526Z" fill="black"/>
<path d="M240.347 85.057C236.338 86.9616 221.7 88.1336 219.719 86.7174C218.802 86.0826 218.657 86.0826 218.415 86.7663C218.029 87.7918 218.85 89.2569 220.009 89.6475C222.328 90.3801 222.232 91.1614 219.333 95.0683C217.835 97.0705 214.744 100.587 212.425 102.882C208.319 106.935 208.125 107.521 211.362 106.349C214.309 105.275 215.082 104.64 218.174 100.831C222.232 95.8008 224.116 94.5311 228.318 93.7985C230.637 93.4079 232.087 92.8707 232.811 92.1381C233.343 91.6009 234.067 91.1614 234.357 91.2591C235.323 91.4544 237.546 90.4289 237.207 89.8917C237.062 89.6475 237.304 89.4034 237.835 89.4034C238.367 89.4034 239.333 88.915 240.058 88.3778C241.314 87.3523 241.41 87.3523 243.488 88.1825C244.695 88.622 246.193 89.6475 246.869 90.4777C247.884 91.6986 248.222 91.8451 248.802 91.3568C249.333 90.9173 249.526 90.9173 249.526 91.3079C249.526 92.4311 251.458 91.8451 251.748 90.5754C252.038 89.4522 252.231 89.3545 253.922 89.6475C256.386 90.0871 260.734 88.7685 262.618 87.0593L264.115 85.6919L259.043 85.5942C256.193 85.5454 251.893 85.1547 249.43 84.764C243.632 83.8361 242.956 83.8361 240.347 85.057Z" fill="black"/>
<path d="M389.912 85.4479C389.622 85.8385 393.487 87.5966 393.873 87.2548C393.97 87.1083 393.922 86.5711 393.729 86.0339C393.487 85.2525 393.004 85.0083 391.796 85.0083C390.878 85.0083 390.057 85.2037 389.912 85.4479Z" fill="black"/>
<path d="M403.873 88.2805C397.4 89.0619 397.255 89.1107 401.12 89.8921C403.825 90.3804 407.014 89.6967 407.4 88.5247C407.593 87.9387 406.965 87.8898 403.873 88.2805Z" fill="black"/>
<path d="M396.385 94.1895C396.385 94.4337 397.545 95.1662 398.946 95.8011C400.878 96.6313 402.617 96.9731 406.434 97.1196C412.134 97.3638 412.714 96.8266 408.608 95.215C405.564 94.043 396.385 93.2616 396.385 94.1895Z" fill="black"/>
<path d="M349.429 98.487C348.27 99.1218 347.11 100.538 347.11 101.368C347.11 101.515 347.545 101.417 348.028 101.124C348.56 100.88 349.526 100.636 350.202 100.636C350.975 100.636 351.458 100.343 351.458 99.952C351.458 99.5613 351.603 98.9265 351.748 98.487C352.134 97.5102 351.168 97.5102 349.429 98.487Z" fill="black"/>
<path d="M274.985 100.977C274.309 101.173 274.212 101.368 274.695 101.905C275.758 103.175 279.478 102.54 279.478 101.026C279.478 100.636 276.483 100.587 274.985 100.977Z" fill="black"/>
<path d="M421.699 108.791C421.844 109.279 422.183 110.598 422.472 111.721C423.197 114.7 426.675 119.632 429.381 121.537C430.637 122.465 431.796 123.1 431.941 122.953C432.231 122.66 422.134 107.961 421.699 107.961C421.555 107.961 421.555 108.351 421.699 108.791Z" fill="black"/>
<path d="M433.149 115.384C437.497 122.123 443.197 134.137 445.661 141.755C447.593 147.762 447.98 148.543 449.187 148.934C450.395 149.373 450.492 149.325 450.492 148.104C450.492 145.857 448.221 137.702 446.385 133.209C443.294 125.835 436.144 115.433 431.796 112.063C430.347 110.94 430.492 111.282 433.149 115.384Z" fill="black"/>
<path d="M201.893 116.947C201.072 117.338 199.43 118.314 198.319 119.145C196.048 120.805 194.454 121.049 193.343 119.975C192.763 119.34 192.522 119.438 191.604 120.707C191.024 121.537 190.009 122.416 189.333 122.709C187.256 123.686 188.319 124.223 192.28 124.223C196.096 124.223 196.193 124.175 199.865 121.782C201.893 120.414 204.792 118.803 206.29 118.168C208.029 117.435 208.753 116.947 208.367 116.654C207.401 116.068 203.536 116.214 201.893 116.947Z" fill="black"/>
<path d="M444.501 125.884C444.888 128.765 445.516 129.546 445.951 127.739C446.337 126.177 445.709 124.028 444.839 123.735C444.356 123.54 444.308 124.126 444.501 125.884Z" fill="black"/>
<path d="M184.309 127.837C187.014 129.449 192.522 130.084 192.522 128.765C192.522 127.398 189.913 126.519 185.903 126.519H182.135L184.309 127.837Z" fill="black"/>
<path d="M432.424 133.6C433.004 136.334 435.806 143.367 437.11 145.418C438.704 147.957 439.622 148.152 439.187 145.906C438.849 144.099 434.501 135.162 433.1 133.355L432.086 132.134L432.424 133.6Z" fill="black"/>
<path d="M175.952 133.697C175.372 134.283 176.676 135.309 177.98 135.309C178.705 135.309 179.72 134.967 180.251 134.576C181.459 133.648 181.894 133.648 181.894 134.576C181.894 134.967 182.038 135.309 182.28 135.309C182.763 135.26 184.309 134.039 184.309 133.648C184.309 133.258 176.338 133.258 175.952 133.697Z" fill="black"/>
<path d="M177.159 140.534C177.353 141.609 179.913 141.951 181.41 141.169C182.956 140.339 182.087 139.704 179.43 139.704C177.353 139.704 177.014 139.851 177.159 140.534Z" fill="black"/>
<path d="M185.517 157.089C184.985 157.529 183.101 158.701 181.266 159.775C178.222 161.631 177.497 162.657 179.382 162.657C179.816 162.657 180.782 162.315 181.555 161.973C182.811 161.289 182.86 161.289 182.86 162.559C182.86 164.561 180.493 167.052 176.725 169.152C174.889 170.177 172.715 171.545 171.942 172.18L170.541 173.352L172.28 173.4C177.353 173.449 182.377 169.64 184.744 163.975C186.241 160.215 187.304 156.308 186.773 156.308C186.628 156.308 186.048 156.699 185.517 157.089Z" fill="black"/>
<path d="M190.589 159.482C190.589 161.24 183.488 173.742 180.782 176.672L179.816 177.796H180.976C181.894 177.796 182.956 176.672 185.855 172.717C187.932 169.933 190.058 166.71 190.589 165.538C191.555 163.291 191.894 158.75 191.072 158.75C190.831 158.75 190.589 159.092 190.589 159.482Z" fill="black"/>
<path d="M189.43 176.184C188.222 178.674 187.208 180.823 187.208 180.97C187.208 181.556 188.608 181.165 189.768 180.237C191.41 178.919 192.908 174.377 192.183 172.814C191.749 171.789 191.507 172.082 189.43 176.184Z" fill="black"/>
<path d="M167.497 174.572L166.483 176.33L167.642 176.623C169.043 176.965 171.459 175.891 171.652 174.719C171.797 174.133 171.507 173.889 170.686 173.889C170.058 173.889 169.285 173.644 168.995 173.351C168.657 173.01 168.222 173.351 167.497 174.572Z" fill="black"/>
<path d="M469.815 178.772C469.815 180.335 471.12 183.167 471.892 183.167C472.086 183.167 472.231 181.898 472.134 180.335C471.989 177.893 471.844 177.551 470.926 177.405C469.96 177.258 469.815 177.454 469.815 178.772Z" fill="black"/>
<path d="M458.221 178.431C458.221 178.772 470.153 187.563 471.168 187.953C472.182 188.344 468.752 184.047 466.385 181.996C465.419 181.165 463.438 180.042 461.989 179.554C460.588 179.017 459.139 178.528 458.849 178.382C458.511 178.284 458.221 178.284 458.221 178.431Z" fill="black"/>
<path d="M452.424 182.044C452.424 182.923 456.192 185.609 456.965 185.316C457.4 185.121 458.076 185.267 458.463 185.609C458.849 185.902 459.525 186.098 460.008 186C460.636 185.853 460.202 185.365 458.221 183.998C455.564 182.24 452.424 181.165 452.424 182.044Z" fill="black"/>
<path d="M174.067 189.125C174.551 190.2 174.937 192.739 175.13 196.841C175.372 200.895 175.758 203.629 176.338 205.046C177.449 207.78 176.821 209.245 173.391 212.273C168.898 216.131 168.995 215.741 169.333 232.491L169.478 240.06L170.879 236.935C172.715 232.882 173.15 229.317 172.377 224.433C171.555 218.915 172.473 215.594 175.324 213.689C177.014 212.566 180.251 212.615 181.845 213.836C183.923 215.35 186 215.447 187.739 213.982L188.85 213.055L187.352 211.296C185.903 209.636 184.357 205.925 184.889 205.387C185.034 205.241 186.869 204.606 189.043 203.971L192.956 202.848L193.198 203.922C193.391 204.704 194.792 205.876 196.241 206.364C196.29 206.364 196.048 207.292 195.662 208.318C194.551 211.443 194.599 211.492 198.029 211.492C206.241 211.492 213.777 216.522 217.449 224.482C218.27 226.24 218.753 228.535 219.14 232.296C219.961 241.233 222.473 246.946 228.463 253.344C234.309 259.643 241.748 263.892 251.024 266.236C256.289 267.555 269.333 268.043 276.579 267.213C283.198 266.432 291.652 264.918 294.743 263.99C300.83 262.183 306.338 256.518 310.927 247.386C313.777 241.721 314.84 238.937 316.869 231.758C318.898 224.384 319.574 222.87 321.555 220.526C324.598 217.01 328.705 216.375 333.149 218.719C338.028 221.308 340.685 226.387 342.038 235.861C343.342 244.456 345.516 249.242 350.734 254.711C360.444 264.869 374.791 268.971 396.047 267.652C406.53 266.969 411.989 266.09 416.385 264.234C427.158 259.692 434.501 247.776 438.897 227.852L439.96 222.968L444.26 218.768C448.801 214.373 450.25 211.883 449.767 209.538C449.477 208.318 448.849 207.878 443.583 205.729C429.139 199.723 413.1 195.865 396.724 194.351C388.366 193.569 369.671 194.009 363.535 195.132C358.125 196.109 353.632 197.72 350.637 199.771C347.11 202.213 343.004 204.118 339.526 204.997C333.874 206.413 316.434 205.827 311.845 204.069C311.168 203.825 310.009 202.994 309.188 202.213C306.966 200.064 302.28 197.427 298.898 196.353C290.685 193.765 275.227 192.202 258.463 192.202C243.294 192.251 241.217 192.593 226.869 197.183C210.686 202.408 206.724 203.287 199.14 203.287C194.502 203.287 194.406 203.239 192.666 201.725C191.121 200.309 190.686 200.162 188.608 200.357C187.014 200.553 185.71 201.041 184.502 202.018C180.831 204.948 180.976 204.899 179.865 203.825C179.043 202.994 178.802 201.774 178.319 196.548L177.787 190.297L175.903 188.93C173.488 187.172 173.101 187.221 174.067 189.125ZM273.487 196.353C284.454 197.72 297.255 200.064 300.299 201.236C309.478 204.655 314.164 214.715 312.376 227.021C311.217 234.982 307.594 245.091 303.874 250.755C300.202 256.323 296.096 259.692 290.589 261.597C285.033 263.55 254.212 262.378 244.454 259.839C237.546 258.032 232.618 254.613 228.898 248.949C224.212 241.916 221.845 232.589 221.797 221.259C221.797 208.904 224.84 202.653 232.811 198.795C240.927 194.888 255.178 194.058 273.487 196.353ZM405.081 198.55C426.096 201.236 431.168 204.313 433.39 215.594C434.695 221.943 434.55 232.735 433.149 238.107C431.458 244.651 429.139 248.802 424.695 253.295C414.405 263.697 399.574 266.529 374.55 262.769C365.903 261.499 363.922 261.06 361.168 259.595C357.98 257.983 355.323 254.809 352.521 249.193C342.956 230.293 341.893 214.422 349.622 205.876C353.874 201.139 359.864 198.99 371.989 197.867C378.801 197.232 397.883 197.623 405.081 198.55ZM219.575 207.634C219.043 209.343 218.463 211.59 218.27 212.566C218.125 213.592 217.932 214.422 217.835 214.422C217.546 214.422 211.12 210.808 209.816 209.929C208.753 209.148 208.56 208.806 208.947 208.122C209.575 206.852 212.908 205.632 216.531 205.29C218.222 205.143 219.719 204.801 219.864 204.557C220.637 203.336 220.492 204.899 219.575 207.634ZM204.985 207.976C205.13 209.392 205.034 209.538 203.778 209.49C203.053 209.49 201.507 209.294 200.348 209.148C198.367 208.806 198.319 208.757 199.043 207.732C199.526 207.048 200.444 206.608 201.604 206.462C204.55 206.169 204.84 206.266 204.985 207.976ZM443.197 209.49C445.806 211.345 445.081 214.031 441.699 215.399C440.83 215.741 439.767 216.375 439.284 216.717C438.318 217.547 438.269 217.499 436.965 213.006C436.385 211.052 435.806 209.099 435.661 208.708C435.274 207.732 441.651 208.366 443.197 209.49ZM322.28 210.369C324.067 210.173 325.854 210.857 325.854 211.687C325.854 211.834 325.275 211.98 324.598 211.98C323.68 211.98 323.391 212.176 323.632 212.713C323.825 213.299 323.439 213.445 321.796 213.445C320.347 213.445 319.478 213.738 318.85 214.422C317.255 216.18 315.709 215.447 315.709 212.957C315.709 212.469 315.371 211.98 314.985 211.785C313.874 211.345 314.115 210.124 315.516 209.392C316.627 208.806 317.014 208.855 318.56 209.636C319.719 210.271 320.927 210.515 322.28 210.369ZM340.734 210.124C341.603 211.003 341.41 213.152 340.347 214.568C339.381 215.838 339.333 215.838 338.415 214.91C337.932 214.422 336.289 213.787 334.695 213.445C327.062 211.931 326.676 211.296 332.714 210.271C337.449 209.441 340.057 209.441 340.734 210.124Z" fill="black"/>
<path d="M248.029 199.723C245.468 200.553 242.28 202.799 242.28 203.825C242.28 204.948 250.009 201.774 251.41 200.064C251.99 199.381 251.893 199.283 250.686 199.332C249.913 199.332 248.705 199.527 248.029 199.723Z" fill="black"/>
<path d="M257.594 200.065C256.966 200.26 256.821 200.602 257.062 201.383C257.642 203.288 258.27 203.385 263.198 202.409C265.806 201.872 264.26 200.309 260.83 200.016C259.526 199.918 258.077 199.967 257.594 200.065Z" fill="black"/>
<path d="M272.231 202.262C266.338 203.19 266.096 203.288 267.207 203.678C269.381 204.508 273.777 204.753 276.724 204.167C284.55 202.702 280.444 200.943 272.231 202.262Z" fill="black"/>
<path d="M244.164 208.318C243.004 208.953 241.99 210.418 242.425 210.808C242.715 211.15 246.386 209.929 247.062 209.294C248.56 207.829 246.386 207.097 244.164 208.318Z" fill="black"/>
<path d="M266.434 211.834C263.777 212.273 259.768 213.641 257.014 214.959C253.729 216.62 235.565 228.633 235.517 229.17C235.517 229.414 236.483 229.561 237.642 229.561C239.333 229.561 241.072 228.877 245.517 226.631C249.574 224.531 251.845 223.652 253.294 223.554C255.178 223.505 255.468 223.31 256.048 221.943C257.062 219.452 260.154 218.426 260.154 220.575C260.154 222.333 262.183 224.629 264.792 225.947C267.256 227.168 267.787 227.217 271.652 226.973C276.724 226.631 278.995 225.898 278.995 224.629C278.995 223.261 276.821 222.919 274.115 223.896C270.975 225.068 270.299 224.482 272.28 222.431C274.502 220.136 276.966 219.501 280.009 220.478C284.792 222.089 285.855 220.917 281.555 218.817C278.705 217.401 277.062 216.034 277.062 215.057C277.062 213.396 281.652 215.008 291.603 220.185C299.139 224.091 302.908 225.361 305.13 224.824C307.787 224.14 308.463 222.236 305.999 222.236C303.439 222.236 298.705 220.771 295.42 218.964C286.966 214.275 285.227 213.494 281.458 212.517C277.594 211.541 270.154 211.199 266.434 211.834ZM274.647 216.375C276.531 218.28 275.951 218.719 271.169 219.061C264.888 219.55 263.777 219.354 263.777 217.84C263.777 216.766 264.067 216.571 266.434 216.082C270.782 215.154 273.536 215.252 274.647 216.375Z" fill="black"/>
<path d="M234.116 218.915C231.797 221.406 230.831 222.724 231.362 222.724C233.149 222.724 238.946 216.034 237.884 215.203C237.787 215.155 236.096 216.815 234.116 218.915Z" fill="black"/>
<path d="M285.516 222.675C285.371 223.017 285.951 223.994 286.869 224.922C288.27 226.338 288.898 226.631 290.685 226.631C292.618 226.631 294.454 225.996 293.97 225.508C293.681 225.263 287.883 222.773 286.676 222.382C286.241 222.284 285.71 222.382 285.516 222.675Z" fill="black"/>
<path d="M226.821 231.466C226.821 231.905 228.657 232.735 230.831 233.272C232.328 233.614 232.521 233.028 231.265 231.856C230.347 230.977 226.821 230.684 226.821 231.466Z" fill="black"/>
<path d="M230.734 238.937C227.546 239.67 229.236 240.354 234.261 240.354C240.347 240.354 243.777 239.475 240.734 238.644C239.091 238.205 233.149 238.4 230.734 238.937Z" fill="black"/>
<path d="M290.83 240.5C288.85 241.428 287.4 242.6 287.787 242.991C287.932 243.186 289.284 243.088 290.734 242.747C292.618 242.356 293.439 241.965 293.632 241.282C293.777 240.696 294.405 240.305 295.468 240.158C296.676 240.012 296.482 239.963 294.695 239.914C293.391 239.865 291.652 240.158 290.83 240.5Z" fill="black"/>
<path d="M267.062 246.311C266.241 246.604 265.42 247.044 265.227 247.19C265.082 247.386 267.932 247.63 271.603 247.728C276.434 247.923 279.091 248.265 281.314 248.997C285.033 250.218 284.599 249.29 280.541 247.288C278.222 246.165 277.111 245.921 273.198 245.823C270.444 245.725 267.98 245.921 267.062 246.311Z" fill="black"/>
<path d="M244.502 249.486C243.729 249.828 244.309 250.072 246.917 250.755C250.975 251.781 259.188 252.416 258.463 251.634C257.207 250.267 246.531 248.656 244.502 249.486Z" fill="black"/>
<path d="M378.028 201.285C374.212 202.018 373.584 202.262 373.825 202.848C373.922 203.19 373.729 203.825 373.294 204.264C372.617 205.095 372.907 205.143 379.284 205.192C382.956 205.192 387.98 205.388 390.443 205.534C392.907 205.729 394.743 205.729 394.55 205.583C394.357 205.436 391.506 204.557 388.221 203.678C384.936 202.75 381.989 201.725 381.603 201.383C381.265 201.041 380.83 200.748 380.588 200.797C380.395 200.846 379.236 201.041 378.028 201.285Z" fill="black"/>
<path d="M399.477 202.946C400.009 203.336 400.733 203.678 401.12 203.678C401.506 203.678 402.762 204.46 403.922 205.388C405.033 206.315 406.096 207.097 406.241 207.097C406.385 207.097 406.241 206.413 405.951 205.583C405.274 203.629 402.956 202.213 400.492 202.213C398.704 202.262 398.608 202.311 399.477 202.946Z" fill="black"/>
<path d="M357.98 208.464C356.386 209.001 355.516 209.587 355.419 210.222C355.226 211.052 355.468 211.101 357.062 210.906C358.125 210.759 360.589 210.124 362.569 209.538C365.661 208.562 365.999 208.366 364.985 208.025C362.956 207.439 360.54 207.585 357.98 208.464Z" fill="black"/>
<path d="M385.033 211.296C377.014 212.322 370.25 214.324 362.086 218.133C357.497 220.233 356.676 220.477 353.391 220.477C349.961 220.526 349.767 220.575 349.333 221.796C349.091 222.48 349.091 224.335 349.284 225.947L349.671 228.828L350.299 227.266C350.83 226.045 351.458 225.556 353.487 224.873C354.888 224.433 360.299 222.187 365.564 219.94C377.642 214.764 382.714 213.348 389.864 213.299C398.946 213.25 402.617 215.008 411.216 223.31C417.786 229.659 421.313 231.661 425.806 231.661C427.303 231.661 428.994 231.417 429.477 231.124C430.298 230.635 430.154 230.586 428.27 230.538C424.598 230.538 421.458 228.584 415.468 222.822C409.381 216.864 404.84 214.08 398.704 212.517C395.178 211.589 387.738 210.955 385.033 211.296Z" fill="black"/>
<path d="M389.332 217.255C389.912 218.964 388.849 220.282 386.917 220.282C384.743 220.282 383.342 219.501 383.342 218.329C383.342 217.841 383.149 217.255 382.859 217.108C382.279 216.766 356.869 227.363 355.854 228.389C355.468 228.731 355.275 229.17 355.42 229.366C356.048 229.952 366.482 226.533 376.482 222.382C376.869 222.236 377.062 222.578 377.062 223.408C377.062 225.019 379.043 227.119 380.54 227.119C381.168 227.119 382.424 226.924 383.342 226.68C387.352 225.654 387.69 225.605 387.69 226.338C387.69 227.852 389.381 228.096 393.584 227.266C397.931 226.436 399.187 225.801 397.448 225.361C396.869 225.166 396.386 224.824 396.386 224.58C396.386 223.554 397.448 222.236 398.221 222.236C399.622 222.236 401.216 223.652 401.216 224.922C401.216 225.947 401.603 226.143 405.419 227.022C407.786 227.559 409.719 227.95 409.815 227.901C409.864 227.803 408.946 226.631 407.738 225.264C403.632 220.673 397.497 217.401 391.361 216.571C389.139 216.229 389.043 216.278 389.332 217.255ZM394.067 220.966C394.791 221.992 394.453 223.212 393.245 223.994C392.134 224.726 391.941 224.726 390.83 223.994C389.284 222.968 389.236 221.113 390.733 220.38C391.893 219.843 393.535 220.087 394.067 220.966Z" fill="black"/>
<path d="M413.052 231.075C412.859 231.319 413.052 231.954 413.439 232.393C413.825 232.833 414.405 234.737 414.695 236.593C415.371 241.184 416.192 241.965 421.844 243.235C424.308 243.772 426.579 244.211 426.917 244.211C428.366 244.162 424.163 241.232 421.651 240.5C418.414 239.572 417.641 239.035 417.641 237.863C417.641 236.886 418.559 236.398 420.443 236.398C422.521 236.398 423.922 235.86 423.922 235.079C423.922 234.493 423.535 234.444 422.086 234.688C419.767 235.079 418.173 234.444 415.999 232.295C414.212 230.44 413.584 230.196 413.052 231.075Z" fill="black"/>
<path d="M404.115 241.135C403.439 241.233 402.134 241.574 401.216 241.868C399.574 242.405 399.574 242.454 400.733 242.795C401.41 242.991 403.197 243.137 404.695 243.186C406.965 243.235 407.545 243.04 407.931 242.307C408.366 241.574 408.269 241.33 407.352 241.086C406.241 240.793 406.096 240.793 404.115 241.135Z" fill="black"/>
<path d="M377.4 245.53C376.82 246.067 377.014 246.556 377.931 246.849C380.154 247.483 404.55 249.681 405.854 249.339C407.11 248.997 407.158 248.948 406.289 248.558C403.873 247.483 387.883 245.188 382.907 245.188C380.057 245.188 377.545 245.335 377.4 245.53Z" fill="black"/>
<path d="M411.893 245.628C411.12 246.116 410.927 246.067 417.641 247.874C420.154 248.558 422.472 249.095 422.714 249.095C423.825 249.046 420.83 247.142 419.187 246.849C418.221 246.653 416.965 246.214 416.434 245.872C415.371 245.091 412.907 244.993 411.893 245.628Z" fill="black"/>
<path d="M407.497 251.048C406.675 251.879 405.757 252.025 400.154 252.123C394.212 252.269 393.825 252.318 394.936 253.002C395.902 253.588 397.448 253.686 402.666 253.539C412.811 253.246 413.39 253.246 416.144 253.686C419.912 254.272 419.187 253.148 414.695 251.488C410.395 249.876 408.753 249.779 407.497 251.048Z" fill="black"/>
<path d="M459.96 191.274C459.284 194.888 459.091 197.33 459.574 197.33C460.25 197.33 460.637 196.109 460.637 193.911C460.637 192.837 460.878 191.958 461.265 191.811C461.699 191.665 461.651 191.372 461.071 190.737C460.298 189.956 460.25 189.956 459.96 191.274Z" fill="black"/>
<path d="M463.1 198.892L461.458 199.332L462.859 200.211C464.984 201.529 466.82 203.922 467.4 206.169C467.69 207.292 467.883 208.269 467.786 208.318C467.69 208.415 466.772 208.318 465.709 208.073C464.356 207.78 463.68 207.829 463.438 208.22C462.714 209.343 463.052 209.538 465.467 209.538C468.076 209.538 468.173 209.685 467.448 212.371C466.82 214.568 467.255 214.324 468.366 211.834C469.767 208.806 469.622 205.339 468.028 202.213C466.337 198.99 465.274 198.257 463.1 198.892Z" fill="black"/>
<path d="M453.149 200.944C452.521 201.92 452.134 203.434 452.038 205.583C451.893 208.269 452.086 209.197 453.052 211.15C454.163 213.348 454.211 213.641 453.583 215.204C453.197 216.083 452.907 216.962 452.907 217.108C452.907 217.645 457.352 217.303 458.946 216.669C460.637 215.936 460.637 215.936 460.637 212.859L460.588 209.783L459.187 211.394C458.366 212.273 457.738 213.445 457.738 213.983C457.738 215.008 457.738 215.008 456.192 214.08L454.598 213.152L454.356 206.315L454.115 199.527L453.149 200.944Z" fill="black"/>
<path d="M472.231 218.622C472.231 220.136 471.796 220.819 469.139 223.505C465.709 226.973 463.825 230.342 463.052 234.444C462.472 237.423 462.81 241.721 463.728 243.967C464.356 245.384 464.405 245.237 464.694 241.526C465.516 232.393 467.207 227.949 471.458 223.749C473.632 221.65 474.163 220.868 474.163 219.598C474.163 218.133 473.438 216.864 472.617 216.864C472.424 216.864 472.231 217.645 472.231 218.622Z" fill="black"/>
<path d="M193.005 219.696C193.005 219.989 192.473 220.722 191.845 221.357C190.976 222.187 190.734 222.822 190.927 223.798C191.265 225.557 191.893 225.117 193.101 222.382C193.778 220.771 193.922 220.038 193.536 219.647C193.15 219.257 193.005 219.257 193.005 219.696Z" fill="black"/>
<path d="M451.796 228.34C451.313 230.489 451.748 233.956 452.617 234.835C453.342 235.568 453.39 235.47 453.342 233.712C453.342 232.638 453.052 230.635 452.714 229.317C452.134 226.973 452.134 226.924 451.796 228.34Z" fill="black"/>
<path d="M437.448 245.433C437.448 245.53 437.98 246.019 438.656 246.458C439.622 247.093 440.105 247.142 441.554 246.653C444.115 245.823 443.583 245.188 440.347 245.188C438.753 245.188 437.448 245.286 437.448 245.433Z" fill="black"/>
<path d="M216.773 248.9C215.662 249.583 214.744 250.218 214.744 250.365C214.744 250.462 215.372 250.56 216.145 250.56C217.835 250.56 220.058 248.9 219.333 248.167C218.995 247.825 218.174 248.069 216.773 248.9Z" fill="black"/>
<path d="M186.435 252.806C186.821 256.86 187.594 258.569 189.043 258.764C190.444 258.96 190.396 257.788 188.995 253.246C188.222 250.853 187.642 249.779 187.014 249.681C186.145 249.486 186.145 249.73 186.435 252.806Z" fill="black"/>
<path d="M452.231 253.051C450.637 254.906 450.298 256.371 450.637 259.35C450.878 261.353 453.004 266.676 453.583 266.676C453.68 266.676 453.583 265.845 453.342 264.82C452.714 262.134 452.81 257.543 453.583 254.32C453.922 252.806 454.066 251.537 453.873 251.537C453.632 251.537 452.907 252.22 452.231 253.051Z" fill="black"/>
<path d="M432.617 260.816C432.617 262.281 434.018 264.82 434.695 264.576C435.516 264.283 435.226 261.841 434.26 260.767C433.197 259.546 432.617 259.595 432.617 260.816Z" fill="black"/>
<path d="M169.816 266.627C169.768 269.313 174.164 287.284 175.13 288.31C175.324 288.554 175.662 287.87 175.855 286.747C176.241 284.452 175.082 279.568 172.522 272.341C170.686 267.262 169.865 265.504 169.816 266.627Z" fill="black"/>
<path d="M364.985 268.727C369.961 270.973 379.332 272.585 391.072 273.317C396.917 273.659 403.729 273.073 407.497 271.852C409.477 271.217 408.753 271.168 398.221 271.12C386.386 271.12 378.076 270.387 368.463 268.58C365.661 268.092 363.246 267.652 363.101 267.701C362.956 267.701 363.777 268.141 364.985 268.727Z" fill="black"/>
<path d="M281.169 268.678C279.864 268.922 277.256 269.362 275.371 269.655C272.425 270.143 272.135 270.29 273.198 270.68C275.082 271.413 285.13 270.827 287.787 269.85C289.091 269.411 290.202 268.825 290.396 268.58C290.734 268.043 284.405 268.092 281.169 268.678Z" fill="black"/>
<path d="M373.97 291.484C373.825 291.728 373.97 292.168 374.308 292.412C375.661 293.437 380.057 295.586 380.25 295.342C380.637 295 379.767 293.437 378.608 292.412C377.497 291.386 374.405 290.752 373.97 291.484Z" fill="black"/>
<path d="M272.859 295.049C271.024 296.221 270.83 296.954 272.28 296.954C274.067 296.954 276.338 295.342 275.806 294.414C275.42 293.779 274.502 293.975 272.859 295.049Z" fill="black"/>
<path d="M177.304 296.905C176.918 298.809 177.836 306.037 179.043 309.944C179.575 311.702 180.154 313.069 180.251 312.923C180.734 312.434 179.478 300.079 178.705 297.784C178.27 296.514 177.884 295.489 177.787 295.489C177.691 295.489 177.497 296.123 177.304 296.905Z" fill="black"/>
<path d="M381.41 298.321C381.41 298.565 382.328 299.493 383.487 300.421C387.352 303.546 398.753 315.12 402.956 320.199C406.241 324.155 407.303 325.132 407.593 324.594C408.463 322.983 406.434 320.248 397.98 311.702C388.463 302.081 383.777 297.93 382.328 297.93C381.845 297.93 381.41 298.126 381.41 298.321Z" fill="black"/>
<path d="M297.739 299.982C294.84 301.007 297.207 302.57 301.072 302.179C303.536 301.935 303.777 301.984 308.705 305.012C311.507 306.721 313.777 307.942 313.777 307.649C313.777 306.672 311.217 303.302 309.526 302.13C305.951 299.64 301.024 298.761 297.739 299.982Z" fill="black"/>
<path d="M263.294 302.619C253.584 308.625 247.111 314.681 247.111 317.806C247.111 318.441 247.642 318.148 249.188 316.683C250.299 315.609 252.521 313.753 254.116 312.581C259.719 308.479 269.236 299.835 268.077 299.933C267.835 299.933 265.71 301.154 263.294 302.619Z" fill="black"/>
<path d="M354.308 301.983C353.149 302.96 352.086 304.767 352.666 304.767C353.439 304.767 358.173 301.642 357.932 301.3C357.449 300.518 355.613 300.86 354.308 301.983Z" fill="black"/>
<path d="M182.377 316.634C182.377 317.66 184.985 321.518 186.676 322.983C188.85 324.839 192.232 324.79 195.855 322.885C199.188 321.176 199.623 320.492 198.802 318.49C198.464 317.66 198.077 316.976 197.884 316.976C197.739 317.025 197.159 317.709 196.628 318.588C196.096 319.418 194.889 320.639 193.971 321.274C190.637 323.569 185.71 321.909 184.019 317.953C183.15 316.048 182.377 315.413 182.377 316.634Z" fill="black"/>
<path d="M452.714 318.637C450.443 319.76 446.579 319.857 444.115 318.783C441.893 317.855 441.409 318.392 443.004 319.906C444.743 321.567 449.139 321.86 451.748 320.492C453.583 319.564 455.226 318.099 454.791 317.806C454.694 317.709 453.777 318.099 452.714 318.637Z" fill="black"/>
<path d="M324.55 318.246C322.763 318.685 323.294 319.32 325.854 319.857C328.656 320.443 331.941 320.492 333.294 319.955C334.115 319.613 334.019 319.515 332.569 318.978C330.685 318.343 326.144 317.904 324.55 318.246Z" fill="black"/>
<path d="M200.251 325.864C200.251 329.918 203.584 343.64 205.13 345.789C206.193 347.352 203.971 333.58 202.087 327.28C201.362 324.839 200.251 324.008 200.251 325.864Z" fill="black"/>
<path d="M261.12 332.848C261.12 333.287 268.415 338.024 272.763 340.368C277.4 342.859 287.98 347.254 289.333 347.254C290.299 347.254 290.299 346.863 289.381 344.617L288.656 342.859L290.589 342.566C291.652 342.37 292.618 342.077 292.763 341.882C292.859 341.687 291.217 341.15 289.043 340.661C279.381 338.561 273.874 336.95 269.381 334.85C266.531 333.531 263.826 332.603 262.811 332.603C261.893 332.603 261.12 332.701 261.12 332.848Z" fill="black"/>
<path d="M377.159 337.731C370.444 338.903 364.695 339.978 364.357 340.075C363.487 340.417 366.289 341.394 368.173 341.394C370.202 341.394 370.347 342.419 368.56 344.08C367.062 345.496 364.502 346.082 363.149 345.349C361.748 344.617 361.748 344.617 361.41 346.717C360.878 350.086 359.671 350.965 353.632 352.089C344.308 353.847 339.381 354.286 328.994 354.237C317.787 354.237 309.864 353.261 299.912 350.77C296.917 350.038 294.647 349.598 294.84 349.793C295.71 350.672 304.84 354.091 309.478 355.263C316.241 356.972 320.492 357.461 328.463 357.509C342.328 357.509 355.999 354.189 370.733 347.205C377.642 343.933 391.603 335.436 389.864 335.582C389.622 335.631 383.873 336.608 377.159 337.731Z" fill="black"/>
<path d="M354.357 339.977C353.391 340.368 353.294 340.563 353.874 340.905C355.564 342.029 361.603 341.149 360.878 339.88C360.492 339.294 355.903 339.343 354.357 339.977Z" fill="black"/>
<path d="M296.821 342.077C294.792 342.761 294.502 343.689 296.144 344.324C297.207 344.715 297.787 344.666 298.946 343.982C299.768 343.494 300.492 342.859 300.589 342.566C300.879 341.736 298.656 341.491 296.821 342.077Z" fill="black"/>
<path d="M331.072 344.275C327.4 344.714 324.308 345.203 324.164 345.398C324.019 345.545 325.42 345.789 327.207 345.935C330.685 346.277 336.241 345.74 340.202 344.714C342.473 344.128 342.473 344.128 341.072 343.787C339.043 343.347 338.511 343.347 331.072 344.275Z" fill="black"/>
<path d="M201.797 348.719C199.381 349.256 196.628 351.356 194.454 354.286C192.715 356.582 169.092 405.417 166.435 412.254C165.13 415.575 164.792 418.749 165.469 421.288C165.807 422.46 166.145 423.388 166.241 423.291C166.338 423.193 166.725 421.484 167.111 419.482C167.497 417.479 168.27 414.598 168.802 413.035C170.251 408.884 194.067 358.975 194.454 359.219C194.647 359.365 194.985 360.488 195.179 361.758C195.758 365.958 199.333 379.583 201.459 385.59C204.985 395.699 209.478 405.905 211.265 407.908C212.811 409.763 213.198 408.982 212.473 405.466C211.749 402.145 211.845 391.841 212.618 389.301C212.956 388.178 212.956 388.178 211.652 389.008C210.927 389.497 210.009 390.522 209.623 391.304C209.188 392.134 208.802 392.671 208.753 392.573C208.56 392.378 209.381 384.857 209.671 384.027C209.816 383.588 210.299 383.588 211.41 383.881C212.28 384.125 213.053 384.271 213.198 384.174C213.439 383.929 204.116 349.061 203.681 348.67C203.536 348.524 202.666 348.524 201.797 348.719ZM201.7 353.114C201.7 353.798 199.478 356.044 198.802 356.044C198.56 356.044 198.319 356.24 198.319 356.533C198.319 356.777 198.995 357.021 199.768 357.021C201.507 357.021 201.507 357.168 200.203 359.316C198.898 361.416 198.27 360.928 197.932 357.558C197.739 355.458 197.884 354.97 198.947 353.896C200.203 352.626 201.7 352.186 201.7 353.114ZM203.053 362.686C204.357 363.614 204.454 365.616 203.198 366.056C201.99 366.398 199.816 365.519 199.43 364.542C199.237 364.005 199.526 363.37 200.203 362.784C201.555 361.709 201.7 361.709 203.053 362.686ZM202.087 367.472C203.778 368.4 205.855 370.646 206.435 372.16C206.821 373.234 206.724 373.43 205.468 373.967C204.212 374.504 204.067 374.748 204.357 376.018C204.55 376.848 204.406 377.923 204.067 378.606C203.488 379.681 203.439 379.681 202.811 377.532C200.927 371.281 199.913 366.788 200.299 366.788C200.589 366.788 201.362 367.081 202.087 367.472ZM209.913 379.046C209.913 380.071 209.478 380.706 208.125 381.683C206.869 382.513 206.193 382.757 205.807 382.367C205.468 382.025 205.517 381.781 205.903 381.536C206.193 381.341 206.821 379.876 207.256 378.313L208.125 375.383L208.995 376.506C209.526 377.141 209.913 378.265 209.913 379.046Z" fill="black"/>
<path d="M429.042 356.923C426.869 361.367 423.873 365.714 419.622 370.548C416.192 374.455 415.516 375.579 414.501 378.753C413.825 380.755 411.893 385.199 410.202 388.666C407.014 395.064 405.371 399.703 405.661 401.461C405.758 401.998 408.076 397.359 411.071 390.571C417.352 376.506 417.738 375.823 421.555 371.428C426.772 365.372 431.12 358.242 431.168 355.703C431.168 353.7 430.395 354.14 429.042 356.923Z" fill="black"/>
<path d="M194.019 398.336C192.57 399.557 189.623 404.098 189.623 405.124C189.623 405.368 190.493 404.684 191.604 403.659C193.633 401.657 196.193 397.701 195.758 397.261C195.662 397.115 194.84 397.603 194.019 398.336Z" fill="black"/>
<path d="M204.212 409.568C202.232 410.935 203.101 411.179 206.628 410.203C208.56 409.666 210.251 409.128 210.348 408.982C210.976 408.347 205.13 408.884 204.212 409.568Z" fill="black"/>
<path d="M200.299 412.938C198.705 414.354 196.628 417.479 197.014 417.919C197.352 418.261 202.666 412.84 202.666 412.205C202.666 411.375 201.845 411.668 200.299 412.938Z" fill="black"/>
<path d="M402.956 413.035C402.811 413.524 401.313 418.651 399.574 424.414C392.376 448.685 386.627 469.098 386.241 471.686C385.854 474.763 386.289 476.912 388.366 481.893C390.057 485.897 390.83 491.66 390.25 495.567C390.009 497.276 389.96 498.643 390.154 498.643C390.927 498.643 393.101 495.225 393.777 492.93C394.646 490.097 394.357 488.144 392.473 484.237C389.816 478.621 389.526 472.614 391.555 464.166C392.859 458.501 401.7 428.174 402.183 427.686C402.376 427.442 403.1 429.004 403.777 431.104L404.985 434.913V427.1C404.936 417.675 404.55 412.596 403.777 412.352C403.487 412.254 403.1 412.547 402.956 413.035Z" fill="black"/>
<path d="M166.918 425.098C166.918 425.684 167.159 426.953 167.497 427.832C167.981 429.346 168.077 429.395 168.705 428.565C169.575 427.344 169.526 425.635 168.56 424.707C167.497 423.584 166.918 423.73 166.918 425.098Z" fill="black"/>
<path d="M147.256 429.297C143.729 430.616 140.251 432.032 139.43 432.472C137.691 433.351 136 435.109 136 435.939C136 437.111 144.647 433.986 152.667 429.932C158.126 427.197 158.464 426.856 155.807 426.856C154.454 426.904 151.266 427.783 147.256 429.297Z" fill="black"/>
<path d="M189.43 427.93C188.319 429.688 186.724 433.937 186.724 435.255C186.724 436.183 186.869 436.134 187.932 434.62C189.237 432.911 190.782 428.223 190.493 427.246C190.348 426.855 189.913 427.197 189.43 427.93Z" fill="black"/>
<path d="M224.889 430.567C224.889 432.325 228.029 436.574 229.381 436.623C230.009 436.623 227.449 432.032 226.145 430.811C224.985 429.688 224.889 429.688 224.889 430.567Z" fill="black"/>
<path d="M170.589 433.009C170.154 434.181 170.251 437.258 170.782 438.088C171.217 438.723 171.314 438.723 171.749 438.088C172.618 436.769 172.232 432.228 171.266 432.228C171.072 432.228 170.734 432.569 170.589 433.009Z" fill="black"/>
<path d="M400.588 440.823C400.202 441.506 400.492 448.49 400.927 449.271C401.12 449.564 400.83 451.615 400.25 453.862C399.477 456.694 399.284 458.599 399.477 460.405C399.96 464.801 400.637 465.533 401.748 462.847C402.714 460.601 402.617 445.511 401.651 442.483C401.265 441.262 400.782 440.53 400.588 440.823Z" fill="black"/>
<path d="M138.319 441.311C138.077 441.506 137.932 442.19 137.932 442.776C137.932 444.192 139.333 447.855 139.865 447.855C140.348 447.855 140.831 446.585 140.831 445.364C140.831 444.827 141.507 444.094 142.618 443.557C144.309 442.678 144.357 442.58 143.391 442.092C142.039 441.36 138.754 440.822 138.319 441.311Z" fill="black"/>
<path d="M180.831 445.266C178.705 447.513 177.739 451.273 179.237 451.273C179.671 451.273 180.106 450.883 180.251 450.394C180.396 449.955 180.976 448.636 181.507 447.464C182.86 444.534 182.522 443.46 180.831 445.266Z" fill="black"/>
<path d="M399.381 469C397.497 471.247 394.84 484.97 396.289 484.97C396.869 484.97 398.318 483.602 398.318 483.065C398.318 482.235 400.25 470.514 400.54 469.44C400.878 468.268 400.202 467.975 399.381 469Z" fill="black"/>
<path d="M254.744 500.548C250.975 501.769 248.27 503.478 245.275 506.506C242.28 509.534 239.381 514.954 240.299 515.882C241.217 516.81 242.425 515.687 243.391 513.001C244.55 509.924 245.178 509.241 249.43 506.408C254.647 502.941 258.56 501.867 262.715 502.697C264.405 503.039 264.502 503.039 264.502 501.867C264.502 501.134 264.115 500.402 263.584 500.108C262.135 499.376 257.835 499.571 254.744 500.548Z" fill="black"/>
<path d="M398.994 510.071C393.487 512.659 390.685 519.154 389.091 532.926L388.463 538.2H386.772C384.84 538.2 380.782 540.007 381.072 540.788C381.361 541.716 384.502 542.498 388.125 542.546C391.555 542.595 391.651 542.644 391.361 543.67C391.216 544.304 390.009 548.309 388.704 552.558L386.337 560.322L384.018 561.446C382.714 562.081 379.429 564.473 376.772 566.72C365.758 576.047 356.337 586.059 346.627 598.756C337.255 611.111 329.671 617.753 316.772 625.176C313.197 627.178 312.424 627.862 312.859 628.35C313.729 629.424 315.226 629.18 318.366 627.52C329.284 621.708 337.4 614.188 355.806 592.7C369.188 577.073 375.419 570.969 384.695 564.327C386.724 562.911 388.946 560.908 389.574 559.932C391.265 557.343 392.376 552.655 392.762 546.404C393.39 534.879 394.55 527.359 396.724 520.668C398.511 515.101 399.815 512.317 400.637 512.317C403.825 512.317 408.656 515.736 410.443 519.203C410.975 520.277 411.506 521.108 411.651 521.108C411.844 521.108 411.844 519.789 411.748 518.226C411.506 514.417 409.767 511.829 406.385 510.12C403.342 508.606 402.134 508.606 398.994 510.071Z" fill="black"/>
<path d="M383.245 514.173C383.052 514.759 382.231 515.638 381.361 516.078C379.284 517.201 377.4 519.057 377.787 519.594C378.415 520.668 384.791 516.859 384.791 515.394C384.791 515.15 384.501 514.564 384.163 514.027C383.535 513.196 383.487 513.196 383.245 514.173Z" fill="black"/>
<path d="M235.855 521.645C234.599 523.598 234.116 525.063 233.101 529.8C232.57 532.34 231.507 535.612 230.637 537.223C228.85 540.593 224.792 544.939 220.009 548.553C218.174 549.92 216.773 551.141 216.869 551.239C217.304 551.679 222.763 549.823 224.647 548.602C227.835 546.551 229.236 544.988 229.236 543.523C229.236 541.277 231.024 539.665 233.922 539.323L236.386 539.03L235.903 537.614C235.565 536.637 235.565 536.002 235.903 535.661C236.241 535.319 236.241 534.83 235.903 534.049C235.517 533.219 235.613 532.633 236.289 531.607C236.966 530.582 237.159 529.41 237.062 526.821C237.014 524.917 237.159 523.159 237.449 522.817C237.739 522.426 237.69 521.938 237.256 521.352C236.628 520.473 236.579 520.522 235.855 521.645Z" fill="black"/>
<path d="M407.545 524.135C405.371 526.48 405.564 527.847 407.835 526.235C408.898 525.503 410.154 522.573 409.429 522.573C409.187 522.573 408.318 523.305 407.545 524.135Z" fill="black"/>
<path d="M236 553.876C236 554.12 237.449 555.048 239.285 555.878C241.072 556.709 242.715 557.685 242.956 558.125C243.198 558.564 243.922 559.443 244.55 560.078C245.951 561.495 247.111 561.006 245.806 559.492C245.275 558.955 244.502 557.881 244.116 557.197C243.584 556.318 242.232 555.488 239.864 554.609C235.951 553.144 236 553.144 236 553.876Z" fill="black"/>
<path d="M248.56 563.399C248.56 563.594 248.995 564.425 249.526 565.304C250.154 566.329 251.748 567.55 253.971 568.771C255.903 569.748 258.463 571.506 259.671 572.629C262.135 574.973 264.985 576.243 264.985 575.022C264.985 573.606 260.299 569.601 254.792 566.378C249.285 563.155 248.56 562.813 248.56 563.399Z" fill="black"/>
<path d="M275.613 591.479C275.613 592.7 277.207 595.923 278.27 596.802C280.299 598.512 280.444 593.921 278.367 592.065C276.724 590.552 275.613 590.307 275.613 591.479Z" fill="black"/>
<path d="M286.096 601.002C285.468 601.686 285.758 603.493 286.676 604.323C287.449 605.055 287.739 605.055 288.608 604.518C289.961 603.688 289.912 603.297 288.222 602.418C287.449 602.028 286.724 601.491 286.627 601.197C286.531 600.904 286.289 600.807 286.096 601.002Z" fill="black"/>
<path d="M292.521 606.57C292.521 606.814 293.198 607.79 294.019 608.767C295.42 610.33 295.613 610.428 296.338 609.793C296.869 609.304 297.594 609.158 298.318 609.353L299.526 609.646L298.56 608.523C296.966 606.716 292.521 605.251 292.521 606.57Z" fill="black"/>
<path d="M300.444 610.867C301.555 613.065 303.681 614.383 306.144 614.383H308.222L306.772 613.504C305.999 613.016 304.067 611.893 302.521 611.013L299.671 609.353L300.444 610.867Z" fill="black"/>
<path d="M307.497 616.239C306.869 616.727 306.531 617.411 306.724 617.704C307.207 618.534 310.637 619.364 312.086 618.974C313.584 618.583 313.632 617.802 312.183 616.434C310.83 615.116 308.946 615.067 307.497 616.239Z" fill="black"/>
</svg>
