<svg width="20" height="17" viewBox="0 0 20 17" fill="none" xmlns="http://www.w3.org/2000/svg">
<path d="M20 1.924C19.2511 2.25598 18.4565 2.47373 17.643 2.57C18.5005 2.05781 19.1422 1.25086 19.448 0.300004C18.6424 0.778067 17.7611 1.11492 16.842 1.296C16.4582 0.886271 15.9944 0.559798 15.4791 0.336853C14.9639 0.113909 14.4084 -0.000747251 13.847 3.66472e-06C11.197 3.66472e-06 9.251 2.472 9.849 5.037C8.21772 4.95562 6.62178 4.53206 5.16482 3.79385C3.70785 3.05563 2.42243 2.01925 1.392 0.752004C0.867744 1.65548 0.707255 2.7247 0.943166 3.74228C1.17908 4.75985 1.79368 5.64938 2.662 6.23C2.01062 6.20962 1.37356 6.03373 0.804 5.717C0.76 7.616 2.122 9.395 4.095 9.79C3.49071 9.95408 2.85694 9.97803 2.242 9.86C2.50402 10.6753 3.01438 11.3883 3.70168 11.8991C4.38897 12.41 5.21879 12.6931 6.075 12.709C4.35532 14.0584 2.17038 14.6702 0 14.41C1.87628 15.6154 4.05989 16.2552 6.29 16.253C13.908 16.253 18.212 9.819 17.953 4.048C18.7559 3.46703 19.4491 2.74782 20 1.924Z" fill="#1DA1F2"/>
</svg>
