<?xml version="1.0"?>
<svg xmlns="http://www.w3.org/2000/svg" xmlns:xlink="http://www.w3.org/1999/xlink" xmlns:svgjs="http://svgjs.com/svgjs" version="1.1" width="512" height="512" x="0" y="0" viewBox="0 0 256 256" style="enable-background:new 0 0 512 512" xml:space="preserve" class=""><g><path xmlns="http://www.w3.org/2000/svg" d="m189.6 95.048a2.5 2.5 0 0 1 -2.5-2.5v-38.292h-29.767a2.5 2.5 0 0 1 0-5h32.267a2.5 2.5 0 0 1 2.5 2.5v40.792a2.5 2.5 0 0 1 -2.5 2.5z" fill="#080706" data-original="#f9b087" style="" class=""/><path xmlns="http://www.w3.org/2000/svg" d="m66.4 95.048a2.5 2.5 0 0 1 -2.5-2.5v-40.792a2.5 2.5 0 0 1 2.5-2.5h32.267a2.5 2.5 0 0 1 0 5h-29.767v38.292a2.5 2.5 0 0 1 -2.5 2.5z" fill="#080706" data-original="#f9b087" style="" class=""/><path xmlns="http://www.w3.org/2000/svg" d="m98.667 206.744h-32.267a2.5 2.5 0 0 1 -2.5-2.5v-40.792a2.5 2.5 0 0 1 5 0v38.292h29.767a2.5 2.5 0 0 1 0 5z" fill="#080706" data-original="#f9b087" style="" class=""/><path xmlns="http://www.w3.org/2000/svg" d="m189.6 206.744h-32.267a2.5 2.5 0 0 1 0-5h29.767v-38.292a2.5 2.5 0 0 1 5 0v40.792a2.5 2.5 0 0 1 -2.5 2.5z" fill="#080706" data-original="#f9b087" style="" class=""/><g xmlns="http://www.w3.org/2000/svg" fill="#846f75"><path d="m224 90.048h-192a2.5 2.5 0 0 0 -2.5 2.5v70.9a2.5 2.5 0 0 0 2.5 2.5h192a2.5 2.5 0 0 0 2.5-2.5v-70.9a2.5 2.5 0 0 0 -2.5-2.5zm-2.5 70.9h-187v-65.9h187z" fill="#7a7a7a" data-original="#846f75" style="" class=""/><path d="m100.083 59.9 5.089 1.312-2.672 4.528a5.222 5.222 0 0 0 .808 6.343l4.365 4.365a5.22 5.22 0 0 0 6.346.807l4.525-2.671 1.312 5.092a5.225 5.225 0 0 0 5.057 3.914h6.174a5.225 5.225 0 0 0 5.057-3.917l1.312-5.089 4.528 2.673a5.224 5.224 0 0 0 6.343-.808l4.366-4.366a5.225 5.225 0 0 0 .806-6.346l-2.672-4.525 5.092-1.312a5.223 5.223 0 0 0 3.914-5.057v-6.174a5.223 5.223 0 0 0 -3.914-5.056l-5.09-1.311 2.673-4.528a5.222 5.222 0 0 0 -.808-6.343l-4.366-4.367a5.224 5.224 0 0 0 -6.345-.8l-4.525 2.671-1.312-5.092a5.225 5.225 0 0 0 -5.057-3.914h-6.174a5.224 5.224 0 0 0 -5.057 3.917l-1.312 5.089-4.527-2.673a5.222 5.222 0 0 0 -6.343.807l-4.367 4.367a5.223 5.223 0 0 0 -.806 6.344l2.671 4.527-5.091 1.312a5.223 5.223 0 0 0 -3.914 5.056v6.174a5.223 5.223 0 0 0 3.914 5.051zm1.084-11.231a.222.222 0 0 1 .164-.215l8.308-2.141a2.5 2.5 0 0 0 1.528-3.691l-4.358-7.387a.221.221 0 0 1 .034-.27l4.366-4.366a.222.222 0 0 1 .268-.036l7.388 4.361a2.5 2.5 0 0 0 3.692-1.529l2.14-8.305a.224.224 0 0 1 .216-.167h6.174a.223.223 0 0 1 .215.164l2.141 8.308a2.5 2.5 0 0 0 3.692 1.529l7.386-4.359a.225.225 0 0 1 .271.034l4.365 4.365a.223.223 0 0 1 .036.269l-4.361 7.388a2.5 2.5 0 0 0 1.529 3.692l8.306 2.141a.222.222 0 0 1 .166.215v6.174a.222.222 0 0 1 -.164.216l-8.308 2.14a2.5 2.5 0 0 0 -1.529 3.692l4.359 7.386a.222.222 0 0 1 -.034.271l-4.365 4.365a.225.225 0 0 1 -.269.037l-7.388-4.362a2.5 2.5 0 0 0 -3.692 1.53l-2.14 8.305a.224.224 0 0 1 -.216.167h-6.174a.222.222 0 0 1 -.215-.164l-2.141-8.308a2.5 2.5 0 0 0 -3.692-1.53l-7.385 4.36a.221.221 0 0 1 -.271-.035l-4.366-4.365a.223.223 0 0 1 -.036-.269l4.36-7.388a2.5 2.5 0 0 0 -1.528-3.692l-8.306-2.14a.222.222 0 0 1 -.166-.216z" fill="#7a7a7a" data-original="#846f75" style="" class=""/><path d="m128 63.721a11.965 11.965 0 1 0 -11.964-11.965 11.978 11.978 0 0 0 11.964 11.965zm0-18.929a6.965 6.965 0 1 1 -6.964 6.964 6.972 6.972 0 0 1 6.964-6.964z" fill="#7a7a7a" data-original="#846f75" style="" class=""/><path d="m155.773 178.942h-55.546a4.064 4.064 0 0 0 -4.06 4.06v42.483a4.064 4.064 0 0 0 4.06 4.06h55.546a4.064 4.064 0 0 0 4.06-4.06v-42.485a4.064 4.064 0 0 0 -4.06-4.058zm-.94 45.6h-53.666v-40.6h53.666z" fill="#7a7a7a" data-original="#846f75" style="" class=""/><path d="m124.224 213.319a2.5 2.5 0 0 0 3.269-1.348l5.631-13.534a2.5 2.5 0 0 0 -4.617-1.921l-5.631 13.534a2.5 2.5 0 0 0 1.348 3.269z" fill="#7a7a7a" data-original="#846f75" style="" class=""/><path d="m137.449 212.733a2.5 2.5 0 0 0 3.535 0l6.722-6.722a2.5 2.5 0 0 0 0-3.535l-6.722-6.722a2.5 2.5 0 1 0 -3.535 3.536l4.954 4.954-4.954 4.954a2.5 2.5 0 0 0 0 3.535z" fill="#7a7a7a" data-original="#846f75" style="" class=""/><path d="m115.016 212.733a2.5 2.5 0 1 0 3.535-3.535l-4.954-4.954 4.954-4.954a2.5 2.5 0 0 0 -3.535-3.536l-6.722 6.722a2.5 2.5 0 0 0 0 3.535z" fill="#7a7a7a" data-original="#846f75" style="" class=""/></g><path xmlns="http://www.w3.org/2000/svg" d="m168.569 113.906a12.447 12.447 0 0 0 -8.506-2.793h-10.739a1.127 1.127 0 0 0 -1.125 1.125v31.524a1.127 1.127 0 0 0 1.125 1.125h2.663a1.127 1.127 0 0 0 1.125-1.125v-11.713h6.888c3.729 0 6.649-.907 8.678-2.7a10.986 10.986 0 0 0 -.107-15.447zm-3.351 12.088a7.5 7.5 0 0 1 -5.155 1.552h-6.951v-11.931h7.106a7 7 0 0 1 4.987 1.67 5.763 5.763 0 0 1 1.679 4.4 5.463 5.463 0 0 1 -1.666 4.309z" fill="#080706" data-original="#f9b087" style="" class=""/><path xmlns="http://www.w3.org/2000/svg" d="m135.968 144.887h2.685a1.127 1.127 0 0 0 1.125-1.125v-31.524a1.127 1.127 0 0 0 -1.125-1.125h-2.685a1.127 1.127 0 0 0 -1.125 1.125v13.035h-15.763v-13.035a1.127 1.127 0 0 0 -1.125-1.125h-2.663a1.126 1.126 0 0 0 -1.125 1.125v31.524a1.126 1.126 0 0 0 1.125 1.125h2.663a1.127 1.127 0 0 0 1.125-1.125v-13.987h15.763v13.987a1.127 1.127 0 0 0 1.125 1.125z" fill="#080706" data-original="#f9b087" style="" class=""/><path xmlns="http://www.w3.org/2000/svg" d="m104.573 113.906a12.447 12.447 0 0 0 -8.506-2.793h-10.738a1.126 1.126 0 0 0 -1.125 1.125v31.524a1.126 1.126 0 0 0 1.125 1.125h2.662a1.127 1.127 0 0 0 1.125-1.125v-11.713h6.884c3.73 0 6.65-.907 8.679-2.7a10.984 10.984 0 0 0 -.107-15.447zm-3.351 12.088a7.494 7.494 0 0 1 -5.155 1.552h-6.951v-11.931h7.107a7 7 0 0 1 4.987 1.67 5.768 5.768 0 0 1 1.678 4.4 5.46 5.46 0 0 1 -1.666 4.309z" fill="#080706" data-original="#f9b087" style="" class=""/></g></svg>
