<svg width="639" height="489" viewBox="0 0 639 489" fill="none" xmlns="http://www.w3.org/2000/svg">
<path opacity="0.1" d="M271.487 32.8258C250.522 24.0206 228.367 16.649 205.75 17.5872C172.473 18.9392 140.6 39.6031 124.942 69.9463C111.677 95.6509 110.041 125.784 104.327 154.309C97.2883 189.46 83.8082 222.863 69.403 255.531C61.6646 273.054 53.5032 291.003 52.2342 310.239C50.4688 336.94 62.8265 363.554 82.2007 381.333C101.575 399.112 127.323 408.465 153.138 410.511C166.883 411.6 181.243 410.592 193.454 403.984C206.37 396.991 215.784 384.352 228.751 377.464C240.77 371.053 254.825 370.179 268.317 371.013C285.988 372.105 303.401 375.928 319.976 382.353C338.831 389.672 356.366 400.266 375.182 407.684C393.998 415.103 415.019 419.246 434.252 413.051C452.301 407.224 466.593 393.122 479.47 378.816C500.605 355.334 519.881 330.137 537.113 303.467C548.726 285.496 559.533 266.533 564.671 245.584C574.485 205.538 560.977 160.352 531.005 132.999C506.188 110.342 472.86 100.505 440.242 94.5379C410.501 89.0951 376.113 88.7571 348.735 74.5733C322.621 61.0246 298.864 44.3291 271.487 32.8258Z" fill="#BBB8FA"/>
<path d="M491.371 70.0863C483.317 70.4185 482.911 91.9041 483.413 92.8423C483.915 93.7805 481.585 103.477 481.585 103.477C481.585 103.477 477.93 118.18 478.353 120.913C478.776 123.646 476.385 125.435 476.385 125.435C472.809 126.892 468.325 131.589 467.135 132.876L466.836 133.209C466.836 133.209 463.373 135.54 462.764 136.46C462.155 137.381 460.508 136.647 460.508 136.647C460.508 136.647 455.826 136.181 455.217 136.367C454.8 136.495 454.145 135.703 453.773 135.202C453.598 134.963 453.486 134.782 453.486 134.782L453.345 130.446C453.168 130.307 452.979 130.186 452.781 130.085C452.876 129.596 452.995 129.089 453.141 128.57C455.246 127.509 457.022 125.862 458.268 123.815C458.404 123.593 458.528 123.366 458.646 123.139C458.958 123.362 459.334 123.471 459.712 123.448C459.879 123.452 460.046 123.437 460.209 123.401C460.734 123.254 461.226 122.999 461.653 122.649C462.817 121.838 463.745 120.714 464.337 119.398C464.441 119.147 464.526 118.887 464.591 118.623C464.507 118.768 464.416 118.914 464.326 119.054C464.547 118.439 464.635 117.782 464.583 117.129C464.532 116.475 464.342 115.841 464.027 115.272C463.587 114.538 462.899 113.943 462.617 113.127C462.143 111.723 463.04 110.272 463.593 108.897C464.127 107.646 464.302 106.262 464.095 104.911C463.984 104.234 463.742 103.587 463.384 103.009C463.025 102.432 462.557 101.935 462.008 101.548C459.791 100.062 456.785 100.878 454.219 100.161C453.302 99.8542 452.407 99.4823 451.54 99.0485C450.222 98.4609 448.847 98.0195 447.439 97.7315C446.046 97.4459 444.36 97.4168 443.491 98.5415C443.249 98.8985 443.034 99.2746 442.848 99.6662C442.568 100.135 442.201 100.541 441.769 100.862C441.336 101.183 440.846 101.412 440.327 101.537C439.815 101.637 439.296 101.694 438.776 101.706C438.822 101.487 438.822 101.26 438.776 101.041C438.122 98.827 439.994 97.1837 442.431 96.193C444.867 95.2024 454.134 87.6617 455.211 85.8727C456.289 84.0837 463.83 78.4719 463.83 78.4719C463.83 78.4719 475.11 75.1736 478.81 63.1575C482.51 51.1415 461.111 71.549 458.957 72.1609C456.802 72.7727 453.717 75.0746 453.717 75.0746L439.994 83.2737C437.378 84.7989 434.901 86.566 432.594 88.5533C429.272 91.5195 427.168 96.5602 427.168 96.5602C427.168 96.5602 425.854 98.7746 423.936 101.98C422.879 103.806 421.451 105.375 419.751 106.577L419.813 106.461C419.661 106.653 414.94 112.813 414.523 115.505C414.105 118.197 412.182 129.17 412.182 129.17C412.182 129.17 410.49 137.789 409.328 139.485C409.328 139.485 408.386 144.432 407.828 145.097C407.27 145.761 405.008 152.771 405.391 153.482C405.391 153.482 403.237 158.336 403.615 160.172L399.729 169.787C399.729 169.787 397.619 174.542 397.76 177.322C397.828 178.668 397.884 180.236 397.924 181.518V182.683C397.715 183.044 397.179 183.965 396.621 185.078C395.82 186.698 394.968 188.72 395.019 189.967C395.109 192.159 395.115 197.508 394.139 199.472L393.851 199.355C393.509 199.941 393.315 200.606 393.287 201.29L393.355 201.325C393.355 201.494 393.304 201.669 393.287 201.855C393.051 204.087 393.395 207.193 392.853 207.875C392.103 208.819 392.475 229.739 392.475 229.739C392.475 229.739 391.257 242.834 393.694 251.132L393.507 257.629C393.507 257.629 393.411 263.754 393.694 264.622C393.976 265.49 394.071 271.691 394.071 271.691L395.476 282.058C395.476 282.058 393.598 298.077 395.194 302.034C396.119 304.217 396.69 306.542 396.886 308.916C397.698 309.378 398.567 309.725 399.469 309.948V310.53L399.102 320.274V320.81C399.102 320.81 399.057 321.066 399.024 321.492V321.731C399.021 321.754 399.021 321.777 399.024 321.801V322.004C399.021 322.057 399.021 322.109 399.024 322.162C399.026 322.208 399.026 322.255 399.024 322.302V324.032C399.024 324.131 399.052 324.225 399.069 324.324C399.066 324.347 399.066 324.37 399.069 324.394C399.069 324.504 399.108 324.609 399.131 324.714C399.131 324.819 399.176 324.924 399.204 325.029C399.207 325.04 399.207 325.052 399.204 325.064C399.204 325.116 399.232 325.175 399.249 325.227C399.246 325.252 399.246 325.278 399.249 325.303C399.249 325.367 399.289 325.431 399.306 325.501V325.548C399.362 325.711 399.418 325.874 399.486 326.037C399.484 326.054 399.484 326.072 399.486 326.09C399.486 326.148 399.537 326.212 399.565 326.27L399.599 326.352L399.672 326.509L399.717 326.596L399.796 326.742L399.847 326.83C399.847 326.876 399.898 326.923 399.926 326.969C399.954 327.016 399.965 327.028 399.982 327.063L400.067 327.197L400.129 327.284L400.219 327.418L400.287 327.506L400.388 327.634L400.456 327.715L400.575 327.855L400.637 327.925L400.828 328.117C400.846 328.14 400.867 328.159 400.89 328.176C400.935 328.223 400.982 328.268 401.031 328.31L401.122 328.385L401.246 328.49L401.353 328.572L401.477 328.665L401.595 328.747L401.72 328.828L401.849 328.904L401.979 328.986L402.114 329.056L402.255 329.126L402.396 329.195L402.537 329.26L402.69 329.324L402.842 329.382L403 329.44L403.169 329.493L403.434 329.574L403.654 329.633L403.829 329.668L404.01 329.708H404.201L404.387 329.737H406.768L407.072 329.708H407.258L407.772 329.65C407.772 329.65 414.162 330.635 414.371 328.024C414.371 327.89 414.371 327.75 414.399 327.605V327.272C414.396 327.232 414.396 327.191 414.399 327.15V326.678V325.92V325.14V324.848V324.015V323.834C414.359 322.541 414.297 321.34 414.258 320.67C414.258 320.315 414.224 320.087 414.224 320.087C414.224 320.087 412.047 316.696 412.402 315.425C412.757 314.155 412.679 309.843 412.679 309.843C412.679 309.843 411.832 307.774 411.263 305.944C411.218 305.804 411.178 305.664 411.139 305.53C411.611 304.972 412.056 304.388 412.47 303.782C413.279 299.29 412.724 294.649 410.879 290.496C410.773 290.419 410.686 290.317 410.626 290.199C410.566 290.08 410.535 289.948 410.535 289.814C410.532 289.791 410.532 289.767 410.535 289.744L411.624 275.986L410.964 267.979C410.964 267.979 410.496 262.507 411.528 260.153L413.587 239.425L416.508 227.368C416.508 227.368 417.445 226.896 418.2 229.162C418.956 231.429 420.817 241.691 420.817 241.691L425.33 258.655C425.33 258.655 426.08 264.686 426.734 265.537C427.388 266.388 427.394 270.152 427.394 270.152C427.394 270.152 428.798 273.171 428.612 274.488C428.426 275.805 428.612 279.389 429.075 280.613C429.537 281.836 429.735 290.519 429.735 290.519C429.196 293.359 429.259 296.285 429.921 299.097C431.049 303.433 430.389 308.899 430.389 308.899C430.508 309.088 430.636 309.271 430.772 309.446C430.727 309.575 430.676 309.703 430.631 309.819C430.338 310.606 430.107 311.16 430.107 311.16C430.107 311.16 430.039 315.472 430.389 316.742C430.739 318.013 428.561 321.404 428.561 321.404C428.561 321.404 428.561 321.614 428.528 321.987C428.488 322.657 428.426 323.852 428.387 325.151V328.473C428.384 328.51 428.384 328.547 428.387 328.584V328.922C428.387 329.032 428.387 329.207 428.415 329.341C428.629 331.952 435.019 330.967 435.019 330.967L435.533 331.031H438.387L438.578 330.996L438.765 330.967L438.945 330.926L439.126 330.891L439.345 330.833L439.611 330.751L439.774 330.699L439.932 330.641C439.984 330.625 440.035 330.605 440.084 330.582L440.237 330.518L440.383 330.454L440.524 330.39L440.665 330.314L440.795 330.244L440.93 330.169L441.055 330.087L441.184 330.005L441.297 329.924L441.421 329.831C441.459 329.807 441.495 329.78 441.528 329.749C441.572 329.719 441.613 329.686 441.652 329.65L441.748 329.568L441.889 329.44L441.951 329.376L442.143 329.184L442.199 329.114L442.324 328.98L442.386 328.892C442.424 328.852 442.46 328.81 442.493 328.764L442.555 328.677L442.651 328.543L442.707 328.455L442.797 328.321C442.814 328.289 442.833 328.258 442.854 328.228C442.854 328.182 442.904 328.135 442.933 328.088L442.983 328.001C442.983 327.948 443.034 327.902 443.057 327.855C443.074 327.827 443.089 327.798 443.102 327.768C443.102 327.715 443.153 327.663 443.175 327.61L443.215 327.529C443.215 327.471 443.265 327.412 443.294 327.348V327.296C443.356 327.133 443.418 326.969 443.468 326.806V326.76C443.468 326.696 443.508 326.631 443.531 326.567C443.528 326.54 443.528 326.513 443.531 326.486C443.531 326.433 443.531 326.375 443.576 326.323V326.293C443.578 326.282 443.578 326.27 443.576 326.258C443.576 326.154 443.632 326.049 443.655 325.95C443.655 325.845 443.7 325.74 443.717 325.635V325.559C443.717 325.46 443.751 325.367 443.762 325.274C443.773 325.18 443.762 325.21 443.762 325.175V324.982V324.837V324.743V324.417V323.397C443.759 323.345 443.759 323.292 443.762 323.24V323.036C443.759 323.013 443.759 322.989 443.762 322.966V322.733C443.728 322.308 443.688 322.051 443.688 322.051V321.521L443.333 312.092V311.509C443.858 311.206 444.393 310.863 444.952 310.46C444.952 310.46 444.856 305.088 446.356 302.926C447.857 300.764 445.606 295.099 445.606 295.099L444.67 274.838L445.042 265.514C444.299 264.131 443.911 262.574 443.914 260.992C443.766 258.97 443.257 256.995 442.414 255.164C442.414 255.164 441.478 251.959 442.606 251.015C443.734 250.071 441.387 229.454 441.387 229.454C441.387 229.454 441.951 214.39 440.88 205.445V205.299L441.179 205.159C441.088 204.443 440.992 203.773 440.885 203.149L440.569 203.248C440.437 202.458 440.248 201.679 440.005 200.917L438.505 193.802C438.505 193.802 438.471 193.429 438.432 192.887C438.381 192.246 438.325 191.378 438.313 190.614C438.309 190.293 438.343 189.972 438.415 189.659L438.336 189.589C438.343 189.421 438.37 189.255 438.415 189.093L438.088 188.808C438.088 188.808 438.043 188.487 438.009 187.998C437.935 186.914 437.896 185.026 438.415 183.959C439.165 182.403 446.875 176.512 446.875 176.512L451.196 167.579C451.196 167.579 455.505 161.308 458.782 160.085C462.059 158.861 472.267 151.845 472.267 151.845C472.267 151.845 475.826 148.074 476.108 147.183L476.227 146.996H476.295V146.874L485.883 132.031C489.718 128.826 489.859 121.997 489.859 121.997L490.858 106.391L490.531 97.1604L490.993 91.9157C490.993 91.9157 499.42 69.76 491.371 70.0863ZM436.446 110.47C435.405 112.355 434.856 114.488 434.856 116.659V117.224C434.856 119.163 435.295 121.074 436.136 122.807C435.71 123.3 435.393 123.882 435.206 124.514C434.732 123.896 433.344 122.008 433.265 120.755C433.169 119.252 431.765 118.215 431.765 118.215C431.765 118.215 431.506 115.359 431.855 114.87L431.906 114.823C431.906 114.823 431.946 114.753 432.024 114.637C432.425 114.013 433.773 111.91 435.166 109.514C435.398 109.617 435.637 109.699 435.882 109.759L436.74 109.981L436.446 110.47Z" fill="url(#paint0_linear)"/>
<path d="M463.768 108.897C463.852 108.699 463.92 108.489 463.988 108.279C463.772 108.743 463.584 109.22 463.424 109.707C463.542 109.433 463.66 109.165 463.768 108.897Z" fill="url(#paint1_linear)"/>
<path d="M438.951 122.754C438.951 122.754 437.185 131.449 433.931 132.573C430.676 133.698 437.879 143.645 437.879 143.645L452.809 142.8L453.079 139.578C453.079 139.578 450.259 133.127 454.98 125.277C459.701 117.428 438.951 122.754 438.951 122.754Z" fill="#F6BAC2"/>
<path d="M415.538 328.036C415.335 330.629 409.159 329.65 409.159 329.65C398.916 331.118 400.608 320.746 400.608 320.746V320.215L400.964 310.542L401.065 307.844C401.065 307.844 412.346 302.518 412.058 303.636C411.951 304.056 412.188 305.064 412.515 306.154C413.079 307.966 413.885 310.017 413.885 310.017C413.885 310.017 413.953 314.295 413.615 315.553C413.276 316.812 415.38 320.18 415.38 320.18C415.38 320.18 415.38 320.39 415.414 320.763C415.581 323.183 415.622 325.611 415.538 328.036ZM435.284 330.839C435.284 330.839 429.108 331.824 428.905 329.225C428.811 326.794 428.847 324.361 429.012 321.934C429.012 321.585 429.041 321.352 429.041 321.352C429.041 321.352 431.144 317.984 430.806 316.725C430.468 315.466 430.535 311.183 430.535 311.183C430.535 311.183 430.755 310.641 431.043 309.86C431.646 308.223 432.555 305.565 432.368 304.808C432.098 303.683 443.361 309.009 443.361 309.009L443.474 312.028L443.818 321.381V321.911C443.818 321.911 445.533 332.313 435.284 330.839Z" fill="#B77983"/>
<path d="M477.626 65.2204C474.039 77.1374 463.153 80.4124 463.153 80.4124C463.153 80.4124 455.866 85.995 454.828 87.7432C453.79 89.4915 444.833 96.9971 442.476 97.982C440.118 98.9668 438.319 100.598 438.951 102.79C439.515 104.823 433.344 114.777 432.414 116.257L432.301 116.443L430.355 118.547L423.75 122.002L418.369 120.225L417.687 113.547L420.541 108.302C422.192 107.1 423.571 105.544 424.585 103.739C426.441 100.558 427.71 98.3666 427.71 98.3666C427.71 98.3666 429.746 93.3667 432.955 90.418C435.175 88.4458 437.568 86.6901 440.101 85.1734L453.361 77.015C453.361 77.015 456.345 74.7248 458.438 74.1013C460.53 73.4778 481.202 53.3033 477.626 65.2204Z" fill="#F6BAC2"/>
<path opacity="0.05" d="M423.75 117.708L432.572 115.884C432.476 115.986 432.42 116.121 432.414 116.262L432.301 116.449L430.355 118.553L423.75 122.008L418.369 120.231L417.687 113.553L420.541 108.308C417.839 114.135 420.473 118.273 420.473 118.273L423.75 117.708ZM475.336 147.812C475.312 147.873 475.291 147.935 475.274 147.998C475.19 148.207 475.08 148.403 474.947 148.581L471.388 150.376L465.956 150.959L463.136 143.902L465.014 136.169L466.052 134.724L466.34 134.397C466.447 135.796 466.994 143.092 466.96 145.283C466.915 147.713 468.652 147.905 468.652 147.905L475.336 147.812Z" fill="black"/>
<path d="M475.065 148.348C475.041 148.409 475.02 148.471 475.003 148.534C474.732 149.42 471.297 153.161 471.297 153.161C471.297 153.161 461.433 160.125 458.268 161.32C455.104 162.514 450.936 168.75 450.936 168.75L446.774 177.625C446.774 177.625 439.312 183.452 438.59 185.014C438.088 186.075 438.127 187.928 438.2 189.023C438.2 189.507 438.268 189.827 438.268 189.827L436.068 192.199L434.314 194.087L431.844 196.744L427.822 196.162L415.29 194.105L412.887 192.706L399.548 184.944C399.548 184.944 399.548 184.46 399.514 183.72C399.514 183.394 399.514 183.021 399.48 182.607C399.441 181.349 399.384 179.781 399.322 178.446C399.187 175.69 401.223 170.97 401.223 170.97L404.974 161.431C404.613 159.612 406.694 154.793 406.694 154.793C406.333 154.094 408.505 147.13 409.046 146.477C409.588 145.825 410.496 140.912 410.496 140.912C411.624 139.234 413.254 130.679 413.254 130.679C413.254 130.679 415.109 119.835 415.51 117.125C415.91 114.415 420.473 108.343 420.62 108.156C417.365 114.322 420.214 118.809 420.214 118.809L423.474 118.226L432.301 116.449C431.895 116.729 432.165 119.811 432.165 119.811C432.947 120.425 433.465 121.331 433.609 122.335C433.694 123.704 435.301 125.831 435.6 126.21L435.645 126.262C435.759 125.612 436.008 124.994 436.375 124.453C436.742 123.912 437.219 123.459 437.772 123.127L439.808 125.936L440.49 129.298C440.49 129.298 440.304 129.77 439.131 130.703C437.958 131.635 439.627 134.065 439.627 134.065C440.191 135.05 440.355 138.692 440.355 138.692C441.85 137.34 444.196 137.34 444.196 137.34C445.151 136.349 445.932 135.194 446.503 133.925C446.55 133.718 446.643 133.524 446.774 133.359C446.904 133.193 447.069 133.061 447.257 132.971C447.444 132.881 447.649 132.837 447.855 132.84C448.062 132.844 448.265 132.896 448.449 132.993C449.13 132.382 449.873 131.848 450.665 131.402C451.754 130.819 453.017 131.985 453.017 131.985L453.153 136.291C453.153 136.291 453.26 136.466 453.435 136.705C453.79 137.218 454.427 138.004 454.828 137.87C455.392 137.684 459.938 138.15 459.938 138.15C459.938 138.15 461.523 138.849 462.109 137.964C462.696 137.078 466.058 134.741 466.058 134.741C466.058 134.741 466.706 143.418 466.706 145.842C466.706 148.266 468.398 148.465 468.398 148.465L475.065 148.348Z" fill="#D39999"/>
<path d="M438.048 143.505C438.497 143.505 438.86 143.13 438.86 142.666C438.86 142.203 438.497 141.827 438.048 141.827C437.599 141.827 437.236 142.203 437.236 142.666C437.236 143.13 437.599 143.505 438.048 143.505Z" fill="#4B4442"/>
<path d="M432.12 155.708C432.569 155.708 432.932 155.332 432.932 154.869C432.932 154.406 432.569 154.03 432.12 154.03C431.672 154.03 431.308 154.406 431.308 154.869C431.308 155.332 431.672 155.708 432.12 155.708Z" fill="#4B4442"/>
<path d="M420.451 181.832C420.899 181.832 421.263 181.457 421.263 180.993C421.263 180.53 420.899 180.154 420.451 180.154C420.002 180.154 419.638 180.53 419.638 180.993C419.638 181.457 420.002 181.832 420.451 181.832Z" fill="#4B4442"/>
<path d="M425.967 168.651C426.415 168.651 426.779 168.275 426.779 167.811C426.779 167.348 426.415 166.972 425.967 166.972C425.518 166.972 425.155 167.348 425.155 167.811C425.155 168.275 425.518 168.651 425.967 168.651Z" fill="#4B4442"/>
<path opacity="0.05" d="M412.56 306.154C408.319 311.364 403.739 311.276 401.009 310.542L401.11 307.844C401.11 307.844 412.391 302.518 412.103 303.636C411.996 304.056 412.21 305.064 412.56 306.154ZM443.474 312.051C436.271 316.352 432.047 311.311 431.066 309.883C431.669 308.246 432.577 305.589 432.391 304.831C432.12 303.706 443.384 309.033 443.384 309.033L443.474 312.051Z" fill="black"/>
<path d="M446.367 302.984C444.923 305.134 445.008 310.46 445.008 310.46C435.69 317.377 430.806 308.963 430.806 308.963C430.806 308.963 431.438 303.543 430.355 299.243C429.713 296.452 429.651 293.552 430.174 290.735C430.174 290.735 429.994 282.133 429.537 280.921C429.08 279.709 428.905 276.154 429.086 274.843C429.266 273.532 427.913 270.549 427.913 270.549C427.913 270.549 427.913 266.807 427.275 265.968C426.638 265.129 425.922 259.138 425.922 259.138L421.584 242.315C421.584 242.315 419.774 232.129 419.052 229.885C418.33 227.641 417.422 228.108 417.422 228.108L414.816 240.164L412.825 260.729C411.827 263.06 412.261 268.491 412.261 268.491L412.893 276.434L411.844 290.082C411.841 290.105 411.841 290.129 411.844 290.152C411.843 290.283 411.872 290.413 411.929 290.53C411.986 290.648 412.068 290.75 412.171 290.828C413.95 294.963 414.479 299.558 413.688 304.009C406.812 314.295 398.487 308.963 398.487 308.963C398.306 306.614 397.757 304.312 396.863 302.145C395.323 298.217 397.134 282.331 397.134 282.331L395.775 272.046C395.775 272.046 395.684 265.875 395.414 265.053C395.143 264.232 395.233 258.136 395.233 258.136L395.414 251.685C393.062 243.457 394.235 230.468 394.235 230.468C394.235 230.468 393.874 209.716 394.601 208.778C395.126 208.102 394.793 205.025 395.019 202.805C395.043 202.131 395.225 201.473 395.549 200.888L395.639 200.795C396.818 199.297 396.818 193.318 396.722 190.975C396.677 189.74 397.495 187.735 398.273 186.127C398.837 184.997 399.35 184.064 399.542 183.726L399.621 183.592C399.621 183.592 404.776 184.903 418.437 191.634C420.883 192.885 423.507 193.725 426.209 194.122C427.554 194.308 428.915 194.329 430.264 194.186C432.324 193.982 434.314 193.313 436.096 192.228C437.039 191.673 437.89 190.967 438.618 190.136C438.432 190.719 438.544 192.712 438.618 193.901C438.651 194.443 438.691 194.81 438.691 194.81L440.197 201.745C440.442 202.567 440.631 203.406 440.761 204.256C440.868 204.874 440.958 205.544 441.043 206.255C442.098 215.124 441.534 230.071 441.534 230.071C441.534 230.071 443.79 250.543 442.712 251.475C441.635 252.408 442.526 255.59 442.526 255.59C443.345 257.414 443.836 259.376 443.976 261.382C443.968 262.948 444.343 264.492 445.064 265.869L444.698 275.123L445.645 295.198C445.645 295.198 447.817 300.833 446.367 302.984Z" fill="#8499F0"/>
<path opacity="0.05" d="M435.758 269.144C435.758 269.144 442.611 265.065 444.106 266.901C445.6 268.736 435.758 269.144 435.758 269.144ZM439.898 271.388C439.898 271.388 438.77 271.97 441.257 272.716C443.745 273.462 439.898 271.388 439.898 271.388ZM398.459 260.17C398.228 260.24 404.162 264.307 409.52 260.939C409.497 260.939 399.796 259.75 398.459 260.17ZM409.227 267.95C409.227 267.95 407.602 271.248 404.275 271.737C400.947 272.227 409.227 267.95 409.227 267.95ZM431.009 275.106C431.009 275.106 438.815 287.926 437.321 290.95C435.826 293.975 431.009 275.106 431.009 275.106ZM417.845 197.351L417.033 222.449C417.033 222.449 421.849 222.239 422.673 213.97C423.496 205.701 424.1 198.965 424.1 198.965L417.845 197.351Z" fill="black"/>
<path d="M417.574 196.791L416.762 221.89C416.762 221.89 421.578 221.68 422.402 213.405C423.225 205.13 423.84 198.405 423.84 198.405L417.574 196.791Z" fill="#8499F0"/>
<path opacity="0.05" d="M407.805 197.916C407.805 197.916 404.004 208.446 395.307 203.347C395.33 202.673 395.512 202.015 395.837 201.43C398.217 202.461 403.733 203.971 405.989 197.141L407.805 197.916Z" fill="black"/>
<path opacity="0.05" d="M407.534 196.791C407.534 196.791 403.733 207.321 395.036 202.222C395.06 201.548 395.242 200.89 395.566 200.305C397.946 201.342 403.462 202.846 405.718 196.022L407.534 196.791Z" fill="black"/>
<path d="M407.534 197.351C407.534 197.351 403.733 207.881 395.036 202.782C395.06 202.108 395.242 201.45 395.566 200.865C397.946 201.902 403.462 203.405 405.718 196.581L407.534 197.351Z" fill="#8499F0"/>
<path opacity="0.05" d="M440.812 206.814C431.257 211.511 427.755 200.439 427.755 200.439L430.011 200.509C430.406 207.589 437.958 205.684 440.547 204.816C440.637 205.457 440.727 206.103 440.812 206.814Z" fill="black"/>
<path opacity="0.05" d="M441.353 205.975C431.804 210.666 428.296 199.594 428.296 199.594L430.552 199.664C430.947 206.744 438.499 204.845 441.088 203.976C441.178 204.594 441.269 205.264 441.353 205.975Z" fill="black"/>
<path d="M441.083 206.255C431.534 210.946 428.025 199.874 428.025 199.874L430.281 199.944C430.676 207.03 438.229 205.124 440.817 204.256C440.908 204.874 440.998 205.544 441.083 206.255Z" fill="#8499F0"/>
<path opacity="0.1" d="M407.534 197.351C407.534 197.351 403.733 207.881 395.036 202.782C395.06 202.108 395.242 201.45 395.566 200.865C397.946 201.902 403.462 203.405 405.718 196.581L407.534 197.351ZM441.082 206.255C431.534 210.946 428.025 199.874 428.025 199.874L430.281 199.944C430.676 207.03 438.228 205.124 440.817 204.256C440.908 204.874 440.998 205.544 441.082 206.255Z" fill="white"/>
<path opacity="0.05" d="M415.606 326.084C415.606 326.8 415.606 327.47 415.538 328.024C415.335 330.617 409.159 329.638 409.159 329.638C403.519 330.448 401.488 327.651 400.817 324.976C400.606 324.107 400.502 323.215 400.507 322.319C400.503 321.785 400.537 321.251 400.608 320.722V320.192C401.207 320.006 401.841 319.976 402.453 320.105C403.065 320.234 403.637 320.518 404.117 320.932C406.626 323.036 409.954 321.422 409.954 321.422C409.954 321.422 412.396 321.631 413.338 322.471C413.869 322.943 414.743 321.806 415.408 320.722C415.448 321.422 415.51 322.686 415.549 324.038C415.594 324.732 415.606 325.431 415.606 326.084Z" fill="black"/>
<path opacity="0.05" d="M405.701 325.932C405.701 325.932 404.009 327.645 400.817 325C400.606 324.131 400.502 323.238 400.507 322.342C402.137 323.624 405.16 325.932 405.701 325.932ZM415.606 326.084C415.468 326.193 415.31 326.273 415.141 326.317C414.973 326.361 414.797 326.37 414.626 326.341C414.454 326.313 414.29 326.248 414.143 326.152C413.996 326.056 413.87 325.929 413.773 325.781C414.431 325.263 415.035 324.677 415.577 324.032C415.594 324.732 415.606 325.431 415.606 326.084ZM428.843 327.284C428.843 328.007 428.843 328.677 428.905 329.225C429.108 331.824 435.284 330.839 435.284 330.839C440.925 331.655 442.955 328.857 443.626 326.177C443.959 324.786 444.03 323.342 443.835 321.923V321.393C443.235 321.209 442.601 321.181 441.989 321.31C441.376 321.439 440.803 321.721 440.321 322.133C437.811 324.236 434.489 322.622 434.489 322.622C434.489 322.622 432.047 322.838 431.105 323.677C430.575 324.149 429.701 323.013 429.041 321.929C429.001 322.628 428.933 323.892 428.894 325.244C428.849 325.926 428.838 326.626 428.843 327.284Z" fill="black"/>
<path opacity="0.05" d="M438.748 327.121C438.748 327.121 440.44 328.834 443.626 326.189C443.839 325.322 443.945 324.431 443.942 323.537C442.307 324.813 439.283 327.121 438.748 327.121ZM428.843 327.284C428.981 327.394 429.138 327.473 429.306 327.517C429.474 327.562 429.649 327.57 429.821 327.541C429.992 327.513 430.156 327.449 430.302 327.352C430.448 327.256 430.574 327.13 430.671 326.981C430.012 326.465 429.407 325.879 428.866 325.233C428.849 325.926 428.838 326.626 428.843 327.284ZM421.398 148.348C421.398 148.348 412.712 173.12 416.057 175.271C419.402 177.421 421.398 148.348 421.398 148.348ZM427.732 140.703C427.732 140.703 426.097 148.931 426.914 149.677C427.732 150.423 427.732 140.703 427.732 140.703ZM445.273 159.869C445.273 159.869 434.596 170.148 435.318 170.993C436.04 171.838 445.273 159.869 445.273 159.869ZM453.435 137.241C449.391 138.517 439.938 141.501 439.83 141.478L440.355 139.252C441.85 137.9 444.196 137.9 444.196 137.9C445.151 136.909 445.932 135.753 446.503 134.485C446.55 134.277 446.643 134.083 446.774 133.918C446.904 133.753 447.069 133.62 447.257 133.531C447.444 133.441 447.649 133.396 447.855 133.4C448.062 133.404 448.265 133.456 448.449 133.552C449.132 132.943 449.874 132.41 450.665 131.962C451.754 131.379 453.017 132.544 453.017 132.544L453.153 136.845C453.153 136.845 453.26 137.002 453.435 137.241Z" fill="black"/>
<path d="M453.435 136.693C449.391 137.969 439.938 140.953 439.831 140.924L440.355 138.704C441.85 137.352 444.196 137.352 444.196 137.352C445.152 136.361 445.932 135.205 446.503 133.937C446.551 133.729 446.643 133.536 446.774 133.37C446.904 133.205 447.07 133.072 447.257 132.983C447.444 132.893 447.649 132.848 447.855 132.852C448.062 132.856 448.265 132.908 448.449 133.004C449.13 132.393 449.873 131.86 450.665 131.414C451.754 130.831 453.017 131.996 453.017 131.996L453.153 136.303C453.153 136.303 453.26 136.443 453.435 136.693Z" fill="#D39999"/>
<path opacity="0.05" d="M439.357 134.362C439.921 135.347 440.079 138.989 440.079 138.989L438.505 140.283L435.516 131.379L435.38 126.752L435.324 126.49L435.369 126.542C435.482 125.892 435.731 125.275 436.098 124.735C436.465 124.194 436.942 123.743 437.495 123.413L439.532 126.216L440.214 129.578C440.214 129.578 440.028 130.05 438.855 130.983C437.682 131.915 439.357 134.362 439.357 134.362Z" fill="black"/>
<path d="M439.633 134.065C440.197 135.05 440.361 138.692 440.361 138.692L438.787 140.003L435.798 131.099L435.662 126.472L435.6 126.21L435.645 126.262C435.759 125.612 436.008 124.994 436.375 124.453C436.742 123.912 437.219 123.459 437.772 123.127L439.808 125.936L440.49 129.298C440.49 129.298 440.304 129.77 439.131 130.703C437.958 131.635 439.633 134.065 439.633 134.065Z" fill="#D39999"/>
<path opacity="0.05" d="M459.577 118.832C459.576 121.327 458.859 123.766 457.516 125.84C456.174 127.914 454.266 129.53 452.035 130.484C449.804 131.438 447.349 131.687 444.98 131.2C442.612 130.712 440.437 129.51 438.729 127.746C437.022 125.981 435.86 123.733 435.389 121.286C434.918 118.839 435.16 116.302 436.085 113.997C437.009 111.692 438.574 109.722 440.582 108.336C442.59 106.95 444.951 106.21 447.366 106.21C448.974 106.196 450.568 106.513 452.056 107.143C453.544 107.772 454.896 108.701 456.033 109.876C457.169 111.051 458.068 112.448 458.677 113.986C459.285 115.524 459.591 117.171 459.577 118.832Z" fill="black"/>
<path d="M459.577 118.267C459.578 120.764 458.862 123.205 457.52 125.282C456.179 127.358 454.271 128.977 452.038 129.933C449.805 130.889 447.349 131.14 444.978 130.653C442.608 130.166 440.431 128.964 438.722 127.198C437.013 125.433 435.849 123.183 435.378 120.734C434.907 118.285 435.149 115.747 436.075 113.44C437 111.133 438.567 109.162 440.577 107.776C442.586 106.389 444.949 105.65 447.366 105.651C448.972 105.642 450.564 105.962 452.049 106.592C453.535 107.223 454.885 108.152 456.02 109.325C457.156 110.499 458.055 111.893 458.666 113.428C459.276 114.963 459.586 116.608 459.577 118.267Z" fill="#F6BAC2"/>
<path opacity="0.05" d="M459.577 118.267C459.581 120.58 458.966 122.849 457.8 124.823C457.62 124.491 457.512 124.106 457.332 123.768C457.078 123.296 456.492 122.9 456.057 123.185C455.875 123.339 455.737 123.54 455.657 123.768C455.301 124.543 454.67 125.318 453.841 125.301C453.48 125.261 453.14 125.109 452.864 124.866C452.588 124.623 452.39 124.299 452.295 123.937C452.121 123.209 452.09 122.452 452.205 121.711C452.329 120.196 452.352 118.448 451.263 117.428C450.56 116.897 449.757 116.526 448.905 116.338C448.076 116.059 447.213 115.616 446.875 114.788C446.649 114.205 446.706 113.588 446.503 113.04C446.293 112.601 445.984 112.221 445.602 111.931C445.22 111.641 444.777 111.449 444.309 111.373C443.231 112.293 441.865 112.776 440.468 112.731C439.187 112.7 437.916 112.492 436.689 112.113C438.005 109.673 440.069 107.752 442.555 106.653C445.042 105.554 447.811 105.339 450.429 106.041C453.046 106.742 455.365 108.322 457.02 110.531C458.676 112.741 459.575 115.455 459.577 118.25V118.267Z" fill="black"/>
<path d="M446.503 112.492C446.706 113.075 446.65 113.704 446.875 114.24C447.208 115.068 448.077 115.511 448.906 115.79C449.756 115.977 450.56 116.346 451.263 116.874C452.352 117.9 452.329 119.648 452.205 121.163C452.091 121.904 452.121 122.661 452.295 123.389C452.391 123.75 452.59 124.073 452.866 124.316C453.141 124.559 453.481 124.711 453.841 124.753C454.67 124.753 455.302 123.995 455.657 123.22C455.738 122.993 455.876 122.791 456.057 122.638C456.492 122.34 457.078 122.737 457.332 123.22C457.51 123.725 457.755 124.202 458.06 124.636C458.261 124.815 458.501 124.941 458.759 125.002C459.018 125.063 459.287 125.057 459.543 124.986C460.053 124.842 460.528 124.588 460.936 124.24C462.067 123.427 462.963 122.314 463.531 121.018C463.807 120.37 463.936 119.666 463.908 118.958C463.88 118.251 463.695 117.56 463.367 116.938C462.944 116.204 462.273 115.616 462.008 114.806C461.545 113.413 462.414 111.979 462.95 110.616C463.463 109.369 463.629 107.998 463.429 106.659C463.325 105.992 463.094 105.353 462.748 104.78C462.402 104.206 461.949 103.71 461.416 103.32C459.272 101.845 456.373 102.655 453.892 101.944C453.004 101.643 452.138 101.275 451.303 100.843C450.036 100.262 448.712 99.8242 447.355 99.5378C446.007 99.2581 444.377 99.2231 443.525 100.336C443.292 100.693 443.085 101.067 442.904 101.455C442.638 101.916 442.286 102.318 441.867 102.636C441.449 102.954 440.973 103.183 440.468 103.308C439.74 103.489 438.979 103.442 438.212 103.553C437.838 103.58 437.474 103.694 437.149 103.887C436.824 104.079 436.545 104.346 436.334 104.666C435.961 105.365 436.119 106.216 436.21 106.997C436.3 107.778 436.255 108.71 435.646 109.194C435.358 109.421 434.963 109.532 434.788 109.852C434.708 110.04 434.69 110.25 434.738 110.45C434.786 110.649 434.897 110.826 435.053 110.954C435.37 111.202 435.739 111.369 436.131 111.443C437.533 111.896 438.988 112.152 440.457 112.207C441.941 112.256 443.385 111.707 444.484 110.674C444.388 110.773 443.767 110.732 443.655 110.726C444.749 110.849 446.091 111.35 446.503 112.492Z" fill="#7E646B"/>
<g opacity="0.05">
<path opacity="0.05" d="M461.63 122.824C461.221 123.171 460.746 123.427 460.237 123.576C459.981 123.644 459.713 123.648 459.456 123.586C459.198 123.524 458.959 123.399 458.759 123.22C458.451 122.787 458.204 122.31 458.026 121.804C457.772 121.332 457.186 120.936 456.751 121.222C456.572 121.378 456.434 121.578 456.351 121.804C456.001 122.579 455.364 123.354 454.535 123.337C454.175 123.297 453.834 123.146 453.559 122.903C453.285 122.659 453.088 122.335 452.995 121.973C452.819 121.245 452.786 120.488 452.899 119.747C453.029 118.232 453.046 116.49 451.963 115.464C451.258 114.933 450.453 114.562 449.599 114.374C448.776 114.095 447.907 113.652 447.569 112.824C447.343 112.242 447.4 111.624 447.197 111.076C446.864 110.15 445.922 109.643 445.003 109.409C443.921 110.323 442.558 110.807 441.162 110.773C439.693 110.714 438.239 110.455 436.836 110.004C436.446 109.929 436.077 109.764 435.758 109.52C435.693 109.457 435.634 109.387 435.583 109.31C435.334 109.421 435.117 109.595 434.952 109.817C434.871 110.005 434.854 110.216 434.902 110.415C434.95 110.614 435.061 110.792 435.217 110.919C435.534 111.167 435.903 111.334 436.294 111.408C437.697 111.861 439.152 112.118 440.62 112.172C442.015 112.21 443.377 111.728 444.456 110.814C445.375 111.047 446.322 111.548 446.655 112.475C446.858 113.057 446.802 113.687 447.027 114.223C447.366 115.05 448.229 115.493 449.058 115.773C449.909 115.96 450.712 116.329 451.416 116.857C452.504 117.882 452.482 119.631 452.358 121.146C452.243 121.887 452.274 122.644 452.448 123.372C452.544 123.733 452.742 124.056 453.018 124.299C453.293 124.542 453.633 124.694 453.993 124.736C454.822 124.736 455.454 123.978 455.809 123.203C455.89 122.975 456.028 122.774 456.21 122.62C456.644 122.323 457.231 122.719 457.484 123.203C457.662 123.709 457.909 124.186 458.218 124.619C458.417 124.798 458.657 124.923 458.914 124.984C459.172 125.045 459.44 125.04 459.695 124.969C460.206 124.825 460.68 124.57 461.089 124.223C462.219 123.41 463.115 122.296 463.683 121C463.783 120.751 463.864 120.494 463.926 120.231C463.348 121.255 462.565 122.139 461.63 122.824ZM462.758 111.391C462.877 111.123 462.989 110.855 463.096 110.592C463.204 110.33 463.243 110.185 463.305 109.975C463.098 110.436 462.915 110.909 462.758 111.391ZM436.384 107.725C436.948 107.23 436.988 106.344 436.898 105.581C436.831 105.135 436.795 104.686 436.79 104.235C436.67 104.356 436.566 104.493 436.48 104.643C436.108 105.342 436.266 106.193 436.356 106.974C436.386 107.223 436.395 107.474 436.384 107.725Z" fill="black"/>
</g>
<path opacity="0.05" d="M438.607 194.478C437.558 194.553 436.086 194.635 434.314 194.699C433.085 194.74 431.709 194.769 430.237 194.769C428.951 194.769 427.591 194.769 426.181 194.705C421.721 194.586 417.277 194.113 412.887 193.289C407.027 192.123 401.607 190.113 398.223 186.71C398.787 185.579 399.3 184.641 399.492 184.309C399.492 183.983 399.492 183.604 399.458 183.196C405.408 186.109 423.959 194.204 438.178 189.606C438.178 190.09 438.246 190.41 438.246 190.41L438.567 190.69C438.404 191.296 438.505 193.289 438.607 194.478Z" fill="black"/>
<path d="M438.607 193.918C437.558 193.994 436.086 194.076 434.314 194.134C433.085 194.181 431.709 194.204 430.237 194.204C428.951 194.204 427.591 194.204 426.181 194.14C421.721 194.023 417.277 193.551 412.887 192.729C407.027 191.564 401.607 189.548 398.223 186.145C398.787 185.014 399.3 184.082 399.492 183.744C399.492 183.417 399.492 183.044 399.458 182.631C405.408 185.544 423.959 193.644 438.178 189.07C438.178 189.554 438.246 189.874 438.246 189.874L438.567 190.154C438.404 190.737 438.505 192.729 438.607 193.918Z" fill="#4B4442"/>
<path d="M157.097 448.966C156.421 448.125 155.918 447.149 155.621 446.1C155.323 445.051 155.236 443.95 155.366 442.864L180.262 232.397L182.326 214.914C182.557 212.97 183.465 211.178 184.881 209.874C186.297 208.571 188.123 207.843 190.019 207.828L262.942 207.327C263.98 207.321 265.007 207.1 265.961 206.678C266.916 206.256 267.78 205.641 268.502 204.87C269.223 204.099 269.789 203.186 270.165 202.186C270.541 201.186 270.72 200.119 270.691 199.046L270.663 198.248C270.628 197.167 270.803 196.089 271.179 195.079C271.555 194.069 272.124 193.147 272.852 192.369C273.579 191.591 274.451 190.972 275.416 190.55C276.38 190.127 277.416 189.909 278.464 189.909H355.092C357.158 189.909 359.139 190.756 360.601 192.263C362.064 193.771 362.888 195.816 362.892 197.951C362.892 198.313 362.869 198.675 362.824 199.035C362.679 200.156 362.764 201.297 363.074 202.382C363.383 203.468 363.911 204.474 364.622 205.334C365.332 206.195 366.211 206.892 367.199 207.379C368.188 207.866 369.265 208.132 370.36 208.16L443.953 210.101C445.072 210.129 446.172 210.407 447.179 210.913C448.185 211.42 449.073 212.145 449.784 213.039C450.495 213.932 451.011 214.974 451.297 216.092C451.584 217.21 451.634 218.378 451.444 219.518L414.652 441.542L413.959 445.737C413.787 446.809 413.403 447.833 412.831 448.744L157.097 448.966Z" fill="#B7B6CC"/>
<path opacity="0.5" d="M294.292 269.627L378.555 143.615L415.846 170.233L331.583 296.245L294.292 269.627Z" fill="url(#paint2_linear)"/>
<path d="M379.185 145.32L414.638 170.626L331.503 294.95L296.05 269.644L379.185 145.32Z" fill="#F9FAFB"/>
<path d="M381.739 151.21L406.719 169.15L389.355 194.958L364.375 177.018L381.739 151.21Z" fill="#F7B643"/>
<path opacity="0.5" d="M362.171 182.311L387.234 200.201L369.919 226.097L344.856 208.206L362.171 182.311Z" fill="#F7B643"/>
<path opacity="0.3" d="M341.26 213.575L366.323 231.465L349.008 257.359L323.945 239.469L341.26 213.575Z" fill="#F7B643"/>
<path opacity="0.5" d="M286.517 282.577L327.944 136.113L371.449 149.248L330.022 295.712L286.517 282.577Z" fill="url(#paint3_linear)"/>
<path d="M329.095 137.532L370.456 150.021L329.587 294.517L288.225 282.028L329.095 137.532Z" fill="#F9FAFB"/>
<path d="M334.525 141.704L363.765 150.532L355.22 180.742L325.98 171.914L334.525 141.704Z" fill="#F97878"/>
<path opacity="0.5" d="M324.208 178.176L353.448 187.004L344.903 217.214L315.663 208.386L324.208 178.176Z" fill="#F97878"/>
<path opacity="0.3" d="M313.892 214.642L343.132 223.471L334.587 253.68L305.347 244.852L313.892 214.642Z" fill="#F97878"/>
<path opacity="0.5" d="M286.594 290.757L298.439 138.659L343.617 142.414L331.773 294.513L286.594 290.757Z" fill="url(#paint4_linear)"/>
<path d="M299.796 139.811L342.748 143.382L331.064 293.436L288.111 289.866L299.796 139.811Z" fill="#F9FAFB"/>
<path d="M305.909 142.762L336.274 145.286L333.831 176.659L303.466 174.135L305.909 142.762Z" fill="#73B53B"/>
<path opacity="0.5" d="M302.957 180.63L333.321 183.154L330.878 214.526L300.513 212.002L302.957 180.63Z" fill="#73B53B"/>
<path opacity="0.3" d="M300.009 218.509L330.374 221.033L327.931 252.405L297.566 249.881L300.009 218.509Z" fill="#73B53B"/>
<path opacity="0.5" d="M278.941 144.89L324.219 142.758L330.944 295.19L285.666 297.322L278.941 144.89Z" fill="url(#paint5_linear)"/>
<path d="M280.473 145.845L323.519 143.817L330.154 294.2L287.108 296.227L280.473 145.845Z" fill="white"/>
<path d="M286.89 147.971L317.321 146.538L318.708 177.979L288.277 179.412L286.89 147.971Z" fill="#BBB8FA"/>
<path opacity="0.5" d="M289.758 184.724L320.22 183.151L321.743 214.625L291.28 216.198L289.758 184.724Z" fill="#BBB8FA"/>
<path opacity="0.3" d="M290.238 223.887L320.669 222.454L322.056 253.895L291.625 255.329L290.238 223.887Z" fill="#BBB8FA"/>
<path d="M298.751 344.23L260.466 359.533L204.509 381.881C202.394 377.802 199.28 372.289 195.428 365.71C182.174 343.018 160.244 307.721 140.718 276.702C118.721 241.738 99.7869 212.234 99.7869 212.234L113.493 208.155L225.451 174.571L298.751 344.23Z" fill="#E6ECF8"/>
<path opacity="0.1" d="M298.751 344.23L260.466 359.533C239.078 364.136 217.253 366.209 195.411 365.71C182.157 343.018 160.228 307.721 140.701 276.702L113.498 208.131L225.451 174.571L298.751 344.23Z" fill="black"/>
<path d="M327.235 334.708C327.235 334.708 267.758 371.059 178.959 362.837L108.168 184.519L142.094 178.493L259.377 157.684L325.932 331.241L327.235 334.708Z" fill="#BBB8FA"/>
<path opacity="0.1" d="M325.909 331.264C311.904 331.975 295.7 331.905 279.4 329.895C261.757 327.75 244.013 323.333 228.801 315.233C216.083 308.467 205.208 301.107 195.727 292.279C171.062 269.36 155.8 236.575 142.094 178.516L259.377 157.707L325.909 331.264Z" fill="black"/>
<path d="M369.542 321.294C369.542 321.294 325.7 330.163 281.075 324.703C263.432 322.558 245.688 318.141 230.477 310.041C217.758 303.275 206.889 295.915 197.402 287.087C166.877 258.713 150.758 215.229 134.136 127.416C134.136 127.416 207.019 145.592 279.09 105.779C279.067 105.808 303.36 262.437 369.542 321.294Z" fill="#F9FAFB"/>
<path opacity="0.1" d="M281.075 324.702C263.432 322.558 245.688 318.141 230.477 310.041C217.758 303.275 206.889 295.915 197.402 287.087C223.392 284.907 227.126 270.228 227.126 270.228C246.393 301.818 281.075 324.702 281.075 324.702Z" fill="black"/>
<path opacity="0.3" d="M171.835 159.653C171.835 159.653 231.103 156.192 247.651 142.993L250.161 151.326C250.161 151.326 211.001 169.175 171.835 169.391V159.653ZM171.835 200.795C171.835 200.795 229.219 197.549 272.575 175.912L274.042 179.373C274.042 179.373 239.636 200.124 171.835 205.556V200.795ZM176.455 216.826C176.455 216.826 233.838 213.58 277.189 191.943L278.655 195.404C278.655 195.404 244.25 216.15 176.455 221.587V216.826ZM181.068 232.88C181.068 232.88 238.452 229.634 281.808 207.997L283.269 211.459C283.269 211.459 248.864 232.21 181.068 237.641V232.88ZM185.688 248.935C185.688 248.935 243.071 245.689 286.422 224.052L287.888 227.513C287.888 227.513 253.483 248.265 185.688 253.696V248.935ZM190.301 264.995C190.301 264.995 247.685 261.749 291.041 240.112L292.502 243.573C292.502 243.573 258.097 264.319 190.301 269.756V264.995Z" fill="#BBB8FA"/>
<path d="M593.786 464.333C593.786 464.333 569.939 462.847 572.748 480.113C572.748 480.113 572.184 483.161 574.869 484.548C574.869 484.548 574.908 483.266 577.311 483.703C578.168 483.852 579.039 483.895 579.906 483.831C581.075 483.75 582.186 483.275 583.07 482.479C583.07 482.479 589.776 479.618 592.382 468.301C592.382 468.301 594.311 465.83 594.232 465.195L590.21 466.943C590.21 466.943 591.586 469.944 590.503 472.433C590.503 472.433 590.374 467.054 589.601 467.188C589.443 467.188 587.509 468.225 587.509 468.225C587.509 468.225 589.872 473.47 588.073 477.246C588.073 477.246 588.749 470.807 586.753 468.604L583.933 470.311C583.933 470.311 586.696 475.708 584.824 480.113C584.824 480.113 585.303 473.359 583.335 470.725L580.768 472.794C580.768 472.794 583.369 478.114 581.784 481.768C581.784 481.768 581.575 473.901 580.21 473.307C580.21 473.307 577.954 475.352 577.627 476.22C577.627 476.22 579.404 480.078 578.298 482.118C578.298 482.118 577.621 476.873 577.068 476.873C577.068 476.873 574.812 480.37 574.598 482.701C574.598 482.701 574.694 479.157 576.527 476.518C575.236 476.772 574.044 477.41 573.098 478.353C573.098 478.353 573.447 475.894 577.08 475.684C577.08 475.684 578.93 473.05 579.42 472.887C579.42 472.887 575.811 472.578 573.622 473.581C573.622 473.581 575.551 471.25 580.086 472.316L582.618 470.183C582.618 470.183 577.864 469.507 575.85 470.253C575.85 470.253 578.168 468.202 583.301 469.67L586.059 467.969C586.059 467.969 582.009 467.066 579.595 467.386C579.595 467.386 582.139 465.964 586.871 467.503L588.84 466.588C588.84 466.588 585.873 466.005 585.004 465.888C584.136 465.772 584.085 465.551 584.085 465.551C585.966 465.223 587.898 465.445 589.663 466.192C589.663 466.192 593.854 464.606 593.786 464.333Z" fill="#BBB8FA"/>
<path opacity="0.1" d="M577.362 489C586.682 489 594.237 487.68 594.237 486.051C594.237 484.423 586.682 483.103 577.362 483.103C568.042 483.103 560.486 484.423 560.486 486.051C560.486 487.68 568.042 489 577.362 489Z" fill="#BBB8FA"/>
<path opacity="0.1" d="M458.973 480.428C490.747 480.428 516.504 478.017 516.504 475.043C516.504 472.07 490.747 469.659 458.973 469.659C427.2 469.659 401.443 472.07 401.443 475.043C401.443 478.017 427.2 480.428 458.973 480.428Z" fill="#BBB8FA"/>
<path d="M604.892 407.335C604.892 407.335 591.451 406.496 593.047 416.233C592.965 416.726 593.036 417.234 593.25 417.683C593.463 418.132 593.809 418.5 594.237 418.733C594.237 418.733 594.266 418.011 595.619 418.255C596.102 418.338 596.592 418.361 597.08 418.325C597.738 418.281 598.365 418.015 598.862 417.568C598.862 417.568 602.641 415.954 604.113 409.573C604.113 409.573 605.202 408.18 605.157 407.824L602.901 408.821C602.901 408.821 603.673 410.517 603.064 411.921C603.064 411.921 602.991 408.885 602.557 408.955C602.466 408.955 601.378 409.538 601.378 409.538C601.378 409.538 602.709 412.451 601.705 414.625C601.705 414.625 602.089 410.995 600.96 409.747L599.364 410.715C599.364 410.715 600.921 413.757 599.866 416.239C599.866 416.239 600.137 412.428 599.026 410.948L597.582 412.113C597.582 412.113 599.043 415.114 598.146 417.172C598.146 417.172 598.028 412.737 597.261 412.405C596.713 412.885 596.222 413.43 595.8 414.031C595.8 414.031 596.804 416.21 596.183 417.358C596.183 417.358 595.8 414.404 595.489 414.392C595.489 414.392 594.226 416.344 594.096 417.684C594.158 416.441 594.533 415.235 595.185 414.188C594.455 414.33 593.783 414.691 593.25 415.225C593.25 415.225 593.448 413.838 595.506 413.722C595.506 413.722 596.55 412.236 596.826 412.143C596.826 412.143 594.79 411.968 593.555 412.533C593.555 412.533 594.643 411.228 597.198 411.822L598.631 410.616C598.631 410.616 595.946 410.237 594.813 410.657C594.813 410.657 596.121 409.491 599.015 410.342L600.571 409.38C599.374 409.109 598.147 409.002 596.922 409.06C596.922 409.06 598.36 408.256 601.023 409.124L602.151 408.611C602.151 408.611 600.459 408.267 599.985 408.215C599.511 408.162 599.466 408.023 599.466 408.023C600.527 407.84 601.616 407.965 602.613 408.384C602.613 408.384 604.937 407.486 604.892 407.335Z" fill="#BBB8FA"/>
<path opacity="0.1" d="M595.642 421.239C600.897 421.239 605.157 420.496 605.157 419.578C605.157 418.661 600.897 417.917 595.642 417.917C590.387 417.917 586.126 418.661 586.126 419.578C586.126 420.496 590.387 421.239 595.642 421.239Z" fill="#BBB8FA"/>
<path d="M525.545 415.785C525.545 415.785 509.312 414.771 511.23 426.524C511.13 427.12 511.216 427.733 511.474 428.275C511.733 428.818 512.151 429.261 512.668 429.543C512.668 429.543 512.668 428.669 514.36 428.96C514.943 429.062 515.536 429.091 516.126 429.048C516.922 428.993 517.679 428.669 518.28 428.127C518.28 428.127 522.843 426.181 524.62 418.477C524.62 418.477 525.934 416.799 525.878 416.361L523.108 417.574C523.108 417.574 524.045 419.613 523.306 421.309C523.306 421.309 523.215 417.649 522.691 417.731C522.584 417.731 521.27 418.442 521.27 418.442C521.27 418.442 522.877 421.997 521.664 424.584C521.664 424.584 522.127 420.202 520.768 418.698L518.839 419.864C518.839 419.864 520.717 423.541 519.442 426.536C519.442 426.536 519.769 421.938 518.433 420.126L516.684 421.536C516.684 421.536 518.455 425.155 517.372 427.643C517.372 427.643 517.237 422.288 516.306 421.886C516.306 421.886 514.778 423.279 514.546 423.85C514.546 423.85 515.753 426.478 515.003 427.865C515.003 427.865 514.541 424.298 514.163 424.281C514.163 424.281 512.646 426.647 512.471 428.261C512.547 426.764 513 425.314 513.785 424.054C512.907 424.227 512.097 424.662 511.456 425.307C511.456 425.307 511.692 423.634 514.163 423.488C514.163 423.488 515.421 421.694 515.759 421.589C515.759 421.589 513.3 421.373 511.811 422.055C511.811 422.055 513.119 420.481 516.205 421.198L517.931 419.741C517.931 419.741 514.699 419.287 513.322 419.788C513.322 419.788 514.902 418.395 518.399 419.415L520.277 418.25C520.277 418.25 517.519 417.638 515.872 417.859C515.872 417.859 517.609 416.892 520.824 417.941L522.166 417.317C522.166 417.317 520.147 416.909 519.555 416.845C518.963 416.781 518.934 416.612 518.934 416.612C520.214 416.388 521.529 416.537 522.73 417.043C522.73 417.043 525.596 415.965 525.545 415.785Z" fill="#BBB8FA"/>
<path opacity="0.1" d="M514.366 432.573C520.711 432.573 525.855 431.676 525.855 430.569C525.855 429.462 520.711 428.564 514.366 428.564C508.021 428.564 502.877 429.462 502.877 430.569C502.877 431.676 508.021 432.573 514.366 432.573Z" fill="#BBB8FA"/>
<path opacity="0.1" d="M30.8238 480.212C40.1439 480.212 47.6994 478.892 47.6994 477.264C47.6994 475.635 40.1439 474.315 30.8238 474.315C21.5037 474.315 13.9482 475.635 13.9482 477.264C13.9482 478.892 21.5037 480.212 30.8238 480.212Z" fill="#BBB8FA"/>
<path d="M19.4927 463.563C19.4927 463.563 29.1149 463.26 32.0196 461.128C34.9243 458.995 46.8252 456.466 47.5472 459.863C48.2691 463.26 62.0143 476.891 51.1456 476.984C40.2769 477.077 25.8943 475.236 22.9953 473.412C20.0962 471.588 19.4927 463.563 19.4927 463.563Z" fill="#A8A8A8"/>
<path opacity="0.2" d="M51.3373 475.789C40.4686 475.883 26.086 474.041 23.187 472.217C20.9873 470.83 20.1074 465.848 19.8028 463.552H19.4813C19.4813 463.552 20.0905 471.576 22.9839 473.4C25.8773 475.224 40.305 477.071 51.1456 477.013C54.2815 476.984 55.3644 475.848 55.308 474.099C54.8681 475.125 53.6724 475.772 51.3373 475.789Z" fill="black"/>
<path d="M445.414 94.5829L475.177 -9.8776e-06L639 55.0284L609.238 149.611L445.414 94.5829Z" fill="url(#paint6_linear)"/>
<path d="M446.75 94.3147L476.103 1.03394L637.663 55.3021L608.31 148.583L446.75 94.3147Z" fill="#F6F7F9"/>
<path opacity="0.2" d="M493.486 70.9369C503.255 70.9369 511.174 62.7551 511.174 52.6622C511.174 42.5694 503.255 34.3875 493.486 34.3875C483.717 34.3875 475.798 42.5694 475.798 52.6622C475.798 62.7551 483.717 70.9369 493.486 70.9369Z" fill="#BBB8FA"/>
<path opacity="0.2" d="M535.805 49.3721L537.303 44.6117L610.59 69.2289L609.092 73.9893L535.805 49.3721ZM531.986 61.5094L533.484 56.7484L570.816 69.289L569.318 74.0499L531.986 61.5094ZM528.16 73.6543L529.658 68.8933L590.039 89.1755L588.541 93.9365L528.16 73.6543ZM524.341 85.7945L525.839 81.0335L599.126 105.651L597.628 110.412L524.341 85.7945Z" fill="#BBB8FA"/>
<path opacity="0.5" d="M570.434 125.573L573.331 116.369L593.612 123.181L590.715 132.386L570.434 125.573Z" fill="#BBB8FA"/>
<path d="M527.344 281.44C527.336 281.245 527.317 281.05 527.288 280.857C527.288 280.653 527.226 280.449 527.192 280.274C527.119 279.878 527.04 279.488 526.949 279.109C526.904 278.928 526.859 278.742 526.808 278.567C526.274 276.5 525.312 274.577 523.988 272.932C523.915 272.839 523.836 272.751 523.763 272.664C523.689 272.576 523.458 272.326 523.306 272.169C523.154 272.011 523.013 271.871 522.866 271.737C522.719 271.603 522.584 271.481 522.449 271.364C522.178 271.137 521.924 270.945 521.704 270.782C521.484 270.618 521.383 270.56 521.247 270.479C520.924 270.279 520.562 270.158 520.187 270.123L517.846 269.884L514.648 269.558L503.215 264.972L502.764 265.135C502.429 264.181 502.146 263.208 501.918 262.221C502.264 262.066 502.573 261.833 502.821 261.539C503.09 261.323 503.303 261.04 503.441 260.718C503.729 260.03 503.176 258.567 503.289 257.728C503.469 256.382 504.146 255.083 504.699 253.865C505.872 251.248 506.729 248.41 506.588 245.537C506.447 242.664 505.178 239.751 502.832 238.148C501.619 237.315 500.192 236.872 498.929 236.114C497.947 235.532 497.084 234.751 496.148 234.086C493.846 232.5 491.184 231.559 488.423 231.355C485.663 231.151 482.899 231.69 480.401 232.921C478.026 234.127 476.001 235.934 473.762 237.385C471.523 238.836 468.883 239.949 466.261 239.518C466.224 239.628 466.198 239.741 466.182 239.856L465.962 239.826C465.51 241.097 466.616 242.356 467.654 243.224C469.588 244.873 471.782 246.516 474.304 246.575C475.279 246.575 476.311 246.382 477.197 246.796C477.398 246.888 477.588 247.005 477.761 247.146C477.2 249.469 477.271 251.908 477.968 254.192C478.665 256.477 479.96 258.517 481.709 260.088L475.872 257.921C475.872 257.921 475.629 258.049 475.251 258.293L467.152 252.722C467.152 252.722 450.914 246.639 446.401 256.114C441.889 265.589 465.956 260.7 465.956 260.7L471.106 263.614C470.932 264.714 471.132 265.842 471.67 266.807L485.708 275.77C482.888 276.673 478.212 278.101 477.383 278.101C476.182 278.101 472.871 279.325 470.767 284.214C468.663 289.103 461.139 312.954 454.523 316.929C447.907 320.903 430.462 347.505 430.462 347.505L430.541 347.715C430.231 347.802 429.926 347.89 429.627 347.994C425.964 349.308 422.793 351.779 420.563 355.057C420.268 355.482 420.085 355.979 420.033 356.499C419.981 357.019 420.062 357.544 420.267 358.022C420.472 358.5 420.795 358.914 421.203 359.223C421.612 359.532 422.091 359.725 422.594 359.783C429.481 360.687 433.243 357.406 435.053 354.929C435.172 354.772 435.279 354.614 435.38 354.457C435.916 354.695 436.517 354.724 437.072 354.539L445.493 347.505C445.493 347.505 438.905 354.207 442.769 360.325L442.476 360.751C435.963 370.357 431.186 381.101 428.375 392.463C428.375 392.463 424.765 395.214 424.466 406.222C424.168 417.23 420.552 434.963 420.552 434.963C420.552 434.963 418.149 456.064 419.65 462.479C419.65 462.479 419.825 462.736 420.146 463.126C420.033 463.266 419.909 463.418 419.774 463.569C418.46 465.038 416.091 467.066 413.333 466.483C409.125 465.562 409.125 473.208 415.138 473.82C419.012 474.21 426.627 475.999 431.562 477.223C432.1 477.363 432.662 477.367 433.202 477.236C433.741 477.104 434.242 476.84 434.663 476.467C435.083 476.093 435.41 475.62 435.616 475.089C435.823 474.557 435.902 473.982 435.848 473.412C435.555 470.673 435.019 467.357 434.044 464.997C433.982 464.851 433.92 464.706 433.857 464.572C434.032 464.397 434.213 464.222 434.388 464.035C434.388 464.035 434.388 450.58 436.497 446.914C436.497 446.914 442.211 419.089 441.906 412.055C441.675 406.554 456.734 385.127 463.288 376.077L463.232 375.733C464.924 373.402 465.973 372.003 465.973 372.003L471.043 405.336C471.043 405.336 473.452 412.673 476.458 416.647C476.458 416.647 489.391 442.025 490.897 449.974C492.025 456.005 494.383 459.566 495.454 460.941L495.065 461.326C493.695 462.625 491.681 463.925 489.391 463.429C485.184 462.509 485.184 470.154 491.196 470.766C495.071 471.162 502.685 472.951 507.615 474.175C508.153 474.315 508.716 474.319 509.256 474.187C509.797 474.056 510.299 473.791 510.719 473.417C511.14 473.043 511.468 472.57 511.674 472.037C511.881 471.505 511.961 470.929 511.907 470.358C511.563 467.176 510.892 463.22 509.594 460.883C509.49 460.682 509.375 460.488 509.25 460.3C509.709 460.111 510.118 459.813 510.446 459.432C510.446 459.432 502.623 440.166 502.623 434.957C502.623 434.957 499.318 415.085 488.19 407.749C488.19 407.749 489.239 382.889 492.409 369.055C492.488 368.717 492.567 368.379 492.646 368.052C495.6 367.575 498.529 366.945 501.422 366.164L501.721 356.992L503.227 364.329L520.068 353.63C520.068 353.63 519.922 351.701 519.64 348.746C519.493 347.266 519.318 345.53 519.109 343.647C518.94 342.144 518.748 340.547 518.545 338.915C518.489 338.508 518.438 338.094 518.382 337.686C518.162 336.037 517.919 334.37 517.66 332.738C517.558 332.125 517.457 331.519 517.355 330.92C517.214 330.122 517.073 329.341 516.927 328.589C516.853 328.211 516.774 327.832 516.701 327.465C516.628 327.097 516.543 326.73 516.464 326.375C516.385 326.019 516.306 325.676 516.227 325.332C516.182 325.163 516.143 324.994 516.103 324.831C516.019 324.498 515.934 324.172 515.849 323.857C515.496 322.55 515.292 321.205 515.24 319.848V318.234C515.24 317.698 515.319 317.162 515.393 316.626C515.426 316.363 515.472 316.095 515.522 315.833C515.714 314.767 515.999 313.722 516.374 312.71C516.56 312.203 516.774 311.701 517.006 311.206C517.57 310.041 518.134 308.799 518.732 307.477C519.036 306.818 519.341 306.142 519.645 305.455C519.95 304.767 520.26 304.068 520.57 303.357C523.498 296.614 526.385 289.103 527.158 284.167C527.237 283.648 527.299 283.159 527.327 282.699C527.36 282.28 527.366 281.859 527.344 281.44Z" fill="url(#paint7_linear)"/>
<path d="M477.107 263.148L467.185 256.219C467.185 256.219 451.432 250.188 447.056 259.535C442.679 268.882 466.018 264.057 466.018 264.057L475.939 269.779L477.107 263.148Z" fill="#AE6E79"/>
<path d="M369.47 320.637L420.784 238.165L545.047 320.7L493.732 403.171L369.47 320.637Z" fill="#F9FAFB"/>
<path d="M387.883 314.884L402.28 291.472L407.612 294.972L393.215 318.384L387.883 314.884ZM404.925 319.627L436.546 268.208L441.434 271.417L409.815 322.836L404.925 319.627ZM415.37 326.477L446.99 275.058L451.879 278.267L420.259 329.686L415.37 326.477ZM425.811 333.337L457.431 281.918L462.32 285.128L430.701 336.547L425.811 333.337ZM436.616 343.278L468.456 292.106L473.322 295.337L441.482 346.51L436.616 343.278Z" fill="#B7B6CC"/>
<path d="M446.696 347.045L478.316 295.626L483.205 298.836L451.585 350.255L446.696 347.045ZM457.14 353.895L488.761 302.476L493.649 305.686L462.03 357.104L457.14 353.895Z" fill="white"/>
<path d="M500.989 324.686L509.176 311.372L522.063 319.831L513.875 333.146L500.989 324.686Z" fill="#B7B6CC"/>
<path d="M506.453 474.472C501.664 473.266 494.281 471.506 490.525 471.116C484.687 470.533 484.687 462.957 488.776 463.878C490.987 464.373 492.95 463.086 494.276 461.809C494.678 461.41 495.055 460.983 495.404 460.533C495.886 459.927 496.551 459.506 497.293 459.339C499.481 458.849 504.061 458.103 506.831 459.659C507.478 460.075 508.001 460.668 508.342 461.372C509.6 463.703 510.254 467.578 510.598 470.696C510.656 471.252 510.584 471.815 510.388 472.336C510.192 472.858 509.878 473.323 509.472 473.693C509.065 474.063 508.579 474.327 508.054 474.462C507.529 474.598 506.98 474.601 506.453 474.472ZM432.639 477.485C427.856 476.279 420.473 474.519 416.717 474.128C410.879 473.546 410.879 465.97 414.963 466.897C417.636 467.479 419.937 465.492 421.206 464.047C421.364 463.872 421.505 463.703 421.624 463.546C422.109 462.952 422.772 462.542 423.508 462.38C425.696 461.885 430.276 461.139 433.051 462.701C433.874 463.155 434.529 464.158 435.053 465.457C435.995 467.788 436.514 471.052 436.802 473.75C436.854 474.304 436.776 474.864 436.576 475.382C436.377 475.9 436.06 476.36 435.652 476.726C435.245 477.091 434.759 477.351 434.235 477.483C433.711 477.615 433.164 477.616 432.639 477.485Z" fill="#BEBED0"/>
<path opacity="0.1" d="M435.053 465.434C428.088 472.852 422.115 465.294 421.207 464.047C421.364 463.872 421.506 463.703 421.624 463.546C422.109 462.952 422.772 462.542 423.508 462.38C425.696 461.885 430.276 461.139 433.051 462.701C433.874 463.132 434.557 464.134 435.053 465.434ZM508.371 461.372C505.353 463.499 495.195 462.975 495.195 462.975C494.86 462.611 494.553 462.221 494.276 461.809C494.678 461.41 495.055 460.983 495.404 460.533C495.886 459.927 496.551 459.506 497.293 459.339C499.482 458.849 504.061 458.103 506.831 459.659C507.489 460.071 508.022 460.664 508.371 461.372Z" fill="black"/>
<path d="M508.906 459.962C506.859 462.678 495.195 462.072 495.195 462.072C495.195 462.072 491.692 458.453 490.231 450.621C488.77 442.789 476.227 417.766 476.227 417.766C473.311 413.844 470.976 406.612 470.976 406.612L466.018 373.757C466.018 373.757 442.098 406.309 442.391 413.244C442.684 420.178 437.134 447.625 437.134 447.625C435.092 451.244 435.092 464.525 435.092 464.525C427.512 472.683 421.093 463.016 421.093 463.016C419.633 456.687 421.968 435.889 421.968 435.889C421.968 435.889 425.47 418.407 425.758 407.556C426.046 396.706 429.554 393.996 429.554 393.996C432.278 382.812 436.918 372.222 443.254 362.726C445.014 360.121 446.181 358.729 446.181 358.729L493.441 364.457C492.534 366.529 491.853 368.698 491.41 370.925C488.336 384.561 487.315 409.066 487.315 409.066C498.111 416.297 501.32 435.872 501.32 435.872C501.32 440.971 508.906 459.962 508.906 459.962Z" fill="#5C5C8E"/>
<g opacity="0.05">
<path opacity="0.05" d="M463.418 377.773L462.809 373.757C462.809 373.757 438.888 406.309 439.182 413.244C439.475 420.178 433.931 447.625 433.931 447.625C431.883 451.244 431.883 464.525 431.883 464.525C430.662 465.949 429.082 466.996 427.32 467.549C429.616 468.173 432.397 467.713 435.386 464.525C435.386 464.525 435.386 451.262 437.428 447.625C437.428 447.625 442.972 420.196 442.679 413.244C442.453 407.819 457.056 386.688 463.418 377.773Z" fill="black"/>
<path opacity="0.05" d="M501.608 435.848C501.608 435.848 498.398 416.257 487.609 409.042C487.609 409.042 488.63 384.538 491.698 370.902C492.143 368.675 492.826 366.505 493.734 364.434L446.475 358.717C446.475 358.717 446.362 358.845 446.159 359.102L490.231 364.445C489.325 366.517 488.644 368.687 488.201 370.914C485.127 384.55 484.106 409.054 484.106 409.054C494.902 416.286 498.111 435.86 498.111 435.86C498.111 440.982 505.697 459.974 505.697 459.974C504.49 461.57 499.944 462.019 496.407 462.118C499.228 462.194 507.502 462.223 509.194 459.974C509.194 459.962 501.608 440.971 501.608 435.848Z" fill="black"/>
</g>
<path d="M437.428 354.469C437.074 355.359 436.61 356.197 436.046 356.963C434.292 359.405 430.642 362.633 423.964 361.747C423.472 361.682 423.005 361.486 422.608 361.179C422.211 360.872 421.898 360.464 421.699 359.994C421.5 359.524 421.423 359.01 421.474 358.5C421.525 357.99 421.703 357.503 421.99 357.085C424.134 353.855 427.212 351.407 430.783 350.092C431.992 349.68 433.243 349.418 434.512 349.312L437.428 354.469Z" fill="#AE6E79"/>
<path d="M499.042 270.17L475.646 261.329C475.646 261.329 468.934 264.948 471.562 270.071L494.343 284.843L499.042 270.17Z" fill="#42383C"/>
<path opacity="0.1" d="M499.132 270.269L475.73 261.429C475.73 261.429 469.019 265.042 471.647 270.17L494.4 284.936L499.132 270.269Z" fill="black"/>
<path d="M499.859 255.601C499.859 255.601 499.566 269.768 505.697 274.593C511.828 279.418 487.896 282.128 487.896 282.128C487.896 282.128 491.692 267.658 487.896 260.123C484.101 252.589 499.859 255.601 499.859 255.601Z" fill="#AE6E79"/>
<path opacity="0.1" d="M493.441 364.416C492.534 366.488 491.853 368.658 491.41 370.885C463.209 375.337 443.553 363.21 443.553 363.21C443.446 363.035 443.344 362.86 443.254 362.685C445.014 360.081 446.181 358.688 446.181 358.688L493.441 364.416ZM437.428 354.469C437.074 355.359 436.61 356.197 436.046 356.963C433.344 356.497 431.184 351.136 430.783 350.122C431.992 349.71 433.243 349.447 434.512 349.341L437.428 354.469Z" fill="black"/>
<path d="M502.194 268.264L491.692 272.18L487.315 278.212C487.315 278.212 478.291 281.224 477.107 281.224C475.922 281.224 472.73 282.431 470.688 287.25C468.646 292.069 461.354 315.594 454.935 319.504C448.516 323.415 431.596 349.644 431.596 349.644C431.596 349.644 434.512 357.802 438.014 356.578L446.181 349.644C446.181 349.644 439.763 356.275 443.553 362.307C443.553 362.307 467.479 377.073 500.446 368.029L500.734 358.991L502.194 366.223L518.551 355.675C518.551 355.675 517.09 336.217 514.456 326.317C513.365 322.153 513.766 317.723 515.584 313.84C519.82 304.72 526.357 289.488 525.562 283.934C524.62 277.39 521.05 274.546 519.673 273.689C519.361 273.493 519.011 273.371 518.647 273.334L513.306 272.786L502.194 268.264Z" fill="#42383C"/>
<path opacity="0.05" d="M484.253 298.555C484.253 298.555 478.415 326.585 471.997 331.107C465.578 335.629 448.37 350.098 447.783 352.511" fill="black"/>
<path d="M481.624 297.652C481.624 297.652 475.792 325.681 469.374 330.203C462.955 334.726 445.741 349.195 445.16 351.602" fill="#42383C"/>
<path opacity="0.1" d="M487.169 278.06C487.169 278.06 507.299 271.125 513.114 272.932L487.169 278.06Z" fill="black"/>
<g opacity="0.05">
<path opacity="0.05" d="M515.556 313.846C519.792 304.726 526.329 289.493 525.534 283.94C524.592 277.396 521.021 274.552 519.645 273.695C519.333 273.499 518.982 273.377 518.619 273.34L516.363 273.107C516.602 273.163 516.83 273.26 517.039 273.392C518.404 274.255 521.986 277.093 522.922 283.643C523.717 289.19 517.18 304.429 512.95 313.549C511.132 317.429 510.732 321.858 511.822 326.019C514.462 335.926 515.923 355.378 515.923 355.378L501.856 364.463L502.211 366.211L518.568 355.663C518.568 355.663 517.107 336.206 514.473 326.305C513.372 322.153 513.757 317.729 515.556 313.846ZM510.655 272.483L513.181 272.745L502.194 268.264L501.207 268.631L510.655 272.483Z" fill="black"/>
</g>
<path opacity="0.05" d="M481.625 326.888C481.625 326.888 490.649 321.765 493.587 322.972C496.526 324.178 507.299 322.669 507.299 322.669L481.625 326.888ZM498.855 259.371C498.523 256.347 499.876 256.807 499.876 256.807C499.876 256.807 484.123 253.795 487.913 261.329C488.869 263.406 489.414 265.658 489.515 267.955H489.667C494.044 267.961 496.599 262.903 498.855 259.371Z" fill="black"/>
<path d="M489.651 266.755C496.578 266.755 502.194 260.952 502.194 253.795C502.194 246.637 496.578 240.835 489.651 240.835C482.723 240.835 477.107 246.637 477.107 253.795C477.107 260.952 482.723 266.755 489.651 266.755Z" fill="#AE6E79"/>
<path opacity="0.1" d="M503.368 257.629C504.496 255.048 505.336 252.251 505.201 249.418C505.065 246.586 503.836 243.713 501.557 242.128C500.384 241.313 498.996 240.876 497.772 240.13C496.819 239.547 495.979 238.783 495.071 238.131C492.849 236.566 490.267 235.635 487.585 235.43C484.904 235.225 482.217 235.755 479.797 236.965C477.496 238.131 475.533 239.943 473.362 241.371C471.19 242.799 468.629 243.894 466.086 243.475C465.646 244.727 466.723 245.963 467.71 246.825C469.588 248.451 471.715 250.071 474.162 250.124C475.11 250.124 476.108 249.937 476.983 250.345C477.562 250.675 478.054 251.148 478.415 251.72C479.593 253.339 480.592 255.088 481.393 256.936C481.638 257.73 482.101 258.435 482.724 258.964C483.852 259.71 485.313 259.086 486.672 259.034C488.748 258.946 490.621 260.298 492.155 261.743C493.689 263.189 495.155 264.844 497.096 265.607C498.545 266.19 501.444 266.155 502.172 264.366C502.448 263.69 501.912 262.245 502.025 261.417C502.297 260.095 502.749 258.82 503.368 257.629Z" fill="black"/>
<path d="M503.627 257.32C504.755 254.739 505.601 251.942 505.46 249.115C505.319 246.289 504.101 243.405 501.822 241.825C500.643 241.004 499.256 240.567 498.038 239.821C497.084 239.238 496.244 238.48 495.336 237.822C493.114 236.257 490.532 235.326 487.851 235.121C485.169 234.916 482.483 235.446 480.062 236.656C477.761 237.822 475.798 239.628 473.627 241.056C471.455 242.484 468.895 243.585 466.351 243.16C465.911 244.419 466.983 245.654 467.975 246.511C469.853 248.136 471.98 249.756 474.428 249.815C475.375 249.815 476.374 249.622 477.248 250.036C477.829 250.363 478.322 250.836 478.68 251.411C479.858 253.027 480.855 254.774 481.653 256.621C481.9 257.416 482.364 258.12 482.99 258.649C484.118 259.395 485.578 258.771 486.938 258.719C489.013 258.637 490.886 259.989 492.414 261.435C493.943 262.88 495.415 264.529 497.361 265.292C498.81 265.875 501.709 265.84 502.437 264.051C502.719 263.375 502.183 261.93 502.296 261.102C502.564 259.783 503.013 258.51 503.627 257.32Z" fill="#42383C"/>
<path opacity="0.1" d="M412.819 448.709C411.767 449.601 410.446 450.084 409.086 450.073L157.097 448.966C156.421 448.125 155.918 447.15 155.621 446.1C155.323 445.051 155.236 443.95 155.366 442.865L180.262 232.397L195.874 232.222C197.179 232.208 198.452 232.643 199.493 233.457C200.535 234.271 201.285 235.419 201.627 236.721L204.543 247.839C204.888 249.155 205.65 250.313 206.707 251.128C207.764 251.944 209.056 252.37 210.375 252.338L272.682 250.794C274.222 250.756 275.687 250.097 276.763 248.958C277.839 247.819 278.441 246.29 278.441 244.698V237.332C278.441 235.728 279.053 234.188 280.145 233.047C281.237 231.906 282.72 231.255 284.273 231.237L370.614 230.275C371.995 230.262 373.337 230.75 374.406 231.654C375.474 232.558 376.202 233.821 376.462 235.223L414.647 441.513L414.895 442.841C415.097 443.922 415.011 445.039 414.645 446.073C414.28 447.107 413.648 448.018 412.819 448.709Z" fill="black"/>
<path d="M367.793 233.195L281.453 234.156C279.9 234.173 278.416 234.822 277.323 235.962C276.23 237.102 275.617 238.642 275.615 240.246V247.618C275.614 249.207 275.012 250.734 273.937 251.871C272.863 253.009 271.4 253.668 269.862 253.707L207.56 255.252C206.24 255.286 204.947 254.861 203.889 254.045C202.83 253.229 202.067 252.07 201.723 250.753L198.795 239.64C198.454 238.337 197.703 237.187 196.661 236.373C195.618 235.559 194.343 235.125 193.037 235.141L109.815 236.068C108.963 236.076 108.122 236.276 107.351 236.653C106.58 237.03 105.898 237.575 105.351 238.251C104.804 238.927 104.406 239.718 104.183 240.568C103.961 241.418 103.919 242.309 104.062 243.177L137.543 446.763C137.775 448.178 138.483 449.463 139.543 450.392C140.603 451.32 141.946 451.833 143.335 451.839L406.249 453.004C407.119 453.007 407.979 452.811 408.767 452.431C409.555 452.05 410.252 451.494 410.808 450.802C411.364 450.11 411.764 449.3 411.981 448.43C412.199 447.559 412.227 446.65 412.064 445.767L373.642 238.142C373.383 236.74 372.656 235.477 371.587 234.572C370.518 233.668 369.175 233.181 367.793 233.195Z" fill="#E6E8EE"/>
<path d="M489.391 93.7804L488.94 98.9668L489.267 108.139L488.314 123.611C488.314 123.611 488.179 130.388 484.473 133.564L475.014 148.57L474.958 148.599L471.399 150.393L465.967 150.976L463.147 143.919L465.014 136.169L466.052 134.724L466.34 134.397C467.468 133.115 471.822 128.459 475.279 127.008C475.279 127.008 477.586 125.26 477.18 122.521C476.774 119.782 480.293 105.225 480.293 105.225C480.293 105.225 482.55 95.5985 482.059 94.6603C481.568 93.7221 481.969 72.4113 489.752 72.085C497.536 71.7587 489.391 93.7804 489.391 93.7804Z" fill="#F6BAC2"/>
<path opacity="0.1" d="M85.4099 409.73C90.4593 409.73 94.5527 409.148 94.5527 408.43C94.5527 407.713 90.4593 407.131 85.4099 407.131C80.3605 407.131 76.2671 407.713 76.2671 408.43C76.2671 409.148 80.3605 409.73 85.4099 409.73Z" fill="#BBB8FA"/>
<path opacity="0.1" d="M50.3898 413.395C55.4392 413.395 59.5326 412.814 59.5326 412.096C59.5326 411.378 55.4392 410.796 50.3898 410.796C45.3403 410.796 41.2469 411.378 41.2469 412.096C41.2469 412.814 45.3403 413.395 50.3898 413.395Z" fill="#BBB8FA"/>
<path opacity="0.1" d="M9.14281 408.43C14.1922 408.43 18.2856 407.849 18.2856 407.131C18.2856 406.413 14.1922 405.831 9.14281 405.831C4.09337 405.831 0 406.413 0 407.131C0 407.849 4.09337 408.43 9.14281 408.43Z" fill="#BBB8FA"/>
<path opacity="0.1" d="M64.4057 423.465C67.9942 423.465 70.9033 423.053 70.9033 422.544C70.9033 422.036 67.9942 421.624 64.4057 421.624C60.8173 421.624 57.9082 422.036 57.9082 422.544C57.9082 423.053 60.8173 423.465 64.4057 423.465Z" fill="#BBB8FA"/>
<path opacity="0.1" d="M28.0602 422.544C31.6487 422.544 34.5577 422.132 34.5577 421.624C34.5577 421.115 31.6487 420.703 28.0602 420.703C24.4717 420.703 21.5626 421.115 21.5626 421.624C21.5626 422.132 24.4717 422.544 28.0602 422.544Z" fill="#BBB8FA"/>
<path d="M50.1925 411.81C50.1925 411.81 63.0127 368.385 48.1846 350.99C37.0902 337.977 24.4956 339.533 18.8554 341.141C17.397 341.544 16.0406 342.269 14.8798 343.266C13.719 344.263 12.7816 345.509 12.1322 346.916C10.1582 351.31 10.5135 358.443 24.4336 366.77C47.7333 380.71 49.1829 399.829 49.1829 399.829L50.1925 411.81Z" fill="#BBB8FA"/>
<path d="M53.4243 377.825C53.4243 377.825 49.228 377.481 49.1546 379.573M20.8689 347.301C20.8689 347.301 58.6584 359.539 50.1981 411.81L20.8689 347.301ZM42.9447 351.677C42.9447 351.677 37.7388 355.302 39.397 360.751L42.9447 351.677ZM24.6591 354.906C24.6591 354.906 27.8402 351.561 31.715 353.408L24.6591 354.906ZM39.6001 371.724C39.6001 371.724 45.1895 368.81 46.6334 372.464L39.6001 371.724Z" stroke="#565987" stroke-miterlimit="10"/>
<path d="M50.7113 412.154C50.7113 412.154 35.6914 380.593 31.5684 381.269C29.6113 381.601 28.7088 383.6 28.2971 385.593C27.7908 388.179 28.0767 390.863 29.1149 393.273C31.2469 398.343 36.9717 407.929 50.7113 412.154Z" fill="#BBB8FA"/>
<path d="M44.2815 402.131L44.1687 404.952M31.6812 387.271C31.6812 387.271 47.44 410.884 50.4857 411.921L31.6812 387.271ZM30.2317 390.96H33.9091H30.2317ZM34.6367 399.596L40.4067 399.853L34.6367 399.596ZM38.1506 392.685L37.5245 395.791L38.1506 392.685Z" stroke="#565987" stroke-miterlimit="10"/>
<path d="M50.2657 412.154C50.2657 412.154 65.28 380.593 69.403 381.269C71.3658 381.601 72.2683 383.6 72.6744 385.593C73.1806 388.179 72.8948 390.863 71.8565 393.273C69.7245 398.343 63.9941 407.929 50.2657 412.154Z" fill="#BBB8FA"/>
<path d="M56.6956 402.131L56.8084 404.952M69.2959 387.271C69.2959 387.271 53.5032 410.884 50.4857 411.921L69.2959 387.271ZM70.7454 390.96H67.068H70.7454ZM66.3404 399.596L60.5704 399.853L66.3404 399.596ZM62.8265 392.685L63.4526 395.791L62.8265 392.685Z" stroke="#565987" stroke-miterlimit="10"/>
<path d="M24.4787 419.526C24.07 419.181 23.7729 418.715 23.627 418.191C23.5573 417.929 23.5789 417.649 23.6881 417.401C23.7974 417.153 23.9873 416.952 24.2248 416.834C24.7889 416.618 25.3529 417.008 25.8041 417.416C26.2553 417.824 26.7686 418.255 27.3326 418.156C27.0333 417.876 26.8094 417.521 26.6829 417.124C26.5563 416.728 26.5315 416.305 26.6107 415.895C26.6338 415.726 26.7021 415.567 26.8081 415.435C27.1126 415.097 27.6654 415.243 28.032 415.511C29.16 416.35 29.5154 417.976 29.521 419.444C29.5775 418.906 29.5775 418.363 29.521 417.824C29.5061 417.553 29.5559 417.282 29.666 417.035C29.7762 416.788 29.9433 416.573 30.1527 416.408C30.4273 416.253 30.7369 416.177 31.0495 416.187C31.3087 416.148 31.5727 416.167 31.8245 416.241C32.0762 416.316 32.3099 416.444 32.5103 416.618C32.7023 416.888 32.8011 417.217 32.7908 417.552C32.7806 417.887 32.662 418.208 32.4539 418.465C32.0218 418.966 31.5107 419.388 30.9424 419.712C30.5109 419.981 30.1429 420.345 29.8651 420.779C29.831 420.837 29.8044 420.9 29.7861 420.965H26.5035C25.7687 420.582 25.0875 420.098 24.4787 419.526ZM81.6987 406.81C81.2892 406.469 80.9917 406.005 80.8471 405.482C80.7769 405.22 80.7977 404.94 80.9059 404.692C81.0141 404.444 81.2027 404.243 81.4393 404.124C82.0033 403.908 82.5673 404.299 83.0186 404.707C83.4698 405.115 83.9774 405.558 84.5583 405.47C84.2589 405.191 84.0345 404.837 83.907 404.442C83.7795 404.046 83.7533 403.624 83.8307 403.215C83.8558 403.045 83.9261 402.886 84.0338 402.755C84.3384 402.417 84.8911 402.562 85.2577 402.825C86.414 403.669 86.7411 405.295 86.7467 406.764C86.8032 406.223 86.8032 405.678 86.7467 405.138C86.7216 404.87 86.7597 404.599 86.858 404.349C86.9562 404.1 87.1116 403.878 87.3108 403.704C87.5865 403.553 87.8956 403.479 88.2076 403.489C88.4663 403.451 88.7298 403.47 88.9813 403.543C89.2328 403.616 89.4668 403.743 89.6684 403.914C89.861 404.185 89.9596 404.516 89.9483 404.852C89.9371 405.188 89.8166 405.511 89.6063 405.767C89.1774 406.269 88.668 406.691 88.1004 407.014C87.6689 407.28 87.3007 407.643 87.0231 408.075C86.9901 408.136 86.9636 408.2 86.9442 408.267H83.7349C82.9946 407.881 82.3094 407.39 81.6987 406.81ZM62.6291 419.526C62.2208 419.179 61.9222 418.715 61.7718 418.191C61.7021 417.929 61.7238 417.649 61.833 417.401C61.9422 417.153 62.1321 416.952 62.3697 416.834C62.9337 416.618 63.4977 417.008 63.949 417.416C64.4002 417.824 64.9022 418.267 65.4887 418.186C65.1898 417.905 64.9657 417.549 64.8383 417.153C64.7109 416.757 64.6843 416.334 64.7611 415.924C64.7862 415.755 64.8565 415.595 64.9642 415.464C65.2688 415.126 65.8215 415.272 66.1881 415.54C67.3444 416.379 67.6659 418.005 67.6771 419.473C67.7336 418.935 67.7336 418.392 67.6771 417.853C67.6553 417.583 67.6978 417.311 67.8011 417.061C67.9043 416.811 68.065 416.591 68.2694 416.42C68.5436 416.264 68.8534 416.188 69.1662 416.198C69.4253 416.16 69.6893 416.179 69.9409 416.254C70.1926 416.328 70.4264 416.456 70.627 416.63C70.8191 416.9 70.9175 417.229 70.9062 417.564C70.895 417.9 70.7747 418.221 70.5649 418.477C70.1349 418.978 69.6257 419.399 69.059 419.724C68.6276 419.992 68.2596 420.357 67.9817 420.79C67.9476 420.849 67.9211 420.911 67.9028 420.977H64.6314C63.9045 420.587 63.2311 420.099 62.6291 419.526ZM8.54502 393.827C8.54502 393.827 7.32109 395.482 9.10904 397.982C10.897 400.482 12.3747 402.591 11.7769 404.147C11.7769 404.147 9.0752 399.485 6.87551 399.445C4.67583 399.404 6.12536 396.595 8.54502 393.827Z" fill="#BBB8FA"/>
<path opacity="0.1" d="M8.54484 393.827C8.4392 393.987 8.35568 394.162 8.29667 394.346C6.15338 396.951 5.00842 399.381 7.07274 399.445C8.99042 399.503 11.2973 403.046 11.8444 403.943C11.8271 404.012 11.8064 404.081 11.7823 404.147C11.7823 404.147 9.08066 399.485 6.88097 399.445C4.68129 399.404 6.12518 396.595 8.54484 393.827Z" fill="black"/>
<path d="M6.27197 395.937C6.27197 396.519 6.33362 396.991 6.41208 396.991C6.49053 396.991 6.55218 396.519 6.55218 395.937C6.55218 395.354 6.47372 395.628 6.39526 395.628C6.31681 395.628 6.27197 395.354 6.27197 395.937Z" fill="#FFD037"/>
<path d="M5.48783 396.636C5.98417 396.916 6.41283 397.079 6.45231 397.009C6.49179 396.939 6.11954 396.659 5.6232 396.379C5.12686 396.1 5.32427 396.304 5.28478 396.379C5.2453 396.455 4.99149 396.356 5.48783 396.636Z" fill="#FFD037"/>
<path d="M15.0143 393.827C15.0143 393.827 16.2438 395.482 14.4502 397.982C12.6567 400.482 11.1846 402.591 11.7824 404.147C11.7824 404.147 14.4841 399.485 16.6838 399.445C18.8835 399.404 17.4339 396.595 15.0143 393.827Z" fill="#BBB8FA"/>
<path opacity="0.1" d="M15.0143 393.827C15.1206 393.988 15.2059 394.162 15.2681 394.346C17.4113 396.951 18.5563 399.381 16.492 399.445C14.5743 399.503 12.2675 403.046 11.7147 403.943C11.7313 404.013 11.754 404.082 11.7824 404.147C11.7824 404.147 14.4841 399.485 16.6838 399.445C18.8834 399.404 17.4339 396.595 15.0143 393.827Z" fill="black"/>
<path d="M17.2911 395.937C17.2911 396.519 17.2294 396.991 17.151 396.991C17.0725 396.991 17.0109 396.519 17.0109 395.937C17.0109 395.354 17.0893 395.628 17.1678 395.628C17.2462 395.628 17.2911 395.354 17.2911 395.937Z" fill="#FFD037"/>
<path d="M18.077 396.636C17.5807 396.916 17.1464 397.079 17.1125 397.009C17.0787 396.939 17.4453 396.659 17.9416 396.379C18.438 396.1 18.2406 396.304 18.2744 396.379C18.3082 396.455 18.5677 396.356 18.077 396.636Z" fill="#FFD037"/>
<path d="M16.9038 403.932C16.9038 403.932 13.4802 403.821 12.448 403.063C11.4159 402.306 7.18004 401.397 6.92059 402.615C6.66114 403.833 1.77671 408.675 5.64026 408.704C9.50382 408.733 14.6251 408.081 15.6573 407.434C16.6895 406.787 16.9038 403.932 16.9038 403.932Z" fill="#A8A8A8"/>
<path opacity="0.2" d="M5.57264 408.279C9.44183 408.314 14.5575 407.661 15.5897 407.008C16.3737 406.519 16.6839 404.747 16.791 403.926H16.9039C16.9039 403.926 16.6895 406.781 15.6574 407.422C14.6252 408.063 9.50951 408.728 5.64032 408.693C4.51227 408.693 4.14002 408.273 4.16258 407.667C4.31487 408.046 4.77172 408.25 5.57264 408.279Z" fill="black"/>
<path opacity="0.1" d="M19.1429 86.4437C25.8807 86.4437 31.3427 80.8004 31.3427 73.8391C31.3427 66.8777 25.8807 61.2344 19.1429 61.2344C12.4052 61.2344 6.94312 66.8777 6.94312 73.8391C6.94312 80.8004 12.4052 86.4437 19.1429 86.4437Z" fill="#BBB8FA"/>
<path opacity="0.1" d="M605.777 187.17C612.515 187.17 617.977 181.527 617.977 174.566C617.977 167.604 612.515 161.961 605.777 161.961C599.039 161.961 593.577 167.604 593.577 174.566C593.577 181.527 599.039 187.17 605.777 187.17Z" fill="#BBB8FA"/>
<path opacity="0.1" d="M386.474 46.4152C393.212 46.4152 398.674 40.7719 398.674 33.8106C398.674 26.8492 393.212 21.2059 386.474 21.2059C379.736 21.2059 374.274 26.8492 374.274 33.8106C374.274 40.7719 379.736 46.4152 386.474 46.4152Z" fill="#BBB8FA"/>
<path opacity="0.1" d="M43.5425 164.502C54.8344 164.502 63.9883 155.044 63.9883 143.377C63.9883 131.711 54.8344 122.253 43.5425 122.253C32.2506 122.253 23.0967 131.711 23.0967 143.377C23.0967 155.044 32.2506 164.502 43.5425 164.502Z" fill="#BBB8FA"/>
<path d="M242.643 343.024L241.921 342.278C241.843 342.203 241.782 342.113 241.74 342.013C241.698 341.913 241.676 341.804 241.676 341.695C241.676 341.586 241.698 341.478 241.74 341.378C241.782 341.277 241.843 341.187 241.921 341.112L248.255 334.562C248.327 334.483 248.414 334.419 248.511 334.376C248.608 334.332 248.713 334.31 248.819 334.31C248.924 334.31 249.029 334.332 249.126 334.376C249.223 334.419 249.31 334.483 249.383 334.562L255.717 341.107C255.792 341.182 255.853 341.273 255.894 341.373C255.935 341.473 255.956 341.581 255.956 341.689C255.956 341.798 255.935 341.906 255.894 342.006C255.853 342.106 255.792 342.197 255.717 342.272L254.995 343.018C254.922 343.096 254.834 343.159 254.737 343.201C254.64 343.244 254.536 343.265 254.431 343.265C254.325 343.265 254.221 343.244 254.124 343.201C254.027 343.159 253.94 343.096 253.867 343.018L250.121 338.939V348.618C250.122 348.724 250.103 348.829 250.064 348.928C250.025 349.026 249.968 349.115 249.895 349.191C249.823 349.266 249.737 349.326 249.642 349.366C249.547 349.407 249.446 349.428 249.343 349.428H248.3C248.092 349.428 247.892 349.343 247.745 349.191C247.598 349.039 247.516 348.833 247.516 348.618V338.951L243.771 343.03C243.697 343.108 243.609 343.169 243.512 343.211C243.415 343.253 243.311 343.275 243.205 343.274C243.1 343.274 242.996 343.251 242.899 343.208C242.803 343.165 242.715 343.102 242.643 343.024Z" fill="#F6F7F9"/>
<path d="M248.807 328.613C251.35 328.613 253.835 329.391 255.949 330.851C258.062 332.31 259.71 334.384 260.683 336.811C261.656 339.238 261.91 341.908 261.414 344.484C260.918 347.06 259.694 349.427 257.896 351.284C256.099 353.141 253.808 354.406 251.315 354.919C248.822 355.431 246.237 355.168 243.888 354.163C241.539 353.158 239.532 351.456 238.119 349.272C236.707 347.088 235.953 344.52 235.953 341.893C235.956 338.372 237.311 334.996 239.721 332.506C242.131 330.016 245.399 328.616 248.807 328.613ZM248.807 326.864C245.93 326.864 243.118 327.746 240.726 329.397C238.334 331.049 236.469 333.396 235.368 336.142C234.267 338.888 233.979 341.91 234.541 344.825C235.102 347.741 236.487 350.418 238.522 352.52C240.556 354.622 243.148 356.053 245.969 356.633C248.791 357.213 251.716 356.916 254.374 355.778C257.032 354.641 259.304 352.714 260.902 350.243C262.5 347.771 263.353 344.866 263.353 341.893C263.353 337.907 261.821 334.085 259.093 331.266C256.365 328.448 252.665 326.864 248.807 326.864Z" fill="#F6F7F9"/>
<defs>
<linearGradient id="paint0_linear" x1="443.542" y1="331.119" x2="443.542" y2="59.3756" gradientUnits="userSpaceOnUse">
<stop stop-color="#808080" stop-opacity="0.25"/>
<stop offset="0.54" stop-color="#808080" stop-opacity="0.12"/>
<stop offset="1" stop-color="#808080" stop-opacity="0.1"/>
</linearGradient>
<linearGradient id="paint1_linear" x1="946.046" y1="420.505" x2="946.046" y2="417.007" gradientUnits="userSpaceOnUse">
<stop stop-color="#808080" stop-opacity="0.25"/>
<stop offset="0.54" stop-color="#808080" stop-opacity="0.12"/>
<stop offset="1" stop-color="#808080" stop-opacity="0.1"/>
</linearGradient>
<linearGradient id="paint2_linear" x1="41554.8" y1="66969.5" x2="48628.9" y2="57059.2" gradientUnits="userSpaceOnUse">
<stop stop-color="#808080" stop-opacity="0.25"/>
<stop offset="0.54" stop-color="#808080" stop-opacity="0.12"/>
<stop offset="1" stop-color="#808080" stop-opacity="0.1"/>
</linearGradient>
<linearGradient id="paint3_linear" x1="58692.7" y1="53104" x2="62227.6" y2="41396.3" gradientUnits="userSpaceOnUse">
<stop stop-color="#808080" stop-opacity="0.25"/>
<stop offset="0.54" stop-color="#808080" stop-opacity="0.12"/>
<stop offset="1" stop-color="#808080" stop-opacity="0.1"/>
</linearGradient>
<linearGradient id="paint4_linear" x1="64952" y1="39244.2" x2="65967.6" y2="27026.8" gradientUnits="userSpaceOnUse">
<stop stop-color="#808080" stop-opacity="0.25"/>
<stop offset="0.54" stop-color="#808080" stop-opacity="0.12"/>
<stop offset="1" stop-color="#808080" stop-opacity="0.1"/>
</linearGradient>
<linearGradient id="paint5_linear" x1="25622.8" y1="109779" x2="23743.2" y2="69870.1" gradientUnits="userSpaceOnUse">
<stop stop-color="#808080" stop-opacity="0.25"/>
<stop offset="0.54" stop-color="#808080" stop-opacity="0.12"/>
<stop offset="1" stop-color="#808080" stop-opacity="0.1"/>
</linearGradient>
<linearGradient id="paint6_linear" x1="79316.3" y1="72387.9" x2="88957.5" y2="43685.5" gradientUnits="userSpaceOnUse">
<stop stop-color="#808080" stop-opacity="0.25"/>
<stop offset="0.54" stop-color="#808080" stop-opacity="0.12"/>
<stop offset="1" stop-color="#808080" stop-opacity="0.1"/>
</linearGradient>
<linearGradient id="paint7_linear" x1="101577" y1="209231" x2="101577" y2="105385" gradientUnits="userSpaceOnUse">
<stop stop-color="#808080" stop-opacity="0.25"/>
<stop offset="0.54" stop-color="#808080" stop-opacity="0.12"/>
<stop offset="1" stop-color="#808080" stop-opacity="0.1"/>
</linearGradient>
</defs>
</svg>
