<svg width="14" height="12" viewBox="0 0 14 12" fill="none" xmlns="http://www.w3.org/2000/svg">
<path d="M13.6923 1.31703C13.1831 1.54038 12.6406 1.68843 12.0749 1.76032C12.6568 1.41287 13.101 0.866894 13.3098 0.208808C12.7672 0.532288 12.1682 0.760779 11.5298 0.888289C11.0146 0.33974 10.2804 0 9.47935 0C7.92528 0 6.67414 1.2614 6.67414 2.80778C6.67414 3.03028 6.69297 3.24422 6.73918 3.44789C4.4055 3.33408 2.34053 2.21559 0.953327 0.51175C0.711144 0.931933 0.569087 1.41288 0.569087 1.93062C0.569087 2.90277 1.06971 3.76453 1.81594 4.26344C1.36495 4.25488 0.922519 4.12395 0.547692 3.91771C0.547692 3.92627 0.547692 3.93739 0.547692 3.94852C0.547692 5.31261 1.5207 6.44565 2.79665 6.70666C2.56816 6.76913 2.31913 6.79909 2.06069 6.79909C1.88098 6.79909 1.69956 6.78882 1.52926 6.75116C1.89296 7.86281 2.92502 8.68007 4.15219 8.7066C3.19715 9.45368 1.98453 9.90382 0.671779 9.90382C0.441577 9.90382 0.220788 9.89355 0 9.86531C1.24343 10.6672 2.71707 11.125 4.30623 11.125C9.47165 11.125 12.2957 6.84615 12.2957 3.13725C12.2957 3.01316 12.2914 2.89336 12.2854 2.7744C12.8425 2.37904 13.3106 1.88526 13.6923 1.31703Z" fill="#4E7CEB"/>
</svg>
