<svg width="29" height="29" viewBox="0 0 29 29" fill="none" xmlns="http://www.w3.org/2000/svg">
<path d="M14.5 0.000976562C6.49271 0.000976562 0 6.49241 0 14.5003C0 22.5083 6.49207 28.9997 14.5 28.9997C22.5086 28.9997 29 22.5083 29 14.5003C29 6.49241 22.5086 0.000976562 14.5 0.000976562ZM14.5 4.33645C17.1496 4.33645 19.2966 6.48413 19.2966 9.13242C19.2966 11.7814 17.1496 13.9284 14.5 13.9284C11.8517 13.9284 9.70467 11.7814 9.70467 9.13242C9.70467 6.48413 11.8517 4.33645 14.5 4.33645ZM14.4968 25.2088C11.8543 25.2088 9.43398 24.2464 7.56718 22.6535C7.11243 22.2656 6.85002 21.6968 6.85002 21.1C6.85002 18.4142 9.02381 16.2646 11.7103 16.2646H17.291C19.9781 16.2646 22.1436 18.4142 22.1436 21.1C22.1436 21.6975 21.8825 22.265 21.4271 22.6528C19.5609 24.2464 17.14 25.2088 14.4968 25.2088Z" fill="#0000FF"/>
</svg>
