<svg width="29" height="29" viewBox="0 0 29 29" fill="none" xmlns="http://www.w3.org/2000/svg">
<path d="M19.1253 12.1601H16.72V10.7301C16.7194 10.2229 16.5177 9.73655 16.159 9.37787C15.8003 9.01918 15.314 8.81743 14.8067 8.81689C14.7189 8.81684 14.6335 8.84597 14.5641 8.89969C14.4946 8.9534 14.445 9.02868 14.4229 9.11368L13.6309 12.1601H12.5287V11.2766C12.5287 11.2245 12.5185 11.1729 12.4985 11.1248C12.4786 11.0767 12.4494 11.033 12.4126 10.9962C12.3758 10.9594 12.3321 10.9301 12.284 10.9102C12.2358 10.8903 12.1843 10.8801 12.1322 10.8801H8.83147C8.72632 10.8801 8.62548 10.9219 8.55112 10.9962C8.47677 11.0706 8.435 11.1714 8.435 11.2766V19.7857C8.435 19.8908 8.47677 19.9917 8.55112 20.066C8.62548 20.1404 8.72632 20.1822 8.83147 20.1822H12.1313C12.1834 20.1822 12.2349 20.172 12.283 20.152C12.3312 20.1321 12.3749 20.1029 12.4117 20.0661C12.4485 20.0293 12.4777 19.9856 12.4976 19.9375C12.5176 19.8893 12.5278 19.8378 12.5278 19.7857V18.9021H17.9962C18.307 18.9009 18.6092 18.7996 18.8579 18.6131C19.1065 18.4267 19.2885 18.165 19.3768 17.867L20.506 14.0029C20.5686 13.7885 20.5805 13.5625 20.5406 13.3427C20.5008 13.1229 20.4103 12.9154 20.2763 12.7367C20.1423 12.5579 19.9686 12.4128 19.7688 12.3129C19.569 12.2129 19.3487 12.1609 19.1253 12.1608V12.1601ZM11.7357 19.3892H9.22795V11.6724H11.7357V19.3892ZM19.745 13.7795L18.6156 17.6441C18.576 17.7778 18.4943 17.8952 18.3828 17.9788C18.2712 18.0625 18.1356 18.108 17.9962 18.1085H12.5287V12.9531H13.9383C14.0261 12.9531 14.1114 12.9239 14.1808 12.8702C14.2502 12.8165 14.2998 12.7413 14.3219 12.6563L15.1035 9.6497C15.34 9.71496 15.5486 9.85596 15.6974 10.0511C15.8461 10.2462 15.9268 10.4848 15.927 10.7301V12.5566C15.927 12.6618 15.9688 12.7626 16.0432 12.837C16.1175 12.9113 16.2184 12.9531 16.3235 12.9531H19.1253C19.2256 12.9531 19.3244 12.9764 19.4141 13.0212C19.5037 13.0661 19.5817 13.1311 19.6419 13.2113C19.702 13.2915 19.7426 13.3846 19.7605 13.4833C19.7784 13.5819 19.7731 13.6833 19.745 13.7795V13.7795Z" fill="#0000FF"/>
<path d="M28.9337 14.2809L26.8843 11.1805L27.1109 7.47066C27.1158 7.39294 27.0977 7.31549 27.0589 7.248C27.02 7.1805 26.9621 7.12596 26.8925 7.09119L23.5643 5.43508L21.9082 2.10702C21.8731 2.03756 21.8186 1.97983 21.7512 1.94088C21.6839 1.90193 21.6066 1.88346 21.5289 1.88771L17.8191 2.11427L14.7184 0.0657707C14.6535 0.0228732 14.5775 0 14.4998 0C14.422 0 14.346 0.0228732 14.2811 0.0657707L11.1809 2.1154L7.47081 1.88884C7.39305 1.88349 7.31546 1.90137 7.24789 1.94022C7.18031 1.97907 7.12582 2.03713 7.09132 2.10702L5.43587 5.43554L2.10706 7.09119C2.03732 7.12583 1.97934 7.18026 1.94038 7.24767C1.90141 7.31509 1.88318 7.39249 1.88797 7.47021L2.11453 11.18L0.065772 14.2809C0.0228736 14.3457 0 14.4217 0 14.4995C0 14.5772 0.0228736 14.6533 0.065772 14.7181L2.11521 17.8185L1.88865 21.5283C1.88371 21.606 1.9018 21.6835 1.94064 21.751C1.97949 21.8185 2.03737 21.873 2.10706 21.9078L5.43519 23.5639L7.09132 26.8919C7.12616 26.9616 7.18066 27.0195 7.24807 27.0585C7.31548 27.0974 7.39284 27.1158 7.47058 27.1112L11.1805 26.8847L14.2809 28.9343C14.3458 28.9772 14.4218 29 14.4995 29C14.5773 29 14.6533 28.9772 14.7182 28.9343L17.8184 26.8847L21.5285 27.1112C21.6062 27.1153 21.6834 27.0967 21.7508 27.0578C21.8182 27.0189 21.8728 26.9613 21.9082 26.8919L23.5639 23.5641L26.8925 21.9078C26.9622 21.8731 27.0202 21.8187 27.0591 21.7513C27.0981 21.6839 27.1163 21.6065 27.1115 21.5287L26.885 17.8189L28.9344 14.7186C28.9773 14.6536 29.0001 14.5774 29 14.4996C28.9999 14.4218 28.9768 14.3457 28.9337 14.2809V14.2809ZM26.1496 17.4918C26.1021 17.5635 26.0794 17.6487 26.0848 17.7344L26.3034 21.314L23.0913 22.9123C23.014 22.9507 22.9513 23.0133 22.913 23.0906L21.3151 26.3029L17.7355 26.0838C17.6496 26.0785 17.5644 26.1013 17.4928 26.1488L14.4998 28.1271L11.5074 26.1491C11.4425 26.1062 11.3665 26.0833 11.2888 26.0834H11.2645L7.6849 26.3022L6.08699 23.0904C6.04857 23.0131 5.98596 22.9505 5.90869 22.9121L2.69611 21.3144L2.91473 17.7349C2.92013 17.6491 2.89738 17.5639 2.84994 17.4922L0.871864 14.4995L2.84994 11.5072C2.89738 11.4355 2.92013 11.3503 2.91473 11.2645L2.69611 7.68498L5.90824 6.08665C5.98556 6.0483 6.04819 5.98567 6.08654 5.90835L7.68445 2.69605L11.2641 2.91513C11.3498 2.9201 11.4349 2.8973 11.5067 2.85011L14.4998 0.871847L17.4921 2.84988C17.564 2.89717 17.6491 2.91997 17.735 2.9149L21.3146 2.69605L22.9125 5.9079C22.9509 5.98517 23.0135 6.04778 23.0908 6.0862L26.3034 7.68453L26.0848 11.2641C26.0794 11.3498 26.1021 11.435 26.1496 11.5067L28.1276 14.4995L26.1496 17.4918Z" fill="#0000FF"/>
<path d="M14.4997 4.58765C12.5393 4.58765 10.6229 5.16896 8.99291 6.25807C7.36291 7.34718 6.09248 8.89518 5.34227 10.7063C4.59206 12.5174 4.39577 14.5103 4.77823 16.433C5.16068 18.3557 6.1047 20.1218 7.4909 21.508C8.8771 22.8942 10.6432 23.8382 12.566 24.2206C14.4887 24.6031 16.4816 24.4068 18.2928 23.6566C20.1039 22.9064 21.652 21.636 22.7411 20.006C23.8302 18.376 24.4116 16.4597 24.4116 14.4994C24.4086 11.8715 23.3633 9.35218 21.5051 7.49403C19.6469 5.63587 17.1275 4.59064 14.4997 4.58765V4.58765ZM14.4997 23.6181C12.6961 23.6181 10.9331 23.0833 9.43345 22.0813C7.93385 21.0793 6.76505 19.6552 6.07486 17.989C5.38467 16.3227 5.20409 14.4892 5.55594 12.7204C5.9078 10.9515 6.77629 9.32669 8.0516 8.05141C9.32691 6.77613 10.9517 5.90765 12.7206 5.5558C14.4896 5.20395 16.3231 5.38453 17.9893 6.07471C19.6556 6.76489 21.0798 7.93366 22.0818 9.43324C23.0838 10.9328 23.6186 12.6958 23.6186 14.4994C23.6156 16.9169 22.6539 19.2345 20.9444 20.944C19.2349 22.6534 16.9172 23.6151 14.4997 23.6181V23.6181Z" fill="#0000FF"/>
</svg>
