<svg width="29" height="28" viewBox="0 0 29 28" fill="none" xmlns="http://www.w3.org/2000/svg">
<path d="M13.0596 15.2783C13.6454 14.9122 14.176 14.4658 14.6358 13.9541L16.2934 14.9113L17.8026 12.2971L16.1484 11.3419C16.3587 10.6998 16.4824 10.0187 16.5056 9.31266L18.3876 8.98083L17.8632 6.00813L15.9816 6.33996C15.7216 5.69547 15.3727 5.0962 14.9496 4.55764L16.1796 3.09199L13.8673 1.15182L12.6383 2.61622C12.0381 2.29457 11.388 2.05413 10.703 1.90985V0H7.68445V1.90985C6.99933 2.05413 6.3493 2.29457 5.74899 2.61622L4.52011 1.15182L2.20775 3.09206L3.4376 4.55771C3.01459 5.09627 2.66572 5.69561 2.40569 6.34003L0.524089 6.0082L0 8.9809L1.88167 9.31273C1.90486 10.0188 2.02865 10.6998 2.23898 11.3421L0.584598 12.2972L2.09393 14.9113L3.75157 13.9544C4.2112 14.466 4.7418 14.9125 5.32771 15.2785L4.67339 17.076L7.50998 18.1082L8.1634 16.3132C8.50015 16.3608 8.84402 16.3861 9.19372 16.3861C9.54341 16.3861 9.88736 16.3609 10.2241 16.3132L10.8774 18.1084L13.7139 17.0758L13.0596 15.2783ZM9.19358 12.9243C7.06801 12.9243 5.33872 11.1951 5.33872 9.06944C5.33872 6.94394 7.06801 5.21458 9.19358 5.21458C11.3192 5.21458 13.0484 6.94394 13.0484 9.06944C13.0484 11.1951 11.3192 12.9243 9.19358 12.9243Z" fill="#0000FF"/>
<path d="M26.0342 17.545L24.733 17.9659C24.4849 17.5346 24.1782 17.1442 23.825 16.8042L24.5523 15.6436L22.7213 14.4964L21.9945 15.6561C21.5372 15.4873 21.0528 15.381 20.5526 15.3465L20.364 13.9924L18.2238 14.2908L18.4125 15.6449C17.9411 15.8147 17.5038 16.0497 17.1101 16.3369L16.0943 15.42L14.6465 17.024L15.6631 17.9419C15.4165 18.3655 15.2286 18.8248 15.1079 19.3076L13.741 19.2582L13.6628 21.4174L15.0297 21.467C15.1159 21.9653 15.271 22.4356 15.4837 22.8704L14.4052 23.7111L15.7334 25.4152L16.8141 24.5731C17.1906 24.8903 17.611 25.1544 18.0624 25.3562L17.7759 26.6954L19.889 27.1468L20.1752 25.8096C20.4186 25.8103 20.6648 25.7938 20.9126 25.7593C21.1606 25.7248 21.4021 25.6728 21.6359 25.606L22.2767 26.8141L24.1857 25.8017L23.5442 24.5922C23.9236 24.2747 24.2553 23.9055 24.5309 23.4975L25.8005 24.0123L26.6124 22.0098L25.3452 21.496C25.4307 21.02 25.4511 20.5249 25.3981 20.0218L26.6996 19.6006L26.0342 17.545ZM20.571 23.305C19.0637 23.5149 17.6667 22.4598 17.4569 20.9527C17.2466 19.4456 18.302 18.0485 19.8092 17.8387C21.3163 17.6285 22.7129 18.6838 22.9233 20.1911C23.133 21.6981 22.078 23.0948 20.571 23.305Z" fill="#0000FF"/>
<path d="M28.9493 10.0569L28.9999 8.35178L27.9209 8.31972C27.8532 7.94393 27.7324 7.5718 27.555 7.21401L28.4024 6.54453L27.3451 5.20627L26.4979 5.87547C26.1957 5.62436 25.8614 5.41964 25.5066 5.26512L25.7257 4.20648L24.0556 3.8606L23.8361 4.91854C23.4512 4.91909 23.0637 4.97372 22.684 5.08553L22.1723 4.13517L20.6703 4.94408L21.182 5.89458C20.8799 6.14977 20.6207 6.44387 20.4083 6.76455L19.4047 6.36508L18.7739 7.95002L19.7783 8.35012C19.7122 8.73145 19.6993 9.12261 19.7427 9.51315L18.7175 9.85225L19.2528 11.4719L20.278 11.133C20.4788 11.4782 20.7229 11.7835 20.9999 12.0469L20.4328 12.9655L21.8841 13.8618L22.4524 12.9415C22.8183 13.0728 23.2021 13.1528 23.5915 13.1779L23.7474 14.2478L25.4355 14.0012L25.28 12.9327C25.4602 12.8664 25.6379 12.7867 25.812 12.6929C25.9862 12.5993 26.1506 12.4944 26.3051 12.3807L27.1116 13.0987L28.2461 11.825L27.4391 11.1061C27.6326 10.7669 27.7766 10.4024 27.8685 10.0248L28.9493 10.0569ZM24.8846 10.9706C23.8267 11.5401 22.5028 11.1431 21.9335 10.0856C21.3637 9.0279 21.7608 7.70369 22.8187 7.13439C23.8761 6.56468 25.2 6.962 25.7698 8.01967C26.339 9.0774 25.9421 10.4009 24.8846 10.9706Z" fill="#0000FF"/>
</svg>
