<svg width="31" height="31" viewBox="0 0 31 31" fill="none" xmlns="http://www.w3.org/2000/svg">
<path d="M12.1853 30.7017C12.2559 30.7733 12.3417 30.771 12.4275 30.7687C12.4834 30.7673 12.5393 30.7658 12.591 30.7847C12.6423 30.7889 12.6938 30.792 12.7452 30.7952C12.8548 30.802 12.9643 30.8088 13.0725 30.8247C15.3916 31.1697 17.6724 31.004 19.9218 30.3413L12.1853 30.7017ZM12.1853 30.7017C12.1717 30.6989 12.1582 30.6961 12.1447 30.6933M12.1853 30.7017L12.1447 30.6933M12.1447 30.6933C12.1273 30.6896 12.11 30.6859 12.0927 30.6823L12.1447 30.6933ZM1.14455 11.2296L1.14457 11.2295C2.01463 8.42432 3.57378 6.07779 5.81307 4.17465L5.81309 4.17464C5.92546 4.07913 6.03909 3.97717 6.14653 3.88079C6.19564 3.83673 6.24344 3.79384 6.28924 3.75326L6.41182 3.64464L6.43348 3.54433C6.54406 3.42998 6.67767 3.32622 6.83775 3.21539C6.89323 3.17698 6.95683 3.13465 7.0246 3.08954C7.16622 2.99527 7.32607 2.88887 7.46806 2.78084C11.5816 0.345603 15.8836 -0.159911 20.4248 1.36231C20.4458 1.36994 20.4613 1.37603 20.4807 1.38365C20.4949 1.38922 20.5112 1.39562 20.5332 1.40403C20.7561 1.50275 20.9899 1.60085 21.2328 1.68602L21.2486 1.6916L21.2649 1.69609C21.2743 1.69871 21.29 1.70414 21.3261 1.71929L21.3261 1.71937L21.3344 1.72268C21.3721 1.73766 21.4131 1.75724 21.4653 1.78395L21.4794 1.79114L21.4939 1.79742C21.507 1.80313 21.5234 1.81166 21.5608 1.83236C21.7 1.91191 21.8484 1.98033 21.9726 2.03756C22 2.05021 22.0263 2.06231 22.051 2.07387L22.0602 2.07819L22.0696 2.08212C22.0825 2.08754 22.0995 2.09603 22.1346 2.11516C22.2514 2.18174 22.3685 2.2399 22.4754 2.29193C22.4983 2.3031 22.5206 2.3139 22.5424 2.32446C22.6274 2.36564 22.7045 2.40302 22.7814 2.44327L22.7813 2.44339L22.7919 2.44861C22.8031 2.45413 22.8199 2.46382 22.8508 2.48421L22.8619 2.49155L22.8734 2.49828C22.8928 2.50968 22.9125 2.52316 22.9538 2.55148L22.9542 2.55171L22.9664 2.56011L22.9787 2.56747C22.9787 2.56747 22.9787 2.56748 22.9787 2.56749C22.979 2.56765 22.9812 2.56908 22.988 2.57358L22.9902 2.57505C22.998 2.58022 23.0133 2.59046 23.0296 2.60052L23.0374 2.60533L23.0454 2.60986C24.0429 3.17712 24.9373 3.90107 25.8293 4.68108L25.8367 4.68751L25.8443 4.69366C25.8532 4.70087 25.8667 4.71324 25.8904 4.73794C25.9036 4.75203 25.918 4.76759 25.9334 4.78417C25.9884 4.84352 26.0555 4.91599 26.1229 4.98125L26.1318 4.98982L26.141 4.99795C26.1539 5.0092 26.1678 5.0233 26.2001 5.0568L26.212 5.06903L26.2246 5.08044C26.2399 5.09425 26.2574 5.11197 26.2829 5.13926L26.2895 5.14632L26.2962 5.15296C26.2962 5.15304 26.2979 5.15475 26.3046 5.16194C26.3069 5.16443 26.3104 5.16815 26.3146 5.17266C26.3327 5.19584 26.3514 5.21988 26.3706 5.24461C26.5223 5.4402 26.7076 5.67907 26.935 5.88041C26.9411 5.88669 26.9504 5.89722 26.9667 5.9174C27.1047 6.10528 27.2484 6.28789 27.3861 6.463C27.3996 6.48014 27.413 6.4972 27.4264 6.5142C27.5796 6.70908 27.7253 6.8959 27.8615 7.08707C29.7802 9.89146 30.6648 12.9957 30.4748 16.3687C30.2722 19.9519 28.9495 23.0923 26.5054 25.7464L26.5052 25.7467C26.4834 25.7704 26.4638 25.7933 26.4477 25.8124L26.4248 25.8398L26.4053 25.8631C26.399 25.8707 26.3934 25.8772 26.3886 25.8827L26.2606 25.8829L26.118 26.0121C26.0179 26.1029 25.9196 26.1927 25.822 26.2818C25.6006 26.4841 25.3833 26.6825 25.1601 26.8785L25.1598 26.8788C24.3664 27.5766 23.4945 28.1716 22.5636 28.6949C22.4737 28.7453 22.3766 28.8081 22.2986 28.8585C22.2816 28.8696 22.2655 28.88 22.2505 28.8896C22.0964 28.9551 21.9446 29.0207 21.7945 29.0856C21.114 29.3796 20.4659 29.6596 19.7805 29.8616C17.5998 30.5041 15.3923 30.6643 13.146 30.3301L13.1454 30.33C13.0154 30.3109 12.8666 30.3016 12.7489 30.2943C12.7234 30.2927 12.6995 30.2912 12.6774 30.2897C12.6063 30.2731 12.544 30.2692 12.5002 30.2682C12.4859 30.2679 12.4721 30.2679 12.4597 30.268L12.4347 30.2427L12.2864 30.2121C12.2654 30.2077 12.2444 30.2033 12.2227 30.1987C11.9288 30.1028 11.6529 30.0226 11.386 29.945C10.9508 29.8185 10.5397 29.699 10.1134 29.5296L10.1133 29.5296C7.3936 28.449 5.16584 26.7385 3.42216 24.3884L3.42204 24.3883C3.34513 24.2847 3.2593 24.178 3.18135 24.0811C3.16524 24.0611 3.14946 24.0415 3.13417 24.0224C3.07511 23.8768 2.98526 23.7366 2.85343 23.6185C2.84238 23.5775 2.82623 23.5351 2.80328 23.4924C2.76574 23.4227 2.71736 23.3661 2.66387 23.3212C2.63151 23.198 2.56271 23.0469 2.41278 22.9303L2.41356 22.9167L2.36622 22.8076C2.18503 22.3901 1.98264 21.9732 1.74275 21.5701L1.69314 21.4867C1.66658 21.2299 1.55687 21.0226 1.43421 20.861L1.43453 20.8593L1.40583 20.7498C1.26303 20.2046 1.09549 19.6665 0.900537 19.1363L0.847343 18.9917L0.838172 18.9851C0.838903 18.9742 0.839571 18.9625 0.840074 18.9504L0.8409 18.9306L0.840151 18.9108C0.839759 18.9004 0.8396 18.8874 0.839413 18.8721C0.838048 18.7601 0.835184 18.5253 0.728014 18.2967C0.733599 18.1464 0.725644 17.8874 0.562383 17.6501L0.54154 17.6198L0.516488 17.5929C0.515864 17.5922 0.515159 17.5916 0.514402 17.591C0.507797 17.5852 0.497188 17.5759 0.500602 17.4949C0.502374 17.4529 0.506615 17.4149 0.512681 17.3607C0.51518 17.3384 0.517989 17.3133 0.521062 17.284C0.529764 17.201 0.539788 17.088 0.531494 16.9663C0.504685 16.0088 0.509603 15.0496 0.535432 14.0882C0.535434 14.0882 0.53543 14.0882 0.535432 14.0882C0.643235 13.6518 0.693142 13.2155 0.725683 12.7974C0.76993 12.6293 0.811391 12.4655 0.852153 12.3045C0.94501 11.9375 1.03424 11.585 1.14455 11.2296ZM2.68681 23.441C2.6874 23.4437 2.68763 23.4453 2.68759 23.4453C2.68755 23.4454 2.68725 23.444 2.68681 23.441Z" fill="#07043B" stroke="white"/>
<path fill-rule="evenodd" clip-rule="evenodd" d="M24.101 9.32555C24.6197 9.27894 25.093 9.04997 25.6827 8.89093C25.3472 9.464 24.9979 9.92576 24.5427 10.2384C23.9133 10.6706 23.8096 11.2194 23.7801 11.9314C23.5907 16.4959 20.4192 20.9007 15.66 22.0504C12.9205 22.7123 10.2701 22.4937 7.73766 21.2043C7.50868 21.0877 7.27266 20.9789 7 20.7469C8.01892 20.7314 8.9609 20.668 9.87256 20.3913C10.7799 20.1159 11.626 19.7249 12.4607 19.0801C10.7274 18.8557 9.5481 18.0294 8.94189 16.3862C9.43675 16.316 9.90606 16.4672 10.4444 16.2894C8.662 15.6056 7.65711 14.4002 7.56592 12.4579C8.10446 12.6332 8.56696 12.8859 9.15233 12.8597C7.55822 11.4131 7.19075 9.74115 8.05603 7.8122C8.28524 7.82305 8.35155 7.97169 8.4441 8.0744C10.1479 9.96354 12.2458 11.1493 14.7495 11.6102C15.0532 11.6663 15.3598 11.7086 15.6668 11.7427C16.0825 11.7891 16.0929 11.7737 16.0442 11.3789C15.8363 9.68821 16.7242 8.064 18.298 7.37101C19.7498 6.7321 21.1327 6.92057 22.3672 7.91944C22.675 8.1683 22.9421 8.22079 23.2989 8.11308C23.9231 7.92464 24.5205 7.67735 25.1879 7.29364C24.945 8.15042 24.4757 8.71784 23.8962 9.21333C23.865 9.43277 23.9906 9.36468 24.101 9.32555Z" fill="white"/>
</svg>
