<svg width="15" height="15" viewBox="0 0 15 15" fill="none" xmlns="http://www.w3.org/2000/svg">
<path d="M7.5 4C5.56585 4 4 5.56755 4 7.5C4 9.43415 5.56755 11 7.5 11C9.43415 11 11 9.43245 11 7.5C11 5.56585 9.43245 4 7.5 4ZM7.5 9.77176C6.24448 9.77176 5.22824 8.75495 5.22824 7.5C5.22824 6.24505 6.24505 5.22824 7.5 5.22824C8.75495 5.22824 9.77176 6.24505 9.77176 7.5C9.77233 8.75495 8.75552 9.77176 7.5 9.77176Z" fill="#627FC1"/>
<path d="M10.5926 0.0471158C9.21264 -0.017258 5.79452 -0.0141331 4.41327 0.0471158C3.19952 0.10399 2.12889 0.39711 1.26577 1.26022C-0.176733 2.70269 0.00764204 4.64641 0.00764204 7.49699C0.00764204 10.4144 -0.154858 12.3132 1.26577 13.7338C2.71389 15.1812 4.68577 14.9919 7.50264 14.9919C10.3926 14.9919 11.3901 14.9937 12.412 14.5981C13.8014 14.0587 14.8501 12.8169 14.9526 10.5863C15.0176 9.2057 15.0139 5.78827 14.9526 4.40704C14.8289 1.77396 13.4158 0.177114 10.5926 0.0471158ZM12.777 12.7794C11.8314 13.725 10.5195 13.6406 7.48452 13.6406C4.35952 13.6406 3.10639 13.6869 2.19202 12.77C1.13889 11.7219 1.32952 10.0388 1.32952 7.48699C1.32952 4.03392 0.975142 1.54709 4.44077 1.36959C5.23702 1.34147 5.47139 1.33209 7.47577 1.33209L7.50389 1.35084C10.8345 1.35084 13.4476 1.0021 13.6045 4.46704C13.6401 5.25765 13.6483 5.49515 13.6483 7.49636C13.6476 10.5851 13.7064 11.8457 12.777 12.7794Z" fill="#627FC1"/>
<path d="M12 4C12.5523 4 13 3.55228 13 3C13 2.44772 12.5523 2 12 2C11.4477 2 11 2.44772 11 3C11 3.55228 11.4477 4 12 4Z" fill="#627FC1"/>
</svg>
