<svg width="166" height="49" viewBox="0 0 166 49" fill="none" xmlns="http://www.w3.org/2000/svg">
<path fill-rule="evenodd" clip-rule="evenodd" d="M0 14.1V14.223L27.95 27.353L56 14.179V14.146L27.95 0.969971L0 14.1ZM10.077 14.162L27.95 5.76497L45.827 14.162L27.95 22.558L10.076 14.162H10.077ZM27.95 32.453L0 19.52V24.304L27.95 37.268L56 24.259V19.475L27.95 32.453ZM27.95 42.156L0 29.22V34.003L27.95 46.97L56 33.96V29.176L27.95 42.156V42.156Z" fill="white"/>
<mask id="mask0" mask-type="alpha" maskUnits="userSpaceOnUse" x="72" y="0" width="94" height="49">
<path d="M72.014 0H165.974V48.29H72.015L72.014 0Z" fill="white"/>
</mask>
<g mask="url(#mask0)">
<path fill-rule="evenodd" clip-rule="evenodd" d="M159.56 24.122C159.576 22.0568 158.803 20.0633 157.399 18.549C156.738 17.8408 155.943 17.272 155.059 16.876C154.163 16.4741 153.191 16.2692 152.209 16.275C151.199 16.275 150.248 16.475 149.357 16.876C148.473 17.272 147.678 17.8408 147.017 18.549C145.613 20.0638 144.84 22.0576 144.857 24.123C144.84 26.1881 145.613 28.1815 147.017 29.696C147.678 30.4039 148.473 30.9724 149.357 31.368C150.253 31.7704 151.225 31.9757 152.208 31.97C153.218 31.97 154.168 31.77 155.06 31.368C155.943 30.9722 156.739 30.4037 157.399 29.696C158.803 28.1814 159.576 26.1875 159.559 24.122H159.56ZM165.975 24.122C165.975 26.054 165.618 27.845 164.905 29.495C164.22 31.1036 163.221 32.5589 161.965 33.775C160.718 34.98 159.255 35.931 157.577 36.629C155.899 37.328 154.109 37.677 152.208 37.677C150.308 37.677 148.525 37.328 146.862 36.629C145.237 35.9559 143.756 34.9799 142.496 33.753C141.243 32.526 140.244 31.0642 139.556 29.451C138.843 27.801 138.486 26.025 138.486 24.122C138.486 22.249 138.85 20.488 139.578 18.838C140.282 17.2218 141.288 15.7541 142.54 14.513C143.795 13.2744 145.278 12.2903 146.907 11.615C148.586 10.9134 150.389 10.557 152.208 10.567C154.109 10.567 155.898 10.917 157.577 11.615C159.255 12.313 160.717 13.265 161.965 14.469C163.213 15.673 164.193 17.107 164.905 18.771C165.618 20.436 165.975 22.22 165.975 24.122V24.122ZM136.258 36.875C135.708 37.1282 135.133 37.3226 134.543 37.455C133.905 37.603 133.243 37.677 132.561 37.677C131.634 37.6803 130.712 37.5527 129.821 37.298C128.976 37.0621 128.192 36.6436 127.526 36.072C126.873 35.507 126.353 34.772 125.966 33.865C125.581 32.958 125.388 31.865 125.388 30.588V-0.000976562H131.937V29.473C131.937 30.543 132.152 31.279 132.583 31.68C133.013 32.081 133.526 32.282 134.12 32.282C134.862 32.282 135.575 32.059 136.258 31.613V36.875V36.875ZM122.492 11.19L110.908 41.824C110.047 44.113 108.918 45.763 107.522 46.774C106.126 47.784 104.462 48.289 102.532 48.289C102.235 48.289 101.909 48.267 101.552 48.223C101.206 48.1804 100.863 48.1132 100.527 48.022L98.389 42.047C98.8895 42.2831 99.412 42.4697 99.949 42.604C100.483 42.738 100.988 42.805 101.463 42.805C102.473 42.805 103.393 42.575 104.225 42.114C105.057 41.654 105.695 40.799 106.141 39.55L107.032 36.964L97.097 11.191H104.092L110.017 27.779L115.587 11.191H122.492V11.19ZM95.538 7.31202H78.786V15.606H95.315V21.224H78.785V37.008H72.015V1.38202H95.539V7.31202H95.538Z" fill="white"/>
</g>
</svg>
