<svg width="86" height="25" viewBox="0 0 86 25" fill="none" xmlns="http://www.w3.org/2000/svg">
<path d="M4.768 24.064C5.323 24.064 5.6 23.819 5.6 23.328V15.328C5.6 15.093 5.717 14.976 5.952 14.976H10.752C13.355 14.976 15.451 14.341 17.04 13.072C18.63 11.802 19.424 10.016 19.424 7.712C19.424 6.091 19.014 4.725 18.192 3.616C17.371 2.506 16.262 1.68 14.864 1.136C13.467 0.592 11.883 0.32 10.112 0.32H0.512C0.171 0.32 0 0.523 0 0.928V23.424C0 23.637 0.048 23.797 0.144 23.904C0.24 24.011 0.416 24.064 0.672 24.064H4.768ZM9.984 10.976H6.048C5.878 10.976 5.76 10.928 5.696 10.832C5.632 10.736 5.6 10.582 5.6 10.368V4.896C5.6 4.683 5.648 4.533 5.744 4.448C5.84 4.363 5.994 4.32 6.208 4.32H9.76C10.955 4.32 11.904 4.597 12.608 5.152C13.312 5.707 13.664 6.528 13.664 7.616C13.664 8.661 13.334 9.483 12.672 10.08C12.011 10.677 11.115 10.976 9.984 10.976ZM27.616 24.064C27.936 24.064 28.16 24.005 28.288 23.888C28.416 23.771 28.48 23.573 28.48 23.296V0.896C28.48 0.512 28.31 0.32 27.968 0.32H23.392C23.051 0.32 22.88 0.523 22.88 0.928V23.392C22.88 23.627 22.933 23.797 23.04 23.904C23.147 24.011 23.328 24.064 23.584 24.064H27.616ZM36.928 24.064C37.163 24.064 37.328 24.027 37.424 23.952C37.52 23.877 37.568 23.755 37.568 23.584V9.408C37.568 9.301 37.605 9.238 37.68 9.216C37.755 9.195 37.835 9.237 37.92 9.344L48.128 23.68C48.256 23.85 48.373 23.957 48.48 24C48.587 24.043 48.736 24.064 48.928 24.064H52.16C52.3165 24.0688 52.4696 24.0177 52.592 23.92C52.6479 23.8766 52.693 23.8207 52.7235 23.7568C52.7541 23.6929 52.7693 23.6228 52.768 23.552V0.8C52.768 0.48 52.629 0.32 52.352 0.32H48.8C48.416 0.32 48.224 0.512 48.224 0.896V14.112C48.224 14.347 48.171 14.464 48.064 14.464C47.979 14.464 47.872 14.379 47.744 14.208L38.336 0.8C38.186 0.587 38.059 0.453 37.952 0.4C37.845 0.347 37.664 0.32 37.408 0.32H33.536C33.152 0.32 32.96 0.523 32.96 0.928V23.52C32.96 23.883 33.173 24.064 33.6 24.064H36.928ZM67.104 24.384C68.768 24.384 70.117 24.096 71.152 23.52C72.1779 22.9513 73.085 22.1909 73.824 21.28C73.974 21.11 74.08 21.099 74.144 21.248L75.072 23.552C75.264 23.893 75.542 24.064 75.904 24.064H76.928C77.078 24.064 77.195 24.021 77.28 23.936C77.324 23.889 77.3581 23.8336 77.3801 23.7731C77.4021 23.7126 77.4116 23.6483 77.408 23.584V12.8C77.4126 12.6946 77.3934 12.5896 77.3518 12.4927C77.3103 12.3957 77.2474 12.3094 77.168 12.24C77.008 12.101 76.778 12.032 76.48 12.032L67.936 12C67.595 12 67.424 12.15 67.424 12.448V14.848C67.424 15.04 67.467 15.178 67.552 15.264C67.637 15.349 67.765 15.392 67.936 15.392H71.808C72.043 15.392 72.16 15.488 72.16 15.68C72.16 15.765 72.15 15.83 72.128 15.872L72.064 16.8C71.829 17.845 71.328 18.715 70.56 19.408C69.792 20.101 68.768 20.448 67.488 20.448C65.803 20.448 64.512 19.798 63.616 18.496C62.72 17.195 62.272 15.061 62.272 12.096C62.272 9.259 62.699 7.189 63.552 5.888C64.405 4.587 65.653 3.936 67.296 3.936C68.555 3.936 69.579 4.299 70.368 5.024C71.158 5.749 71.658 6.667 71.872 7.776C71.915 7.968 71.968 8.101 72.032 8.176C72.096 8.251 72.213 8.288 72.384 8.288L76.608 7.648C76.885 7.627 77.024 7.498 77.024 7.264C77.024 7.072 77.003 6.912 76.96 6.784C76.747 5.611 76.208 4.507 75.344 3.472C74.48 2.437 73.36 1.6 71.984 0.96C70.608 0.32 69.088 0 67.424 0C65.248 0 63.328 0.501 61.664 1.504C60 2.507 58.709 3.936 57.792 5.792C56.875 7.648 56.416 9.813 56.416 12.288C56.416 14.698 56.853 16.816 57.728 18.64C58.603 20.464 59.845 21.877 61.456 22.88C63.066 23.883 64.949 24.384 67.104 24.384Z" fill="#15202A"/>
<path d="M84.832 24.064C85.152 24.064 85.382 24.005 85.52 23.888C85.659 23.771 85.728 23.573 85.728 23.296V19.296C85.728 18.933 85.568 18.752 85.248 18.752H80.864C80.7961 18.7496 80.7284 18.7612 80.6651 18.7859C80.6018 18.8107 80.5443 18.8482 80.496 18.896C80.4 18.992 80.352 19.136 80.352 19.328V23.392C80.352 23.84 80.587 24.064 81.056 24.064H84.832Z" fill="#4C7BF3"/>
</svg>
