<svg width="75" height="75" viewBox="0 0 75 75" fill="none" xmlns="http://www.w3.org/2000/svg">
<circle cx="37.5" cy="37.5" r="37.5" fill="#2248B6"/>
<g clip-path="url(#clip0)">
<path d="M54.8727 57.2449V62.1669C54.8727 62.627 54.4996 63.0001 54.0394 63.0001C53.5793 63.0001 53.2062 62.627 53.2062 62.1669V57.2449C53.2062 53.4126 50.1051 50.3113 46.2724 50.3114C44.459 50.3114 42.8137 49.3875 41.871 47.84C41.6317 47.447 41.7562 46.9343 42.1492 46.695C42.5422 46.4555 43.0548 46.5801 43.2943 46.9732C43.9319 48.02 45.0452 48.6449 46.2724 48.6449C51.0257 48.6447 54.8727 52.4913 54.8727 57.2449V57.2449ZM40.3323 48.8926C40.4303 49.3422 40.1452 49.7861 39.6956 49.8841C37.5028 50.3619 35.2725 49.8836 33.4968 48.6716C31.7389 50.5554 29.4165 50.3114 29.7274 50.3114C25.8951 50.3113 22.7936 53.4123 22.7936 57.2449V62.1669C22.7936 62.627 22.4206 63.0001 21.9604 63.0001C21.5003 63.0001 21.1272 62.627 21.1272 62.1669V57.2449C21.1272 52.4918 24.9735 48.6449 29.7272 48.6449C31.6501 48.6449 33.2089 47.0956 33.2089 45.1722V44.9528C29.572 43.2138 27.0192 39.5593 26.8636 35.3037C25.367 34.9439 24.2518 33.6043 24.2518 32.0104V27.6909C24.2063 25.5766 24.5202 20.2811 28.3812 16.5593C33.1488 11.9635 40.7945 12.2554 46.4165 14.9618C46.9644 15.2259 47.0476 15.9662 46.5926 16.3496C49.4407 17.0443 51.8966 18.7951 53.4744 21.3008C53.5559 21.4298 53.705 21.6324 53.6661 21.9556C53.6419 22.1567 53.582 22.3269 53.427 22.4842C52.4115 23.514 51.8523 24.8788 51.8523 26.327V32.0106C51.8523 32.4708 51.4793 32.8439 51.0191 32.8439C50.559 32.8439 50.1859 32.4708 50.1859 32.0106V26.327C50.1859 24.6567 50.7565 23.0713 51.8046 21.7977C50.2071 19.513 47.7148 18.0436 44.896 17.7418L43.4315 17.5849C42.5751 17.4933 42.4071 16.3135 43.2029 15.986L43.869 15.7117C35.1945 12.6877 25.9181 16.0477 25.9181 27.6818V32.0104C25.9181 32.6716 26.2989 33.2462 26.8555 33.5348V28.1331C26.8555 24.9171 29.472 22.3006 32.6881 22.3006H43.3117C46.5277 22.3006 49.1443 24.9169 49.1443 28.1328V34.9551C49.1443 42.2015 42.0631 47.7056 34.8576 45.5843C34.8107 46.1788 34.6627 46.7525 34.4216 47.2857C35.8233 48.2483 37.5934 48.6366 39.3407 48.2558C39.7904 48.1579 40.2343 48.443 40.3323 48.8926V48.8926ZM37.9999 44.3697C43.2261 44.3697 47.4778 40.118 47.4778 34.8918V28.1328C47.4778 25.8358 45.6089 23.967 43.3117 23.967H32.6881C30.3909 23.967 28.522 25.8359 28.522 28.1331V34.8918C28.522 40.118 32.7737 44.3697 37.9999 44.3697ZM46.4363 58.7298H43.9366C43.4765 58.7298 43.1034 59.1029 43.1034 59.5631C43.1034 60.0232 43.4765 60.3963 43.9366 60.3963H46.4363C46.8964 60.3963 47.2695 60.0232 47.2695 59.5631C47.2695 59.1029 46.8964 58.7298 46.4363 58.7298Z" fill="white"/>
</g>
<defs>
<clipPath id="clip0">
<rect width="50" height="50" fill="white" transform="translate(13 13)"/>
</clipPath>
</defs>
</svg>
