<svg width="75" height="75" viewBox="0 0 75 75" fill="none" xmlns="http://www.w3.org/2000/svg">
<circle cx="37.5" cy="37.5" r="37.5" fill="#2248B6"/>
<g clip-path="url(#clip0)">
<path d="M61.8908 21.4316L38.5658 13.0982C38.1975 12.9682 37.7958 12.9682 37.4275 13.0982L14.1083 21.4316C13.4474 21.6698 13.0068 22.2969 13.0068 22.9995C13.0068 23.702 13.4474 24.3292 14.1083 24.5674L25.5 28.6374V33.8332C25.5 37.0732 36.7208 37.1666 38 37.1666C39.2792 37.1666 50.5 37.0732 50.5 33.8332V28.6374L53 27.7499V29.6666C53 30.587 53.7462 31.3332 54.6667 31.3332H56.3333C57.2538 31.3332 58 30.587 58 29.6666V27.1666C57.9975 26.7807 57.9045 26.4008 57.7283 26.0574L61.895 24.5674C62.5559 24.3292 62.9965 23.702 62.9965 22.9995C62.9965 22.2969 62.5559 21.6698 61.895 21.4316H61.8908ZM48.8333 31.9999C45.6592 30.5549 38.9708 30.4999 38 30.4999C37.0292 30.4999 30.3408 30.5549 27.1667 31.9999V24.7399C27.6667 24.0982 31.5967 22.9999 38 22.9999C44.4033 22.9999 48.3333 24.0982 48.8333 24.7399V31.9999ZM38 35.4999C31.8333 35.4999 27.9608 34.4816 27.2367 33.8332C27.9608 33.1849 31.835 32.1666 38 32.1666C44.165 32.1666 48.0392 33.1849 48.7633 33.8332C48.0392 34.4816 44.1667 35.4999 38 35.4999V35.4999ZM53.3908 25.8374L50.5 26.8682V24.6666C50.5 21.4266 39.2792 21.3332 38 21.3332C36.7208 21.3332 25.5 21.4266 25.5 24.6666V26.8674L14.6667 22.9999L38.0117 14.6666L54.6667 20.6182V24.8199C54.1397 25.0072 53.6906 25.3653 53.3908 25.8374ZM56.3333 29.6666H54.6667V27.1666C54.6667 26.7063 55.0398 26.3332 55.5 26.3332C55.9602 26.3332 56.3333 26.7063 56.3333 27.1666V29.6666ZM56.3333 24.7866V21.2141L61.3333 22.9999L56.3333 24.7866Z" fill="white"/>
<path d="M60.5 38.8333C60.45 38.8331 60.4 38.8376 60.3508 38.8466C52.9569 39.9961 45.4826 40.549 38 40.4999C30.5174 40.549 23.0431 39.9961 15.6492 38.8466C15.5999 38.8382 15.55 38.8337 15.5 38.8333C14.9167 38.8333 13 39.4941 13 47.9999C13 56.5057 14.9167 57.1666 15.5 57.1666C15.55 57.1655 15.5999 57.1605 15.6492 57.1516C21.3306 56.2517 27.0653 55.7288 32.8158 55.5866L31.1892 59.4882C30.9392 60.113 31.0912 60.8268 31.5739 61.2956C32.0565 61.7644 32.7745 61.8954 33.3917 61.6274L34.0292 61.3549L34.305 61.9891C34.5655 62.604 35.1697 63.0025 35.8375 62.9999H35.8583C36.5312 62.9947 37.1343 62.584 37.3858 61.9599L38.8333 58.4949L40.2758 61.9466C40.5251 62.5765 41.1309 62.9929 41.8083 62.9999H41.8333C42.4966 63.0026 43.0975 62.6091 43.36 61.9999L43.6383 61.3607L44.2658 61.6299C44.8857 61.9035 45.6096 61.7732 46.0951 61.3005C46.5806 60.8279 46.7303 60.1077 46.4733 59.4807L44.8783 55.6557C50.063 55.8393 55.2316 56.3403 60.355 57.1557C60.4029 57.1637 60.4514 57.1673 60.5 57.1666C61.0833 57.1666 63 56.5057 63 47.9999C63 39.4941 61.0833 38.8333 60.5 38.8333V38.8333ZM40.6667 42.1416C41.0127 43.4141 41.2143 44.7215 41.2675 46.0391C39.378 45.1605 37.1619 45.3665 35.4667 46.5782C35.424 45.0818 35.2323 43.5933 34.8942 42.1349C35.9036 42.156 36.9389 42.1666 38 42.1666C38.9108 42.1666 39.795 42.1566 40.6667 42.1416V42.1416ZM38.8333 55.4999C36.5321 55.4999 34.6667 53.6344 34.6667 51.3332C34.6667 49.0321 36.5321 47.1666 38.8333 47.1666C41.1345 47.1666 43 49.0321 43 51.3332C42.9972 53.6333 41.1334 55.4972 38.8333 55.4999V55.4999ZM15.5 40.9166C16.1385 43.2212 16.4196 45.6101 16.3333 47.9999C16.4196 50.3898 16.1385 52.7787 15.5 55.0832C14.8615 52.7787 14.5804 50.3898 14.6667 47.9999C14.5804 45.6101 14.8615 43.2212 15.5 40.9166ZM17.1833 55.2249C17.6392 53.9032 18 51.6916 18 47.9999C18 44.3083 17.6392 42.0966 17.1825 40.7733C22.478 41.5046 27.8096 41.945 33.1533 42.0924C33.6532 44.0205 33.882 46.0087 33.8333 47.9999C33.8333 48.1207 33.8333 48.2357 33.8283 48.3516C32.8283 50.0112 32.7275 52.0619 33.56 53.8116L33.5233 53.8999C28.056 54.0339 22.6007 54.4768 17.1833 55.2266V55.2249ZM35.8392 61.3332L35.2308 59.9332C35.0479 59.5129 34.5597 59.3192 34.1383 59.4999L32.7358 60.1199L34.69 55.4349C35.4923 56.2479 36.5158 56.8072 37.6333 57.0432L35.8392 61.3332ZM43.5283 59.4999C43.107 59.3192 42.6188 59.5129 42.4358 59.9332L41.8192 61.3191L40.0325 57.0416C41.1509 56.8054 42.1753 56.2458 42.9783 55.4324L44.9283 60.0991L43.5283 59.4999ZM60.3333 55.4582C54.9794 54.6342 49.5808 54.1333 44.1667 53.9582L44.1075 53.8149C45.1555 51.6065 44.7062 48.9781 42.9842 47.2432C42.9777 45.515 42.7781 43.793 42.3892 42.1091C48.3982 41.9745 54.3921 41.4507 60.3333 40.5408C60.72 41.1974 61.3333 43.7949 61.3333 47.9999C61.3333 52.2049 60.7158 54.8016 60.3333 55.4582V55.4582Z" fill="white"/>
</g>
<defs>
<clipPath id="clip0">
<rect width="50" height="50" fill="white" transform="translate(13 13)"/>
</clipPath>
</defs>
</svg>
