<svg width="35" height="35" viewBox="0 0 35 35" fill="none" xmlns="http://www.w3.org/2000/svg">
<g clip-path="url(#clip0)">
<path d="M34.5918 2.86543C34.2878 2.62043 33.8678 2.55699 33.5002 2.70137L0.687232 15.8266C0.282538 15.9884 0.0112834 16.3756 0.000345716 16.8131C-0.010592 17.2507 0.238787 17.651 0.636918 17.8347L10.938 22.5904L33.9071 3.71638L15.3131 24.6095V35.4356L23.0745 28.1927L29.0727 30.9599C29.2192 31.0256 29.3767 31.0606 29.5321 31.0606C29.7071 31.0606 29.8843 31.0168 30.0418 30.9337C30.3458 30.774 30.5536 30.4831 30.6105 30.1462L34.9856 3.89576C35.049 3.50857 34.9003 3.11262 34.5918 2.86543Z" fill="white"/>
</g>
<defs>
<clipPath id="clip0">
<rect width="35" height="35" fill="white"/>
</clipPath>
</defs>
</svg>
