<svg width="75" height="75" viewBox="0 0 75 75" fill="none" xmlns="http://www.w3.org/2000/svg">
<circle cx="37.5" cy="37.5" r="37.5" fill="#2248B6"/>
<path d="M60.0703 13H28.8203C27.2048 13 25.8906 14.3142 25.8906 15.9297V30.3828H14.9531C13.8762 30.3828 13 31.259 13 32.3359V61.0469C13 62.1238 13.8762 63 14.9531 63H35.6562C36.7331 63 37.6094 62.1238 37.6094 61.0469V32.3359C37.6094 31.259 36.7331 30.3828 35.6562 30.3828H27.8438V23.297C28.5491 23.8582 29.3937 24.2297 30.2955 24.3651L40.3438 25.8723V34.1906C40.3438 36.4524 42.1836 38.2922 44.4453 38.2922C46.707 38.2922 48.5469 36.4524 48.5469 34.1906V25.8723L58.5952 24.3651C59.497 24.2297 60.3415 23.8582 61.0469 23.297V55.3828C61.0469 55.9214 60.6089 56.3594 60.0703 56.3594H44.4453C43.9059 56.3594 43.4688 56.7965 43.4688 57.3359C43.4688 57.8753 43.9059 58.3125 44.4453 58.3125H60.0703C61.6858 58.3125 63 56.9983 63 55.3828V15.9297C63 14.3142 61.6858 13 60.0703 13ZM35.6574 61.0469C35.6574 61.0469 35.657 61.0469 35.6562 61.0469H14.9531V32.3359H35.6562L35.6574 61.0469ZM44.4453 26.4766C45.2327 26.4766 45.9685 26.253 46.5938 25.867V30.6987C45.9685 30.3122 45.2327 30.0891 44.4453 30.0891C43.658 30.0891 42.9221 30.3122 42.2969 30.6987V25.867C42.9221 26.253 43.658 26.4766 44.4453 26.4766ZM44.4453 24.5234C43.2605 24.5234 42.2969 23.5598 42.2969 22.375C42.2969 21.1902 43.2605 20.2266 44.4453 20.2266C45.6302 20.2266 46.5938 21.1902 46.5938 22.375C46.5938 23.5598 45.6302 24.5234 44.4453 24.5234ZM44.4453 36.3391C43.2605 36.3391 42.2969 35.3751 42.2969 34.1906C42.2969 33.0058 43.2605 32.0422 44.4453 32.0422C45.6302 32.0422 46.5938 33.0058 46.5938 34.1906C46.5938 35.3751 45.6302 36.3391 44.4453 36.3391ZM58.3053 22.4337L48.5469 23.8974V22.375C48.5469 20.1133 46.707 18.2734 44.4453 18.2734C42.1836 18.2734 40.3438 20.1133 40.3438 22.375V23.8974L30.5854 22.4337C28.9969 22.1953 27.8438 20.8564 27.8438 19.25V15.9297C27.8438 15.3911 28.2817 14.9531 28.8203 14.9531H60.0703C60.6089 14.9531 61.0469 15.3911 61.0469 15.9297V19.25C61.0469 20.8564 59.8937 22.1953 58.3053 22.4337Z" fill="white"/>
<path d="M44.4453 21.3984C44.1886 21.3984 43.9364 21.503 43.7549 21.6845C43.5733 21.8661 43.4688 22.1183 43.4688 22.375C43.4688 22.6317 43.5733 22.8839 43.7549 23.0655C43.9364 23.247 44.1886 23.3516 44.4453 23.3516C44.702 23.3516 44.9542 23.247 45.1358 23.0655C45.3174 22.8839 45.4219 22.6317 45.4219 22.375C45.4219 22.1183 45.3174 21.8661 45.1358 21.6845C44.9542 21.503 44.702 21.3984 44.4453 21.3984Z" fill="white"/>
<path d="M44.4453 33.2137C44.1886 33.2137 43.9364 33.3183 43.7549 33.5002C43.5733 33.6818 43.4688 33.9336 43.4688 34.1903C43.4688 34.4474 43.5733 34.6992 43.7549 34.8808C43.9364 35.0627 44.1886 35.1669 44.4453 35.1669C44.702 35.1669 44.9542 35.0627 45.1358 34.8808C45.3174 34.6992 45.4219 34.4474 45.4219 34.1903C45.4219 33.9336 45.3174 33.6818 45.1358 33.5002C44.9542 33.3183 44.702 33.2137 44.4453 33.2137Z" fill="white"/>
<path d="M30.9688 52.5508H19.6406C19.1012 52.5508 18.6641 52.9879 18.6641 53.5273C18.6641 54.0667 19.1012 54.5039 19.6406 54.5039H30.9688C31.5081 54.5039 31.9453 54.0667 31.9453 53.5273C31.9453 52.9879 31.5081 52.5508 30.9688 52.5508Z" fill="white"/>
<path d="M28.932 56.457H21.6772C21.1378 56.457 20.7007 56.8942 20.7007 57.4336C20.7007 57.973 21.1378 58.4102 21.6772 58.4102H28.9324C29.4718 58.4102 29.909 57.973 29.909 57.4336C29.909 56.8942 29.4714 56.457 28.932 56.457Z" fill="white"/>
<path d="M25.3047 50.207C29.5051 50.207 32.9219 46.7898 32.9219 42.5898C32.9219 38.3895 29.5047 34.9727 25.3047 34.9727C21.1047 34.9727 17.6875 38.3899 17.6875 42.5898C17.6875 46.7902 21.1043 50.207 25.3047 50.207ZM22.0626 47.23C22.6458 45.996 23.9028 45.1762 25.3047 45.1762C26.7066 45.1762 27.9635 45.996 28.5468 47.23C27.6275 47.8743 26.5101 48.2539 25.3047 48.2539C24.0992 48.2539 22.9819 47.8743 22.0626 47.23ZM24.1988 42.1172V41.5965C24.1988 40.9865 24.6947 40.4902 25.3047 40.4902C25.9147 40.4902 26.4109 40.9865 26.4109 41.5965V42.1172C26.4109 42.7272 25.9147 43.2231 25.3047 43.2231C24.6947 43.2231 24.1988 42.7268 24.1988 42.1172ZM25.3047 36.9258C28.4278 36.9258 30.9688 39.4668 30.9688 42.5898C30.9688 43.7758 30.6018 44.8771 29.9762 45.7877C29.4455 44.9565 28.7024 44.2843 27.8331 43.8369C28.1676 43.3463 28.3637 42.7543 28.3637 42.1168V41.5961C28.3637 39.9096 26.9915 38.5371 25.3047 38.5371C23.6178 38.5371 22.2453 39.9096 22.2453 41.5961V42.1168C22.2453 42.7543 22.4414 43.3467 22.7763 43.8369C21.9069 44.2843 21.1638 44.9565 20.6328 45.7877C20.0076 44.8771 19.6406 43.7758 19.6406 42.5898C19.6406 39.4668 22.1816 36.9258 25.3047 36.9258V36.9258Z" fill="white"/>
<path d="M40.5391 56.3594C40.2823 56.3594 40.0302 56.4639 39.8486 56.6455C39.667 56.8271 39.5625 57.0792 39.5625 57.3359C39.5625 57.5927 39.667 57.8448 39.8486 58.0264C40.0302 58.208 40.2823 58.3125 40.5391 58.3125C40.7958 58.3125 41.0479 58.208 41.2295 58.0264C41.4111 57.8448 41.5156 57.5927 41.5156 57.3359C41.5156 57.0792 41.4111 56.8271 41.2295 56.6455C41.0479 56.4639 40.7958 56.3594 40.5391 56.3594Z" fill="white"/>
</svg>
