<svg width="35" height="35" viewBox="0 0 35 35" fill="none" xmlns="http://www.w3.org/2000/svg">
<path d="M34.4574 10.6198L32.1973 9.17889V1.02539C32.1973 0.459102 31.7382 0 31.1719 0H26.25C25.6837 0 25.2246 0.459102 25.2246 1.02539V4.73382L18.0512 0.160781C17.7149 -0.0535254 17.285 -0.0535254 16.9488 0.160781L0.5425 10.6198C0.247187 10.808 0.0683594 11.1341 0.0683594 11.4844V16.4062C0.0683594 17.2126 0.960039 17.7046 1.64233 17.2726L2.80273 16.5376V33.9746C2.80273 34.5409 3.26184 35 3.82812 35H31.1719C31.7382 35 32.1973 34.5409 32.1973 33.9746V16.5376L33.3576 17.2725C34.0393 17.7043 34.9316 17.2133 34.9316 16.4062V11.4844C34.9316 11.1341 34.7528 10.808 34.4574 10.6198ZM27.2754 2.05078H30.1465V7.87151L27.2754 6.04119V2.05078ZM8.68164 32.9492V21.875C8.68164 20.3296 9.93897 19.0723 11.4844 19.0723C13.0298 19.0723 14.2871 20.3296 14.2871 21.875V32.9492H8.68164ZM30.1465 32.9492H16.3379V21.875C16.3379 19.1988 14.1606 17.0215 11.4844 17.0215C8.80817 17.0215 6.63086 19.1988 6.63086 21.875V32.9492H4.85352V15.2388L17.5 7.22935L30.1465 15.2388V32.9492ZM32.8809 14.5431L18.0487 5.14938C17.7137 4.93719 17.2864 4.93719 16.9513 5.14938L2.11914 14.5433V12.0468L17.5 2.24144L32.8809 12.0468V14.5431Z" fill="white"/>
<path d="M19.6875 26.7285H27.3438C27.91 26.7285 28.3691 26.2694 28.3691 25.7031C28.3691 25.1368 27.91 24.6777 27.3438 24.6777H27.2754V20.7812C27.2754 18.7081 25.5888 17.0215 23.5156 17.0215C21.4425 17.0215 19.7559 18.7081 19.7559 20.7812V24.6777H19.6875C19.1212 24.6777 18.6621 25.1368 18.6621 25.7031C18.6621 26.2694 19.1212 26.7285 19.6875 26.7285ZM21.8066 20.7812C21.8066 19.8389 22.5733 19.0723 23.5156 19.0723C24.458 19.0723 25.2246 19.8389 25.2246 20.7812V24.6777H21.8066V20.7812Z" fill="white"/>
</svg>
