<svg width="41" height="41" viewBox="0 0 41 41" fill="none" xmlns="http://www.w3.org/2000/svg">
<g clip-path="url(#clip0)">
<path d="M30.7446 0.231735L8.9 0.800668C8.07129 0.822252 7.41798 1.51049 7.43957 2.33921L8.39399 38.9848C8.41557 39.8135 9.10381 40.4668 9.93253 40.4452L31.7771 39.8763C32.6058 39.8547 33.2591 39.1665 33.2376 38.3377L32.2831 1.69217C32.2616 0.863454 31.5723 0.210177 30.7446 0.231735ZM16.0382 2.44438L23.7026 2.24476C23.9775 2.2376 24.2083 2.45567 24.2155 2.73157C24.2227 3.00748 24.0036 3.23726 23.7287 3.24442L16.0643 3.44404C15.7883 3.45122 15.5586 3.23313 15.5514 2.95722C15.5442 2.68132 15.7613 2.45159 16.0382 2.44438ZM20.8116 38.4993C20.0758 38.5185 19.4634 37.9362 19.4443 37.2015C19.4252 36.4667 20.0064 35.8524 20.7421 35.8332C21.4779 35.8141 22.0903 36.3973 22.1094 37.1311C22.1285 37.8648 21.5473 38.4802 20.8116 38.4993ZM30.1259 34.0883L11.2803 34.5791L10.5079 4.9222L29.3535 4.43138L30.1259 34.0883V34.0883Z" fill="white"/>
</g>
<defs>
<clipPath id="clip0">
<rect width="39.658" height="39.658" fill="white" transform="translate(0 1.03247) rotate(-1.49191)"/>
</clipPath>
</defs>
</svg>
