<svg width="75" height="75" viewBox="0 0 75 75" fill="none" xmlns="http://www.w3.org/2000/svg">
<circle cx="37.5" cy="37.5" r="37.5" fill="#2248B6"/>
<path d="M58.1172 20.8125C58.6565 20.8125 59.0938 20.3753 59.0938 19.8359C59.0938 19.2966 58.6565 18.8594 58.1172 18.8594C57.5778 18.8594 57.1406 19.2966 57.1406 19.8359C57.1406 20.3753 57.5778 20.8125 58.1172 20.8125Z" fill="white"/>
<path d="M58.1172 57.1406C58.6565 57.1406 59.0938 56.7034 59.0938 56.1641C59.0938 55.6247 58.6565 55.1875 58.1172 55.1875C57.5778 55.1875 57.1406 55.6247 57.1406 56.1641C57.1406 56.7034 57.5778 57.1406 58.1172 57.1406Z" fill="white"/>
<path d="M54.2109 20.8125C54.7503 20.8125 55.1875 20.3753 55.1875 19.8359C55.1875 19.2966 54.7503 18.8594 54.2109 18.8594C53.6716 18.8594 53.2344 19.2966 53.2344 19.8359C53.2344 20.3753 53.6716 20.8125 54.2109 20.8125Z" fill="white"/>
<path d="M54.2109 57.1406C54.7503 57.1406 55.1875 56.7034 55.1875 56.1641C55.1875 55.6247 54.7503 55.1875 54.2109 55.1875C53.6716 55.1875 53.2344 55.6247 53.2344 56.1641C53.2344 56.7034 53.6716 57.1406 54.2109 57.1406Z" fill="white"/>
<path d="M50.3047 20.8125C50.844 20.8125 51.2812 20.3753 51.2812 19.8359C51.2812 19.2966 50.844 18.8594 50.3047 18.8594C49.7653 18.8594 49.3281 19.2966 49.3281 19.8359C49.3281 20.3753 49.7653 20.8125 50.3047 20.8125Z" fill="white"/>
<path d="M50.3047 57.1406C50.844 57.1406 51.2812 56.7034 51.2812 56.1641C51.2812 55.6247 50.844 55.1875 50.3047 55.1875C49.7653 55.1875 49.3281 55.6247 49.3281 56.1641C49.3281 56.7034 49.7653 57.1406 50.3047 57.1406Z" fill="white"/>
<path d="M25.6953 20.8125C26.2347 20.8125 26.6719 20.3753 26.6719 19.8359C26.6719 19.2966 26.2347 18.8594 25.6953 18.8594C25.156 18.8594 24.7188 19.2966 24.7188 19.8359C24.7188 20.3753 25.156 20.8125 25.6953 20.8125Z" fill="white"/>
<path d="M25.6953 57.1406C26.2347 57.1406 26.6719 56.7034 26.6719 56.1641C26.6719 55.6247 26.2347 55.1875 25.6953 55.1875C25.156 55.1875 24.7188 55.6247 24.7188 56.1641C24.7188 56.7034 25.156 57.1406 25.6953 57.1406Z" fill="white"/>
<path d="M21.7891 20.8125C22.3284 20.8125 22.7656 20.3753 22.7656 19.8359C22.7656 19.2966 22.3284 18.8594 21.7891 18.8594C21.2497 18.8594 20.8125 19.2966 20.8125 19.8359C20.8125 20.3753 21.2497 20.8125 21.7891 20.8125Z" fill="white"/>
<path d="M21.7891 57.1406C22.3284 57.1406 22.7656 56.7034 22.7656 56.1641C22.7656 55.6247 22.3284 55.1875 21.7891 55.1875C21.2497 55.1875 20.8125 55.6247 20.8125 56.1641C20.8125 56.7034 21.2497 57.1406 21.7891 57.1406Z" fill="white"/>
<path d="M17.8828 20.8125C18.4222 20.8125 18.8594 20.3753 18.8594 19.8359C18.8594 19.2966 18.4222 18.8594 17.8828 18.8594C17.3435 18.8594 16.9062 19.2966 16.9062 19.8359C16.9062 20.3753 17.3435 20.8125 17.8828 20.8125Z" fill="white"/>
<path d="M17.8828 57.1406C18.4222 57.1406 18.8594 56.7034 18.8594 56.1641C18.8594 55.6247 18.4222 55.1875 17.8828 55.1875C17.3435 55.1875 16.9062 55.6247 16.9062 56.1641C16.9062 56.7034 17.3435 57.1406 17.8828 57.1406Z" fill="white"/>
<path d="M15.9297 26.6719H19.4313L23.0516 30.2921C23.331 30.5715 23.7509 30.6548 24.1158 30.5038C24.4807 30.3526 24.7187 29.9966 24.7187 29.6016V26.6719H27.6483C29.2638 26.6719 30.578 25.3576 30.578 23.7422V15.9297C30.578 14.3143 29.2638 13 27.6483 13H15.9297C14.3143 13 13 14.3143 13 15.9297V23.7422C13 25.3576 14.3143 26.6719 15.9297 26.6719ZM14.9531 15.9297C14.9531 15.3912 15.3912 14.9531 15.9297 14.9531H27.6484C28.1869 14.9531 28.625 15.3912 28.625 15.9297V23.7422C28.625 24.2807 28.1869 24.7188 27.6484 24.7188H23.7422C23.2029 24.7188 22.7656 25.1561 22.7656 25.6953V27.2438L20.5265 25.0047C20.3433 24.8217 20.0949 24.7188 19.8359 24.7188H15.9297C15.3912 24.7188 14.9531 24.2807 14.9531 23.7422V15.9297Z" fill="white"/>
<path d="M60.0703 13H48.3516C46.7361 13 45.4219 14.3143 45.4219 15.9297V23.7422C45.4219 25.3576 46.7361 26.6719 48.3516 26.6719H51.2812V29.6016C51.2812 29.9966 51.5192 30.3526 51.8841 30.5038C52.2491 30.6548 52.669 30.5714 52.9483 30.2921L56.5687 26.6719H60.0703C61.6857 26.6719 63 25.3576 63 23.7422V15.9297C63 14.3143 61.6857 13 60.0703 13ZM61.0469 23.7422C61.0469 24.2807 60.6088 24.7187 60.0703 24.7187H56.1641C55.9051 24.7187 55.6567 24.8217 55.4735 25.0048L53.2344 27.2438V25.6953C53.2344 25.1561 52.7971 24.7187 52.2578 24.7187H48.3516C47.8131 24.7187 47.375 24.2807 47.375 23.7422V15.9297C47.375 15.3912 47.8131 14.9531 48.3516 14.9531H60.0703C60.6088 14.9531 61.0469 15.3912 61.0469 15.9297V23.7422Z" fill="white"/>
<path d="M27.6484 49.3281H24.7188V46.3984C24.7188 46.0034 24.4808 45.6473 24.1159 45.4962C23.751 45.3452 23.331 45.4286 23.0517 45.7079L19.4313 49.3281H15.9297C14.3143 49.3281 13 50.6423 13 52.2578V60.0703C13 61.6857 14.3143 63 15.9297 63H27.6484C29.2639 63 30.5781 61.6857 30.5781 60.0703V52.2578C30.5781 50.6423 29.2639 49.3281 27.6484 49.3281ZM28.625 60.0703C28.625 60.6088 28.1869 61.0468 27.6484 61.0468H15.9297C15.3912 61.0468 14.9531 60.6088 14.9531 60.0703V52.2578C14.9531 51.7193 15.3912 51.2812 15.9297 51.2812H19.8359C20.0949 51.2812 20.3433 51.1783 20.5265 50.9952L22.7656 48.7561V50.3047C22.7656 50.8439 23.2029 51.2812 23.7422 51.2812H27.6484C28.1869 51.2812 28.625 51.7193 28.625 52.2578V60.0703Z" fill="white"/>
<path d="M60.0703 49.3281H56.5687L52.9484 45.7079C52.6691 45.4286 52.2491 45.3452 51.8842 45.4962C51.5192 45.6473 51.2812 46.0034 51.2812 46.3984V49.3281H48.3516C46.7361 49.3281 45.4219 50.6423 45.4219 52.2578V60.0703C45.4219 61.6857 46.7361 63 48.3516 63H60.0703C61.6857 63 63 61.6857 63 60.0703V52.2578C63 50.6423 61.6857 49.3281 60.0703 49.3281V49.3281ZM61.0469 60.0703C61.0469 60.6088 60.6088 61.0468 60.0703 61.0468H48.3516C47.8131 61.0468 47.375 60.6088 47.375 60.0703V52.2578C47.375 51.7193 47.8131 51.2812 48.3516 51.2812H52.2578C52.7971 51.2812 53.2344 50.8439 53.2344 50.3047V48.7561L55.4735 50.9953C55.6567 51.1784 55.9051 51.2813 56.1641 51.2813H60.0703C60.6088 51.2813 61.0469 51.7194 61.0469 52.2579V60.0703Z" fill="white"/>
<path d="M49.3281 46.3984V29.6016C49.3281 29.0623 48.8908 28.625 48.3516 28.625H42.8828V27.6484C42.8828 26.033 41.5686 24.7188 39.9531 24.7188H36.0469C34.4314 24.7188 33.1172 26.033 33.1172 27.6484V28.625H27.6484C27.1092 28.625 26.6719 29.0623 26.6719 29.6016V46.3984C26.6719 46.9377 27.1092 47.375 27.6484 47.375H33.6054C34.1446 47.375 34.5819 46.9377 34.5819 46.3984C34.5819 45.8592 34.1446 45.4219 33.6054 45.4219H28.625V37.4114C29.4417 38.0259 30.4563 38.3906 31.5547 38.3906H37.0234V39.3672C37.0234 39.9064 37.4607 40.3438 38 40.3438C38.5393 40.3438 38.9766 39.9064 38.9766 39.3672V38.3906H44.4453C45.5438 38.3906 46.5583 38.0259 47.375 37.4114V45.4219H42.3946C41.8554 45.4219 41.4181 45.8592 41.4181 46.3984C41.4181 46.9377 41.8554 47.375 42.3946 47.375H48.3516C48.8908 47.375 49.3281 46.9377 49.3281 46.3984ZM35.0703 27.6484C35.0703 27.11 35.5084 26.6719 36.0469 26.6719H39.9531C40.4916 26.6719 40.9297 27.11 40.9297 27.6484V28.625H35.0703V27.6484ZM44.4453 36.4375H31.5547C29.9393 36.4375 28.625 35.1232 28.625 33.5078V30.5781H47.375V33.5078C47.375 35.1232 46.0607 36.4375 44.4453 36.4375Z" fill="white"/>
<path d="M38 47.375C38.5393 47.375 38.9766 46.9378 38.9766 46.3984C38.9766 45.8591 38.5393 45.4219 38 45.4219C37.4607 45.4219 37.0234 45.8591 37.0234 46.3984C37.0234 46.9378 37.4607 47.375 38 47.375Z" fill="white"/>
</svg>
