<svg width="75" height="75" viewBox="0 0 75 75" fill="none" xmlns="http://www.w3.org/2000/svg">
<circle cx="37.5" cy="37.5" r="37.5" fill="#2248B6"/>
<g clip-path="url(#clip0)">
<path d="M36.5573 50.001C36.1813 49.725 35.6521 49.8056 35.3757 50.1818L35.2713 50.3239C34.9952 50.6999 35.0756 51.2283 35.4512 51.505C35.6021 51.6162 35.7778 51.6699 35.952 51.6699C36.211 51.6699 36.4668 51.5512 36.6324 51.3267L36.7384 51.1827C37.0147 50.8064 36.9336 50.2773 36.5573 50.001Z" fill="white"/>
<path d="M36.7779 58.0432L34.6038 54.0899L36.6337 51.3252C36.9101 50.9489 36.829 50.4198 36.4526 50.1435C36.0763 49.867 35.5472 49.9481 35.271 50.3246L32.9216 53.5243C32.7267 53.7896 32.7037 54.1437 32.8622 54.432L35.2966 58.8579V58.8578C35.4506 59.1376 35.7397 59.2959 36.0381 59.2959C36.1759 59.2958 36.3155 59.2621 36.4447 59.1911C36.8537 58.9662 37.0029 58.4523 36.7779 58.0432Z" fill="white"/>
<path d="M43.0784 53.5244L40.7386 50.3377C40.5445 50.0735 40.2157 49.9451 39.894 50.0088C39.5725 50.072 39.3165 50.3155 39.237 50.6334C39.176 50.8775 39.2269 51.1359 39.3758 51.3388L41.3957 54.0899L39.2364 58.0164C39.1679 58.1411 39.1318 58.2817 39.1318 58.4242C39.1318 58.8101 39.3932 59.147 39.7669 59.243C39.8369 59.261 39.9075 59.2697 39.9772 59.2697C40.2799 59.2697 40.5667 59.1064 40.718 58.8317L43.1377 54.4323C43.2964 54.1437 43.2731 53.7896 43.0784 53.5244Z" fill="white"/>
<path d="M44.4182 40.2395C44.1402 40.0935 43.8041 40.1134 43.5454 40.2917C43.0425 40.6381 42.5759 41.0051 42.1586 41.3823C39.8836 43.439 37.7221 43.1607 37.6375 43.1485C37.5865 43.1405 37.5346 43.1368 37.4834 43.1385C36.5842 43.1615 34.9631 42.3399 33.2482 40.9931C32.9859 40.7871 32.7169 40.5908 32.4484 40.4096C32.1894 40.2346 31.8547 40.2169 31.5788 40.3637C31.3027 40.5104 31.1301 40.7975 31.1301 41.1102V44.0102C31.1301 44.2666 31.2468 44.509 31.4468 44.6695C31.4705 44.6886 31.4951 44.7062 31.5205 44.7224L37.5147 48.7279C37.5157 48.7284 37.5166 48.7292 37.5175 48.7299L37.5334 48.7404C37.6745 48.8338 37.8371 48.881 38.0003 48.881C38.1376 48.881 38.2749 48.8477 38.4004 48.7806C38.4268 48.7664 38.4522 48.7509 38.4766 48.7343C38.4795 48.7324 38.4823 48.7306 38.4852 48.7286C38.4885 48.7265 38.4919 48.7242 38.4952 48.722L44.4753 44.726C44.4993 44.7108 44.5227 44.6943 44.5453 44.6768C44.7505 44.5166 44.8704 44.2708 44.8704 44.0105V40.9879C44.8704 40.6736 44.6964 40.3856 44.4182 40.2395ZM43.1796 43.558L38.0002 47.019L32.8209 43.5579V42.7891C34.082 43.7056 35.9372 44.8297 37.4494 44.8296C37.4525 44.8296 37.456 44.8296 37.4592 44.8296C37.967 44.8858 40.5561 45.0384 43.1798 42.7368V43.558H43.1796Z" fill="white"/>
<path d="M38.8338 47.8968C38.778 47.5615 38.5268 47.2923 38.1961 47.2134C37.8652 47.1349 37.5197 47.2614 37.3185 47.5354L35.3755 50.182C35.0991 50.5584 35.1802 51.0875 35.5566 51.3638C35.7073 51.4745 35.8825 51.5278 36.0562 51.5278C36.3162 51.5278 36.5726 51.4082 36.7385 51.1825L38.6714 48.5499C38.7813 48.4061 38.8454 48.2272 38.8454 48.036C38.8453 47.9895 38.8414 47.9427 38.8338 47.8968Z" fill="white"/>
<path d="M50.8789 20.6438C50.8621 20.5113 50.4661 17.6533 47.7759 16.5259C47.854 16.0239 47.8458 15.3788 47.5271 14.7512C47.0988 13.9076 46.2536 13.3579 45.0148 13.1171C44.9617 13.1067 44.9078 13.1016 44.8536 13.1016H33.5072C28.9 13.1016 25.1516 16.8498 25.1516 21.4572V25.9095C25.1516 27.0695 25.547 28.2006 26.2648 29.0944C26.6207 29.5375 27.0589 30.3115 27.1251 31.4816C27.1508 31.9384 27.5333 32.2914 27.9929 32.2787C28.4503 32.2659 28.8144 31.8912 28.8144 31.4337V25.629C29.3884 23.2551 31.3475 22.7931 31.6843 22.7307H35.3545C35.7862 22.7307 36.2107 22.6648 36.6165 22.5347C37.3143 22.3109 38.4215 21.8989 39.2275 21.5928C39.7668 21.3878 40.3638 21.3803 40.9085 21.5717L44.8376 22.951C46.8018 23.6756 47.1524 25.4 47.1959 25.6709V32.6374C47.1959 33.0799 47.537 33.447 47.9782 33.4799C47.9997 33.4815 48.0208 33.4824 48.0419 33.4824C48.4565 33.4823 48.8145 33.1785 48.8773 32.7621C48.8807 32.7404 49.2182 30.56 50.3066 28.8143C50.6854 28.2066 50.8856 27.5137 50.8856 26.8106V20.7505C50.8856 20.7149 50.8834 20.6792 50.8789 20.6438ZM49.1948 26.8102C49.1948 27.1878 49.0883 27.5624 48.8865 27.8955V25.6131C48.8865 25.5825 48.8849 25.5522 48.8815 25.5218C48.8683 25.399 48.5189 22.502 45.4149 21.3617C45.4111 21.3604 45.4073 21.359 45.4035 21.3576L41.4684 19.9762C41.0248 19.8204 40.5606 19.7427 40.0968 19.7427C39.5979 19.7427 39.0994 19.8326 38.627 20.0123C37.4985 20.441 36.6246 20.7566 36.1001 20.9247C35.8615 21.0012 35.6106 21.0401 35.3544 21.0401H31.616C31.5797 21.0401 31.5434 21.0424 31.5074 21.047C31.3643 21.0655 27.9925 21.545 27.144 25.3483C27.1305 25.4087 27.1237 25.4704 27.1237 25.5323V27.2722C26.9396 26.8468 26.8421 26.3822 26.8421 25.9096V21.4574C26.8421 17.7824 29.8321 14.7925 33.507 14.7925H44.7683C45.2345 14.8918 45.8011 15.0956 46.016 15.5103C46.2792 16.0178 45.9794 16.7166 45.9791 16.7172C45.871 16.9472 45.8723 17.2135 45.9821 17.4425C46.0921 17.6715 46.2993 17.8389 46.5464 17.8983C48.6985 18.4164 49.1375 20.4806 49.1947 20.8145V26.8102H49.1948Z" fill="white"/>
<path d="M48.882 25.5217C48.8687 25.399 48.5194 22.5019 45.4154 21.3617C45.4116 21.3603 45.4078 21.3589 45.404 21.3576L41.4689 19.9761C40.548 19.6529 39.539 19.6658 38.6274 20.0121C37.4989 20.4408 36.6249 20.7563 36.1004 20.9246C35.8618 21.001 35.611 21.0398 35.3547 21.0398H31.6163C31.5801 21.0398 31.5438 21.0421 31.5077 21.0467C31.3647 21.0653 27.9929 21.5448 27.1443 25.348C27.1309 25.4085 27.124 25.4702 27.124 25.5321V32.7993C27.124 32.8055 27.1241 32.8118 27.1242 32.818C27.1298 33.0705 27.3084 39.0321 31.4275 41.7586L31.4488 41.7736C31.4665 41.7861 31.4842 41.7986 31.5026 41.811C31.7375 41.9696 31.9734 42.1418 32.204 42.3228C33.404 43.2651 35.6655 44.8297 37.4494 44.8297C37.4528 44.8297 37.4559 44.8297 37.4593 44.8297C37.5562 44.8403 37.7291 44.8546 37.9637 44.8546C38.9747 44.8546 41.1318 44.5896 43.2923 42.6365C43.6549 42.3089 44.0626 41.9884 44.5046 41.6839L44.5678 41.6396C44.5884 41.6251 44.609 41.6104 44.6303 41.5962C46.0043 40.6733 48.384 38.2921 48.8837 32.7126C48.8859 32.6876 48.8871 32.6623 48.8871 32.6371V25.613C48.887 25.5826 48.8852 25.5522 48.882 25.5217ZM47.1961 32.5989C46.7355 37.6343 44.5901 39.5863 43.6875 40.1925C43.6555 40.214 43.6239 40.2363 43.5922 40.2586L43.5454 40.2916C43.0425 40.638 42.5759 41.005 42.1585 41.3822C39.892 43.4312 37.7376 43.1625 37.632 43.1476C37.5828 43.1403 37.533 43.1372 37.4833 43.1386C36.5842 43.1616 34.9631 42.34 33.2482 40.9931C32.9859 40.7871 32.7169 40.5908 32.4487 40.4098L32.4279 40.3952C32.4076 40.3807 32.3874 40.3664 32.3636 40.3506C29.0396 38.1505 28.8221 33.0019 28.8147 32.7871V25.6289C29.3908 23.2462 31.362 22.7895 31.6833 22.7305H35.3548C35.7865 22.7305 36.2111 22.6646 36.6168 22.5345C37.3147 22.3107 38.4219 21.8988 39.2279 21.5926C39.7671 21.3876 40.3642 21.3801 40.9088 21.5715L44.8379 22.9508C46.8022 23.6754 47.1528 25.3999 47.1962 25.6708V32.5989H47.1961Z" fill="white"/>
<path d="M38.756 47.658C38.6243 47.3946 38.3649 47.2187 38.0714 47.1937C37.7785 47.1695 37.4927 47.2983 37.3184 47.5358L35.2934 50.2938C35.0173 50.67 35.098 51.1987 35.4739 51.4751C35.6246 51.5861 35.8001 51.6397 35.9741 51.6397C36.2334 51.6397 36.4895 51.5207 36.6552 51.2958L38.6803 48.5479C38.7874 48.4026 38.8453 48.2168 38.8453 48.0364C38.8453 47.9052 38.8146 47.7755 38.756 47.658Z" fill="white"/>
<path d="M38.8101 61.2693C38.4926 60.9372 37.9678 60.9195 37.6288 61.2298L37.4355 61.4065C37.1462 61.6711 37.0767 62.1 37.268 62.4424L37.2739 62.453C37.403 62.6844 37.6333 62.8418 37.8957 62.8782C37.9345 62.8836 37.9734 62.8862 38.0121 62.8862C38.2346 62.8862 38.4502 62.7982 38.6098 62.6386L38.797 62.4512C39.1219 62.1263 39.1278 61.6013 38.8101 61.2693Z" fill="white"/>
<path d="M38.5645 61.4065L38.3712 61.2297C38.0322 60.9195 37.5074 60.9372 37.1898 61.2693C36.8721 61.6015 36.878 62.1266 37.203 62.4514L37.3905 62.6388C37.5501 62.7985 37.7656 62.8863 37.9881 62.8863C38.0279 62.8863 38.0678 62.8836 38.1078 62.8778C38.371 62.8403 38.6013 62.6808 38.7293 62.4476L38.7353 62.4369C38.9226 62.0951 38.8521 61.6694 38.5645 61.4065Z" fill="white"/>
<path d="M38.5787 61.4196L38.5776 61.4186C38.447 61.2966 38.2782 61.2161 38.0921 61.1957C37.843 61.1685 37.6003 61.2529 37.4239 61.4173L37.4213 61.4196C37.2504 61.5755 37.1509 61.7947 37.1459 62.026C37.141 62.2574 37.231 62.4806 37.395 62.6436L37.4039 62.6525C37.5688 62.8165 37.7843 62.8984 37.9999 62.8984C38.2164 62.8984 38.4327 62.8158 38.5976 62.651L38.6065 62.6421C38.7698 62.4787 38.8592 62.2557 38.8539 62.0249C38.8488 61.7939 38.7493 61.5753 38.5787 61.4196Z" fill="white"/>
<path d="M38.2743 47.2177C37.9242 47.1056 37.54 47.2356 37.3268 47.5354C37.0884 47.8712 37.1277 48.3287 37.4182 48.6206C37.5817 48.7848 37.7987 48.869 38.0174 48.869C38.1872 48.869 38.3579 48.8182 38.5052 48.7145C38.7302 48.5562 38.864 48.2984 38.864 48.0232V48.0212C38.864 47.6533 38.6248 47.3296 38.2743 47.2177Z" fill="white"/>
<path d="M38.6869 47.5285L38.6796 47.5187C38.4628 47.2252 38.0819 47.1043 37.7353 47.2184C37.3887 47.3326 37.1545 47.6564 37.1545 48.0213V48.0357C37.1545 48.3469 37.3292 48.6306 37.6035 48.7779C37.7277 48.8446 37.8648 48.8775 38.0017 48.8775C38.1669 48.8775 38.3318 48.8297 38.4736 48.7357C38.6669 48.6078 38.7992 48.406 38.8395 48.1778C38.8798 47.9497 38.8247 47.7148 38.6869 47.5285Z" fill="white"/>
<path d="M48.0566 44.8728C47.969 44.6413 47.7844 44.4598 47.5514 44.3764L44.3101 43.2145C44.2838 43.2051 44.2565 43.1967 44.2294 43.1901C43.998 43.1322 43.7529 43.1747 43.5547 43.3073L37.549 47.3204C37.5475 47.3215 37.5457 47.3225 37.544 47.3237L38.0156 48.0249L37.5335 47.3308C37.3573 47.4473 37.2311 47.6259 37.18 47.8308C37.1518 47.9433 37.1473 48.0608 37.1663 48.1752C37.1881 48.3058 37.2402 48.4297 37.3187 48.5366L41.7157 54.525C41.8755 54.7428 42.129 54.8701 42.397 54.8701C42.4153 54.8701 42.4338 54.8694 42.4522 54.8681C42.7402 54.8492 42.9987 54.6849 43.1378 54.4319L48.0066 45.5796C48.1261 45.3626 48.1443 45.1042 48.0566 44.8728ZM42.2946 52.4567L39.2043 48.2477L44.14 44.9496L46.0476 45.6335L42.2946 52.4567Z" fill="white"/>
<path d="M38.833 47.89C38.7933 47.6631 38.6627 47.4622 38.4713 47.3338L32.4456 43.3073C32.2538 43.179 32.0174 43.1351 31.7921 43.1851C31.7575 43.1927 31.7235 43.2026 31.6902 43.2146L28.4489 44.3765C28.2159 44.46 28.0313 44.6414 27.9437 44.8729C27.8561 45.1044 27.8742 45.3626 27.9936 45.5796L32.8624 54.432C33.0015 54.6849 33.26 54.8492 33.548 54.8682C33.5663 54.8694 33.5848 54.8699 33.6031 54.8699C33.8711 54.8699 34.1245 54.7426 34.2846 54.5247L36.634 51.325C36.6359 51.3226 36.6377 51.3199 36.6396 51.3173L38.6817 48.5359C38.818 48.3502 38.8727 48.117 38.833 47.89ZM35.2713 50.324C35.2693 50.3268 35.2673 50.3295 35.2652 50.3322L33.7054 52.4568L29.9525 45.6334L31.8601 44.9496L36.7957 48.2478L35.2713 50.324Z" fill="white"/>
<path d="M62.9583 59.3042L61.8678 52.719C61.5241 50.6437 60.0818 48.9098 58.1037 48.1943L47.5535 44.3773C47.2282 44.2598 46.8646 44.352 46.6348 44.61C46.4049 44.8681 46.3552 45.2401 46.5095 45.5496L48.7122 49.967L46.5508 50.0003C46.2573 50.0049 45.9871 50.1611 45.8372 50.4135C45.6872 50.6658 45.6788 50.9777 45.8149 51.2378L46.7015 52.9305L37.6289 61.23C37.6196 61.2385 37.6105 61.2471 37.6016 61.256L37.4143 61.4433C37.149 61.7087 37.0903 62.1173 37.2705 62.4466L37.2771 62.4586C37.4255 62.7296 37.7098 62.8983 38.0188 62.8983H59.9106C60.82 62.8983 61.6788 62.5005 62.2668 61.807C62.8549 61.1134 63.107 60.2011 62.9583 59.3042ZM60.9776 60.7135C60.7111 61.0276 60.3223 61.2077 59.9107 61.2077H40.1581L48.3232 53.7385C48.6064 53.4796 48.6797 53.0625 48.5016 52.7226L47.95 51.6695L50.0814 51.6367C50.372 51.6323 50.6396 51.4789 50.7907 51.2308C50.9416 50.9824 50.9546 50.6742 50.825 50.4142L48.9659 46.686L57.529 49.784C58.9328 50.2918 59.9564 51.5223 60.2002 52.995L61.2907 59.5803C61.2907 59.5804 61.2907 59.5804 61.2907 59.5804C61.3579 59.9866 61.2439 60.3994 60.9776 60.7135Z" fill="white"/>
<path d="M38.5858 61.4263L38.576 61.4175C38.2414 61.1145 37.7275 61.128 37.4092 61.4481L37.4004 61.457C37.1597 61.6992 37.0883 62.0625 37.2193 62.3777C37.3505 62.693 37.6585 62.8984 37.9999 62.8984H38.0185C38.368 62.8984 38.6815 62.6832 38.8071 62.3571C38.933 62.0308 38.845 61.6609 38.5858 61.4263Z" fill="white"/>
<path d="M38.5594 61.4019C38.3675 61.2292 38.1072 61.1535 37.8523 61.197C37.5977 61.24 37.3768 61.3974 37.2526 61.6237L37.2468 61.6344C37.0685 61.9593 37.1227 62.3624 37.3805 62.6288L37.3835 62.6319C37.5491 62.8031 37.7698 62.8894 37.9911 62.8894C38.1947 62.8894 38.3989 62.8162 38.5606 62.6684L38.5695 62.6604C38.6463 62.5905 38.7096 62.5067 38.756 62.4138C38.9263 62.0736 38.8421 61.6562 38.5594 61.4019Z" fill="white"/>
<path d="M38.5957 61.4537L38.5922 61.45C38.59 61.4478 38.5876 61.4455 38.5855 61.4433L38.398 61.256C38.3892 61.2471 38.3801 61.2384 38.3709 61.2301L29.2983 52.9306L30.185 51.2379C30.3212 50.978 30.3127 50.6659 30.1628 50.4136C30.0128 50.1613 29.7427 50.005 29.4492 50.0004L27.2876 49.9671L29.4903 45.5497C29.6446 45.2403 29.5948 44.8682 29.365 44.6101C29.1353 44.352 28.7712 44.2597 28.4463 44.3774L17.8962 48.1945C15.918 48.9098 14.4757 50.6437 14.132 52.7191L13.0415 59.3043C12.8929 60.2016 13.1451 61.1137 13.7332 61.8072C14.3214 62.5006 15.1802 62.8984 16.0894 62.8984H37.9998C38.3422 62.8984 38.6507 62.6918 38.7812 62.3754C38.9117 62.059 38.8385 61.695 38.5957 61.4537ZM16.0895 61.2078C15.6778 61.2078 15.2889 61.0277 15.0227 60.7136C14.7565 60.3997 14.6425 59.9867 14.7096 59.5804L15.8002 52.9951C16.044 51.5222 17.0676 50.2919 18.4714 49.7841L27.0344 46.6861L25.1754 50.4141C25.0457 50.6741 25.0586 50.9823 25.2097 51.2307C25.3605 51.4789 25.6284 51.6322 25.9189 51.6366L28.0504 51.6696L27.4988 52.7226C27.3208 53.0624 27.394 53.4796 27.6771 53.7385L35.8422 61.2078H16.0895Z" fill="white"/>
<path d="M40.8775 51.0428C40.9385 50.7986 40.8876 50.5401 40.7387 50.3373L38.6815 47.5356C38.4653 47.2411 38.084 47.124 37.7369 47.2379C37.5495 47.2993 37.3951 47.4233 37.2924 47.5818L35.2728 50.3222C35.2439 50.3612 35.2182 50.4032 35.1964 50.4468C35.058 50.7236 35.082 51.0539 35.2587 51.3079L36.1188 52.543L35.2026 58.3181C35.1732 58.5035 35.2064 58.6934 35.2968 58.8579L37.2595 62.4264C37.408 62.6966 37.692 62.8644 38.0002 62.8644C38.3085 62.8644 38.5924 62.6966 38.7409 62.4264L40.7183 58.8315C40.7869 58.7067 40.8229 58.5665 40.8229 58.4241V58.4237C40.8229 58.3793 40.8193 58.335 40.8124 58.2911L39.9004 52.5431L40.7512 51.3216C40.8096 51.237 40.8527 51.1424 40.8775 51.0428ZM38.0002 60.265L36.9177 58.2969L37.8419 52.4718C37.8762 52.256 37.8255 52.0355 37.7007 51.8563L36.9923 50.8389L38.0027 49.468L39.0183 50.8512L38.3184 51.8563C38.1936 52.0354 38.143 52.256 38.1772 52.4718L39.0972 58.2703L38.0002 60.265Z" fill="white"/>
</g>
<defs>
<clipPath id="clip0">
<rect width="50" height="50" fill="white" transform="translate(13 13)"/>
</clipPath>
</defs>
</svg>
